<svg xmlns="http://www.w3.org/2000/svg" xmlns:xlink="http://www.w3.org/1999/xlink" width="230" height="230" viewBox="0 0 230 230"><path fill="#379137" d="M-5-4.7h240v240H-5z"/><linearGradient id="a" gradientUnits="userSpaceOnUse" x1="192" y1="73.4" x2="192" y2="67.6"><stop offset="0" stop-color="#379137"/><stop offset=".3" stop-color="#1E7F34"/><stop offset=".7" stop-color="#086F32"/><stop offset="1" stop-color="#006931"/></linearGradient><path fill="url(#a)" d="M184.8 73.4s1-.2 3.3-2.5c2.5-2.5 3.2-3.3 3.8-3.3.7-.3 1.8 0 2.6 1 1 .7 3.5 3.4 3.8 3.7l1 1h-14.4z"/><defs><path id="b" d="M184.8 73.4s1-.2 3.3-2.5c2.5-2.5 3.2-3.3 3.8-3.3.7-.3 1.8 0 2.6 1 1 .7 3.5 3.4 3.8 3.7l1 1h-14.4z"/></defs><clipPath id="c"><use xlink:href="#b" overflow="visible"/></clipPath><linearGradient id="d" gradientUnits="userSpaceOnUse" x1="186.9" y1="74.6" x2="190.9" y2="67.7"><stop offset="0" stop-color="#379137"/><stop offset=".3" stop-color="#1E7F34"/><stop offset=".7" stop-color="#086F32"/><stop offset="1" stop-color="#006931"/></linearGradient><path clip-path="url(#c)" fill="url(#d)" d="M191.2 68s2.8.6.3 3.2c-.4.4-2.4 2-6.7 2.2l6.4-5.5z"/><linearGradient id="e" gradientUnits="userSpaceOnUse" x1="167.1" y1="112.8" x2="167.1" y2="107"><stop offset="0" stop-color="#379137"/><stop offset=".3" stop-color="#1E7F34"/><stop offset=".7" stop-color="#086F32"/><stop offset="1" stop-color="#006931"/></linearGradient><path fill="url(#e)" d="M160 112.8s1 0 3.2-2.4 3.2-3.2 3.7-3.3c.6 0 1.7.2 2.5 1l3.8 4 1 .8H160z"/><defs><path id="f" d="M160 112.8s1 0 3.2-2.4 3.2-3.2 3.7-3.3c.6 0 1.7.2 2.5 1l3.8 4 1 .8H160z"/></defs><clipPath id="g"><use xlink:href="#f" overflow="visible"/></clipPath><linearGradient id="h" gradientUnits="userSpaceOnUse" x1="162" y1="114.1" x2="166" y2="107.2"><stop offset="0" stop-color="#379137"/><stop offset=".3" stop-color="#1E7F34"/><stop offset=".7" stop-color="#086F32"/><stop offset="1" stop-color="#006931"/></linearGradient><path clip-path="url(#g)" fill="url(#h)" d="M166.3 107.4s3 .7.3 3.3c-.4.4-2.4 2-6.7 2l6.3-5.3z"/><linearGradient id="i" gradientUnits="userSpaceOnUse" x1="180.2" y1="63.8" x2="180.2" y2="58"><stop offset="0" stop-color="#379137"/><stop offset=".3" stop-color="#1E7F34"/><stop offset=".7" stop-color="#086F32"/><stop offset="1" stop-color="#006931"/></linearGradient><path fill="url(#i)" d="M173 63.8s1 0 3.3-2.5c2.3-2.3 3-3 3.7-3.2.6-.2 1.8 0 2.6 1s3.5 3.6 3.8 4l1 .8H173z"/><defs><path id="j" d="M173 63.8s1 0 3.3-2.5c2.3-2.3 3-3 3.7-3.2.6-.2 1.8 0 2.6 1s3.5 3.6 3.8 4l1 .8H173z"/></defs><clipPath id="k"><use xlink:href="#j" overflow="visible"/></clipPath><linearGradient id="l" gradientUnits="userSpaceOnUse" x1="175.1" y1="65" x2="179.1" y2="58.1"><stop offset="0" stop-color="#379137"/><stop offset=".3" stop-color="#1E7F34"/><stop offset=".7" stop-color="#086F32"/><stop offset="1" stop-color="#006931"/></linearGradient><path clip-path="url(#k)" fill="url(#l)" d="M179.4 58.4s2.8.6.3 3.3c-.4.4-2.4 2-6.7 2l6.4-5.3z"/><linearGradient id="m" gradientUnits="userSpaceOnUse" x1="168.6" y1="63.8" x2="168.6" y2="54"><stop offset="0" stop-color="#379137"/><stop offset=".3" stop-color="#1E7F34"/><stop offset=".7" stop-color="#086F32"/><stop offset="1" stop-color="#006931"/></linearGradient><path fill="url(#m)" d="M156.3 63.8s1.6-.2 5.7-4.2 5.3-5.4 6.2-5.5c1.2-.4 3 .2 4.5 1.7l6.4 6.5 1.8 1.6h-24.5z"/><defs><path id="n" d="M156.3 63.8s1.6-.2 5.7-4.2 5.3-5.4 6.2-5.5c1.2-.4 3 .2 4.5 1.7l6.4 6.5 1.8 1.6h-24.5z"/></defs><clipPath id="o"><use xlink:href="#n" overflow="visible"/></clipPath><linearGradient id="p" gradientUnits="userSpaceOnUse" x1="160" y1="65.9" x2="166.7" y2="54.1"><stop offset="0" stop-color="#379137"/><stop offset=".3" stop-color="#1E7F34"/><stop offset=".7" stop-color="#086F32"/><stop offset="1" stop-color="#006931"/></linearGradient><path clip-path="url(#o)" fill="url(#p)" d="M167.2 54.6s5 1 .5 5.6c-.6.6-4 3.5-11.4 3.6l11-9.2z"/><linearGradient id="q" gradientUnits="userSpaceOnUse" x1="169.1" y1="96.5" x2="169.1" y2="93.3"><stop offset="0" stop-color="#379137"/><stop offset=".3" stop-color="#1E7F34"/><stop offset=".7" stop-color="#086F32"/><stop offset="1" stop-color="#006931"/></linearGradient><path fill="url(#q)" d="M165.2 96.5s.5 0 1.8-1.4 1.7-1.6 2-1.6c.4-.2 1 0 1.5.5.4.3 2 1.8 2 2l.6.5h-7.8z"/><defs><path id="r" d="M165.2 96.5s.5 0 1.8-1.4 1.7-1.6 2-1.6c.4-.2 1 0 1.5.5.4.3 2 1.8 2 2l.6.5h-7.8z"/></defs><clipPath id="s"><use xlink:href="#r" overflow="visible"/></clipPath><linearGradient id="t" gradientUnits="userSpaceOnUse" x1="166.4" y1="97.2" x2="168.5" y2="93.4"><stop offset="0" stop-color="#379137"/><stop offset=".3" stop-color="#1E7F34"/><stop offset=".7" stop-color="#086F32"/><stop offset="1" stop-color="#006931"/></linearGradient><path clip-path="url(#s)" fill="url(#t)" d="M168.7 93.5s1.6.4.2 1.8c-.4.2-1.5 1.2-3.8 1.2l3.5-3z"/><linearGradient id="u" gradientUnits="userSpaceOnUse" x1="162.8" y1="96.5" x2="162.8" y2="91.1"><stop offset="0" stop-color="#379137"/><stop offset=".3" stop-color="#1E7F34"/><stop offset=".7" stop-color="#086F32"/><stop offset="1" stop-color="#006931"/></linearGradient><path fill="url(#u)" d="M156 96.5s1 0 3-2.3c2.3-2.2 3-3 3.6-3 .6-.3 1.7 0 2.4.8l3.6 3.6 1 1H156z"/><defs><path id="v" d="M156 96.5s1 0 3-2.3c2.3-2.2 3-3 3.6-3 .6-.3 1.7 0 2.4.8l3.6 3.6 1 1H156z"/></defs><clipPath id="w"><use xlink:href="#v" overflow="visible"/></clipPath><linearGradient id="x" gradientUnits="userSpaceOnUse" x1="158" y1="97.6" x2="161.8" y2="91.2"><stop offset="0" stop-color="#379137"/><stop offset=".3" stop-color="#1E7F34"/><stop offset=".7" stop-color="#086F32"/><stop offset="1" stop-color="#006931"/></linearGradient><path clip-path="url(#w)" fill="url(#x)" d="M162 91.4s2.7.6.3 3c-.4.5-2.3 2-6.3 2l6-5z"/><g><linearGradient id="y" gradientUnits="userSpaceOnUse" x1="136.3" y1="154.2" x2="136.3" y2="148.4"><stop offset="0" stop-color="#379137"/><stop offset=".3" stop-color="#1E7F34"/><stop offset=".7" stop-color="#086F32"/><stop offset="1" stop-color="#006931"/></linearGradient><path fill="url(#y)" d="M129 154.2s1 0 3.4-2.4 3.2-3.2 3.7-3.3c.8-.2 2 0 2.7 1 1 .8 3.5 3.5 3.8 3.8l1 1H129z"/><defs><path id="z" d="M129 154.2s1 0 3.4-2.4 3.2-3.2 3.7-3.3c.8-.2 2 0 2.7 1 1 .8 3.5 3.5 3.8 3.8l1 1H129z"/></defs><clipPath id="A"><use xlink:href="#z" overflow="visible"/></clipPath><linearGradient id="B" gradientUnits="userSpaceOnUse" x1="131.3" y1="155.5" x2="135.2" y2="148.5"><stop offset="0" stop-color="#379137"/><stop offset=".3" stop-color="#1E7F34"/><stop offset=".7" stop-color="#086F32"/><stop offset="1" stop-color="#006931"/></linearGradient><path clip-path="url(#A)" fill="url(#B)" d="M135.5 148.8s3 .7.3 3.3c-.4.5-2.4 2.2-6.7 2.2l6.5-5.4z"/><linearGradient id="C" gradientUnits="userSpaceOnUse" x1="124.7" y1="154.2" x2="124.7" y2="144.4"><stop offset="0" stop-color="#379137"/><stop offset=".3" stop-color="#1E7F34"/><stop offset=".7" stop-color="#086F32"/><stop offset="1" stop-color="#006931"/></linearGradient><path fill="url(#C)" d="M112.5 154.2s1.6-.2 5.6-4.2 5.5-5.4 6.4-5.4c1-.5 3 0 4.4 1.5l6.5 6.6 1.6 1.6h-24.5z"/><defs><path id="D" d="M112.5 154.2s1.6-.2 5.6-4.2 5.5-5.4 6.4-5.4c1-.5 3 0 4.4 1.5l6.5 6.6 1.6 1.6h-24.5z"/></defs><clipPath id="E"><use xlink:href="#D" overflow="visible"/></clipPath><linearGradient id="F" gradientUnits="userSpaceOnUse" x1="116.1" y1="156.3" x2="122.9" y2="144.6"><stop offset="0" stop-color="#379137"/><stop offset=".3" stop-color="#1E7F34"/><stop offset=".7" stop-color="#086F32"/><stop offset="1" stop-color="#006931"/></linearGradient><path clip-path="url(#E)" fill="url(#F)" d="M123.3 145s5 1 .6 5.6c-.8.7-4.2 3.5-11.5 3.6l10.8-9.2z"/></g><g><linearGradient id="G" gradientUnits="userSpaceOnUse" x1="153.3" y1="129" x2="153.3" y2="125.1"><stop offset="0" stop-color="#379137"/><stop offset=".3" stop-color="#1E7F34"/><stop offset=".7" stop-color="#086F32"/><stop offset="1" stop-color="#006931"/></linearGradient><path fill="url(#G)" d="M148.5 129s.6 0 2.2-1.7c1.5-1.5 2-2 2.4-2 .6-.3 1.3 0 1.8.5l2.5 2.5.7.7h-9.5z"/><defs><path id="H" d="M148.5 129s.6 0 2.2-1.7c1.5-1.5 2-2 2.4-2 .6-.3 1.3 0 1.8.5l2.5 2.5.7.7h-9.5z"/></defs><clipPath id="I"><use xlink:href="#H" overflow="visible"/></clipPath><linearGradient id="J" gradientUnits="userSpaceOnUse" x1="149.9" y1="129.8" x2="152.5" y2="125.2"><stop offset="0" stop-color="#379137"/><stop offset=".3" stop-color="#1E7F34"/><stop offset=".7" stop-color="#086F32"/><stop offset="1" stop-color="#006931"/></linearGradient><path clip-path="url(#I)" fill="url(#J)" d="M152.7 125.4s2 .4.2 2.2c-.3.2-1.7 1.3-4.5 1.4l4.2-3.6z"/><linearGradient id="K" gradientUnits="userSpaceOnUse" x1="145.6" y1="129" x2="145.6" y2="122.5"><stop offset="0" stop-color="#379137"/><stop offset=".3" stop-color="#1E7F34"/><stop offset=".7" stop-color="#086F32"/><stop offset="1" stop-color="#006931"/></linearGradient><path fill="url(#K)" d="M137.5 129s1-.2 3.7-2.8 3.6-3.6 4.2-3.6c.7-.3 2 0 3 1l4.2 4.3 1 1h-16z"/><defs><path id="L" d="M137.5 129s1-.2 3.7-2.8 3.6-3.6 4.2-3.6c.7-.3 2 0 3 1l4.2 4.3 1 1h-16z"/></defs><clipPath id="M"><use xlink:href="#L" overflow="visible"/></clipPath><linearGradient id="N" gradientUnits="userSpaceOnUse" x1="139.9" y1="130.3" x2="144.4" y2="122.6"><stop offset="0" stop-color="#379137"/><stop offset=".3" stop-color="#1E7F34"/><stop offset=".7" stop-color="#086F32"/><stop offset="1" stop-color="#006931"/></linearGradient><path clip-path="url(#M)" fill="url(#N)" d="M144.7 123s3.2.6.3 3.6c-.4.4-2.7 2.3-7.5 2.4l7.2-6z"/></g><g><linearGradient id="O" gradientUnits="userSpaceOnUse" x1="171.1" y1="116.6" x2="171.1" y2="112.4"><stop offset="0" stop-color="#379137"/><stop offset=".3" stop-color="#1E7F34"/><stop offset=".7" stop-color="#086F32"/><stop offset="1" stop-color="#006931"/></linearGradient><path fill="url(#O)" d="M166 116.6s.6 0 2.3-1.8c1.7-1.7 2.2-2.3 2.6-2.3.4-.2 1.2 0 1.8.7l2.7 2.7.7.6H166z"/><defs><path id="P" d="M166 116.6s.6 0 2.3-1.8c1.7-1.7 2.2-2.3 2.6-2.3.4-.2 1.2 0 1.8.7l2.7 2.7.7.6H166z"/></defs><clipPath id="Q"><use xlink:href="#P" overflow="visible"/></clipPath><linearGradient id="R" gradientUnits="userSpaceOnUse" x1="167.5" y1="117.4" x2="170.3" y2="112.5"><stop offset="0" stop-color="#379137"/><stop offset=".3" stop-color="#1E7F34"/><stop offset=".7" stop-color="#086F32"/><stop offset="1" stop-color="#006931"/></linearGradient><path clip-path="url(#Q)" fill="url(#R)" d="M170.5 112.7s2 .5.2 2.3c-.3.3-1.7 1.5-4.7 1.6l4.5-4z"/></g><g><linearGradient id="S" gradientUnits="userSpaceOnUse" x1="127.5" y1="137.1" x2="127.5" y2="131.3"><stop offset="0" stop-color="#379137"/><stop offset=".3" stop-color="#1E7F34"/><stop offset=".7" stop-color="#086F32"/><stop offset="1" stop-color="#006931"/></linearGradient><path fill="url(#S)" d="M120.3 137s1 0 3.3-2.4 3.2-3 3.7-3.2c.7-.3 1.8 0 2.6 1l3.7 3.8 1 1h-14.4z"/><defs><path id="T" d="M120.3 137s1 0 3.3-2.4 3.2-3 3.7-3.2c.7-.3 1.8 0 2.6 1l3.7 3.8 1 1h-14.4z"/></defs><clipPath id="U"><use xlink:href="#T" overflow="visible"/></clipPath><linearGradient id="V" gradientUnits="userSpaceOnUse" x1="122.5" y1="138.3" x2="126.4" y2="131.4"><stop offset="0" stop-color="#379137"/><stop offset=".3" stop-color="#1E7F34"/><stop offset=".7" stop-color="#086F32"/><stop offset="1" stop-color="#006931"/></linearGradient><path clip-path="url(#U)" fill="url(#V)" d="M126.7 131.7s3 .7.3 3.3c-.4.4-2.4 2-6.7 2l6.4-5.3z"/></g><g><linearGradient id="W" gradientUnits="userSpaceOnUse" x1="131.5" y1="140.8" x2="131.5" y2="136.7"><stop offset="0" stop-color="#379137"/><stop offset=".3" stop-color="#1E7F34"/><stop offset=".7" stop-color="#086F32"/><stop offset="1" stop-color="#006931"/></linearGradient><path fill="url(#W)" d="M126.4 140.8s.6 0 2.3-1.7c1.7-1.6 2.2-2.2 2.6-2.2.5-.2 1.3 0 2 .7l2.6 2.7.6.6h-10.2z"/><defs><path id="X" d="M126.4 140.8s.6 0 2.3-1.7c1.7-1.6 2.2-2.2 2.6-2.2.5-.2 1.3 0 2 .7l2.6 2.7.6.6h-10.2z"/></defs><clipPath id="Y"><use xlink:href="#X" overflow="visible"/></clipPath><linearGradient id="Z" gradientUnits="userSpaceOnUse" x1="127.9" y1="141.7" x2="130.7" y2="136.8"><stop offset="0" stop-color="#379137"/><stop offset=".3" stop-color="#1E7F34"/><stop offset=".7" stop-color="#086F32"/><stop offset="1" stop-color="#006931"/></linearGradient><path clip-path="url(#Y)" fill="url(#Z)" d="M131 137s2 .5 0 2.3c-.2.3-1.6 1.5-4.6 1.5l4.5-3.8z"/></g><g><linearGradient id="aa" gradientUnits="userSpaceOnUse" x1="35.3" y1="99.9" x2="35.3" y2="94.1"><stop offset="0" stop-color="#379137"/><stop offset=".3" stop-color="#1E7F34"/><stop offset=".7" stop-color="#086F32"/><stop offset="1" stop-color="#006931"/></linearGradient><path fill="url(#aa)" d="M28 100s1-.2 3.4-2.6c2.3-2.3 3-3 3.7-3.2.7-.3 2 0 2.7 1l3.8 3.8 1 1H28z"/><defs><path id="ab" d="M28 100s1-.2 3.4-2.6c2.3-2.3 3-3 3.7-3.2.7-.3 2 0 2.7 1l3.8 3.8 1 1H28z"/></defs><clipPath id="ac"><use xlink:href="#ab" overflow="visible"/></clipPath><linearGradient id="ad" gradientUnits="userSpaceOnUse" x1="30.2" y1="101.1" x2="34.2" y2="94.2"><stop offset="0" stop-color="#379137"/><stop offset=".3" stop-color="#1E7F34"/><stop offset=".7" stop-color="#086F32"/><stop offset="1" stop-color="#006931"/></linearGradient><path clip-path="url(#ac)" fill="url(#ad)" d="M34.5 94.5s2.8.6.3 3.3c-.4.4-2.4 2-6.7 2l6.5-5.3z"/></g><g><linearGradient id="ae" gradientUnits="userSpaceOnUse" x1="82.2" y1="130.8" x2="82.2" y2="125"><stop offset="0" stop-color="#379137"/><stop offset=".3" stop-color="#1E7F34"/><stop offset=".7" stop-color="#086F32"/><stop offset="1" stop-color="#006931"/></linearGradient><path fill="url(#ae)" d="M75 130.8s1 0 3.3-2.5c2.4-2.4 3.2-3.2 3.7-3.2.7-.2 1.8 0 2.6 1 1 .8 3.5 3.5 3.8 3.8l1 1H75z"/><defs><path id="af" d="M75 130.8s1 0 3.3-2.5c2.4-2.4 3.2-3.2 3.7-3.2.7-.2 1.8 0 2.6 1 1 .8 3.5 3.5 3.8 3.8l1 1H75z"/></defs><clipPath id="ag"><use xlink:href="#af" overflow="visible"/></clipPath><linearGradient id="ah" gradientUnits="userSpaceOnUse" x1="77.1" y1="132" x2="81.1" y2="125.1"><stop offset="0" stop-color="#379137"/><stop offset=".3" stop-color="#1E7F34"/><stop offset=".7" stop-color="#086F32"/><stop offset="1" stop-color="#006931"/></linearGradient><path clip-path="url(#ag)" fill="url(#ah)" d="M81.4 125.4s3 .6.3 3.2c-.4.4-2.4 2-6.7 2.2l6.4-5.4z"/></g><g><linearGradient id="ai" gradientUnits="userSpaceOnUse" x1="45.5" y1="102.8" x2="45.5" y2="98.7"><stop offset="0" stop-color="#379137"/><stop offset=".3" stop-color="#1E7F34"/><stop offset=".7" stop-color="#086F32"/><stop offset="1" stop-color="#006931"/></linearGradient><path fill="url(#ai)" d="M40.4 102.8s.7 0 2.4-1.7c1.6-1.6 2.2-2.2 2.6-2.2.4-.2 1.2 0 1.8.6L50 102l.6.8H40.4z"/><defs><path id="aj" d="M40.4 102.8s.7 0 2.4-1.7c1.6-1.6 2.2-2.2 2.6-2.2.4-.2 1.2 0 1.8.6L50 102l.6.8H40.4z"/></defs><clipPath id="ak"><use xlink:href="#aj" overflow="visible"/></clipPath><linearGradient id="al" gradientUnits="userSpaceOnUse" x1="41.9" y1="103.7" x2="44.7" y2="98.8"><stop offset="0" stop-color="#379137"/><stop offset=".3" stop-color="#1E7F34"/><stop offset=".7" stop-color="#086F32"/><stop offset="1" stop-color="#006931"/></linearGradient><path clip-path="url(#ak)" fill="url(#al)" d="M45 99s2 .4.2 2.3c-.3.3-1.8 1.5-4.8 1.5L45 99z"/></g><g><linearGradient id="am" gradientUnits="userSpaceOnUse" x1="86.3" y1="136.5" x2="86.3" y2="131.6"><stop offset="0" stop-color="#379137"/><stop offset=".3" stop-color="#1E7F34"/><stop offset=".7" stop-color="#086F32"/><stop offset="1" stop-color="#006931"/></linearGradient><path fill="url(#am)" d="M80.2 136.5s.8 0 2.8-2c2-2 2.7-2.8 3.2-2.8.5-.2 1.5 0 2.2.8l3.2 3.2.8.8H80.2z"/><defs><path id="an" d="M80.2 136.5s.8 0 2.8-2c2-2 2.7-2.8 3.2-2.8.5-.2 1.5 0 2.2.8l3.2 3.2.8.8H80.2z"/></defs><clipPath id="ao"><use xlink:href="#an" overflow="visible"/></clipPath><linearGradient id="ap" gradientUnits="userSpaceOnUse" x1="82" y1="137.6" x2="85.4" y2="131.7"><stop offset="0" stop-color="#379137"/><stop offset=".3" stop-color="#1E7F34"/><stop offset=".7" stop-color="#086F32"/><stop offset="1" stop-color="#006931"/></linearGradient><path clip-path="url(#ao)" fill="url(#ap)" d="M85.6 132s2.5.5.3 2.7c-.4.4-2 1.8-5.8 1.8l5.4-4.6z"/></g><g><linearGradient id="aq" gradientUnits="userSpaceOnUse" x1="36.4" y1="170.2" x2="36.4" y2="166.1"><stop offset="0" stop-color="#379137"/><stop offset=".3" stop-color="#1E7F34"/><stop offset=".7" stop-color="#086F32"/><stop offset="1" stop-color="#006931"/></linearGradient><path fill="url(#aq)" d="M31.3 170.2s.7 0 2.4-1.7c1.6-1.7 2.2-2.3 2.6-2.3.4-.2 1.2 0 1.8.6l2.8 2.7.7.7H31.3z"/><defs><path id="ar" d="M31.3 170.2s.7 0 2.4-1.7c1.6-1.7 2.2-2.3 2.6-2.3.4-.2 1.2 0 1.8.6l2.8 2.7.7.7H31.3z"/></defs><clipPath id="as"><use xlink:href="#ar" overflow="visible"/></clipPath><linearGradient id="at" gradientUnits="userSpaceOnUse" x1="32.8" y1="171.1" x2="35.6" y2="166.2"><stop offset="0" stop-color="#379137"/><stop offset=".3" stop-color="#1E7F34"/><stop offset=".7" stop-color="#086F32"/><stop offset="1" stop-color="#006931"/></linearGradient><path clip-path="url(#as)" fill="url(#at)" d="M35.8 166.4s2 .4.3 2.3c-.2.3-1.6 1.5-4.7 1.5l4.5-3.8z"/></g><g><linearGradient id="au" gradientUnits="userSpaceOnUse" x1="125.6" y1="165.7" x2="125.6" y2="161.6"><stop offset="0" stop-color="#379137"/><stop offset=".3" stop-color="#1E7F34"/><stop offset=".7" stop-color="#086F32"/><stop offset="1" stop-color="#006931"/></linearGradient><path fill="url(#au)" d="M120.5 165.7s.6 0 2.3-1.8c1.7-1.8 2.2-2.3 2.6-2.4.5-.2 1.3 0 2 .7l2.6 2.7.7.7h-10.2z"/><defs><path id="av" d="M120.5 165.7s.6 0 2.3-1.8c1.7-1.8 2.2-2.3 2.6-2.4.5-.2 1.3 0 2 .7l2.6 2.7.7.7h-10.2z"/></defs><clipPath id="aw"><use xlink:href="#av" overflow="visible"/></clipPath><linearGradient id="ax" gradientUnits="userSpaceOnUse" x1="122" y1="166.5" x2="124.8" y2="161.6"><stop offset="0" stop-color="#379137"/><stop offset=".3" stop-color="#1E7F34"/><stop offset=".7" stop-color="#086F32"/><stop offset="1" stop-color="#006931"/></linearGradient><path clip-path="url(#aw)" fill="url(#ax)" d="M125 161.8s2 .5.2 2.4c-.3.2-1.7 1.4-4.8 1.5l4.6-4z"/></g></svg>