<svg xmlns="http://www.w3.org/2000/svg" xmlns:xlink="http://www.w3.org/1999/xlink" width="270" height="270" viewBox="0 0 270 270"><path fill="#53BC53" d="M-6.6-7h280v280h-280z"/><linearGradient id="a" gradientUnits="userSpaceOnUse" x1="107.7" y1="107.8" x2="107.7" y2="102.6"><stop offset="0" stop-color="#53BC53"/><stop offset=".2" stop-color="#3EA74A"/><stop offset=".5" stop-color="#1C853D"/><stop offset=".8" stop-color="#087134"/><stop offset="1" stop-color="#006931"/></linearGradient><path fill="url(#a)" d="M101.3 107.8s1 0 3-2.2 2.8-3 3.3-3c.6-.2 1.6 0 2.3 1l3.3 3.3.8.8h-12.7z"/><defs><path id="b" d="M101.3 107.8s1 0 3-2.2 2.8-3 3.3-3c.6-.2 1.6 0 2.3 1l3.3 3.3.8.8h-12.7z"/></defs><clipPath id="c"><use xlink:href="#b" overflow="visible"/></clipPath><linearGradient id="d" gradientUnits="userSpaceOnUse" x1="103.3" y1="108.9" x2="106.8" y2="102.7"><stop offset="0" stop-color="#53BC53"/><stop offset=".2" stop-color="#3BA449"/><stop offset=".5" stop-color="#1B843C"/><stop offset=".8" stop-color="#077034"/><stop offset="1" stop-color="#006931"/></linearGradient><path clip-path="url(#c)" fill="url(#d)" d="M107 103s2.6.5.3 3c-.3.2-2 1.7-6 1.8l5.8-5z"/><linearGradient id="e" gradientUnits="userSpaceOnUse" x1="30.4" y1="165.8" x2="30.4" y2="160.1"><stop offset="0" stop-color="#53BC53"/><stop offset=".2" stop-color="#3EA74A"/><stop offset=".5" stop-color="#1C853D"/><stop offset=".8" stop-color="#087134"/><stop offset="1" stop-color="#006931"/></linearGradient><path fill="url(#e)" d="M23.4 165.8s1 0 3.2-2.4 3-3.2 3.7-3.2c.6-.3 1.7 0 2.5 1 1 .7 3.5 3.4 3.8 3.7l1 .8H23.3z"/><defs><path id="f" d="M23.4 165.8s1 0 3.2-2.4 3-3.2 3.7-3.2c.6-.3 1.7 0 2.5 1 1 .7 3.5 3.4 3.8 3.7l1 .8H23.3z"/></defs><clipPath id="g"><use xlink:href="#f" overflow="visible"/></clipPath><linearGradient id="h" gradientUnits="userSpaceOnUse" x1="25.5" y1="167" x2="29.4" y2="160.2"><stop offset="0" stop-color="#53BC53"/><stop offset=".2" stop-color="#3BA449"/><stop offset=".5" stop-color="#1B843C"/><stop offset=".8" stop-color="#077034"/><stop offset="1" stop-color="#006931"/></linearGradient><path clip-path="url(#g)" fill="url(#h)" d="M29.7 160.5s2.8.6.3 3.2c-.4.4-2.4 2-6.6 2l6.3-5.2z"/><linearGradient id="i" gradientUnits="userSpaceOnUse" x1="27.2" y1="179.1" x2="27.2" y2="172.5"><stop offset="0" stop-color="#53BC53"/><stop offset=".2" stop-color="#3EA74A"/><stop offset=".5" stop-color="#1C853D"/><stop offset=".8" stop-color="#087134"/><stop offset="1" stop-color="#006931"/></linearGradient><path fill="url(#i)" d="M19 179s1 0 3.8-2.7c2.7-2.7 3.6-3.6 4.3-3.7.8-.3 2 0 3 1l4.4 4.5 1 1H19z"/><defs><path id="j" d="M19 179s1 0 3.8-2.7c2.7-2.7 3.6-3.6 4.3-3.7.8-.3 2 0 3 1l4.4 4.5 1 1H19z"/></defs><clipPath id="k"><use xlink:href="#j" overflow="visible"/></clipPath><linearGradient id="l" gradientUnits="userSpaceOnUse" x1="21.5" y1="180.5" x2="26.1" y2="172.6"><stop offset="0" stop-color="#53BC53"/><stop offset=".2" stop-color="#3BA449"/><stop offset=".5" stop-color="#1B843C"/><stop offset=".8" stop-color="#077034"/><stop offset="1" stop-color="#006931"/></linearGradient><path clip-path="url(#k)" fill="url(#l)" d="M26.4 173s3.3.7.3 3.7c-.4.4-2.7 2.4-7.7 2.4l7.4-6z"/><linearGradient id="m" gradientUnits="userSpaceOnUse" x1="39.4" y1="196.5" x2="39.4" y2="189.9"><stop offset="0" stop-color="#53BC53"/><stop offset=".2" stop-color="#3EA74A"/><stop offset=".5" stop-color="#1C853D"/><stop offset=".8" stop-color="#087134"/><stop offset="1" stop-color="#006931"/></linearGradient><path fill="url(#m)" d="M31.2 196.5s1 0 3.8-2.8c2.7-2.7 3.6-3.7 4.3-3.7.7-.4 2 0 3 1l4.3 4.4 1 1H31.2z"/><defs><path id="n" d="M31.2 196.5s1 0 3.8-2.8c2.7-2.7 3.6-3.7 4.3-3.7.7-.4 2 0 3 1l4.3 4.4 1 1H31.2z"/></defs><clipPath id="o"><use xlink:href="#n" overflow="visible"/></clipPath><linearGradient id="p" gradientUnits="userSpaceOnUse" x1="33.7" y1="197.9" x2="38.3" y2="190"><stop offset="0" stop-color="#53BC53"/><stop offset=".2" stop-color="#3BA449"/><stop offset=".5" stop-color="#1B843C"/><stop offset=".8" stop-color="#077034"/><stop offset="1" stop-color="#006931"/></linearGradient><path clip-path="url(#o)" fill="url(#p)" d="M38.6 190.3s3.2.7.3 3.8c-.5.5-2.8 2.4-7.8 2.5l7.4-6.2z"/><linearGradient id="q" gradientUnits="userSpaceOnUse" x1="79.6" y1="209.4" x2="79.6" y2="204.7"><stop offset="0" stop-color="#53BC53"/><stop offset=".2" stop-color="#3EA74A"/><stop offset=".5" stop-color="#1C853D"/><stop offset=".8" stop-color="#087134"/><stop offset="1" stop-color="#006931"/></linearGradient><path fill="url(#q)" d="M73.8 209.4s.8 0 2.7-2c2-2 2.5-2.6 3-2.6.5-.2 1.5 0 2 .8.8.6 3 2.8 3.2 3l.7.8H73.8z"/><defs><path id="r" d="M73.8 209.4s.8 0 2.7-2c2-2 2.5-2.6 3-2.6.5-.2 1.5 0 2 .8.8.6 3 2.8 3.2 3l.7.8H73.8z"/></defs><clipPath id="s"><use xlink:href="#r" overflow="visible"/></clipPath><linearGradient id="t" gradientUnits="userSpaceOnUse" x1="75.5" y1="210.4" x2="78.8" y2="204.8"><stop offset="0" stop-color="#53BC53"/><stop offset=".2" stop-color="#3BA449"/><stop offset=".5" stop-color="#1B843C"/><stop offset=".8" stop-color="#077034"/><stop offset="1" stop-color="#006931"/></linearGradient><path clip-path="url(#s)" fill="url(#t)" d="M79 205s2.3.6.2 2.7c-.3.3-2 1.7-5.4 1.7L79 205z"/><linearGradient id="u" gradientUnits="userSpaceOnUse" x1="76" y1="212.8" x2="76" y2="208.1"><stop offset="0" stop-color="#53BC53"/><stop offset=".2" stop-color="#3EA74A"/><stop offset=".5" stop-color="#1C853D"/><stop offset=".8" stop-color="#087134"/><stop offset="1" stop-color="#006931"/></linearGradient><path fill="url(#u)" d="M70.2 212.8s.7 0 2.6-2 2.6-2.6 3-2.7c.6 0 1.5.2 2.2 1l3 3 .8.8H70.2z"/><defs><path id="v" d="M70.2 212.8s.7 0 2.6-2 2.6-2.6 3-2.7c.6 0 1.5.2 2.2 1l3 3 .8.8H70.2z"/></defs><clipPath id="w"><use xlink:href="#v" overflow="visible"/></clipPath><linearGradient id="x" gradientUnits="userSpaceOnUse" x1="71.9" y1="213.8" x2="75.1" y2="208.1"><stop offset="0" stop-color="#53BC53"/><stop offset=".2" stop-color="#3BA449"/><stop offset=".5" stop-color="#1B843C"/><stop offset=".8" stop-color="#077034"/><stop offset="1" stop-color="#006931"/></linearGradient><path clip-path="url(#w)" fill="url(#x)" d="M75.4 208.4s2.3.5.2 2.6c-.3.3-2 1.7-5.4 1.8l5.2-4.4z"/><g><linearGradient id="y" gradientUnits="userSpaceOnUse" x1="87.3" y1="212.8" x2="87.3" y2="206.1"><stop offset="0" stop-color="#53BC53"/><stop offset=".2" stop-color="#3EA74A"/><stop offset=".5" stop-color="#1C853D"/><stop offset=".8" stop-color="#087134"/><stop offset="1" stop-color="#006931"/></linearGradient><path fill="url(#y)" d="M79 212.8s1.2-.2 4-3c2.6-2.6 3.5-3.5 4-3.6 1-.3 2.2 0 3 1 1 1 4.2 4 4.5 4.5l1 1H79z"/><defs><path id="z" d="M79 212.8s1.2-.2 4-3c2.6-2.6 3.5-3.5 4-3.6 1-.3 2.2 0 3 1 1 1 4.2 4 4.5 4.5l1 1H79z"/></defs><clipPath id="A"><use xlink:href="#z" overflow="visible"/></clipPath><linearGradient id="B" gradientUnits="userSpaceOnUse" x1="81.5" y1="214.2" x2="86.1" y2="206.2"><stop offset="0" stop-color="#53BC53"/><stop offset=".2" stop-color="#3BA449"/><stop offset=".5" stop-color="#1B843C"/><stop offset=".8" stop-color="#077034"/><stop offset="1" stop-color="#006931"/></linearGradient><path clip-path="url(#A)" fill="url(#B)" d="M86.4 206.6s3.3.7.4 3.7c-.5.5-2.8 2.4-7.7 2.5l7.4-6.3z"/></g><g><linearGradient id="C" gradientUnits="userSpaceOnUse" x1="137.7" y1="235.6" x2="137.7" y2="230.9"><stop offset="0" stop-color="#53BC53"/><stop offset=".2" stop-color="#3EA74A"/><stop offset=".5" stop-color="#1C853D"/><stop offset=".8" stop-color="#087134"/><stop offset="1" stop-color="#006931"/></linearGradient><path fill="url(#C)" d="M132 235.6s.7 0 2.6-2c2-2 2.5-2.6 3-2.6.5-.3 1.4 0 2 .7.8.7 3 3 3.2 3l.7 1H132z"/><defs><path id="D" d="M132 235.6s.7 0 2.6-2c2-2 2.5-2.6 3-2.6.5-.3 1.4 0 2 .7.8.7 3 3 3.2 3l.7 1H132z"/></defs><clipPath id="E"><use xlink:href="#D" overflow="visible"/></clipPath><linearGradient id="F" gradientUnits="userSpaceOnUse" x1="133.6" y1="236.6" x2="136.9" y2="231"><stop offset="0" stop-color="#53BC53"/><stop offset=".2" stop-color="#3BA449"/><stop offset=".5" stop-color="#1B843C"/><stop offset=".8" stop-color="#077034"/><stop offset="1" stop-color="#006931"/></linearGradient><path clip-path="url(#E)" fill="url(#F)" d="M137 231.2s2.4.5.3 2.7c-.3.2-2 1.6-5.4 1.6l5-4.4z"/></g><g><linearGradient id="G" gradientUnits="userSpaceOnUse" x1="128.8" y1="238.2" x2="128.8" y2="233.5"><stop offset="0" stop-color="#53BC53"/><stop offset=".2" stop-color="#3EA74A"/><stop offset=".5" stop-color="#1C853D"/><stop offset=".8" stop-color="#087134"/><stop offset="1" stop-color="#006931"/></linearGradient><path fill="url(#G)" d="M123 238.2s.7 0 2.6-2c2-2 2.6-2.6 3-2.6.6-.3 1.5 0 2.2.7.7.7 2.8 3 3 3l.8 1H123z"/><defs><path id="H" d="M123 238.2s.7 0 2.6-2c2-2 2.6-2.6 3-2.6.6-.3 1.5 0 2.2.7.7.7 2.8 3 3 3l.8 1H123z"/></defs><clipPath id="I"><use xlink:href="#H" overflow="visible"/></clipPath><linearGradient id="J" gradientUnits="userSpaceOnUse" x1="124.7" y1="239.2" x2="127.9" y2="233.6"><stop offset="0" stop-color="#53BC53"/><stop offset=".2" stop-color="#3BA449"/><stop offset=".5" stop-color="#1B843C"/><stop offset=".8" stop-color="#077034"/><stop offset="1" stop-color="#006931"/></linearGradient><path clip-path="url(#I)" fill="url(#J)" d="M128 233.8s2.5.5.4 2.7c-.3.3-2 1.7-5.4 1.7l5-4.4z"/></g><g><linearGradient id="K" gradientUnits="userSpaceOnUse" x1="147.1" y1="167.5" x2="147.1" y2="162.8"><stop offset="0" stop-color="#53BC53"/><stop offset=".2" stop-color="#3EA74A"/><stop offset=".5" stop-color="#1C853D"/><stop offset=".8" stop-color="#087134"/><stop offset="1" stop-color="#006931"/></linearGradient><path fill="url(#K)" d="M141.3 167.5s.7 0 2.7-2 2.5-2.6 3-2.6c.5-.3 1.4 0 2 .6.8.7 3 3 3.2 3l.7 1h-11.7z"/><defs><path id="L" d="M141.3 167.5s.7 0 2.7-2 2.5-2.6 3-2.6c.5-.3 1.4 0 2 .6.8.7 3 3 3.2 3l.7 1h-11.7z"/></defs><clipPath id="M"><use xlink:href="#L" overflow="visible"/></clipPath><linearGradient id="N" gradientUnits="userSpaceOnUse" x1="143" y1="168.5" x2="146.3" y2="162.9"><stop offset="0" stop-color="#53BC53"/><stop offset=".2" stop-color="#3BA449"/><stop offset=".5" stop-color="#1B843C"/><stop offset=".8" stop-color="#077034"/><stop offset="1" stop-color="#006931"/></linearGradient><path clip-path="url(#M)" fill="url(#N)" d="M146.5 163s2.3.6.2 2.8c-.3.3-2 1.7-5.4 1.7l5.2-4.4z"/></g><g><linearGradient id="O" gradientUnits="userSpaceOnUse" x1="171.1" y1="167.5" x2="171.1" y2="162.8"><stop offset="0" stop-color="#53BC53"/><stop offset=".2" stop-color="#3EA74A"/><stop offset=".5" stop-color="#1C853D"/><stop offset=".8" stop-color="#087134"/><stop offset="1" stop-color="#006931"/></linearGradient><path fill="url(#O)" d="M165.3 167.5s.8 0 2.7-2c2-2 2.5-2.6 3-2.6.5-.3 1.5 0 2 .6.8.7 3 3 3.2 3l.7 1h-11.7z"/><defs><path id="P" d="M165.3 167.5s.8 0 2.7-2c2-2 2.5-2.6 3-2.6.5-.3 1.5 0 2 .6.8.7 3 3 3.2 3l.7 1h-11.7z"/></defs><clipPath id="Q"><use xlink:href="#P" overflow="visible"/></clipPath><linearGradient id="R" gradientUnits="userSpaceOnUse" x1="167" y1="168.5" x2="170.3" y2="162.9"><stop offset="0" stop-color="#53BC53"/><stop offset=".2" stop-color="#3BA449"/><stop offset=".5" stop-color="#1B843C"/><stop offset=".8" stop-color="#077034"/><stop offset="1" stop-color="#006931"/></linearGradient><path clip-path="url(#Q)" fill="url(#R)" d="M170.5 163s2.3.6.2 2.8c-.3.3-2 1.7-5.4 1.7l5.2-4.4z"/></g><g><linearGradient id="S" gradientUnits="userSpaceOnUse" x1="165.3" y1="161.8" x2="165.3" y2="157.1"><stop offset="0" stop-color="#53BC53"/><stop offset=".2" stop-color="#3EA74A"/><stop offset=".5" stop-color="#1C853D"/><stop offset=".8" stop-color="#087134"/><stop offset="1" stop-color="#006931"/></linearGradient><path fill="url(#S)" d="M159.5 161.8s.8 0 2.7-2c2-2 2.5-2.6 3-2.6.5-.3 1.5 0 2 .7.8.6 3 2.8 3.2 3l.7.8h-11.5z"/><defs><path id="T" d="M159.5 161.8s.8 0 2.7-2c2-2 2.5-2.6 3-2.6.5-.3 1.5 0 2 .7.8.6 3 2.8 3.2 3l.7.8h-11.5z"/></defs><clipPath id="U"><use xlink:href="#T" overflow="visible"/></clipPath><linearGradient id="V" gradientUnits="userSpaceOnUse" x1="161.2" y1="162.8" x2="164.5" y2="157.2"><stop offset="0" stop-color="#53BC53"/><stop offset=".2" stop-color="#3BA449"/><stop offset=".5" stop-color="#1B843C"/><stop offset=".8" stop-color="#077034"/><stop offset="1" stop-color="#006931"/></linearGradient><path clip-path="url(#U)" fill="url(#V)" d="M164.7 157.4s2.3.5.2 2.7c-.4.4-2 1.8-5.5 1.8l5.2-4.4z"/></g><g><linearGradient id="W" gradientUnits="userSpaceOnUse" x1="145.9" y1="238.2" x2="145.9" y2="231.6"><stop offset="0" stop-color="#53BC53"/><stop offset=".2" stop-color="#3EA74A"/><stop offset=".5" stop-color="#1C853D"/><stop offset=".8" stop-color="#087134"/><stop offset="1" stop-color="#006931"/></linearGradient><path fill="url(#W)" d="M137.7 238.2s1 0 3.8-2.8c2.7-2.7 3.6-3.7 4.2-3.7.8-.4 2 0 3 1l4.4 4.4 1 1.2h-16.3z"/><defs><path id="X" d="M137.7 238.2s1 0 3.8-2.8c2.7-2.7 3.6-3.7 4.2-3.7.8-.4 2 0 3 1l4.4 4.4 1 1.2h-16.3z"/></defs><clipPath id="Y"><use xlink:href="#X" overflow="visible"/></clipPath><linearGradient id="Z" gradientUnits="userSpaceOnUse" x1="140.1" y1="239.6" x2="144.7" y2="231.7"><stop offset="0" stop-color="#53BC53"/><stop offset=".2" stop-color="#3BA449"/><stop offset=".5" stop-color="#1B843C"/><stop offset=".8" stop-color="#077034"/><stop offset="1" stop-color="#006931"/></linearGradient><path clip-path="url(#Y)" fill="url(#Z)" d="M145 232s3.3.7.4 3.8c-.5.4-2.8 2.3-7.7 2.4l7.3-6.2z"/></g><g><linearGradient id="aa" gradientUnits="userSpaceOnUse" x1="146.2" y1="156.7" x2="146.2" y2="150.1"><stop offset="0" stop-color="#53BC53"/><stop offset=".2" stop-color="#3EA74A"/><stop offset=".5" stop-color="#1C853D"/><stop offset=".8" stop-color="#087134"/><stop offset="1" stop-color="#006931"/></linearGradient><path fill="url(#aa)" d="M138 156.7s1 0 3.8-2.8c2.7-2.8 3.6-3.8 4.2-3.8.8-.3 2 0 3 1l4.4 4.4 1 1H138z"/><defs><path id="ab" d="M138 156.7s1 0 3.8-2.8c2.7-2.8 3.6-3.8 4.2-3.8.8-.3 2 0 3 1l4.4 4.4 1 1H138z"/></defs><clipPath id="ac"><use xlink:href="#ab" overflow="visible"/></clipPath><linearGradient id="ad" gradientUnits="userSpaceOnUse" x1="140.4" y1="158.1" x2="145" y2="150.2"><stop offset="0" stop-color="#53BC53"/><stop offset=".2" stop-color="#3BA449"/><stop offset=".5" stop-color="#1B843C"/><stop offset=".8" stop-color="#077034"/><stop offset="1" stop-color="#006931"/></linearGradient><path clip-path="url(#ac)" fill="url(#ad)" d="M145.3 150.5s3.3.7.4 3.8c-.5.4-2.8 2.3-7.7 2.4l7.3-6.2z"/></g><g><linearGradient id="ae" gradientUnits="userSpaceOnUse" x1="23.1" y1="153.6" x2="23.1" y2="147.9"><stop offset="0" stop-color="#53BC53"/><stop offset=".2" stop-color="#3EA74A"/><stop offset=".5" stop-color="#1C853D"/><stop offset=".8" stop-color="#087134"/><stop offset="1" stop-color="#006931"/></linearGradient><path fill="url(#ae)" d="M16 153.6s1 0 3.3-2.4 3-3 3.6-3.2c.6-.3 1.7 0 2.5 1l3.7 3.7 1 1H16z"/><defs><path id="af" d="M16 153.6s1 0 3.3-2.4 3-3 3.6-3.2c.6-.3 1.7 0 2.5 1l3.7 3.7 1 1H16z"/></defs><clipPath id="ag"><use xlink:href="#af" overflow="visible"/></clipPath><linearGradient id="ah" gradientUnits="userSpaceOnUse" x1="18.1" y1="154.9" x2="22" y2="148"><stop offset="0" stop-color="#53BC53"/><stop offset=".2" stop-color="#3BA449"/><stop offset=".5" stop-color="#1B843C"/><stop offset=".8" stop-color="#077034"/><stop offset="1" stop-color="#006931"/></linearGradient><path clip-path="url(#ag)" fill="url(#ah)" d="M22.3 148.3s2.8.6.3 3.2c-.4.4-2.4 2-6.6 2l6.3-5.2z"/></g><g><linearGradient id="ai" gradientUnits="userSpaceOnUse" x1="132.3" y1="114.5" x2="132.3" y2="106.4"><stop offset="0" stop-color="#53BC53"/><stop offset=".2" stop-color="#3EA74A"/><stop offset=".5" stop-color="#1C853D"/><stop offset=".8" stop-color="#087134"/><stop offset="1" stop-color="#006931"/></linearGradient><path fill="url(#ai)" d="M122.4 114.5s1.3 0 4.6-3.4c3.3-3.2 4.4-4.4 5-4.4 1-.4 2.6 0 3.8 1.3 1.2 1 5 4.8 5.3 5.2l1.3 1.3h-20z"/><defs><path id="aj" d="M122.4 114.5s1.3 0 4.6-3.4c3.3-3.2 4.4-4.4 5-4.4 1-.4 2.6 0 3.8 1.3 1.2 1 5 4.8 5.3 5.2l1.3 1.3h-20z"/></defs><clipPath id="ak"><use xlink:href="#aj" overflow="visible"/></clipPath><linearGradient id="al" gradientUnits="userSpaceOnUse" x1="125.3" y1="116.2" x2="130.9" y2="106.6"><stop offset="0" stop-color="#53BC53"/><stop offset=".2" stop-color="#3BA449"/><stop offset=".5" stop-color="#1B843C"/><stop offset=".8" stop-color="#077034"/><stop offset="1" stop-color="#006931"/></linearGradient><path clip-path="url(#ak)" fill="url(#al)" d="M131.3 107s4 1 .4 4.6c-.5.5-3.3 2.8-9.3 3l9-7.6z"/></g><g><linearGradient id="am" gradientUnits="userSpaceOnUse" x1="120.5" y1="118.2" x2="120.5" y2="110.2"><stop offset="0" stop-color="#53BC53"/><stop offset=".2" stop-color="#3EA74A"/><stop offset=".5" stop-color="#1C853D"/><stop offset=".8" stop-color="#087134"/><stop offset="1" stop-color="#006931"/></linearGradient><path fill="url(#am)" d="M110.6 118.2s1.3 0 4.6-3.4 4.4-4.4 5-4.5c1-.4 2.6 0 3.7 1.3 1 1.2 4.8 5 5.2 5.3l1.2 1.2h-19.8z"/><defs><path id="an" d="M110.6 118.2s1.3 0 4.6-3.4 4.4-4.4 5-4.5c1-.4 2.6 0 3.7 1.3 1 1.2 4.8 5 5.2 5.3l1.2 1.2h-19.8z"/></defs><clipPath id="ao"><use xlink:href="#an" overflow="visible"/></clipPath><linearGradient id="ap" gradientUnits="userSpaceOnUse" x1="113.6" y1="119.9" x2="119.1" y2="110.4"><stop offset="0" stop-color="#53BC53"/><stop offset=".2" stop-color="#3BA449"/><stop offset=".5" stop-color="#1B843C"/><stop offset=".8" stop-color="#077034"/><stop offset="1" stop-color="#006931"/></linearGradient><path clip-path="url(#ao)" fill="url(#ap)" d="M119.5 110.7s4 1 .4 4.6c-.6.5-3.4 3-9.4 3l9-7.6z"/><g><linearGradient id="aq" gradientUnits="userSpaceOnUse" x1="110.7" y1="118.2" x2="110.7" y2="106.4"><stop offset="0" stop-color="#53BC53"/><stop offset=".2" stop-color="#3EA74A"/><stop offset=".5" stop-color="#1C853D"/><stop offset=".8" stop-color="#087134"/><stop offset="1" stop-color="#006931"/></linearGradient><path fill="url(#aq)" d="M96 118.2s2-.2 7-5c4.7-5 6.3-6.6 7.4-6.6 1.4-.6 3.7 0 5.4 2 1.8 1.6 7.2 7 7.8 7.7l1.8 2H96z"/><defs><path id="ar" d="M96 118.2s2-.2 7-5c4.7-5 6.3-6.6 7.4-6.6 1.4-.6 3.7 0 5.4 2 1.8 1.6 7.2 7 7.8 7.7l1.8 2H96z"/></defs><clipPath id="as"><use xlink:href="#ar" overflow="visible"/></clipPath><linearGradient id="at" gradientUnits="userSpaceOnUse" x1="100.4" y1="120.8" x2="108.6" y2="106.6"><stop offset="0" stop-color="#53BC53"/><stop offset=".2" stop-color="#3BA449"/><stop offset=".5" stop-color="#1B843C"/><stop offset=".8" stop-color="#077034"/><stop offset="1" stop-color="#006931"/></linearGradient><path clip-path="url(#as)" fill="url(#at)" d="M109.2 107s6 1.5.6 7c-.8.7-5 4-13.7 4.2l13.2-11z"/></g></g><g><linearGradient id="au" gradientUnits="userSpaceOnUse" x1="139.2" y1="230" x2="139.2" y2="222"><stop offset="0" stop-color="#53BC53"/><stop offset=".2" stop-color="#3EA74A"/><stop offset=".5" stop-color="#1C853D"/><stop offset=".8" stop-color="#087134"/><stop offset="1" stop-color="#006931"/></linearGradient><path fill="url(#au)" d="M129.3 230s1.3 0 4.6-3.4c3.2-3.3 4.2-4.4 5-4.5 1-.3 2.5.2 3.6 1.4l5.3 5.3 1 1.3h-19.7z"/><defs><path id="av" d="M129.3 230s1.3 0 4.6-3.4c3.2-3.3 4.2-4.4 5-4.5 1-.3 2.5.2 3.6 1.4l5.3 5.3 1 1.3h-19.7z"/></defs><clipPath id="aw"><use xlink:href="#av" overflow="visible"/></clipPath><linearGradient id="ax" gradientUnits="userSpaceOnUse" x1="132.2" y1="231.7" x2="137.8" y2="222.2"><stop offset="0" stop-color="#53BC53"/><stop offset=".2" stop-color="#3BA449"/><stop offset=".5" stop-color="#1B843C"/><stop offset=".8" stop-color="#077034"/><stop offset="1" stop-color="#006931"/></linearGradient><path clip-path="url(#aw)" fill="url(#ax)" d="M138.2 222.5s4 1 .4 4.6c-.6.6-3.4 3-9.3 3l9-7.5z"/><g><linearGradient id="ay" gradientUnits="userSpaceOnUse" x1="129.4" y1="230" x2="129.4" y2="218.1"><stop offset="0" stop-color="#53BC53"/><stop offset=".2" stop-color="#3EA74A"/><stop offset=".5" stop-color="#1C853D"/><stop offset=".8" stop-color="#087134"/><stop offset="1" stop-color="#006931"/></linearGradient><path fill="url(#ay)" d="M114.7 230s2-.2 6.8-5c5-5 6.5-6.6 7.6-6.6 1.5-.6 3.8 0 5.4 2 1.8 1.6 7.3 7 7.8 7.7l1.8 2h-29.3z"/><defs><path id="az" d="M114.7 230s2-.2 6.8-5c5-5 6.5-6.6 7.6-6.6 1.5-.6 3.8 0 5.4 2 1.8 1.6 7.3 7 7.8 7.7l1.8 2h-29.3z"/></defs><clipPath id="aA"><use xlink:href="#az" overflow="visible"/></clipPath><linearGradient id="aB" gradientUnits="userSpaceOnUse" x1="119.1" y1="232.6" x2="127.3" y2="218.4"><stop offset="0" stop-color="#53BC53"/><stop offset=".2" stop-color="#3BA449"/><stop offset=".5" stop-color="#1B843C"/><stop offset=".8" stop-color="#077034"/><stop offset="1" stop-color="#006931"/></linearGradient><path clip-path="url(#aA)" fill="url(#aB)" d="M128 219s5.7 1.3.5 6.7c-.8.8-5 4.2-13.8 4.3l13.2-11z"/></g></g><g><linearGradient id="aC" gradientUnits="userSpaceOnUse" x1="151" y1="160.1" x2="151" y2="155.4"><stop offset="0" stop-color="#53BC53"/><stop offset=".2" stop-color="#3EA74A"/><stop offset=".5" stop-color="#1C853D"/><stop offset=".8" stop-color="#087134"/><stop offset="1" stop-color="#006931"/></linearGradient><path fill="url(#aC)" d="M145.2 160s.8 0 2.7-2c1.8-1.8 2.5-2.5 3-2.5.5-.3 1.4 0 2 .7l3 3 .8 1h-11.6z"/><defs><path id="aD" d="M145.2 160s.8 0 2.7-2c1.8-1.8 2.5-2.5 3-2.5.5-.3 1.4 0 2 .7l3 3 .8 1h-11.6z"/></defs><clipPath id="aE"><use xlink:href="#aD" overflow="visible"/></clipPath><linearGradient id="aF" gradientUnits="userSpaceOnUse" x1="147" y1="161.1" x2="150.2" y2="155.5"><stop offset="0" stop-color="#53BC53"/><stop offset=".2" stop-color="#3BA449"/><stop offset=".5" stop-color="#1B843C"/><stop offset=".8" stop-color="#077034"/><stop offset="1" stop-color="#006931"/></linearGradient><path clip-path="url(#aE)" fill="url(#aF)" d="M150.4 155.7s2.4.5.3 2.7c-.3.3-2 1.6-5.5 1.7l5.2-4.3z"/></g></svg>