<svg xmlns="http://www.w3.org/2000/svg" xmlns:xlink="http://www.w3.org/1999/xlink" width="780" height="780" viewBox="0 0 780 780"><path fill="#379137" d="M-5.8-7.8h790v790h-790z"/><path fill="#4DA04D" d="M312.7 390l21.7 21.6h12l32 31.8 16.5-8.3 5-14.3 18.8-5.8-4.4-17h9.4l-.6 34v12.5l16.5 15 17.8-15 5.5 2.3 6-5.5 13.4-.7 2.2-4.5-3.2-7-44.3-51.4 42-10.2 9.5.3-2-15.5 9.3 6L527 337l-4.7-5 8.7-8.6 5 5 20.3-20.4 5 5 18-18 3.6-14-3.7-1 1-16.6-1.6-17.8-19.4 11.6-44 8.8-7.8-1-5.5 8.8-14 3-29.3 23.8-9.6 3.3-20 7-19.6 14.5-19 8.7-13.2-2.2-25.5-13.5-8.4-4-10 10-5 36 6 12.3-9 9.4m-103 115.6h78.4l15.5 6 25.4-23.2 5.6 14.2-17 24.6h-5.3l-9.5 7.8-3.8-3-6.2 7-16.5.8-8.4 12.3.7 7-1.7 4.7-6.8 2.2-25.5 36.6-3.2-2.3-7-1.6-14.6 1-2.3-7.3-34.8-9.3 1.6-10-.2-11 3.2-17-2.3-2.5"/><path fill="#6FC16F" d="M258 428v16.4l22 22.3v11.7l8 2.2-30 17.2h42.7l15.5 6 25.4-23.2v-8.4H331v-11h-23.2l15.2-16.8h-7.2L297.3 431l-15-13.8"/><path fill="#714D49" d="M667.5 164h.6v9.5h-.5z"/><path fill="#77B52A" d="M668.3 161.3c-1.6 0-3 1-3.3 2.4-.7.4-1.2 1-1 2 0 1 .7 1.8 1.7 2l1.2-.3 1 .2c1.8 0 3.2-1.5 3-3.4 0-1.5-1.2-2.7-2.7-3z"/><path fill="#5F9030" d="M671 164.2c0 1.6-1.4 2.8-3 2.8-.4 0-.8 0-1-.2-.5.2-1 .2-1.3.2-1 0-1.7-.8-1.8-1.8v.5c0 1 .7 1.8 1.7 2l1.2-.3 1 .2c1.8 0 3.2-1.5 3-3.4z"/><path fill="#714D49" d="M665.7 151.2h.5v8h-.5z"/><path fill="#77B52A" d="M666.3 149c-1.3 0-2.4.8-2.7 2-.6.3-1 1-1 1.7.2.8.8 1.4 1.6 1.5.3 0 .7 0 1-.2.2.2.5.2 1 .2 1.4 0 2.6-1.2 2.5-2.8 0-1.2-1-2.2-2.4-2.3z"/><path fill="#5F9030" d="M668.6 151.4c0 1.3-1.2 2.3-2.5 2.3h-1-.8c-.8 0-1.4-.7-1.5-1.4v.4c0 .8.7 1.4 1.5 1.5.3 0 .7 0 1-.2.2.2.5.2 1 .2 1.4 0 2.6-1.2 2.5-2.8z"/><path fill="#714D49" d="M660.6 152.2h.7v9.5h-.6z"/><path fill="#77B52A" d="M661.4 149.6c-1.6 0-3 1-3.3 2.4-.6.3-1 1-1 2s1 1.7 2 1.8c.3 0 .7 0 1-.2l1 .2c2 0 3.4-1.5 3.3-3.3 0-1.5-1.4-2.8-3-3z"/><path fill="#5F9030" d="M664.3 152.4c-.2 1.6-1.5 3-3.2 3-.3 0-.6-.2-1-.4-.3.2-.7.3-1 .2-1 0-1.8-.8-2-1.7v.4c0 1 1 1.7 2 1.8.3 0 .7 0 1-.2l1 .2c2 0 3.4-1.5 3.3-3.3z"/><path fill="#714D49" d="M663.7 173.5h1v13.8h-1z"/><path fill="#77B52A" d="M664.8 169.8c-2.3-.2-4.3 1.3-4.8 3.4-1 .6-1.6 1.7-1.5 3 0 1.3 1.2 2.4 2.6 2.6.7 0 1.3 0 1.8-.3.5.2 1 .3 1.6.3 2.6 0 4.7-2.2 4.5-4.8-.3-2.2-2-4-4.2-4.2z"/><path fill="#5F9030" d="M669 174c-.3 2.2-2.2 4-4.6 4-.6 0-1 0-1.6-.3-.5.2-1 .3-1.7.3-1.2-.2-2.3-1.3-2.5-2.6v.7c0 1.5 1.2 2.6 2.6 2.8.7 0 1.3 0 1.8-.3.5.2 1 .3 1.6.3 2.6 0 4.7-2.2 4.5-4.8z"/><path fill="#714D49" d="M645 198.7h.6v9.5h-.7z"/><path fill="#77B52A" d="M645.7 196c-1.6 0-3 1-3.3 2.4-.7.4-1 1.2-1 2 0 1 .8 1.8 1.8 2 .4 0 .8-.2 1-.3l1.2.3c1.8 0 3.3-1.5 3-3.3 0-1.6-1.2-2.8-2.7-3z"/><path fill="#5F9030" d="M648.5 199c0 1.5-1.4 2.7-3 2.7-.5 0-.8 0-1.2-.2-.3.2-.7.3-1 .2-1 0-1.8-.8-2-1.7v.4c0 1 1 1.8 2 2l1-.3 1 .3c2 0 3.4-1.5 3.2-3.3z"/><path fill="#714D49" d="M643 186h.6v7.8h-.5z"/><path fill="#77B52A" d="M643.7 183.8c-1.3 0-2.4.7-2.7 2-.6.2-1 1-1 1.6.2.8.8 1.4 1.6 1.5.4 0 .7 0 1-.2h1c1.4 0 2.6-1 2.5-2.6 0-1.3-1-2.3-2.3-2.4z"/><path fill="#5F9030" d="M646 186c0 1.4-1 2.5-2.5 2.5-.3 0-.6 0-1-.2l-1 .2c-.6 0-1.3-.7-1.4-1.5v.4c.2.8.8 1.4 1.6 1.5.4 0 .7 0 1-.2h1c1.4 0 2.6-1 2.5-2.6z"/><path fill="#714D49" d="M638 187h.7v9.4h-.6z"/><path fill="#77B52A" d="M639 184.3c-1.7 0-3 1-3.4 2.4-.7.4-1.2 1-1 2 0 1 .7 1.7 1.7 1.8.4 0 .8 0 1-.2.5.2 1 .2 1.3.2 1.8 0 3.2-1.5 3-3.3 0-1.5-1.2-2.8-2.7-3z"/><path fill="#5F9030" d="M641.7 187c-.2 1.7-1.5 3-3 3-.5 0-1 0-1.3-.2l-1 .2c-1 0-1.8-1-2-1.8v.5c.2 1 1 1.7 2 1.8.3 0 .7 0 1-.2.4.2.8.2 1.2.2 1.8 0 3.2-1.5 3-3.3z"/><path fill="#714D49" d="M641 208.3h1V222h-1z"/><path fill="#77B52A" d="M642.2 204.5c-2.3-.2-4.2 1.3-4.7 3.4-1 .5-1.7 1.6-1.6 2.8 0 1.4 1.2 2.5 2.5 2.7.6 0 1.2 0 1.7-.3.5.2 1 .3 1.6.3 2.6 0 4.7-2.2 4.5-4.8 0-2.2-2-4-4-4.2z"/><path fill="#5F9030" d="M646.3 208.6c-.2 2.3-2 4-4.5 4-.5 0-1 0-1.6-.2-.5.2-1 .3-1.7.3-1.3-.2-2.4-1.2-2.6-2.6v.8c0 1.4 1.2 2.5 2.5 2.7.6 0 1.2 0 1.7-.3.5.2 1 .3 1.6.3 2.6 0 4.7-2.2 4.5-4.8z"/><path fill="#714D49" d="M649.8 252.3h.6v9.6h-.6z"/><path fill="#77B52A" d="M650.5 249.7c-1.5 0-3 1-3.3 2.4-.7.5-1 1.2-1 2 0 1 .8 2 1.8 2 .4 0 .8 0 1-.2l1.3.2c1.8 0 3.2-1.5 3-3.4 0-1.5-1.2-2.7-2.8-3z"/><path fill="#5F9030" d="M653.4 252.6c-.2 1.6-1.5 2.8-3 2.8-.5 0-1 0-1.3-.2-.2.2-.6.2-1 .2-1 0-1.7-.8-1.8-1.8v.5c0 1 .8 2 1.8 2 .4 0 .8 0 1-.2l1.3.2c1.8 0 3.2-1.5 3-3.4z"/><path fill="#714D49" d="M648 239.6h.5v8h-.6z"/><path fill="#77B52A" d="M648.6 237.5c-1.3-.2-2.5.7-2.8 2-.5.2-1 1-.8 1.6 0 1 .7 1.5 1.5 1.6.3 0 .6 0 1-.2l1 .2c1.3 0 2.5-1.2 2.4-2.8-.2-1.2-1.2-2.2-2.4-2.3z"/><path fill="#5F9030" d="M651 239.8c-.2 1.3-1.3 2.3-2.6 2.3h-1c-.3 0-.6.2-1 0-.7 0-1.3-.6-1.4-1.3v.4c0 1 .7 1.5 1.5 1.6.3 0 .6 0 1-.2l1 .2c1.3 0 2.5-1.2 2.4-2.8z"/><path fill="#714D49" d="M643 240.6h.6v9.5h-.7z"/><path fill="#77B52A" d="M643.7 238c-1.6 0-3 1-3.3 2.4-.7.3-1.2 1-1 2 0 1 .8 1.7 1.7 1.8.5 0 1 0 1.3-.2l1 .2c2 0 3.4-1.5 3.2-3.3 0-1.6-1.3-3-2.8-3z"/><path fill="#5F9030" d="M646.5 240.8c0 1.6-1.5 3-3 3-.5 0-1-.2-1.2-.4-.4.2-.8.3-1.2.2-.8 0-1.5-.8-1.7-1.7v.3c0 1 1 1.8 1.8 2 .5 0 1 0 1.3-.3l1 .2c2 0 3.4-1.5 3.2-3.3v-.2z"/><path fill="#714D49" d="M646 262h1v23.7h-1z"/><path fill="#77B52A" d="M647 258.2c-2.2-.2-4.2 1.3-4.7 3.4-1 .6-1.6 1.7-1.5 3 0 1.3 1.2 2.4 2.6 2.6.6 0 1 0 1.6-.3l1.7.2c2.6 0 4.7-2.2 4.5-4.8-.2-2.2-2-4-4-4.2z"/><path fill="#5F9030" d="M651.2 262.3c-.2 2.3-2.2 4-4.5 4-.6 0-1.2 0-1.7-.2-.5.3-1 .4-1.6.4-1.4-.2-2.4-1.3-2.6-2.6v.7c0 1.4 1.2 2.5 2.6 2.7.6 0 1 0 1.6-.3l1.7.2c2.6 0 4.7-2.2 4.5-4.8z"/><path fill="#714D49" d="M425 358.5h.6v9.5h-.6z"/><path fill="#77B52A" d="M425.7 356c-1.5-.2-3 .8-3.3 2.3-.7.3-1 1-1 2s.8 1.7 1.8 1.8h2.3c1.8 0 3.2-1.4 3-3.2 0-1.5-1.2-2.8-2.8-3z"/><path fill="#5F9030" d="M428.6 358.7c-.2 1.6-1.5 3-3 3-.5 0-1-.2-1.3-.4-.3.2-.7.3-1 .2-1 0-1.8-.8-2-1.7v.4c0 1 1 1.8 2 2 .3 0 .7 0 1-.3h1.2c1.8 0 3.2-1.4 3-3.2z"/><path fill="#714D49" d="M423 345.7h.7v8h-.6z"/><path fill="#77B52A" d="M423.8 343.6c-1.3 0-2.5.8-2.8 2-.5.3-1 1-.8 1.6 0 .8.7 1.5 1.5 1.5h1.8c1.5 0 2.7-1.2 2.6-2.7 0-1.3-1-2.3-2.2-2.4z"/><path fill="#5F9030" d="M426 346c0 1.3-1 2.3-2.5 2.3-.3 0-.6 0-1-.2-.2.3-.5.3-.8.3-.8 0-1.4-.7-1.5-1.5v.4c0 .8.7 1.5 1.5 1.5h1.8c1.5 0 2.7-1.2 2.6-2.7z"/><path fill="#714D49" d="M418 346.7h.8v9.5h-.7z"/><path fill="#77B52A" d="M419 344c-1.7 0-3 1-3.4 2.5-.7.4-1.2 1-1 2 0 1 .8 1.7 1.7 2 .4 0 .8-.2 1.2-.4.3.3.7.4 1 .4 2 0 3.4-1.6 3.2-3.4 0-1.5-1.3-2.7-2.8-3z"/><path fill="#5F9030" d="M421.7 347c0 1.6-1.5 2.8-3 2.8-.5 0-1 0-1.2-.2-.4.2-.8.2-1.2.2-1 0-1.6-1-1.8-1.8v.5c0 1 1 1.7 1.8 1.8.4 0 .8 0 1.2-.2.3.3.7.4 1 .4 2 0 3.4-1.6 3.2-3.4z"/><g><path fill="#714D49" d="M421.2 368h1V382h-1z"/><path fill="#77B52A" d="M422.3 364.3c-2.3 0-4.3 1.4-4.8 3.5-1 .5-1.6 1.6-1.5 2.8 0 1.4 1.2 2.6 2.6 2.7.6 0 1 0 1.6-.3.5.2 1 .3 1.7.3 2.5 0 4.6-2.2 4.4-4.8-.2-2.2-2-4-4-4.2z"/><path fill="#5F9030" d="M426.4 368.4c-.2 2.3-2.2 4-4.5 4-.7 0-1.3 0-1.8-.2-.5.2-1 .4-1.6.3-1.4-.2-2.4-1.2-2.6-2.5v.6c0 1.4 1.2 2.6 2.6 2.7.6 0 1 0 1.6-.3.5.2 1 .3 1.7.3 2.5 0 4.6-2.2 4.4-4.8z"/></g><g><path fill="#714D49" d="M570.7 186.4h.6v8.7h-.6z"/><path fill="#77B52A" d="M571.4 184c-1.4 0-2.7 1-3 2.2-.6.3-1 1-1 1.8 0 1 .8 1.6 1.7 1.7.5 0 .8 0 1-.2.5.2.8.2 1.2.2 1.6 0 3-1.4 2.8-3 0-1.4-1.2-2.6-2.6-2.7z"/><path fill="#5F9030" d="M574 186.6c0 1.5-1.3 2.6-2.8 2.6-.4 0-.7 0-1-.2-.4.2-.7.2-1 .2-1 0-1.6-.8-1.7-1.6v.4c0 1 .7 1.6 1.6 1.7.5 0 .8 0 1.2-.2.3.2.6.2 1 .2 1.6 0 3-1.4 2.8-3z"/><path fill="#714D49" d="M558.6 191.4h.6v8.7h-.6z"/><path fill="#77B52A" d="M559.3 189c-1.4 0-2.7 1-3 2.2-.6.4-1 1-1 1.8 0 1 .8 1.6 1.7 1.7h2c1.7 0 3-1.3 3-3-.2-1.4-1.3-2.5-2.7-2.7z"/><path fill="#5F9030" d="M562 191.6c-.2 1.5-1.5 2.6-3 2.6-.3 0-.7 0-1-.2-.3.2-.7.3-1 .2-1 0-1.6-.7-1.7-1.6v.4c0 1 .8 1.6 1.7 1.7h2c1.7 0 3-1.3 3-3z"/><path fill="#714D49" d="M537.8 188.3h.4v6.3h-.4z"/><path fill="#77B52A" d="M538.3 186.6c-1 0-2 .6-2.2 1.5-.4.4-.7 1-.6 1.4 0 .7.5 1.2 1.2 1.3.2 0 .5 0 .7-.2l.8.2c1.3 0 2.2-1 2.2-2.2 0-1-1-2-2-2z"/><path fill="#5F9030" d="M540 188.4c0 1-.8 2-2 2-.2 0-.4 0-.7-.2h-.7c-.6 0-1-.5-1.2-1v.2c0 .7.5 1.2 1.2 1.3.2 0 .5 0 .7-.2l.8.2c1.3 0 2.2-1 2.2-2.2z"/><g><path fill="#714D49" d="M541.4 192.5h.4v6.3h-.4z"/><path fill="#77B52A" d="M542 190.7c-1.2 0-2 .7-2.3 1.6-.5.3-.8.8-.7 1.3 0 .7.6 1.2 1.2 1.3.3 0 .5-.2.8-.3l.7.2c1.2 0 2.2-1 2-2.3 0-1-.8-2-1.8-2z"/><path fill="#5F9030" d="M543.8 192.6c0 1-1 2-2 2l-.8-.2h-.8c-.6 0-1-.5-1.2-1v.2c0 .7.6 1.2 1.2 1.3.3 0 .5-.2.8-.3l.7.2c1.2 0 2.2-1 2-2.3z"/></g></g><g><path fill="#63B04D" d="M119.7 477.4c-.2-2.3-1-4-1-4 .3 1.4.3 2.7 0 3.8h-.2c-.3-1.8-1-3-1-3 .3 1 .4 2 .4 2.8l-.8-1.7c0 .6.2 1 .3 1.6-.4 0-.7-.2-1-.3l-.4-.5c.2 0 .2.3.3.5h-.4c-.5-2.6-2-4.3-2-4.3.8 1.5 1 2.8 1 4h-.2c-1-3-3.3-5-3.3-5 1.2 1.5 1.8 3 2 4.3l-.6-1c-.3-1-.7-1.7-.7-1.7.3 1 .4 2 .3 3h-.2l-.3-.5c-.3-1.5-1-2.6-1-2.6l.3 1v.7c0-.3-.4-.6-.6-.8-.6-1.2-1.4-1.8-1.4-1.8 1 1.2 1.2 2.5 1.3 3.6h-.6l-.5-1 .3 1-.4-.2c-.5-2-1.6-3.5-1.6-3.5.5 1 .7 2 .8 2.8l-.7-.7.7 1.5h-.4c-1-2.8-3-4.4-3-4.4 1 1.6 1.7 3 2 4.4-.5-1-1-1.5-1-1.5.3.4.5 1 .6 1.3h-.2l-.6-1.6.3 1.6h-.7c-.4-1.7-1.2-2.7-1.2-2.7l.6 1.8-.8-.8c-.6-1-1.4-1.8-1.4-1.8.8 1.2 1 2.3 1.2 3.2h-.7l-.3-.5c0 .2 0 .3.2.5h-.5c-.6-1.4-1.3-2.3-1.3-2.3l.6 1.8-.7-.8.7 1.2-.7-.2c-1-2-2.6-3-2.6-3 1 1 1.4 2 1.8 3h-.4v-.2.2h-1c-.5-1-1-1.5-1-1.5l.6 1.4h-.3l-.3-.3-.6-1.7c0 .4 0 .7.2 1l-1-1.2 1 2h-1c0-.5-.3-1-.3-1 0 .4 0 .8.2 1h-1.3-1c-.6-1.7-1.4-2.8-1.4-2.8.4 1 .6 2 .7 2.8h-.5c-1-2.4-3-3.7-3-3.7 1 1.3 1.7 2.5 2 3.7l-.7-1 .4 1h-1c-.4-1.3-1-2.2-1-2.2 0 .6.3 1.2.4 1.8l-.8-.8c-.6-1-1.3-1.7-1.3-1.7.7 1 1 2 1 3h-.4c-.2-1-.5-1.6-.5-1.6l.2 1.3v.2H88l-.6-.7-.4-.4.5.8v.4h-2C84.7 473 84 472 84 472c.4 1 .7 2 .8 2.8h-.5c-1-2.5-3-3.8-3-3.8.8 1 1.3 1.8 1.7 2.7v1l-.5-1 .5 1.2h-1c0-.6-.2-1-.2-1 0 .4 0 .7.2 1-.4-1.6-1.2-2.6-1.2-2.6.3.7.4 1.3.5 1.8l-.8-.8c-.6-1-1.3-1.7-1.3-1.7.8 1.2 1 2.4 1.2 3.4h-.6c-.7-1.8-1.5-2.8-1.5-2.8.5 1 .7 2 .8 3-.5-1-1-1.5-1.2-1.6-1-1.5-2-2.3-2-2.3 1 1.4 1.6 2.8 2 4l-1-1.2.6 1.4h-.2l-.2-.4v.4h-.6c-.4-1.6-1.3-2.6-1.3-2.6.4.6.6 1.2.7 1.8l-.8-1c-.7-1-1.4-1.6-1.4-1.6 1 1.3 1 2.6 1.2 3.7h-.5l-.6-1 .4 1-.4.2c-.5-1.3-1-2-1-2 0 .2 0 .4.2.6l-.7-.7c.6.6 1 1.3 1 2h-.6c-1-1.8-2.5-3-2.5-3 .7 1 1.3 2.2 1.6 3.2h-.3c0-.2-.2-.3-.2-.3.2 0 .2 0 .2.2-.3 0-.6 0-1 .2-.3-1-1-1.8-1-1.8.4.6.6 1.2.7 1.8l-1-.8c-.5-1-1.2-1.8-1.2-1.8.6 1 1 2 1 2.8l-.7.2v-.3.3c-.2 0-.4 0-.6.2l-1-1.3.6 1.3-1 .2-1-1.8.6 2h-.8c-1-2-2.5-3-2.5-3 1 1 1.4 2.2 1.8 3.3H64l-.3-.4s0 .3.2.5l-1 .2c-.3-1.3-1-2-1-2 .3.5.5 1 .5 1.7l-.7-.8c-.6-1.2-1.4-2-1.4-2 1 1.3 1.2 2.4 1.3 3.4l-.5.2-.5-.8c0 .3.2.5.3.8-.2 0-.4 0-.6.2l-1.3-1.8 1 2c-13.6 4-22.4 10.4-22.4 17.7 0 12.2 24.7 22 55 22 30.6 0 55.3-9.8 55.3-22 0-8.3-11.3-15.5-28-19.3zm-6.5-1.8v0zm-1.7 0v.3l-.4-1c.3.2.4.5.5.7zm-6.7-1c0 .2.2.4.3.5l-.2-.4zm-14.6-.3s0 .2.2.3c0 0 0-.2-.2-.3zm-9.2 0c0 .3.2.5.3.7H81v-.6zm-5.7.5l.4.8-.4-.8zm-13.4 3V478z"/><path fill="#5F3C14" d="M106.2 485.6s.4-.2.7 0c0 .2 0 1 .6 1v.6s-.5 0-.7-.4c-.4-.4-.2-1-.7-1-.5 0 0-.2 0-.2zm-2.8-2v-.6s.5 0 .8.4c.4.5.3 1.8.3 1.8h-.6l-.6-1.7z"/><path fill="#CFA166" d="M102.4 483.3c-.4 0-.8.4-.8.8 0 .6.4 1 .8 1v-1.7z"/><ellipse transform="rotate(-123.183 104.11 483.58)" fill="#A2804C" cx="104.1" cy="483.6" rx=".3" ry=".4"/><path fill="#333" d="M103.2 488h.8v-.3h-.8v.2z"/><path fill="#A2804C" d="M106.6 486c0-.5-.5-1-1-1H104v.2-1c0-.5-.4-1-1-1h-.7v1.8h.7v2.7h.8v-1h1.8v1h.8V486z"/><path fill="#333" d="M105.8 487.7v.2h.8v-.3h-.8z"/><circle fill="#333" cx="103.4" cy="484" r=".1"/><path fill="#565656" d="M95 480.8s-.2-.5-.5-.5-.8.5-1.2 0l-.5.4s.3.4.8.3c.5 0 .8-.5 1-.2.4.4.4 0 .4 0zm2.7-2.2v-.5s-.6 0-.8.5c-.6.5-.5 1.8-.5 1.8h.7l.5-1.7z"/><path fill="#CFA166" d="M98.6 478.4c.5 0 .8.4.8.8 0 .5-.3 1-.8 1v-1.8z"/><ellipse transform="rotate(123.147 96.933 478.653)" fill="#828282" cx="96.9" cy="478.7" rx=".3" ry=".4"/><path fill="#333" d="M98 483c0 .2-.3.2-.5.2-.3 0-.4 0-.4-.2v-.2h1v.2z"/><path fill="#828282" d="M94.5 481c0-.4.5-.8 1-.8H97v-1c0-.4.5-.8 1-.8h.8v1.7H98v2.8h-1v-1h-1.7v1h-.8v-1.6z"/><path fill="#333" d="M95.3 482.8v.2c0 .2-.2.2-.4.2-.3 0-.5 0-.5-.2v-.2h.8z"/><circle fill="#333" cx="97.6" cy="479.1" r=".1"/><g><path fill="#F7AD96" d="M115 489s0-.2-.5-.2-.5 0-.5.3 0 .4.3.4v.2h.4c0-.2 0-.2.2-.2v-.3z"/><path fill="#FFF" d="M117.8 487.2l.6.6-1.3 1-.4-.5c-.3-.4-.3-1 0-1.2.4-.2 1-.2 1.2.2z"/><path fill="#F7AD96" d="M118.4 488c.3.2.3.7 0 1-.4.3-1 .3-1.2 0l1.2-1.2z"/><circle fill="#595959" cx="117.3" cy="487.8" r=".1"/><path fill="#FFF" d="M116.5 486.8l.3.3h.3s0-.3-.2-.3h-.3zm1.5 0c0-.2-.3 0-.4 0-.2 0-.2.2 0 .2h.3v-.3z"/><path fill="#595959" d="M116.8 490c0 .3-.2.3-.4.3s-.4 0-.4-.3h.8z"/><path fill="#FFF" d="M116.4 488c.2 0 .4 0 .4.4v1.5h-.8v-1.6c0-.3.2-.5.4-.5zm-3 .2c0-.2.2-.5.4-.5s.4.3.4.5v1.7h-.8V488z"/><path fill="#595959" d="M114.2 490c0 .3-.2.3-.4.3s-.4 0-.4-.3h.8zm3-3s0-1 0 0zm.3 0s.3-.8 0 0z"/><path fill="#FFF" d="M115.7 487.3h-1.2c-.5 0-1 .2-1 .6h-.3v-.3l-.4-.5v.2l.2.4s0 .2.2.2h.2c0 .6.2.8.8 1 .5 0 1.3.2 1.8 0 .6-.2.8-.4.8-1 0-.3-.5-.7-1-.7z"/><path fill="#595959" d="M112.5 487.2h-.2c0 .2 0 .3.2.3s.3 0 .3-.2h-.3z"/><g fill="#595959"><path d="M116.2 488s0-.2-.3-.2-.5 0-.5.2 0 .2.3.3c0 0 0 .2.3.2s.5 0 .5-.2c0 0 0-.2-.3-.2z"/><ellipse cx="115.1" cy="487.6" rx=".2" ry=".2"/><path d="M114.6 488c0-.3-.3-.3-.5-.2v.3c-.2.2-.2.4 0 .6 0 0 .2.2.4 0 0 0 .2-.2 0-.3.3 0 .3-.3.2-.4z"/></g></g><g><path fill="#F7AD96" d="M125 487.5c0-.2.2-.3.6-.3.3 0 .5 0 .5.3 0 .2 0 .3-.2.4h-.2-.2l-.2-.2v0c-.2 0-.2-.2-.2-.3z"/><path fill="#FFF" d="M122.3 485.6l-.6.7 1.3 1 .5-.6c.3-.4.3-1 0-1.2-.4-.3-1-.2-1.2 0z"/><path fill="#F7AD96" d="M121.7 486.3c-.3.4-.3 1 0 1.2.4.3 1 .2 1.2 0v-.2l-1.3-1z"/><circle fill="#595959" cx="122.8" cy="486.2" r=".1"/><path fill="#FFF" d="M123.6 485.2s-.2.3-.4.3h-.2c0-.2 0-.3.3-.4.2 0 .3 0 .3.2zm-1.5 0h.5c.2 0 .2.2 0 .3h-.3c-.2-.2-.2-.3 0-.4z"/><path fill="#595959" d="M123.8 488.7c0 .3.2.2.5.2.2-.2.3-.2.3-.4v-.2l-.8.2z"/><path fill="#FFF" d="M123.8 486.6c-.2 0-.4.2-.3.5l.3 1.6.8-.2-.3-1.5c0-.3-.3-.5-.5-.4z"/><path fill="#595959" d="M122.8 488.4c0 .2 0 .3.3.3s.5.2.6 0v-.2l-.7-.3-.2.2z"/><path fill="#FFF" d="M124 486.5c-.3 0-.5 0-.6.3l-.5 1.4.6.3.5-1.4c.2-.2 0-.4 0-.5zm2.7.2c0-.3-.2-.5-.4-.5s-.4.2-.4.5v1.6h.7v-1.6z"/><path fill="#595959" d="M126 488.3c0 .4 0 .4.3.4s.4 0 .4-.3h-.8zm-3-3h-.2s0-.7 0 0zm-.4.2s-.3-1 0 0z"/><path fill="#FFF" d="M124.4 485.7h1.2c.5 0 1 .3 1 .6h.3c0-.4 0-.6.3-.6l-.2.5v.2h-.2v.2c0 .4-.3.6-1 .8-.5.2-1.2.2-1.7 0s-.7-.4-.7-.8c0-.5.5-1 1-1z"/><path fill="#595959" d="M127.5 485.6h.2v.2h-.2-.2s0-.2.2-.2z"/><g fill="#595959"><path d="M124 486.5s0-.2.2-.2.4 0 .4.2l-.3.2-.3.2s-.4-.2-.4-.3c0 0 0-.2.3-.2z"/><ellipse cx="125" cy="486.1" rx=".2" ry=".2"/><path d="M125.5 486.3s.3-.2.5 0v.3c.3 0 .3.3.2.4 0 0-.3.2-.5 0 0 0-.2 0 0-.3-.3 0-.3-.2-.2-.4z"/></g></g><g><path fill="#595959" d="M88.2 498c0 .2 0 .2.2.3 0 0 .2 0 .2-.2h-.3z"/><path fill="#FFF" d="M89 496.5c-.3 0-.4 0-.4.3l-.3 1 .4.2.3-1v-.5zm1.8 0l-.3-.2c-.2 0-.2.2-.2.4l.3 1.3h.4l-.2-1.4z"/><path fill="#595959" d="M90.6 498c0 .3 0 .2.3.2v-.2h-.4z"/><path fill="#F7AD96" d="M87.3 495.2l.6-.3c.3-.2.6 0 .7.4 0 .3 0 .6-.4.7l-.6.3c-.4.2-.7 0-.8-.4-.3-.4 0-.7.3-.8z"/><circle fill="#595959" cx="88.2" cy="495.4" r=".1"/><path fill="#FFF" d="M88 496l.3-.2.3-.3h-.2v-.3H88v-.2c-.2 0 0-.2 0-.2h1l-.2.2v.2c.2 0 0 .2 0 .3.2 0 .3 0 .3.2.2.2 0 .4 0 .5h-.2s0 .2-.3.2h-.2-.2c-.2 0 0-.2 0-.3z"/><path fill="#FFF" d="M88.3 496.8V497.4c.2 0 .3 0 .3-.2 0 .2.2.3.3.3v-.2h1l.2.2c0 .2 0 .2.2.2v-.3-.2h.3s0 .2.2.2v-.2l.2-.3c0-.2 0-.3-.2-.3v-.2-.2-.2c.2 0 .2-.3 0-.3v.3s0 .2-.2.2v-.3c-.2-.2-.4-.3-.5-.2H89.3h-.2c-.2 0-.3 0-.3.2-.3 0-.5.2-.6.4-.3 0-.4 0-.4.2 0 0 0 .2.3.2zm2.5.2z"/><path fill="#595959" d="M91 494.3c-.2.2 0 .3 0 .3h.3v-.2l-.4-.2z"/><path fill="#FFF" d="M91.5 492.8s-.2 0-.3.3l-.3 1.2.3.2.3-1.2v-.4zm2 .2c0-.2-.2-.4-.4-.4v.5l.2 1.3h.5l-.3-1.3z"/><path fill="#595959" d="M93.2 494.3c0 .3.2.3.3.2.2 0 .3 0 .2-.2h-.5z"/><path fill="#F7AD96" d="M90 491.5l.6-.2c.3 0 .7 0 .8.4 0 .3 0 .7-.4.8l-.6.2c-.4 0-.8 0-1-.4 0-.4.2-.7.5-.8z"/><circle fill="#595959" cx="90.8" cy="491.7" r=".1"/><path fill="#FFF" d="M90.7 492.5c0-.2.2-.3.3-.4h.2v-.3-.2H91h-.2c-.2 0-.2 0-.3-.2v-.2h.3s.2 0 .3.2c.2-.2.3-.2.4 0h.2V491.7s.2 0 .2.2 0 .4-.2.5h-.2s0 .2-.2.3H91h-.2-.3c0-.2 0-.3.2-.3z"/><path fill="#FFF" d="M91 493v.4s-.2 0-.2.2c0 0 0 .2.2.2s.2 0 .2-.2l.3.2c.2 0 .2 0 .3-.2h1c0 .2 0 .2.2.3s.2 0 .2 0v-.2-.2h.5v-.2s.2 0 .2-.2l-.3-.2v-.2-.2-.2c0-.2.2-.4 0-.4v.3c-.2 0-.2.2-.2.2v-.3c-.2 0-.4-.2-.6 0h-.4l-.3-.2H92h-.2l-.2.3c-.2 0-.5.2-.6.4-.2 0-.3 0-.3.2s0 0 .2 0zm2.5.3z"/><path fill="#595959" d="M83.2 496.8v.3s.3 0 .4 0v-.2h-.4z"/><path fill="#FFF" d="M83.8 495.2s-.2 0-.3.3l-.3 1.2h.4l.3-1c0-.2 0-.4-.2-.5zm2 .2c0-.2 0-.4-.3-.4 0 0-.2.3 0 .5v1.3h.6l-.2-1.4z"/><path fill="#595959" d="M85.6 496.8c0 .3.2.3.3.3 0 0 .2 0 0-.2h-.4z"/><path fill="#F7AD96" d="M82 493.8h.2l.7-.2c.2 0 .6 0 .7.4 0 .4 0 .7-.4 1h-.7c-.4.2-.8 0-1-.4 0-.3.2-.7.5-.8z"/><circle fill="#595959" cx="83.1" cy="494.1" r=".1"/><path fill="#FFF" d="M83 494.8s0-.3.3-.3c0 0 0-.2.2-.3-.2-.2 0-.3 0-.4H83s-.2 0-.2-.2v-.2H84l-.2.3v.4c.2 0 .3 0 .3.2.2.2 0 .4 0 .5h-.3l-.2.2h-.3-.2-.2v-.4z"/><path fill="#FFF" d="M83.2 495.5V496.2c.2 0 .3 0 .3-.2 0 .2.2.3.3.3.2 0 .3 0 .3-.2h.2s0 .2.2.2h.8v.2h.4v-.2-.2h.5v-.2c.2 0 .3 0 .3-.2l-.2-.2c.2 0 .2 0 .2-.2v-.2-.2-.4l-.2.3v.2s0-.2-.2-.2v-.2c0-.2-.3-.2-.5 0l-.3-.2h-.6-.2c-.2 0-.3 0-.3.3-.4 0-.6.2-.7.4-.2 0-.4.2-.4.3 0 0 0 .3.2.3zm2.7.3z"/><g><path fill="#595959" d="M109 497.3c0 .3 0 .3.2.4 0 0 .2 0 .3-.2l-.5-.3z"/><path fill="#FFF" d="M109.8 495.4c-.2 0-.4 0-.4.3l-.4 1.5.5.2.4-1.5c0-.4 0-.6-.2-.6zm2.5.2c0-.3-.3-.5-.4-.5-.3.2-.4.4-.3.7l.3 1.6h.6l-.3-1.7z"/><path fill="#595959" d="M112 497.3c0 .4.2.3.4.3 0 0 .3 0 .2-.3h-.6z"/><path fill="#F7AD96" d="M107.7 493.6l1-.2c.3-.2.8 0 1 .5 0 .3-.2.8-.6 1l-.7.2c-.5 0-1 0-1-.6-.3-.4 0-.8.4-1z"/><circle fill="#595959" cx="108.9" cy="494" r=".1"/><path fill="#FFF" d="M108.7 495c0-.3.2-.5.4-.6h.2s0-.2.2-.3h-.2v-.3-.2h-.2-.5v-.4c.2 0 .2 0 .3.2h.4c0-.2.3-.2.4 0h.3l-.2.3v.6c.2 0 .3.2.3.4.2.2 0 .5-.2.5h-.2s0 .2-.3.3h-.3-.2-.3c0-.2 0-.4.2-.4z"/><path fill="#FFF" d="M109 495.8v.8c.3 0 .4 0 .4-.3 0 .3.2.4.4.4 0 0 .3 0 .3-.3h.2l.3.2h.3s.2 0 .2-.2c0 0 0 .2.2.2h.4v.2s0 .2.2.2c0 0 .2 0 .2-.2v-.2-.3l.4.2s.2 0 .2-.2v-.2h.2c0-.2 0-.3-.2-.4v-.2-.3-.2c.2-.2.2-.5 0-.5l-.2.4v.3h-.2v-.4c-.2-.2-.4-.2-.6-.2v.2l-.4-.2h-.7-.2c-.3 0-.4 0-.4.3-.4 0-.7.3-1 .5-.2 0-.3 0-.3.3 0 0 0 .3.3.3zm3.3.2z"/></g><g><path fill="#595959" d="M100.5 497.6c0 .3 0 .3.2.3 0 0 .3 0 .3-.2v-.2h-.5z"/><path fill="#FFF" d="M101.3 495.6l-.4.4-.5 1.5h.6l.5-1.3c0-.3 0-.5-.2-.5zm2.5.2c0-.2-.2-.4-.4-.4s-.2.3-.2.6l.3 1.6.6-.2-.2-1.6z"/><path fill="#595959" d="M103.5 497.6c0 .4.3.3.4.3l.2-.4v-.2l-.7.2z"/><path fill="#F7AD96" d="M99.2 494l1-.4c.4 0 .8 0 1 .6 0 .4-.2 1-.6 1l-.8.2c-.5.2-1 0-1-.5-.2-.5 0-1 .4-1z"/><circle fill="#595959" cx="100.4" cy="494.2" r=".1"/><path fill="#FFF" d="M100.2 495.2c0-.2.2-.4.4-.5h.2v-.3-.2-.3s0-.2-.2-.2h-.3-.3c0-.3 0-.4.2-.4h1v.2c.2 0 .2-.2.3-.2l-.2.4v.5c.2 0 .3.2.4.3 0 .3 0 .5-.3.6h-.2c0 .2-.2.3-.3.4h-.4-.3-.3c0-.3 0-.4.2-.4z"/><path fill="#FFF" d="M100.6 496l-.2.3v.3s0 .3.3.3.2-.3.2-.4c0 .2.2.4.3.4.2 0 .3-.2.3-.3h1.4v.3l.3.2s.2 0 .2-.2v-.2-.2h.2s0 .2.2.2c0 0 .2 0 .2-.3l.2-.3c0-.2 0-.3-.3-.3l.2-.3v-.4-.2-.4l-.2.4v.3s-.2 0-.2-.2v-.2c-.2 0-.5-.2-.6 0h-.2-.2-.2c0-.2 0-.2-.2-.2h-.2-.2-.2c-.3 0-.4.2-.4.3-.3 0-.6.2-.7.5h-.2s-.3 0-.3.2.2.3.3.3zm3.3.3h-.2z"/></g><g><path fill="#595959" d="M93 501.6c-.2.2 0 .2 0 .3.2 0 .3 0 .4-.3l-.5-.3v.2z"/><path fill="#FFF" d="M93.7 499.6c-.2 0-.3 0-.4.4l-.4 1.4.4.2.4-1.5v-.4zm2.5.2c0-.3-.3-.5-.4-.4-.2 0-.3.2-.2.5l.3 1.5h.5l-.3-1.7z"/><path fill="#595959" d="M96 501.5c0 .4 0 .4.3.3.2 0 .3 0 .2-.3H96z"/><path fill="#F7AD96" d="M91.6 498v-.2l1-.2c.3-.2.8 0 1 .5 0 .5-.2 1-.6 1l-.8.4c-.5 0-1 0-1-.5-.2-.6 0-1 .4-1z"/><circle fill="#595959" cx="92.8" cy="498.2" r=".1"/><path fill="#FFF" d="M92.6 499s.2-.3.4-.3l.3-.3-.2-.2s0-.2.2-.3c0-.2-.2-.2-.2-.2h-.3c-.2 0-.3 0-.3-.2v-.3h1.2v.2c.2 0 .3-.2.3-.2v.4h-.2l.2.3v.3s.2 0 .2.3c0 .2 0 .5-.3.5v.2c-.2 0-.3.3-.4.3h-.7-.3c0-.2 0-.3.2-.4z"/><path fill="#FFF" d="M93 500s-.2 0-.2.2v.2c0 .3 0 .4.3.4.2 0 .3 0 .3-.3 0 .3.3.4.4.4.2 0 .3-.2.3-.4h.2s0 .2.2.2h.3s.2 0 .2-.2c0 0 0 .2.2.2h.3v.2s0 .2.2.2c0 0 .2 0 .2-.2 0 0-.2 0-.2-.2v-.2s.2 0 .3-.2c0 .2.2.3.3.3l.2-.2.2-.4-.2-.2v-.2-.3-.2c.2-.2.2-.5.2-.5l-.3.5v.2H96c.2-.2.2-.3 0-.4 0-.2-.3-.2-.5 0l-.4-.2h-.2-.2-.2-.2c-.3 0-.4 0-.4.3-.3 0-.6.2-.7.4-.2 0-.4 0-.4.3 0 .2 0 .3.3.3zm3.3.2z"/></g><g><path fill="#595959" d="M94.7 497.2c0 .2 0 .2.2.3l.2-.2-.5-.2v.2z"/><path fill="#FFF" d="M95.4 495.6s-.3 0-.3.3l-.3 1 .5.2.3-1.2v-.4zm2 .2c0-.2-.2-.4-.4-.4v.5l.2 1.2h.4l-.2-1.4z"/><path fill="#595959" d="M97.2 497.2c0 .3 0 .2.3.2 0 0 .2 0 0-.2h-.3z"/><path fill="#F7AD96" d="M93.7 494.2l.7-.2c.4 0 .7 0 .8.4.2.4 0 .7-.4 1h-.6c-.4.2-.8 0-1-.4 0-.3.2-.7.5-.8z"/><circle fill="#595959" cx="94.6" cy="494.5" r=".1"/><path fill="#FFF" d="M94.5 495.2l.3-.3c0-.2.2-.3.3-.4v-.3h-.2s-.2 0-.2-.2c0 .2-.2 0-.3 0 0 0 0-.2.2-.2h.7v.2l.2-.2v.3c-.2 0-.2 0-.2.2h.2v.4l.2.2c0 .2 0 .4-.3.5l-.4.3h-.2-.2-.2v-.4z"/><path fill="#FFF" d="M94.8 496V496.7c.2 0 .3 0 .3-.2h.2c0 .2 0 .3.2.3 0 0 .2 0 .2-.2H96.8s0 .2.2.2c0 0 0 .2.2.2v-.3-.2l.3-.2s0 .2.2.2c0 0 .2 0 .2-.2v-.3-.2-.2-.2-.2-.4l-.2.3v.3h-.2v-.3c0-.2-.3-.2-.4 0h-.2-.3c0-.2-.2-.2-.3-.2H96h-.2c-.2 0-.3 0-.3.3l-.6.5h-.2c-.2 0-.3 0-.3.2 0 0 0 .2.3.2zm2.6 0z"/></g><g><path fill="#595959" d="M102.7 494v.3h.4v-.2h-.3z"/><path fill="#FFF" d="M103.3 492.5s-.2 0-.3.3l-.3 1 .4.3.5-1c0-.3 0-.5-.2-.5zm2 0s-.2-.3-.3-.2c0 0-.2.2 0 .4v1.3h.6l-.3-1.4z"/><path fill="#595959" d="M105 494c.2.3.3.3.4.3.2 0 .3 0 .2-.3h-.5z"/><path fill="#F7AD96" d="M101.7 491l.7-.2c.3 0 .7 0 .8.5 0 .3 0 .7-.4.8l-.7.3c-.3 0-.6 0-.7-.4-.2-.5 0-.8.4-1z"/><circle fill="#595959" cx="102.6" cy="491.3" r=".1"/><path fill="#FFF" d="M102.4 492h.2s0-.2.2-.3l.2-.2v-.2-.2h-.2-.3-.2v-.3h1.2l-.2.3v.4c.2 0 .3 0 .3.2s0 .4-.2.5h-.2c0 .2 0 .3-.2.4h-.7v-.3z"/><path fill="#FFF" d="M102.8 492.8s-.2 0-.2.2v.2s0 .2.2.2.2 0 .2-.2c0 .2.2.3.4.3 0 0 .2 0 .2-.2h1v.2c0 .2 0 .2.2.2v-.3-.2h.2s0 .2.2.2c0 0 .2 0 .2-.2l.2-.3c0-.2 0-.3-.2-.3v-.2-.3-.2c0-.2.2-.4 0-.4v.4c-.2 0-.2 0-.2.2v-.2-.2c-.2 0-.4-.2-.6 0h-.3c-.2 0-.2-.2-.3-.2h-.3-.3c-.2 0-.3.2-.3.3-.2 0-.5 0-.6.3-.2 0-.3 0-.3.2s0 .3.2.3zm2.6.2z"/></g><g><path fill="#595959" d="M104.4 499.2c0 .2 0 .3.2.3s.3 0 .4-.2l-.5-.2v.2z"/><path fill="#FFF" d="M105.2 497.2s-.3 0-.4.4l-.4 1.5.6.2.4-1.5c0-.2 0-.4-.2-.5zm2.5.2c0-.3-.2-.5-.4-.4l-.2.5.5 1.6h.5l-.3-1.6z"/><path fill="#595959" d="M107.5 499v.3c0 .2.2.2.3 0 .2 0 .3 0 .3-.2h-.5z"/><path fill="#F7AD96" d="M103.2 495.5l1-.3c.3 0 .7 0 1 .5 0 .5-.2 1-.7 1l-.8.3c-.5.2-1 0-1-.5-.2-.4 0-1 .5-1z"/><circle fill="#595959" cx="104.3" cy="495.8" r=".1"/><path fill="#FFF" d="M104 496.7h.3c0-.2 0-.3.3-.4l.2-.3v-.2-.3h-.2c-.2 0-.3 0-.4-.2h-.3v-.3h.6c.2 0 .4-.2.5 0h.4s0 .2-.2.3v.3c.2 0 0 .2 0 .3.2 0 .3 0 .4.2 0 .2 0 .5-.3.6h-.2s0 .3-.2.3c0 .2-.2 0-.3 0l-.2.2c-.2 0-.3 0-.3-.2v-.3z"/><path fill="#FFF" d="M104.5 497.6v.4s-.2 0-.2.2l.3.2s.3 0 .3-.2c0 .2 0 .3.3.3 0 0 .2 0 .2-.2H107v.2c0 .2 0 .3.2.3 0 0 .2 0 .2-.2v-.2-.2h.7v-.2c.2 0 .3 0 .3-.3 0 0 0-.2-.2-.2l.2-.3s0-.2-.2-.3v-.3c.2-.3.3-.5.2-.6l-.3.6-.2.2c0-.2 0-.3-.2-.4 0-.2-.3-.2-.5 0h-.3-.2c0-.2 0-.3-.2-.3 0 0 0 .2-.2.2h-.3c-.2 0-.4 0-.4.3-.3 0-.6.3-.7.6-.3 0-.4 0-.4.3 0 .2 0 .3.2.3zm3.3.3v-.2z"/></g><g><path fill="#595959" d="M99 500.8c0 .2 0 .2.3.3 0 0 .3.2.3 0v-.2l-.5-.2v.2z"/><path fill="#FFF" d="M100 498.8c-.2 0-.4 0-.5.4l-.4 1.4.7.2.4-1.5v-.5zm2.4.2c0-.3-.3-.5-.4-.4-.2 0-.3.2-.2.5l.3 1.7h.7l-.3-1.7z"/><path fill="#595959" d="M102 500.7h.2c0 .4 0 .4.3.3.2 0 .3 0 .2-.3h-.6z"/><path fill="#F7AD96" d="M97.8 497l1-.2c.4-.2.8 0 1 .5 0 .4-.2 1-.6 1l-.8.3c-.5 0-1 0-1-.5-.2-.4 0-.8.4-1z"/><circle fill="#595959" cx="99" cy="497.4" r=".1"/><path fill="#FFF" d="M98.8 498.3c0-.2.2-.4.4-.4h.2v-.4-.2-.3H99 99c-.2 0-.4 0-.4-.2v-.3h1.1v.2s.2-.2.2 0v.2h-.2s.2 0 .2.2v.3s.2 0 .3.3c0 .2 0 .5-.4.6h-.2l-.3.3h-.8c0-.2 0-.3.2-.4z"/><path fill="#FFF" d="M99.2 499.2s-.2 0-.2.2v.2c0 .3 0 .4.3.4 0 0 .2 0 .2-.2h.2c0 .2 0 .3.2.3h.2s.2 0 .2-.2c0 0 0 .2.2.2h.2c.2 0 .3 0 .4-.2 0 0 0 .2.2.2h.2v.2l.3.2v-.2-.2-.2s.2 0 .3-.2c0 .2 0 .3.2.3l.3-.3v-.4-.2-.2-.3-.2-.6l-.2.5v.2h-.2v-.4c-.2-.2-.5-.2-.7 0l-.3-.2h-.2-.2-.2-.2-.2c-.3 0-.4 0-.4.3v.2c-.3 0-.6.2-.7.4H99s-.2 0-.2.3.2.2.3.2h.2zm3.3.2z"/></g></g></g><g><path fill="#5F3C14" d="M386.3 406s1-.5 1.5 0c.5.4.2 2 1.6 2v1.5s-1 0-1.6-1c-.5-1 0-2-1.2-2-1 0-.3-.7-.3-.7zM380 401v-1s1.2 0 1.8.7c1 1 .7 4 .7 4H381l-1-3.8z"/><path fill="#CFA166" d="M378 400.8c-1 0-2 .8-2 1.8s1 2 2 2v-3.8z"/><path fill="#A2804C" d="M382.4 401c.2.3 0 .7-.3 1-.3.2-.8 0-1-.2-.2-.3 0-.7.3-1 .4-.2 1-.2 1 .2z"/><path fill="#333" d="M379.6 411c0 .5.4.5 1 .5.4 0 .8 0 .8-.6v-.4h-1.8v.3z"/><path fill="#A2804C" d="M387 406.7c0-1-1-1.8-2.3-1.8H382h-.2v-2.4c0-1-.8-1.8-1.8-1.8h-2v3.7h1.6v6.1h1.8v-2h4v2h1.7V407v-.3z"/><path fill="#333" d="M385.4 410.6v.3c0 .5.4.5 1 .5.3 0 .7 0 .7-.6v-.4h-1.6z"/><circle fill="#333" cx="380.2" cy="402.3" r=".3"/><path fill="#565656" d="M348.3 414.5s-.4-1-1-1c-.6-.2-1.8 1-2.7 0l-1 1s.5.7 1.6.5c1 0 1.8-1.2 2.5-.3.7.8.6-.2.6-.2zm6-5v-.8s-1.2 0-1.8.7c-1 1-.7 4-.7 4l1.4.2 1-4z"/><path fill="#CFA166" d="M356.4 409.3c1 0 1.8.8 1.8 1.8s-.8 2-1.8 2v-3.7z"/><path fill="#828282" d="M352 409.4c-.2.3 0 .8.3 1 .3.3.8.2 1 0 .2-.4 0-1-.3-1-.3-.3-.8-.3-1 0z"/><path fill="#333" d="M354.7 419.4c0 .6-.4.6-.8.6-.6 0-1 0-1-.6v-.3h1.7v.4z"/><path fill="#828282" d="M347.2 415.2c0-1 1-2 2.4-2h2.7l.2.2V411c0-1 1-1.7 2-1.7h1.8v3.6h-1.6v6.1H353v-2h-4v2h-1.8v-3.6-.2z"/><path fill="#333" d="M349 419v.4c0 .6-.4.6-1 .6-.4 0-.8 0-.8-.6v-.3h1.8zm5-8.2s0 .2.2.2.3 0 .3-.2-.2-.3-.3-.3c0 0-.3 0-.3.3z"/><path fill="#F7AD96" d="M403.5 429.8c0-.4-.6-.8-1.3-.8-.7 0-1.3.4-1.3.8s.2.7.7.8v.3l.3-.3h.2l.3.2v-.3l.5-.2v.4c.2 0 .3-.3.3-.4v-.2l.2-.6z"/><path fill="#FFF" d="M409.5 425.5l1.2 1.5-2.7 2.4-1.3-1.5c-.6-.8-.6-2 .2-2.6.7-.7 1.8-.6 2.5 0z"/><path fill="#F7AD96" d="M410.8 427c.7 1 .6 2-.2 2.7-.7.6-2 .5-2.5-.2l2.7-2.5z"/><circle fill="#595959" cx="408.5" cy="426.9" r=".3"/><path fill="#FFF" d="M406.6 424.7c0 .2.4.5.8.6.3 0 .6 0 .6-.2 0 0-.4-.4-.8-.5-.4-.2-.6 0-.6.2zm3.4-.3c-.2 0-.7 0-1 .2-.4.2-.5.5-.3.6.2 0 .7 0 1-.2.3-.2.5-.5.3-.6z"/><path fill="#595959" d="M407.2 431.8c0 .6-.4.6-1 .6-.4 0-.7 0-.7-.6v-.3h1.7v.3z"/><path fill="#FFF" d="M406.3 427c.5 0 1 .6 1 1.2v3.3h-2v-3.3c0-.6.5-1 1-1zm-6.6 1c0-.7.4-1.2 1-1.2s.8.5.8 1v3.7h-1.8V428z"/><path fill="#595959" d="M401.5 431.5v.3c0 .6-.4.6-1 .6-.4 0-.8 0-.8-.6v-.3h1.8zm6.6-6.3h.4s-.2-2-.3 0zm.8 0h.3s.4-2-.2 0z"/><path fill="#FFF" d="M404.8 425.8H402c-1 0-2 .5-2.2 1.3 0 0-.4.2-.5 0 0 0-.2 0-.2-.3 0-.6-.3-1-.6-1h-.4l.2.3c.2 0 .4 0 .6.8 0 .3.2.5.4.6H399.8v.3c0 1 .4 1.5 1.7 1.8 1.2.4 3 .5 4 0 1.3-.5 1.7-.8 1.7-1.8s-1-2-2.4-2z"/><path fill="#595959" d="M397.8 425.6c-.2 0-.3 0-.4.2H397.3c0 .3.2.4.5.4s.5-.2.5-.3c0-.3-.2-.4-.5-.4z"/><g fill="#595959"><path d="M406 427.5c0-.3-.4-.5-.8-.5s-.8.2-.8.5c0 .2.3.4.6.4 0 .2.4.4.8.4s.8-.2.8-.5-.3-.5-.6-.5z"/><ellipse cx="403.6" cy="426.5" rx=".4" ry=".5"/><path d="M402.4 427c-.2-.2-.7-.3-1 0-.4 0-.5.4-.4.7-.4.2-.5.6-.2 1 .2.3.7.3 1 0 .4 0 .5-.4.4-.7.4-.2.5-.6.2-1z"/></g><g><path fill="#F7AD96" d="M407.3 414c0-.4.6-.7 1.3-.7.8 0 1.3.3 1.3.7 0 .4-.4.7-1 .8h.2c0 .2 0 .4-.2.4v-.3-.2h-.4c0 .2 0 .3-.2.3h-.2v-.2h-.4v.3l-.2-.2v-.2c0-.2-.3-.3-.3-.5z"/><path fill="#FFF" d="M401.4 409.7l-1.3 1.5 3 2.4 1-1.5c.8-.6.7-1.8 0-2.4-.8-.7-2-.6-2.6 0z"/><path fill="#F7AD96" d="M400 411.3c-.6.8-.6 2 .2 2.6.7.5 2 .4 2.6-.3l-2.7-2.5z"/><circle fill="#595959" cx="402.4" cy="411.1" r=".3"/><path fill="#FFF" d="M404.3 409s-.4.4-.8.5c-.4 0-.7 0-.7-.2s.4-.5.8-.6c.4-.2.7 0 .7.2zm-3.4-.4l1 .2c.2.2.3.5 0 .6l-1-.2c-.2-.2-.3-.5 0-.6z"/><path fill="#595959" d="M404.7 416.6c0 .6.5.5 1 .4.5 0 1-.2.8-.7v-.3l-1.8.4v.2z"/><path fill="#FFF" d="M404.7 412c-.5 0-.8.5-.7 1l.7 3.4 1.7-.4-.6-3.3c-.2-.6-.6-1-1-.8z"/><path fill="#595959" d="M402.6 415.8c-.2.6 0 .7.6 1 .5 0 .8.2 1-.4v-.2l-1.5-.6v.2z"/><path fill="#FFF" d="M405 411.7c-.5-.2-1 .2-1.2.7l-1 3.2 1.5.6 1.2-3.2c.2-.6 0-1-.5-1.3zm6.2.4c0-.5-.4-1-1-1-.4 0-.8.5-.8 1v3.7h1.8V412z"/><path fill="#595959" d="M409.4 415.7v.3c0 .6.4.6 1 .6.4 0 .8 0 .8-.6v-.3h-1.8zm-6.7-6.3h-.3s.2-2 .3 0zm-.7 0h-.3s-.3-2 .3 0z"/><path fill="#FFF" d="M406 410h2.8c1 0 2 .5 2.2 1.3h.5c.2 0 .2-.2.3-.3.2-.7.4-1 .6-1 .3-.2.4 0 .4 0l-.2.2s-.3 0-.5.8c0 .3 0 .5-.3.6h-.6l.2.3c0 1-.6 1.4-1.8 1.7-1.2.4-3 .5-4 0-1.3-.5-1.8-.8-1.8-1.8 0-1.2 1-2 2.4-2z"/><path fill="#595959" d="M413 409.8c.2 0 .4 0 .5.2h-.2.2c0 .3-.2.4-.5.4-.2 0-.5-.2-.5-.3l.5-.2z"/><g fill="#595959"><path d="M405 411.7c0-.3.2-.5.7-.5s.7.2.7.5c0 .2-.2.4-.6.4v.2c0 .2-.3.4-.7.4-.4 0-.7-.2-.7-.4 0-.3.2-.5.6-.5z"/><ellipse cx="407.3" cy="410.7" rx=".4" ry=".5"/><path d="M408.4 411.3c.3-.3.7-.4 1-.2.4.3.5.6.4 1 .4 0 .5.5.3.8-.2.4-.7.4-1 .2-.4 0-.5-.5-.3-.8-.4-.2-.5-.6-.3-1z"/></g></g><g><path fill="#595959" d="M346.3 433.5c0 .4 0 .5.4.6.2.2.4.2.5-.2v-.2l-.8-.3v.2z"/><path fill="#FFF" d="M347.7 430.2c-.2 0-.5.2-.6.6l-.6 2.5 1 .3.6-2.5c0-.4 0-.8-.3-.8zm4.3.3c0-.5-.4-.8-.7-.8-.3 0-.4.5-.3 1l.6 2.7 1-.2-.6-2.7z"/><path fill="#595959" d="M351.6 433.4v.3c0 .4.3.3.6.3s.5 0 .4-.6v-.2l-1 .2z"/><path fill="#F7AD96" d="M344.2 427.2l1.5-.5c.7-.2 1.5.2 1.8 1 .2.6-.2 1.4-1 1.7l-1.4.4c-.7.3-1.5 0-1.7-1-.3-.6 0-1.4 1-1.6z"/><path fill="#595959" d="M346.4 427.7s0 .2-.2.2c0 0-.2 0-.2-.2v-.3c.2 0 .3 0 .4.2z"/><path fill="#FFF" d="M345.8 429.3h.3c0-.3.2-.6.6-.7h.2c0-.2 0-.4.3-.6 0 0-.2 0-.2-.3v-.5c-.2 0-.2 0-.2-.2h-.2-.4c-.2 0-.4 0-.5-.3 0 0 0-.3.3-.4h1c.2-.2.6-.2.8 0v.3l.5-.3s0 .3-.3.6l.2.4c0 .2 0 .3-.2.5.2 0 .5 0 .5.4.2.4 0 1-.5 1h-.3c0 .3-.2.5-.5.6h-.6-.3c-.2.2-.4 0-.5 0 0-.4 0-.6.3-.7z"/><path fill="#FFF" d="M346.5 430.8l-.3.4v.6c0 .2.2.4.4.4.3 0 .5-.2.5-.4h.3c0 .4.2.6.5.6.2 0 .4-.2.4-.4h.4l.3.2h.5c.2 0 .3 0 .4-.3 0 0 0 .2.3.2h.3s0 .2.2.2c0 .3 0 .5.3.5s.5-.3.5-.5c0 0 0-.2-.2-.2v-.2-.2c.2 0 .4 0 .5-.2 0 .3.2.5.4.5s.4 0 .4-.3v-.2c.2 0 .3-.2.3-.5 0-.2-.2-.4-.4-.4l.2-.4c0-.3-.2-.5-.3-.6l.2-.4c0-.4.2-.8 0-1l-.4 1s0 .2-.2.3v-.2c0-.2 0-.4-.2-.5-.2-.3-.6-.4-1-.2v.2l-.6-.3h-.2l-.5-.2h-.2-.3c-.2 0-.3 0-.4.2h-.2c-.3 0-.5.2-.5.5-.7.2-1 .5-1.4 1 0-.2 0-.2-.2-.2-.3 0-.5.2-.5.5s0 .5.4.5zm5.6.5z"/></g><g><path fill="#595959" d="M362 456.6c0 .6.2.7.6.8.3 0 .6 0 .7-.4v-.3l-1-.3-.2.2z"/><path fill="#FFF" d="M364 452.3c-.4 0-.8.3-1 .8l-.8 3.4 1.2.3 1-3.3c0-.5 0-1-.5-1zm5.5.4c-.2-.6-.6-1-1-1-.3 0-.5.7-.3 1.3l.7 3.5 1.2-.2-.7-3.6z"/><path fill="#595959" d="M369 456.5v.3c0 .6.4.5.7.5.4 0 .7-.2.6-.8v-.2l-1.4.2z"/><path fill="#F7AD96" d="M359.3 448.4h.2l1.8-.6c1-.3 2 .2 2.3 1.2.3 1-.3 2-1.2 2.2l-1.8.6h-.2c-1 .4-2-.2-2.3-1-.2-1 .4-2 1.3-2.4z"/><path fill="#595959" d="M362 449c.2.2 0 .3 0 .4-.2 0-.3 0-.4-.2 0 0 0-.3.2-.3.2-.2.3 0 .3 0z"/><path fill="#FFF" d="M361.4 451.2h.4c0-.4.2-.8.6-1h.3c0-.3.2-.5.4-.7l-.3-.4v-.5l-.3-.3h-.7c-.3 0-.6 0-.7-.4 0-.2 0-.5.4-.5h1.1c.4-.3.8-.3 1 0 .2 0 .3.2.3.3.2-.2.4-.4.5-.3 0 0 0 .4-.4.8l-.2.2c.2 0 .3.3.3.5.2.2.2.4 0 .6.3 0 .6.4.7.7.2.5 0 1-.7 1.3h-.4c0 .4-.3.7-.6.8-.3.2-.5 0-.8 0-.2 0-.3.2-.4.3-.3 0-.6 0-.7-.4 0-.4.2-.7.4-.8z"/><path fill="#FFF" d="M362.4 453v.2c-.2 0-.4.2-.4.5v.7c0 .3.2.6.5.6s.6-.3.6-.6h.4v.2c0 .3.2.6.6.6.3 0 .6-.3.6-.6h.5s.3.3.5.3c0 0 .2 0 .3-.2h.4c.2 0 .4 0 .5-.2 0 .2.3.3.5.3s.3 0 .4-.2c0 .2 0 .4.3.4v.2c0 .2 0 .4.3.4s.5-.2.5-.4 0-.3-.2-.4v-.3-.3c.2 0 .4 0 .6-.3v.2c0 .3.2.6.5.6s.6-.3.6-.6v-.2c.2 0 .4-.3.4-.6s-.2-.5-.5-.6c.2 0 .3-.3.3-.5 0-.3-.2-.6-.4-.7l.3-.5c.3-.5.4-1 .3-1-.2-.2-.5.3-.7 1-.2 0-.3.3-.3.5 0-.2-.2-.3-.3-.4v-.5c-.4-.4-1-.5-1.4-.3l-.2.3-.6-.3h-.4c0-.2-.3-.3-.5-.3h-.3l-.4-.2c-.2 0-.4 0-.6.3h-.2c-.3 0-.6.3-.7.7 0 0 .2 0 .2.2-.8 0-1.4.4-1.7 1l-.3-.2c-.4 0-.7.3-.7.7 0 .4.3.7.7.7h.2zm7.2.7z"/></g><g><path fill="#595959" d="M373.6 432.6c0 .6 0 .7.5.8.4 0 .7 0 .8-.4v-.3l-1-.3-.2.2z"/><path fill="#FFF" d="M375.5 428.3c-.4 0-.8.3-1 .8l-.8 3.3 1.2.4.8-3.3c0-.5 0-1-.3-1zm5.5.4c0-.6-.5-1-1-1-.2 0-.4.6-.3 1.2l.7 3.5 1.3-.2-.7-3.6z"/><path fill="#595959" d="M380.4 432.5v.3c.2.6.5.5 1 .4.2 0 .5 0 .4-.7v-.3l-1.4.3z"/><path fill="#F7AD96" d="M371 424.4l1.8-.6c1-.3 2 .2 2.3 1.2.4 1 0 2-1 2.2l-2 .6c-1 .4-2-.2-2.3-1-.3-1 .2-2 1.2-2.4z"/><path fill="#595959" d="M373.7 425c0 .2 0 .3-.2.4 0 0-.3 0-.3-.2v-.3c.3-.2.4 0 .5 0z"/><path fill="#FFF" d="M373 427.2h.3c0-.4.2-1 .7-1h.2c0-.3.2-.5.4-.7-.2 0-.3-.2-.4-.4v-.5c0-.2-.2-.2-.2-.3h-.8c-.3 0-.5 0-.6-.4 0-.2 0-.5.3-.5h1.1c.4-.3.8-.3 1 0 .3 0 .3.2.3.3.2-.2.4-.4.5-.3 0 0 0 .4-.4.8v.2l.3.5c0 .2 0 .4-.2.6.4 0 .6.3.7.7.2.5 0 1-.6 1.3h-.4c0 .3-.3.7-.7.8h-.7-.2l-.3.2c-.3 0-.6 0-.7-.3 0-.4 0-.7.4-.8z"/><path fill="#FFF" d="M374 429v.2c-.3 0-.5.2-.5.5v.7c0 .3.2.6.5.6.4 0 .6-.3.6-.6h.3c0 .5.2.8.5.8s.6-.3.6-.6h.6s.2.3.4.3l.4-.2h.3c.3 0 .5 0 .5-.2 0 .2.3.3.5.3s.3 0 .4-.2c0 .2.3.4.5.4 0 .4 0 .6.4.6 0 0 .3-.2.3-.4s0-.3-.2-.4c.2 0 .2-.2.2-.3v-.3c.2 0 .4 0 .5-.3v.2c0 .3.3.6.6.6s.5-.3.5-.6v-.2c.2 0 .4-.3.4-.6s-.2-.5-.4-.6l.2-.5c0-.3-.2-.6-.4-.7 0-.2.2-.3.3-.5 0-.5.2-1 0-1 0-.2-.4.3-.6 1l-.2.4s0-.2-.3-.3c0 0 0-.3-.2-.5-.3-.4-.8-.5-1.2-.3-.2 0-.2 0-.3.2l-.6-.3-.4.2c0-.2-.2-.3-.5-.3h-.3l-.4-.2s-.3 0-.4.3h-.2c-.4 0-.7.3-.7.7-.7.3-1.3.7-1.6 1.2 0 0 0-.2-.3-.2s-.6.3-.6.7c0 .4.4.7.7.7h.2zm7.2.7z"/></g><g><path fill="#595959" d="M381.7 454.8c-.2.5 0 .6.4.7.5 0 .7 0 1-.4v-.2l-1.2-.3v.3z"/><path fill="#FFF" d="M383.5 450.4c-.3 0-.7.3-1 .8l-.7 3.3 1.2.3.8-3.2c.2-.6 0-1-.3-1.2zm5.5.4c0-.6-.5-1-.8-1-.4 0-.6.7-.5 1.3l.8 3.7 1.3-.3-.8-3.6z"/><path fill="#595959" d="M388.5 454.7v.2c.2.5.4.4.8.4s.7 0 .5-.7v-.3l-1.3.3z"/><path fill="#F7AD96" d="M379 446.5l2-.6c.8-.4 2 0 2.2 1 .2 1-.3 2-1.2 2.4l-2 .5c-1 .3-2-.3-2.3-1.2-.3-1 .2-2 1.2-2.3z"/><path fill="#595959" d="M381.7 447.2s0 .3-.2.3c0 0-.2 0-.3-.2 0 0 0-.3.2-.3 0 0 .3 0 .3.2z"/><path fill="#FFF" d="M381 449.3h.3c0-.4.3-.8.7-1h.3c0-.2 0-.5.3-.6 0 0-.3-.3-.3-.5v-.6c-.2 0-.2-.2-.3-.3h-.2c-.2.2-.4 0-.5 0-.3 0-.6 0-.7-.3 0-.3 0-.5.3-.6h.5c.3 0 .5 0 .6.2h.2c.2-.4.7-.5 1-.3l.2.5.4-.4s0 .4-.3.8l.2.6v.7c.2 0 .5.3.6.6 0 .7-.2 1.2-.7 1.4h-.4c0 .4-.3.7-.6.8h-.8c-.2 0-.3 0-.5.2-.3 0-.6 0-.6-.4 0-.3 0-.6.3-.7z"/><path fill="#FFF" d="M382 451.3c-.3 0-.4.3-.4.5v.8c0 .3.2.6.5.6.4 0 .7-.2.7-.5h.3v.2c0 .3.2.6.6.6.3 0 .6-.2.6-.6h.5c0 .2.2.3.4.3h.8c.2 0 .4 0 .5-.3 0 .2.3.4.5.4h.4s0 .3.3.4c0 .3.2.5.4.5s.4-.3.4-.5 0-.3-.2-.4v-.5c.2 0 .4 0 .6-.2 0 .4.2.6.5.6s.6-.3.6-.6l-.2-.3c.3 0 .5-.2.5-.5s-.2-.5-.5-.5c.2-.2.2-.4.2-.6 0-.3 0-.5-.4-.7l.3-.5c.2-.6.3-1 0-1.2l-.6 1c0 .2 0 .4-.2.6 0-.2 0-.3-.2-.4v-.6c-.4-.4-1-.5-1.4-.3l-.2.3-.6-.3h-.4s-.3-.3-.5-.3h-.8c-.3 0-.4 0-.6.2h-.2c-.4 0-.7.3-.7.6v.2c-.7 0-1.3.5-1.6 1h-.2c-.4 0-.7.2-.7.6 0 .4.4.7.8.7zm7.2.5z"/></g><g><path fill="#595959" d="M360.8 431.7c0 .4 0 .5.3.6.4 0 .6 0 .7-.3v-.3l-1-.2v.2z"/><path fill="#FFF" d="M362.3 428.2c-.3 0-.6.2-.7.7l-.8 2.5 1 .2.7-2.6c0-.3 0-.7-.2-.8zm4.4.3c0-.4-.4-.8-.7-.7-.3 0-.5.5-.4 1l.6 2.8 1-.2-.5-3z"/><path fill="#595959" d="M366.2 431.6v.2c.2.5.4.5.7.4.2 0 .4 0 .3-.6v-.2l-1 .2z"/><path fill="#F7AD96" d="M358.6 425l1.5-.4c1-.2 1.7.2 2 1 .2.7-.2 1.5-1 1.8l-1.5.4c-.8.3-1.7 0-2-1 0-.6.3-1.5 1-1.7z"/><path fill="#595959" d="M360.8 425.6v.3c-.2 0-.3 0-.4-.3 0 0 0-.2.2-.2h.2z"/><path fill="#FFF" d="M360.3 427.4h.2c0-.4.2-.7.5-.8h.3c0-.3 0-.5.2-.6l-.2-.3v-.5c-.2 0-.2-.2-.2-.3h-.6c-.2 0-.4-.2-.5-.3 0-.2 0-.4.2-.5h1.1c.2-.2.6-.2.8 0v.3l.5-.3s0 .3-.3.6v.2l.2.3v.5c.2 0 .4.3.5.6 0 .4-.2 1-.7 1h-.3c0 .3-.2.6-.5.6h-.8l-.3.2c-.2 0-.5 0-.5-.3s0-.6.3-.6z"/><path fill="#FFF" d="M361 429c-.2 0-.3 0-.3.3v.6c0 .2.2.4.4.4.4 0 .6-.2.6-.5h.2c0 .3.2.5.5.5.2 0 .5-.2.5-.4h.4c0 .2 0 .3.3.3h.6c.2 0 .4 0 .5-.2 0 .2.2.3.4.3h.2s0 .2.2.3c0 .3.2.4.4.4s.3 0 .3-.3v-.3-.2-.3c.2 0 .3-.2.5-.3 0 .3 0 .5.4.5 0 0 .3-.2.3-.4v-.2c.2 0 .4-.3.4-.5 0 0-.2-.3-.4-.3l.2-.5c0-.2-.2-.4-.3-.5 0-.2 0-.3.2-.5.2-.4.2-1 0-1l-.4 1s0 .2-.2.3c0 0 0-.2-.2-.2v-.5c-.3-.3-.7-.4-1-.3-.2 0-.2.2-.3.2l-.5-.2h-.2l-.5-.2h-.4c-.2 0-.4 0-.5.2-.3 0-.6.2-.6.5-.6.2-1 .5-1.3 1v-.2c-.4 0-.7.3-.7.6s.3.5.6.5zm5.8.4z"/></g><g><path fill="#595959" d="M378.5 424.7c0 .4 0 .5.4.6 0 0 .4 0 .5-.4v-.3l-1-.3v.3z"/><path fill="#FFF" d="M380 421.2c-.3 0-.6.2-.7.6l-.7 2.6 1 .3.6-2.6c.2-.3 0-.7-.2-.8zm4.4.3c0-.5-.4-.8-.7-.8-.3 0-.4.5-.3 1l.6 3 1-.3-.6-3z"/><path fill="#595959" d="M384 424.6v.2c0 .5.3.4.6.4s.5 0 .4-.6v-.2l-1 .2z"/><path fill="#F7AD96" d="M376.3 418l1.6-.4c.6-.3 1.5.2 1.7 1 .2.7-.2 1.5-1 1.7l-1.4.5c-1 .3-1.7 0-2-1-.2-.7.2-1.5 1-1.7z"/><path fill="#595959" d="M378.5 418.6v.3c-.2 0-.3-.2-.4-.3l.3-.2h.2z"/><path fill="#FFF" d="M378 420.3h.2c0-.3.2-.7.6-.8h.2c0-.2 0-.4.3-.5-.2 0-.3-.2-.3-.4v-.5h-.2-.2s-.3 0-.4-.2c-.3 0-.5 0-.5-.2s0-.4.2-.4h.9c0-.2.5-.3.7 0 0 0 .2 0 .2.3 0-.2.2-.4.2-.3 0 0 0 .3-.3.6 0 .2 0 .3.2.5 0 .2 0 .4-.2.5.3 0 .5.3.6.5 0 .5 0 1-.5 1h-.2c0 .4-.3.6-.6.7h-.6l-.4.2c-.2 0-.4 0-.5-.3 0-.4 0-.6.3-.7z"/><path fill="#FFF" d="M378.7 422s-.3 0-.3.3V423s.2.3.4.3.5-.2.5-.4v-.2h.2v.2c0 .3.2.5.5.5s.5-.2.5-.4h.4c0 .2 0 .3.2.3h.6c.2 0 .3 0 .4-.3 0 .2.2.3.4.3h.3s0 .2.2.2c0 .3 0 .5.3.5.2 0 .4-.2.4-.4l-.3-.2v-.3l.5-.3c0 .3.2.5.4.5.3 0 .5-.2.5-.4v-.3c.2 0 .4-.2.4-.4l-.4-.4.2-.4c0-.3 0-.5-.3-.6v-.4c.3-.5.4-1 .3-1 0 0-.4.4-.6 1v.3l-.3-.3v-.5c-.4-.3-.8-.3-1-.2-.2 0-.3 0-.3.2l-.4-.2h-.3l-.4-.2h-.4-1c-.3 0-.5.3-.6.6h.2c-.6 0-1 .5-1.4 1 0-.2 0-.2-.2-.2-.3 0-.5.3-.5.6 0 .2.3.5.6.5zm5.8.3z"/></g><g><path fill="#595959" d="M367.3 443.8c0 .6 0 .6.5.7.3 0 .6.2.7-.4l-1-.5-.2.3z"/><path fill="#FFF" d="M369 439.4c-.2 0-.6.3-.7 1l-1 3 1.3.5 1-3.4c0-.5 0-1-.5-1.2zm5.7.4c-.2-.6-.6-1-1-1-.3.2-.5.7-.3 1.3l.7 3.7 1.4-.3-.7-3.6z"/><path fill="#595959" d="M374 443.7l.2.3c0 .6.4.5.7.4.3 0 .6 0 .5-.7v-.3l-1.4.3z"/><path fill="#F7AD96" d="M364.5 435.6h.2l1.8-.7c1-.4 2 .2 2.3 1 .3 1-.2 2-1.2 2.4l-1.8.6h-.2c-1 .3-2-.2-2.3-1.2-.3-1 .3-2 1.2-2.2z"/><path fill="#595959" d="M367.4 436.2s0 .3-.2.3h-.3c-.2-.3 0-.4 0-.5.2 0 .3 0 .4.2z"/><path fill="#FFF" d="M366.7 438.4h.3c0-.5.2-1 .6-1h.3c0-.3 0-.5.3-.7-.2 0-.3-.2-.4-.4-.2-.3 0-.5 0-.6h-.2c0-.2 0-.3-.2-.4-.3.2-.6 0-.7 0h-.2c-.2 0-.5 0-.5-.3 0-.2 0-.5.3-.6H367.2c.2 0 .4 0 .6.2.3-.4.7-.5 1-.2l.2.4c.2-.3.4-.4.5-.4 0 0 0 .4-.4.8v.2c.2 0 .3.2.4.4 0 .3 0 .5-.2.7.3 0 .6.3.7.7 0 .5-.2 1-.8 1.2h-.3c-.2.4-.4.7-.8.8h-.8l-.4.2c-.3 0-.6 0-.7-.4 0-.2 0-.5.4-.6z"/><path fill="#FFF" d="M367.6 440.3c-.2 0-.4.3-.4.5v.8c0 .4.2.6.5.6.4 0 .6 0 .6-.4h.3c0 .5.2.8.6.8.3 0 .6-.3.6-.6h.5s.2.3.4.3h.7c.2 0 .4 0 .5-.2 0 .2.2.3.4.3h.4l.3.4c0 .4.3.6.6.6.2 0 .4-.2.4-.5 0 0 0-.3-.2-.3v-.3-.4l.6-.3c0 .4.2.6.5.6.2 0 .5-.3.5-.6v-.3c.2 0 .4 0 .4-.4 0-.3-.3-.6-.6-.6.2 0 .3-.3.3-.6s-.2-.5-.4-.6l.2-.6c.3-.6.4-1 .3-1.2-.2 0-.5.4-.7 1v.6c0-.2-.2-.3-.4-.3v-.7c-.4-.3-1-.4-1.4-.2 0 0-.2 0-.2.2l-.6-.3h-.4s-.3-.3-.5-.3h-.3-.4c-.2 0-.4 0-.5.2h-.3c-.3 0-.6.3-.6.7-.8 0-1.4.5-1.7 1h-.3c-.3 0-.7.3-.7.6 0 .4.3.7.7.7h.2zm7.2.6v-.2z"/></g><g><path fill="#595959" d="M350.3 443.2c-.2.6 0 .7.4.7s.6 0 .8-.4v-.3l-1-.4-.2.2z"/><path fill="#FFF" d="M352 439c-.2-.2-.6 0-.8.7l-.8 3.2 1.2.3.8-3.3c.2-.5 0-1-.3-1zm5.6.3c0-.6-.5-1-.8-1-.4 0-.6.6-.5 1.2l.8 3.6 1.4-.2-.8-3.5z"/><path fill="#595959" d="M357 443v.4c.3.6.5.5 1 .4.3 0 .5 0 .4-.7v-.2l-1.3.3z"/><path fill="#F7AD96" d="M347.5 435h.2l1.8-.6c1-.3 2 .2 2.3 1.2.2 1-.3 2-1.2 2.2l-2 .6c-1 .3-2-.2-2.3-1.2-.3-1 .2-2 1.2-2.2z"/><path fill="#595959" d="M350.3 435.6c0 .2 0 .3-.2.3l-.2-.2c0-.2 0-.3.2-.3h.3z"/><path fill="#FFF" d="M349.6 437.8h.3c0-.4.2-1 .6-1h.3c0-.3 0-.5.2-.7 0 0-.3 0-.3-.3-.2-.2 0-.5 0-.6h-.2l-.2-.2H349.7c-.2 0-.5 0-.6-.4 0-.2 0-.5.3-.6h.4c.4 0 .6 0 .7.2.3-.4.8-.5 1-.2.2 0 .3.2.3.4l.4-.4s0 .5-.3 1c0 0 .3.2.3.4v.7c.2 0 .5.2.6.6 0 .5-.3 1-.8 1.3h-.4c0 .2-.3.5-.6.6h-.8l-.5.2c-.4 0-.7 0-.7-.3s0-.6.3-.7z"/><path fill="#FFF" d="M350.5 439.7c-.2.2-.3.3-.3.5v.8c0 .3.2.5.5.6.3 0 .6-.3.6-.6h.3c0 .5.2.8.6.8.3 0 .5-.3.6-.6h.4s.2.3.5.3c0 0 .2 0 .3-.2l.4.2c.2 0 .4 0 .5-.3 0 .2.2.3.4.3h.4s0 .2.3.3c0 .4.3.6.5.6.3 0 .5-.2.5-.5 0-.2 0-.3-.2-.4v-.3-.3c.2 0 .4 0 .6-.3 0 .4.2.7.5.7.2 0 .5-.3.5-.6v-.2c.2 0 .4-.3.4-.6s-.3-.5-.6-.6l.2-.5c0-.4 0-.7-.4-.8l.3-.6c.3-.5.4-1 .2-1 0-.2-.4.3-.7 1 0 0 0 .3-.2.4 0 0 0-.3-.2-.3v-.6c-.4-.3-1-.4-1.4-.2 0 0-.2 0-.3.2-.2 0-.4-.3-.7-.3h-.3l-.5-.2h-.7c-.3 0-.5 0-.6.2h-.2c-.4 0-.7.2-.7.6-.7.3-1.3.7-1.6 1.2h-.3c-.4 0-.7.2-.7.6s.3.7.7.7zm7.3.6z"/></g></g><g><linearGradient id="a" gradientUnits="userSpaceOnUse" x1="725.5" y1="438.4" x2="725.5" y2="445.5" gradientTransform="matrix(1 0 0 -1 -81 610)"><stop offset="0" stop-color="#379137"/><stop offset=".3" stop-color="#1E7F34"/><stop offset=".7" stop-color="#086F32"/><stop offset="1" stop-color="#006931"/></linearGradient><path fill="url(#a)" d="M635.7 171.6s1 0 4-3 4-4 4.6-4c.8-.3 2.2 0 3.2 1.2l4.6 4.7 1.3 1h-17.6z"/><defs><path id="b" d="M635.7 171.6s1 0 4-3 4-4 4.6-4c.8-.3 2.2 0 3.2 1.2l4.6 4.7 1.3 1h-17.6z"/></defs><clipPath id="c"><use xlink:href="#b" overflow="visible"/></clipPath><linearGradient id="d" gradientUnits="userSpaceOnUse" x1="719.3" y1="436.9" x2="724.2" y2="445.3" gradientTransform="matrix(1 0 0 -1 -81 610)"><stop offset="0" stop-color="#379137"/><stop offset=".3" stop-color="#1E7F34"/><stop offset=".7" stop-color="#086F32"/><stop offset="1" stop-color="#006931"/></linearGradient><path clip-path="url(#c)" fill="url(#d)" d="M643.5 165s3.5.8.4 4c-.6.5-3 2.6-8.3 2.6l7.8-6.6z"/><linearGradient id="e" gradientUnits="userSpaceOnUse" x1="712.2" y1="437.9" x2="712.2" y2="448.1" gradientTransform="matrix(1 0 0 -1 -81 610)"><stop offset="0" stop-color="#379137"/><stop offset=".3" stop-color="#1E7F34"/><stop offset=".7" stop-color="#086F32"/><stop offset="1" stop-color="#006931"/></linearGradient><path fill="url(#e)" d="M618.5 172s1.7 0 5.8-4.2c4.2-4.2 5.6-5.6 6.5-5.7 1.2-.4 3.2 0 4.6 1.7l6.7 6.8 2 1.6h-25.5z"/><defs><path id="f" d="M618.5 172s1.7 0 5.8-4.2c4.2-4.2 5.6-5.6 6.5-5.7 1.2-.4 3.2 0 4.6 1.7l6.7 6.8 2 1.6h-25.5z"/></defs><clipPath id="g"><use xlink:href="#f" overflow="visible"/></clipPath><linearGradient id="h" gradientUnits="userSpaceOnUse" x1="703.2" y1="435.7" x2="710.3" y2="447.9" gradientTransform="matrix(1 0 0 -1 -81 610)"><stop offset="0" stop-color="#379137"/><stop offset=".3" stop-color="#1E7F34"/><stop offset=".7" stop-color="#086F32"/><stop offset="1" stop-color="#006931"/></linearGradient><path clip-path="url(#g)" fill="url(#h)" d="M629.8 162.6s5 1 .5 5.8c-.7.7-4.3 3.6-11.8 3.7l11.3-9.4z"/></g><g><linearGradient id="i" gradientUnits="userSpaceOnUse" x1="715.2" y1="454" x2="715.2" y2="461.1" gradientTransform="matrix(1 0 0 -1 -81 610)"><stop offset="0" stop-color="#379137"/><stop offset=".3" stop-color="#1E7F34"/><stop offset=".7" stop-color="#086F32"/><stop offset="1" stop-color="#006931"/></linearGradient><path fill="url(#i)" d="M625.3 156s1.2 0 4-3 4-4 4.6-4c.7-.3 2 0 3 1.2 1.2 1 4.4 4.3 4.8 4.7l1.2 1h-17.7z"/><defs><path id="j" d="M625.3 156s1.2 0 4-3 4-4 4.6-4c.7-.3 2 0 3 1.2 1.2 1 4.4 4.3 4.8 4.7l1.2 1h-17.7z"/></defs><clipPath id="k"><use xlink:href="#j" overflow="visible"/></clipPath><linearGradient id="l" gradientUnits="userSpaceOnUse" x1="708.9" y1="452.5" x2="713.8" y2="461" gradientTransform="matrix(1 0 0 -1 -81 610)"><stop offset="0" stop-color="#379137"/><stop offset=".3" stop-color="#1E7F34"/><stop offset=".7" stop-color="#086F32"/><stop offset="1" stop-color="#006931"/></linearGradient><path clip-path="url(#k)" fill="url(#l)" d="M633.2 149.4s3.5.8.3 4c-.4.5-3 2.5-8.2 2.6l8-6.6z"/><linearGradient id="m" gradientUnits="userSpaceOnUse" x1="701.8" y1="453.5" x2="701.8" y2="463.7" gradientTransform="matrix(1 0 0 -1 -81 610)"><stop offset="0" stop-color="#379137"/><stop offset=".3" stop-color="#1E7F34"/><stop offset=".7" stop-color="#086F32"/><stop offset="1" stop-color="#006931"/></linearGradient><path fill="url(#m)" d="M608 156.5s1.8-.2 6-4.3 5.5-5.7 6.5-5.7c1.2-.5 3 0 4.6 1.6l6.8 6.8 1.7 1.7H608z"/><defs><path id="n" d="M608 156.5s1.8-.2 6-4.3 5.5-5.7 6.5-5.7c1.2-.5 3 0 4.6 1.6l6.8 6.8 1.7 1.7H608z"/></defs><clipPath id="o"><use xlink:href="#n" overflow="visible"/></clipPath><linearGradient id="p" gradientUnits="userSpaceOnUse" x1="692.9" y1="451.3" x2="699.9" y2="463.5" gradientTransform="matrix(1 0 0 -1 -81 610)"><stop offset="0" stop-color="#379137"/><stop offset=".3" stop-color="#1E7F34"/><stop offset=".7" stop-color="#086F32"/><stop offset="1" stop-color="#006931"/></linearGradient><path clip-path="url(#o)" fill="url(#p)" d="M619.4 147s5 1 .5 5.8c-.7.6-4.3 3.6-12 3.7l11.4-9.5z"/></g><g><linearGradient id="q" gradientUnits="userSpaceOnUse" x1="710.3" y1="387.4" x2="710.3" y2="395.3" gradientTransform="matrix(1 0 0 -1 -81 610)"><stop offset="0" stop-color="#379137"/><stop offset=".3" stop-color="#1E7F34"/><stop offset=".7" stop-color="#086F32"/><stop offset="1" stop-color="#006931"/></linearGradient><path fill="url(#q)" d="M619.5 222.6s1.3-.2 4.5-3.4 4.3-4.3 5-4.4c1-.3 2.5 0 3.6 1.3l5 5.3 1.5 1.3h-19.5z"/><defs><path id="r" d="M619.5 222.6s1.3-.2 4.5-3.4 4.3-4.3 5-4.4c1-.3 2.5 0 3.6 1.3l5 5.3 1.5 1.3h-19.5z"/></defs><clipPath id="s"><use xlink:href="#r" overflow="visible"/></clipPath><linearGradient id="t" gradientUnits="userSpaceOnUse" x1="703.4" y1="385.7" x2="708.8" y2="395.1" gradientTransform="matrix(1 0 0 -1 -81 610)"><stop offset="0" stop-color="#379137"/><stop offset=".3" stop-color="#1E7F34"/><stop offset=".7" stop-color="#086F32"/><stop offset="1" stop-color="#006931"/></linearGradient><path clip-path="url(#s)" fill="url(#t)" d="M628.2 215.2s4 1 .4 4.5c-.5.5-3.3 2.8-9 3l8.6-7.5z"/><linearGradient id="u" gradientUnits="userSpaceOnUse" x1="695.5" y1="386.9" x2="695.5" y2="398.2" gradientTransform="matrix(1 0 0 -1 -81 610)"><stop offset="0" stop-color="#379137"/><stop offset=".3" stop-color="#1E7F34"/><stop offset=".7" stop-color="#086F32"/><stop offset="1" stop-color="#006931"/></linearGradient><path fill="url(#u)" d="M600.4 223s2 0 6.5-4.7c4.5-4.6 6-6.2 7-6.3 1.4-.5 3.6 0 5.2 1.8l7.4 7.5 2 1.8h-28.2z"/><defs><path id="v" d="M600.4 223s2 0 6.5-4.7c4.5-4.6 6-6.2 7-6.3 1.4-.5 3.6 0 5.2 1.8l7.4 7.5 2 1.8h-28.2z"/></defs><clipPath id="w"><use xlink:href="#v" overflow="visible"/></clipPath><linearGradient id="x" gradientUnits="userSpaceOnUse" x1="685.6" y1="384.5" x2="693.4" y2="398" gradientTransform="matrix(1 0 0 -1 -81 610)"><stop offset="0" stop-color="#379137"/><stop offset=".3" stop-color="#1E7F34"/><stop offset=".7" stop-color="#086F32"/><stop offset="1" stop-color="#006931"/></linearGradient><path clip-path="url(#w)" fill="url(#x)" d="M613 212.6s5.5 1.2.5 6.4c-.7.7-4.7 4-13 4l12.4-10.4z"/></g><g><linearGradient id="y" gradientUnits="userSpaceOnUse" x1="715.9" y1="360.9" x2="715.9" y2="366.6" gradientTransform="matrix(1 0 0 -1 -81 610)"><stop offset="0" stop-color="#379137"/><stop offset=".3" stop-color="#1E7F34"/><stop offset=".7" stop-color="#086F32"/><stop offset="1" stop-color="#006931"/></linearGradient><path fill="url(#y)" d="M627.8 249s1 0 3.3-2.3c2.4-2.3 3.2-3.2 3.7-3.2.7-.3 1.8 0 2.6 1l3.7 3.7 1 1h-14.2z"/><defs><path id="z" d="M627.8 249s1 0 3.3-2.3c2.4-2.3 3.2-3.2 3.7-3.2.7-.3 1.8 0 2.6 1l3.7 3.7 1 1h-14.2z"/></defs><clipPath id="A"><use xlink:href="#z" overflow="visible"/></clipPath><linearGradient id="B" gradientUnits="userSpaceOnUse" x1="710.9" y1="359.7" x2="714.8" y2="366.5" gradientTransform="matrix(1 0 0 -1 -81 610)"><stop offset="0" stop-color="#379137"/><stop offset=".3" stop-color="#1E7F34"/><stop offset=".7" stop-color="#086F32"/><stop offset="1" stop-color="#006931"/></linearGradient><path clip-path="url(#A)" fill="url(#B)" d="M634 243.8s3 .6.4 3.2c-.4.4-2.4 2-6.6 2l6.3-5.2z"/><linearGradient id="C" gradientUnits="userSpaceOnUse" x1="705.2" y1="360.5" x2="705.2" y2="368.7" gradientTransform="matrix(1 0 0 -1 -81 610)"><stop offset="0" stop-color="#379137"/><stop offset=".3" stop-color="#1E7F34"/><stop offset=".7" stop-color="#086F32"/><stop offset="1" stop-color="#006931"/></linearGradient><path fill="url(#C)" d="M614 249.5s1.4-.2 4.7-3.5 4.5-4.5 5.2-4.5c1-.4 2.5 0 3.6 1.3 1.3 1 5 5 5.4 5.4l1.4 1.3H614z"/><defs><path id="D" d="M614 249.5s1.4-.2 4.7-3.5 4.5-4.5 5.2-4.5c1-.4 2.5 0 3.6 1.3 1.3 1 5 5 5.4 5.4l1.4 1.3H614z"/></defs><clipPath id="E"><use xlink:href="#D" overflow="visible"/></clipPath><linearGradient id="F" gradientUnits="userSpaceOnUse" x1="698.1" y1="358.8" x2="703.7" y2="368.5" gradientTransform="matrix(1 0 0 -1 -81 610)"><stop offset="0" stop-color="#379137"/><stop offset=".3" stop-color="#1E7F34"/><stop offset=".7" stop-color="#086F32"/><stop offset="1" stop-color="#006931"/></linearGradient><path clip-path="url(#E)" fill="url(#F)" d="M623 242s4 .8.5 4.5c-.5.5-3.4 3-9.4 3l9-7.6z"/></g><g><linearGradient id="G" gradientUnits="userSpaceOnUse" x1="705.7" y1="347.8" x2="705.7" y2="355.3" gradientTransform="matrix(1 0 0 -1 -81 610)"><stop offset="0" stop-color="#379137"/><stop offset=".3" stop-color="#1E7F34"/><stop offset=".7" stop-color="#086F32"/><stop offset="1" stop-color="#006931"/></linearGradient><path fill="url(#G)" d="M615.4 262.2s1.2 0 4.3-3.2 4-4 4.7-4c1-.5 2.4 0 3.4 1l5 5 1.2 1.2h-18.6z"/><defs><path id="H" d="M615.4 262.2s1.2 0 4.3-3.2 4-4 4.7-4c1-.5 2.4 0 3.4 1l5 5 1.2 1.2h-18.6z"/></defs><clipPath id="I"><use xlink:href="#H" overflow="visible"/></clipPath><linearGradient id="J" gradientUnits="userSpaceOnUse" x1="699.1" y1="346.2" x2="704.3" y2="355.1" gradientTransform="matrix(1 0 0 -1 -81 610)"><stop offset="0" stop-color="#379137"/><stop offset=".3" stop-color="#1E7F34"/><stop offset=".7" stop-color="#086F32"/><stop offset="1" stop-color="#006931"/></linearGradient><path clip-path="url(#I)" fill="url(#J)" d="M623.6 255.2s3.7.8.4 4.3c-.5.4-3 2.6-8.6 2.7l8.2-7z"/><linearGradient id="K" gradientUnits="userSpaceOnUse" x1="691.7" y1="347.3" x2="691.7" y2="358" gradientTransform="matrix(1 0 0 -1 -81 610)"><stop offset="0" stop-color="#379137"/><stop offset=".3" stop-color="#1E7F34"/><stop offset=".7" stop-color="#086F32"/><stop offset="1" stop-color="#006931"/></linearGradient><path fill="url(#K)" d="M597.3 262.7s1.8-.2 6.2-4.6c4.3-4.2 5.8-5.8 6.8-5.8 1.2-.6 3.3 0 4.8 1.7 1.7 1.4 6.7 6.4 7.2 7l1.8 1.7h-26.7z"/><defs><path id="L" d="M597.3 262.7s1.8-.2 6.2-4.6c4.3-4.2 5.8-5.8 6.8-5.8 1.2-.6 3.3 0 4.8 1.7 1.7 1.4 6.7 6.4 7.2 7l1.8 1.7h-26.7z"/></defs><clipPath id="M"><use xlink:href="#L" overflow="visible"/></clipPath><linearGradient id="N" gradientUnits="userSpaceOnUse" x1="682.3" y1="345" x2="689.7" y2="357.8" gradientTransform="matrix(1 0 0 -1 -81 610)"><stop offset="0" stop-color="#379137"/><stop offset=".3" stop-color="#1E7F34"/><stop offset=".7" stop-color="#086F32"/><stop offset="1" stop-color="#006931"/></linearGradient><path clip-path="url(#M)" fill="url(#N)" d="M609.2 252.7s5.3 1.2.5 6c-.7.8-4.4 4-12.4 4l12-10z"/></g><g><linearGradient id="O" gradientUnits="userSpaceOnUse" x1="716.6" y1="428.4" x2="716.6" y2="436.5" gradientTransform="matrix(1 0 0 -1 -81 610)"><stop offset="0" stop-color="#379137"/><stop offset=".3" stop-color="#1E7F34"/><stop offset=".7" stop-color="#086F32"/><stop offset="1" stop-color="#006931"/></linearGradient><path fill="url(#O)" d="M625.6 181.6s1.3-.2 4.6-3.5c3.3-3.2 4.4-4.3 5-4.4 1-.4 2.6 0 3.7 1.3 1.2 1 5 4.8 5.2 5.3l1.4 1.3h-20z"/><defs><path id="P" d="M625.6 181.6s1.3-.2 4.6-3.5c3.3-3.2 4.4-4.3 5-4.4 1-.4 2.6 0 3.7 1.3 1.2 1 5 4.8 5.2 5.3l1.4 1.3h-20z"/></defs><clipPath id="Q"><use xlink:href="#P" overflow="visible"/></clipPath><linearGradient id="R" gradientUnits="userSpaceOnUse" x1="709.5" y1="426.7" x2="715.1" y2="436.3" gradientTransform="matrix(1 0 0 -1 -81 610)"><stop offset="0" stop-color="#379137"/><stop offset=".3" stop-color="#1E7F34"/><stop offset=".7" stop-color="#086F32"/><stop offset="1" stop-color="#006931"/></linearGradient><path clip-path="url(#Q)" fill="url(#R)" d="M634.5 174s4 1 .4 4.6c-.6.6-3.5 3-9.4 3l9-7.6z"/></g><g><linearGradient id="S" gradientUnits="userSpaceOnUse" x1="709" y1="408.8" x2="709" y2="418.4" gradientTransform="matrix(1 0 0 -1 -81 610)"><stop offset="0" stop-color="#379137"/><stop offset=".3" stop-color="#1E7F34"/><stop offset=".7" stop-color="#086F32"/><stop offset="1" stop-color="#006931"/></linearGradient><path fill="url(#S)" d="M616 201.2s1.6 0 5.5-4c4-4 5.3-5.4 6.2-5.4 1-.5 3 0 4.3 1.5l6.3 6.4 1.7 1.5h-24z"/><defs><path id="T" d="M616 201.2s1.6 0 5.5-4c4-4 5.3-5.4 6.2-5.4 1-.5 3 0 4.3 1.5l6.3 6.4 1.7 1.5h-24z"/></defs><clipPath id="U"><use xlink:href="#T" overflow="visible"/></clipPath><linearGradient id="V" gradientUnits="userSpaceOnUse" x1="700.6" y1="406.7" x2="707.2" y2="418.2" gradientTransform="matrix(1 0 0 -1 -81 610)"><stop offset="0" stop-color="#379137"/><stop offset=".3" stop-color="#1E7F34"/><stop offset=".7" stop-color="#086F32"/><stop offset="1" stop-color="#006931"/></linearGradient><path clip-path="url(#U)" fill="url(#V)" d="M626.7 192.2s4.7 1 .5 5.5c-.7.6-4 3.5-11.2 3.5l10.7-9z"/></g><g><linearGradient id="W" gradientUnits="userSpaceOnUse" x1="706.6" y1="376.5" x2="706.6" y2="384.6" gradientTransform="matrix(1 0 0 -1 -81 610)"><stop offset="0" stop-color="#379137"/><stop offset=".3" stop-color="#1E7F34"/><stop offset=".7" stop-color="#086F32"/><stop offset="1" stop-color="#006931"/></linearGradient><path fill="url(#W)" d="M615.6 233.5s1.3 0 4.6-3.4c3.3-3.2 4.4-4.4 5-4.4 1-.4 2.7 0 3.8 1.3 1.2 1 5 4.8 5.3 5.2l1.4 1.3h-20z"/><defs><path id="X" d="M615.6 233.5s1.3 0 4.6-3.4c3.3-3.2 4.4-4.4 5-4.4 1-.4 2.7 0 3.8 1.3 1.2 1 5 4.8 5.3 5.2l1.4 1.3h-20z"/></defs><clipPath id="Y"><use xlink:href="#X" overflow="visible"/></clipPath><linearGradient id="Z" gradientUnits="userSpaceOnUse" x1="699.6" y1="374.8" x2="705.1" y2="384.4" gradientTransform="matrix(1 0 0 -1 -81 610)"><stop offset="0" stop-color="#379137"/><stop offset=".3" stop-color="#1E7F34"/><stop offset=".7" stop-color="#086F32"/><stop offset="1" stop-color="#006931"/></linearGradient><path clip-path="url(#Y)" fill="url(#Z)" d="M624.5 226s4 1 .4 4.6c-.6.5-3.4 2.8-9.4 3l9-7.6z"/></g><g><linearGradient id="aa" gradientUnits="userSpaceOnUse" x1="702.4" y1="423" x2="702.4" y2="431.5" gradientTransform="matrix(1 0 0 -1 -81 610)"><stop offset="0" stop-color="#379137"/><stop offset=".3" stop-color="#1E7F34"/><stop offset=".7" stop-color="#086F32"/><stop offset="1" stop-color="#006931"/></linearGradient><path fill="url(#aa)" d="M611 187s1.3-.2 4.7-3.6c3.5-3.5 4.6-4.7 5.4-4.7 1-.5 2.8 0 4 1.3l5.5 5.6 1.4 1.4h-21z"/><defs><path id="ab" d="M611 187s1.3-.2 4.7-3.6c3.5-3.5 4.6-4.7 5.4-4.7 1-.5 2.8 0 4 1.3l5.5 5.6 1.4 1.4h-21z"/></defs><clipPath id="ac"><use xlink:href="#ab" overflow="visible"/></clipPath><linearGradient id="ad" gradientUnits="userSpaceOnUse" x1="695" y1="421.2" x2="700.8" y2="431.3" gradientTransform="matrix(1 0 0 -1 -81 610)"><stop offset="0" stop-color="#379137"/><stop offset=".3" stop-color="#1E7F34"/><stop offset=".7" stop-color="#086F32"/><stop offset="1" stop-color="#006931"/></linearGradient><path clip-path="url(#ac)" fill="url(#ad)" d="M620.2 179s4.2 1 .5 5c-.6.4-3.5 3-9.8 3l9.2-8z"/></g><g><linearGradient id="ae" gradientUnits="userSpaceOnUse" x1="613.1" y1="292.5" x2="613.1" y2="297.7" gradientTransform="matrix(1 0 0 -1 -81 610)"><stop offset="0" stop-color="#379137"/><stop offset=".3" stop-color="#1E7F34"/><stop offset=".7" stop-color="#086F32"/><stop offset="1" stop-color="#006931"/></linearGradient><path fill="url(#ae)" d="M525.6 317.5s1 0 3-2.2 3-3 3.3-3c.6-.2 1.6 0 2.3 1 .8.6 3.2 3 3.5 3.4l1 .8h-13.2z"/><defs><path id="af" d="M525.6 317.5s1 0 3-2.2 3-3 3.3-3c.6-.2 1.6 0 2.3 1 .8.6 3.2 3 3.5 3.4l1 .8h-13.2z"/></defs><clipPath id="ag"><use xlink:href="#af" overflow="visible"/></clipPath><linearGradient id="ah" gradientUnits="userSpaceOnUse" x1="608.5" y1="291.4" x2="612.2" y2="297.6" gradientTransform="matrix(1 0 0 -1 -81 610)"><stop offset="0" stop-color="#379137"/><stop offset=".3" stop-color="#1E7F34"/><stop offset=".7" stop-color="#086F32"/><stop offset="1" stop-color="#006931"/></linearGradient><path clip-path="url(#ag)" fill="url(#ah)" d="M531.4 312.6s2.6.6.3 3c-.4.3-2.2 2-6 2l5.7-5z"/><linearGradient id="ai" gradientUnits="userSpaceOnUse" x1="603.3" y1="292.1" x2="603.3" y2="299.7" gradientTransform="matrix(1 0 0 -1 -81 610)"><stop offset="0" stop-color="#379137"/><stop offset=".3" stop-color="#1E7F34"/><stop offset=".7" stop-color="#086F32"/><stop offset="1" stop-color="#006931"/></linearGradient><path fill="url(#ai)" d="M513 318s1-.3 4.2-3.3c3-3 4-4.2 4.8-4.2 1-.4 2.4 0 3.4 1.2l5 5 1.3 1.2H513z"/><defs><path id="aj" d="M513 318s1-.3 4.2-3.3c3-3 4-4.2 4.8-4.2 1-.4 2.4 0 3.4 1.2l5 5 1.3 1.2H513z"/></defs><clipPath id="ak"><use xlink:href="#aj" overflow="visible"/></clipPath><linearGradient id="al" gradientUnits="userSpaceOnUse" x1="596.7" y1="290.5" x2="601.9" y2="299.5" gradientTransform="matrix(1 0 0 -1 -81 610)"><stop offset="0" stop-color="#379137"/><stop offset=".3" stop-color="#1E7F34"/><stop offset=".7" stop-color="#086F32"/><stop offset="1" stop-color="#006931"/></linearGradient><path clip-path="url(#ak)" fill="url(#al)" d="M521.2 310.8s3.8 1 .4 4.3c-.5.6-3 2.8-8.7 3l8.2-7.2z"/><g><linearGradient id="am" gradientUnits="userSpaceOnUse" x1="592.8" y1="282" x2="592.8" y2="289.4" gradientTransform="matrix(1 0 0 -1 -81 610)"><stop offset="0" stop-color="#379137"/><stop offset=".3" stop-color="#1E7F34"/><stop offset=".7" stop-color="#086F32"/><stop offset="1" stop-color="#006931"/></linearGradient><path fill="url(#am)" d="M503 328s1.3-.2 4-3.2c3-3 4-4 4.5-4 1-.5 2.2 0 3.2 1l4.6 5 1.2 1.2H503z"/><defs><path id="an" d="M503 328s1.3-.2 4-3.2c3-3 4-4 4.5-4 1-.5 2.2 0 3.2 1l4.6 5 1.2 1.2H503z"/></defs><clipPath id="ao"><use xlink:href="#an" overflow="visible"/></clipPath><linearGradient id="ap" gradientUnits="userSpaceOnUse" x1="586.6" y1="280.6" x2="591.6" y2="289.2" gradientTransform="matrix(1 0 0 -1 -81 610)"><stop offset="0" stop-color="#379137"/><stop offset=".3" stop-color="#1E7F34"/><stop offset=".7" stop-color="#086F32"/><stop offset="1" stop-color="#006931"/></linearGradient><path clip-path="url(#ao)" fill="url(#ap)" d="M510.8 321s3.5 1 .4 4.3c-.5.4-3 2.6-8 2.7l7.6-7z"/><linearGradient id="aq" gradientUnits="userSpaceOnUse" x1="579.7" y1="281.5" x2="579.7" y2="292.2" gradientTransform="matrix(1 0 0 -1 -81 610)"><stop offset="0" stop-color="#379137"/><stop offset=".3" stop-color="#1E7F34"/><stop offset=".7" stop-color="#086F32"/><stop offset="1" stop-color="#006931"/></linearGradient><path fill="url(#aq)" d="M486.3 328.5s1.6-.2 5.7-4.6 5.4-6 6.4-6c1-.5 3 0 4.5 1.7l6.4 7 1.8 1.8h-25z"/><defs><path id="ar" d="M486.3 328.5s1.6-.2 5.7-4.6 5.4-6 6.4-6c1-.5 3 0 4.5 1.7l6.4 7 1.8 1.8h-25z"/></defs><clipPath id="as"><use xlink:href="#ar" overflow="visible"/></clipPath><linearGradient id="at" gradientUnits="userSpaceOnUse" x1="570.9" y1="279.4" x2="578" y2="291.8" gradientTransform="matrix(1 0 0 -1 -81 610)"><stop offset="0" stop-color="#379137"/><stop offset=".3" stop-color="#1E7F34"/><stop offset=".7" stop-color="#086F32"/><stop offset="1" stop-color="#006931"/></linearGradient><path clip-path="url(#as)" fill="url(#at)" d="M497.3 318.5s5 1.2.5 6c-.6.8-4 4-11.5 4l11-10z"/></g><g><linearGradient id="au" gradientUnits="userSpaceOnUse" x1="638.5" y1="330.3" x2="638.5" y2="334.6" gradientTransform="matrix(1 0 0 -1 -81 610)"><stop offset="0" stop-color="#379137"/><stop offset=".3" stop-color="#1E7F34"/><stop offset=".7" stop-color="#086F32"/><stop offset="1" stop-color="#006931"/></linearGradient><path fill="url(#au)" d="M552.5 279.7s.7 0 2.3-1.8c1.6-2 2.2-2.5 2.5-2.5.5-.2 1.3 0 1.8.7.8.6 2.6 2.6 2.8 2.8l.7.7h-10z"/><defs><path id="av" d="M552.5 279.7s.7 0 2.3-1.8c1.6-2 2.2-2.5 2.5-2.5.5-.2 1.3 0 1.8.7.8.6 2.6 2.6 2.8 2.8l.7.7h-10z"/></defs><clipPath id="aw"><use xlink:href="#av" overflow="visible"/></clipPath><linearGradient id="ax" gradientUnits="userSpaceOnUse" x1="634.9" y1="329.5" x2="637.8" y2="334.4" gradientTransform="matrix(1 0 0 -1 -81 610)"><stop offset="0" stop-color="#379137"/><stop offset=".3" stop-color="#1E7F34"/><stop offset=".7" stop-color="#086F32"/><stop offset="1" stop-color="#006931"/></linearGradient><path clip-path="url(#aw)" fill="url(#ax)" d="M557 275.7s2 .5 0 2.4c0 .4-1.5 1.7-4.5 1.7l4.4-4z"/><linearGradient id="ay" gradientUnits="userSpaceOnUse" x1="631" y1="330" x2="631" y2="336.1" gradientTransform="matrix(1 0 0 -1 -81 610)"><stop offset="0" stop-color="#379137"/><stop offset=".3" stop-color="#1E7F34"/><stop offset=".7" stop-color="#086F32"/><stop offset="1" stop-color="#006931"/></linearGradient><path fill="url(#ay)" d="M542.8 280s1 0 3.3-2.6 3.2-3.4 3.8-3.4c.6-.3 1.8 0 2.6 1l3.7 4 1 1H543z"/><defs><path id="az" d="M542.8 280s1 0 3.3-2.6 3.2-3.4 3.8-3.4c.6-.3 1.8 0 2.6 1l3.7 4 1 1H543z"/></defs><clipPath id="aA"><use xlink:href="#az" overflow="visible"/></clipPath><linearGradient id="aB" gradientUnits="userSpaceOnUse" x1="625.9" y1="328.8" x2="630" y2="335.9" gradientTransform="matrix(1 0 0 -1 -81 610)"><stop offset="0" stop-color="#379137"/><stop offset=".3" stop-color="#1E7F34"/><stop offset=".7" stop-color="#086F32"/><stop offset="1" stop-color="#006931"/></linearGradient><path clip-path="url(#aA)" fill="url(#aB)" d="M549.2 274.3s2.8.7.3 3.4c-.4.4-2.4 2.2-6.7 2.3l6.4-5.7z"/></g><g><linearGradient id="aC" gradientUnits="userSpaceOnUse" x1="622" y1="300.5" x2="622" y2="304.6" gradientTransform="matrix(1 0 0 -1 -81 610)"><stop offset="0" stop-color="#379137"/><stop offset=".3" stop-color="#1E7F34"/><stop offset=".7" stop-color="#086F32"/><stop offset="1" stop-color="#006931"/></linearGradient><path fill="url(#aC)" d="M536.3 309.5s.6 0 2-1.7c1.7-1.7 2.2-2.3 2.5-2.3.5-.2 1.2 0 1.8.7l2.4 2.6.7.7h-9.4z"/><defs><path id="aD" d="M536.3 309.5s.6 0 2-1.7c1.7-1.7 2.2-2.3 2.5-2.3.5-.2 1.2 0 1.8.7l2.4 2.6.7.7h-9.4z"/></defs><clipPath id="aE"><use xlink:href="#aD" overflow="visible"/></clipPath><linearGradient id="aF" gradientUnits="userSpaceOnUse" x1="618.6" y1="299.7" x2="621.3" y2="304.4" gradientTransform="matrix(1 0 0 -1 -81 610)"><stop offset="0" stop-color="#379137"/><stop offset=".3" stop-color="#1E7F34"/><stop offset=".7" stop-color="#086F32"/><stop offset="1" stop-color="#006931"/></linearGradient><path clip-path="url(#aE)" fill="url(#aF)" d="M540.4 305.7s2 .5.2 2.3c-.2.3-1.5 1.4-4.3 1.5l4-3.8z"/><linearGradient id="aG" gradientUnits="userSpaceOnUse" x1="614.9" y1="300.2" x2="614.9" y2="306" gradientTransform="matrix(1 0 0 -1 -81 610)"><stop offset="0" stop-color="#379137"/><stop offset=".3" stop-color="#1E7F34"/><stop offset=".7" stop-color="#086F32"/><stop offset="1" stop-color="#006931"/></linearGradient><path fill="url(#aG)" d="M527 309.8s1-.2 3.2-2.5 3-3.2 3.5-3.2c.6-.2 1.7 0 2.4 1 1 .8 3.4 3.5 3.7 3.8l1 1H527z"/><defs><path id="aH" d="M527 309.8s1-.2 3.2-2.5 3-3.2 3.5-3.2c.6-.2 1.7 0 2.4 1 1 .8 3.4 3.5 3.7 3.8l1 1H527z"/></defs><clipPath id="aI"><use xlink:href="#aH" overflow="visible"/></clipPath><linearGradient id="aJ" gradientUnits="userSpaceOnUse" x1="610.1" y1="299.1" x2="613.9" y2="305.8" gradientTransform="matrix(1 0 0 -1 -81 610)"><stop offset="0" stop-color="#379137"/><stop offset=".3" stop-color="#1E7F34"/><stop offset=".7" stop-color="#086F32"/><stop offset="1" stop-color="#006931"/></linearGradient><path clip-path="url(#aI)" fill="url(#aJ)" d="M533 304.4s2.8.6.4 3.2c-.4.4-2.3 2-6.3 2.2l6-5.4z"/></g><g><linearGradient id="aK" gradientUnits="userSpaceOnUse" x1="628.7" y1="318.8" x2="628.7" y2="325.6" gradientTransform="matrix(1 0 0 -1 -81 610)"><stop offset="0" stop-color="#379137"/><stop offset=".3" stop-color="#1E7F34"/><stop offset=".7" stop-color="#086F32"/><stop offset="1" stop-color="#006931"/></linearGradient><path fill="url(#aK)" d="M539.3 291.2s1-.2 3.8-3 3.8-3.6 4.4-3.7c.8-.3 2 0 3 1l4.5 4.6 1 1.2h-16.7z"/><defs><path id="aL" d="M539.3 291.2s1-.2 3.8-3 3.8-3.6 4.4-3.7c.8-.3 2 0 3 1l4.5 4.6 1 1.2h-16.7z"/></defs><clipPath id="aM"><use xlink:href="#aL" overflow="visible"/></clipPath><linearGradient id="aN" gradientUnits="userSpaceOnUse" x1="622.8" y1="317.4" x2="627.4" y2="325.5" gradientTransform="matrix(1 0 0 -1 -81 610)"><stop offset="0" stop-color="#379137"/><stop offset=".3" stop-color="#1E7F34"/><stop offset=".7" stop-color="#086F32"/><stop offset="1" stop-color="#006931"/></linearGradient><path clip-path="url(#aM)" fill="url(#aN)" d="M546.7 284.8s3.4.8.4 4c-.4.3-2.7 2.3-7.7 2.4l7.4-6.4z"/></g><g><linearGradient id="aO" gradientUnits="userSpaceOnUse" x1="622.2" y1="307" x2="622.2" y2="315.1" gradientTransform="matrix(1 0 0 -1 -81 610)"><stop offset="0" stop-color="#379137"/><stop offset=".3" stop-color="#1E7F34"/><stop offset=".7" stop-color="#086F32"/><stop offset="1" stop-color="#006931"/></linearGradient><path fill="url(#aO)" d="M531.2 303s1.3 0 4.6-3.4c3.3-3.3 4.4-4.5 5.2-4.5 1-.3 2.5 0 3.6 1.4 1.2 1 5 5 5.3 5.3l1.3 1.3h-20z"/><defs><path id="aP" d="M531.2 303s1.3 0 4.6-3.4c3.3-3.3 4.4-4.5 5.2-4.5 1-.3 2.5 0 3.6 1.4 1.2 1 5 5 5.3 5.3l1.3 1.3h-20z"/></defs><clipPath id="aQ"><use xlink:href="#aP" overflow="visible"/></clipPath><linearGradient id="aR" gradientUnits="userSpaceOnUse" x1="615.2" y1="305.3" x2="620.7" y2="314.9" gradientTransform="matrix(1 0 0 -1 -81 610)"><stop offset="0" stop-color="#379137"/><stop offset=".3" stop-color="#1E7F34"/><stop offset=".7" stop-color="#086F32"/><stop offset="1" stop-color="#006931"/></linearGradient><path clip-path="url(#aQ)" fill="url(#aR)" d="M540 295.5s4 1 .5 4.6c-.5.6-3.3 3-9.3 3l9-7.5z"/></g></g><g fill="#FFF"><path d="M50.2 477h87.6v.7H50.2z"/><circle cx="50.6" cy="474.2" r="3.5"/><circle cx="132.9" cy="474.2" r="3.5"/><circle cx="54.8" cy="473" r="2.6"/><circle cx="140" cy="468.7" r="2.2"/><circle cx="64.5" cy="467.7" r="9.7"/><circle cx="123.2" cy="467.7" r="9.7"/><circle cx="75.3" cy="469.2" r="8.5"/><circle cx="96.6" cy="461.9" r="15.7"/><path d="M112.3 452c0 .3-.2.6-.5.6h-4.2c-.4 0-.6-.3-.6-.6s.2-.6.6-.6h4.2c.3 0 .5.3.5.6zm5 2.5c0 .3-.3.6-.8.6h-7c-.4 0-.8-.2-.8-.5 0-.4.4-.6 1-.6h6.8c.5 0 1 0 1 .5z"/><circle cx="118.9" cy="454.5" r=".7"/><circle cx="113.6" cy="452" r=".7"/><circle cx="139.6" cy="477.4" r=".4"/><path d="M50.2 474.2l8-3.6 17-4 22.4-2.4 13 1.5s3-1 4.3 1S131 473 131 473l1.7 4.5H50.5l-.4-3.5z"/></g><path fill="#6FC16F" d="M572 277l-13.3 8 12.6 2.8 62 62-14.4 15h14.3l-19 17.6 31.4 46.6 12.2-12.2h6l10-10.3h6l5.5-9.4h15l20-20v-7.5L710 364v-14.2L690.2 325l-19 18h-20L593 277"/><path fill="#5BB25B" d="M560.7 465.2l10.6 15.8 24.4 2 5.5-11.5-6.3-33 5.4-5.6 11.5 7.4 10 15.4 16.3-24.8 7.4-2-31.4-46.6 19-17.6H619l14.3-15-62-62-8.3-1.8-4.3 17-22 22-6-6-25 24.8-5.8-6-10.7 10.7 5.8 5.8-13.7 13.7h-7.6l-1.3 11.6 13 12 15.8 25.7 15 34.5"/><g><path fill="#714D49" d="M576.3 317.8h.7v11.6h-.7z"/><path fill="#77B52A" d="M577.2 314.6c-2 0-3.6 1.2-4 3-1 .4-1.4 1.3-1.3 2.3 0 1 1 2 2 2.2.6 0 1 0 1.5-.2l1.4.2c2 0 3.8-1.8 3.7-4-.2-2-1.7-3.4-3.5-3.6z"/><path fill="#5F9030" d="M580.6 318c0 2-1.8 3.5-3.7 3.5-.6 0-1 0-1.5-.2-.4.2-1 .3-1.4.2-1 0-2-1-2-2v.4c0 1 1 2 2 2.2.6 0 1 0 1.5-.2l1.4.2c2 0 3.8-1.8 3.7-4z"/><path fill="#714D49" d="M574 302.3h.7v9.6h-.7z"/><path fill="#77B52A" d="M574.8 299.7c-1.6-.2-3 1-3.3 2.4-.7.4-1.2 1.2-1 2 0 1 .7 1.8 1.7 2 .4 0 .8 0 1.2-.3.3.2.7.3 1 .3 2 0 3.4-1.6 3.3-3.4 0-1.6-1.4-2.8-3-3z"/><path fill="#5F9030" d="M577.7 302.5c-.2 1.6-1.5 3-3.2 3-.4 0-.8-.2-1-.3l-1.3.2c-1 0-1.7-1-1.8-1.8v.5c0 1 .8 1.8 1.8 2 .4 0 .8 0 1.2-.3.3.2.7.3 1 .3 2 0 3.4-1.6 3.3-3.4z"/><path fill="#714D49" d="M568 303.5h.7V315h-.8z"/><path fill="#77B52A" d="M568.8 300.3c-2 0-3.5 1-4 3-.8.4-1.4 1.3-1.3 2.3 0 1.2 1 2.2 2.2 2.3.5 0 1 0 1.4-.4l1.5.3c2.2 0 4-2 3.8-4.2 0-1.8-1.6-3.3-3.5-3.5z"/><path fill="#5F9030" d="M572.3 303.8c-.2 2-1.8 3.4-3.8 3.4-.5 0-1 0-1.4-.2-.3.2-.8.3-1.3.2-1 0-2-1-2.2-2v.4c0 1.2 1 2.2 2.2 2.3.5 0 1 0 1.4-.4l1.5.3c2.2 0 4-2 3.8-4.2z"/><g><path fill="#714D49" d="M571.6 329.5h1v16.7h-1z"/><path fill="#77B52A" d="M573 325c-2.8-.3-5.2 1.6-5.8 4-1.3.8-2 2-2 3.6.2 1.7 1.6 3 3.3 3.3.7 0 1.4-.2 2-.5.6.3 1.3.4 2 .4 3 0 5.7-2.8 5.5-6-.2-2.7-2.4-4.8-5-5z"/><path fill="#5F9030" d="M578 330c-.3 2.7-2.7 5-5.5 5-.7 0-1.4-.2-2-.5-.6.3-1.3.5-2 .4-1.7-.3-3-1.6-3.2-3.2v.8c0 1.7 1.5 3 3.2 3.3.7 0 1.4-.2 2-.5.6.3 1.3.4 2 .4 3 0 5.7-2.8 5.5-6z"/></g></g><g><path fill="#714D49" d="M563 341h.7v11.7h-.8z"/><path fill="#77B52A" d="M563.8 338c-2-.2-3.6 1-4 2.8-.8.5-1.4 1.4-1.3 2.4 0 1.2 1 2.2 2.2 2.3.5 0 1 0 1.4-.3l1.5.3c2.2 0 4-1.8 3.8-4 0-2-1.6-3.4-3.5-3.6z"/><path fill="#5F9030" d="M567.3 341.4c-.2 2-1.8 3.4-3.8 3.4-.5 0-1 0-1.4-.2-.3.2-.8.3-1.3.2-1 0-2-1-2.2-2v.4c0 1.2 1 2.2 2.2 2.3.5 0 1 0 1.4-.3l1.5.3c2.2 0 4-1.8 3.8-4z"/><path fill="#714D49" d="M560.7 325.6h.6v9.6h-.6z"/><path fill="#77B52A" d="M561.4 323c-1.6-.2-3 1-3.3 2.3-.6.4-1 1.2-1 2 0 1 1 1.8 2 2 .3 0 .7 0 1-.3.4.2.8.2 1.2.2 1.8 0 3.2-1.5 3-3.3 0-1.7-1.2-3-2.8-3z"/><path fill="#5F9030" d="M564.3 325.8c0 1.6-1.5 3-3 3-.5 0-1-.2-1.3-.4-.3.2-.7.3-1 .3-1-.2-1.8-1-2-1.8v.3c0 1 1 1.8 2 2 .3 0 .7 0 1-.3.4.2.8.2 1.2.2 1.8 0 3.2-1.5 3-3.3v-.2z"/><path fill="#714D49" d="M554.6 326.8h.7v11.6h-.7z"/><path fill="#77B52A" d="M555.5 323.6c-2-.2-3.6 1-4 3-1 .3-1.4 1.3-1.3 2.3 0 1 1 2 2.2 2.2.5 0 1 0 1.4-.3l1.4.2c2 0 4-2 3.7-4-.2-2-1.7-3.4-3.5-3.6z"/><path fill="#5F9030" d="M559 327c-.2 2-2 3.5-3.8 3.5-.5 0-1 0-1.4-.3-.4.2-1 .3-1.4.3-1.2 0-2-1-2.2-2.2v.6c0 1 1 2 2.2 2.2.5 0 1 0 1.4-.3l1.4.2c2 0 4-2 3.7-4z"/><g><path fill="#714D49" d="M558.3 352.8h1v16.7h-1z"/><path fill="#77B52A" d="M559.6 348.2c-2.8-.2-5.2 1.6-5.8 4.2-1.2.6-2 2-2 3.5.3 1.6 1.6 3 3.3 3 .8.2 1.5 0 2-.2.7.2 1.4.4 2 .4 3.3 0 5.8-2.7 5.6-6-.2-2.6-2.3-4.8-5-5z"/><path fill="#5F9030" d="M564.6 353.2c-.3 2.8-2.6 5-5.5 5-.6 0-1.3-.2-2-.4-.5.3-1.2.4-2 .4-1.5-.2-2.8-1.5-3-3v.7c0 1.6 1.4 3 3 3 .8.2 1.5 0 2-.2.7.2 1.4.4 2 .4 3.3 0 5.8-2.7 5.6-6z"/></g></g></svg>