<svg xmlns="http://www.w3.org/2000/svg" xmlns:xlink="http://www.w3.org/1999/xlink" width="316" height="316" viewBox="0 0 316 316"><path fill="#40B23F" d="M-1-3h320v320H-1z"/><linearGradient id="a" gradientUnits="userSpaceOnUse" x1="257.5" y1="188.8" x2="263.7" y2="178.2"><stop offset="0" stop-color="#3BB44F"/><stop offset="1" stop-color="#006931"/></linearGradient><path fill="url(#a)" d="M250.7 185s1.3-.2 4.5-3.4c3.2-3.2 4.3-4.3 5-4.4 1-.4 2.5 0 3.5 1.3 1.2 1 4.8 4.7 5.2 5v1.4h-18.3z"/><defs><path id="b" d="M250.7 185s1.3-.2 4.5-3.4c3.2-3.2 4.3-4.3 5-4.4 1-.4 2.5 0 3.5 1.3 1.2 1 4.8 4.7 5.2 5v1.4h-18.3z"/></defs><clipPath id="c"><use xlink:href="#b" overflow="visible"/></clipPath><linearGradient id="d" gradientUnits="userSpaceOnUse" x1="253.6" y1="186.6" x2="259" y2="177.2"><stop offset="0" stop-color="#3BB44F"/><stop offset="1" stop-color="#006931"/></linearGradient><path clip-path="url(#c)" fill="url(#d)" d="M259.4 177.6s4 1 .4 4.4c-.5.6-3.3 2.8-9 3l8.6-7.4z"/><linearGradient id="e" gradientUnits="userSpaceOnUse" x1="266" y1="187" x2="269.1" y2="181.7"><stop offset="0" stop-color="#3BB44F"/><stop offset="1" stop-color="#006931"/></linearGradient><path fill="url(#e)" d="M262.4 185s.6-.2 2.2-1.8 2-2 2.5-2c.6-.3 1.3 0 2 .5.4.6 2.2 2.4 2.4 2.6l.7.6h-9.6z"/><defs><path id="f" d="M262.4 185s.6-.2 2.2-1.8 2-2 2.5-2c.6-.3 1.3 0 2 .5.4.6 2.2 2.4 2.4 2.6l.7.6h-9.6z"/></defs><clipPath id="g"><use xlink:href="#f" overflow="visible"/></clipPath><linearGradient id="h" gradientUnits="userSpaceOnUse" x1="263.8" y1="185.7" x2="266.5" y2="181.1"><stop offset="0" stop-color="#3BB44F"/><stop offset="1" stop-color="#006931"/></linearGradient><path clip-path="url(#g)" fill="url(#h)" d="M266.7 181.3s2 .4.2 2.2c-.4.2-1.7 1.4-4.6 1.4l4.3-3.8z"/><linearGradient id="i" gradientUnits="userSpaceOnUse" x1="253.7" y1="236.1" x2="259.5" y2="226"><stop offset="0" stop-color="#3BB44F"/><stop offset="1" stop-color="#006931"/></linearGradient><path fill="url(#i)" d="M247.2 232.4s1.2 0 4.3-3.2c3-3 4-4 4.7-4 .8-.4 2.3 0 3.3 1 1 1.2 4.5 4.6 5 5v1.2H247z"/><defs><path id="j" d="M247.2 232.4s1.2 0 4.3-3.2c3-3 4-4 4.7-4 .8-.4 2.3 0 3.3 1 1 1.2 4.5 4.6 5 5v1.2H247z"/></defs><clipPath id="k"><use xlink:href="#j" overflow="visible"/></clipPath><linearGradient id="l" gradientUnits="userSpaceOnUse" x1="250" y1="234" x2="255.1" y2="225.1"><stop offset="0" stop-color="#3BB44F"/><stop offset="1" stop-color="#006931"/></linearGradient><path clip-path="url(#k)" fill="url(#l)" d="M255.4 225.5s3.7.8.4 4.2c-.5.5-3 2.6-8.6 2.7l8.2-7z"/><linearGradient id="m" gradientUnits="userSpaceOnUse" x1="261.7" y1="234.4" x2="264.6" y2="229.4"><stop offset="0" stop-color="#3BB44F"/><stop offset="1" stop-color="#006931"/></linearGradient><path fill="url(#m)" d="M258.2 232.4s.6 0 2-1.6 2-2 2.5-2c.4-.2 1 0 1.7.6l2.4 2.4.6.6h-9.2z"/><defs><path id="n" d="M258.2 232.4s.6 0 2-1.6 2-2 2.5-2c.4-.2 1 0 1.7.6l2.4 2.4.6.6h-9.2z"/></defs><clipPath id="o"><use xlink:href="#n" overflow="visible"/></clipPath><linearGradient id="p" gradientUnits="userSpaceOnUse" x1="259.6" y1="233.2" x2="262.1" y2="228.8"><stop offset="0" stop-color="#3BB44F"/><stop offset="1" stop-color="#006931"/></linearGradient><path clip-path="url(#o)" fill="url(#p)" d="M262.3 229s1.8.4.2 2c-.3.3-1.5 1.4-4.3 1.4l4-3.5z"/><linearGradient id="q" gradientUnits="userSpaceOnUse" x1="237.2" y1="305.1" x2="243.4" y2="294.5"><stop offset="0" stop-color="#3BB44F"/><stop offset="1" stop-color="#006931"/></linearGradient><path fill="url(#q)" d="M230.4 301.2s1.3 0 4.5-3.3c3-3.3 4.2-4.5 5-4.5.8-.4 2.3 0 3.4 1.2l5.2 5.2v1.2h-18.2z"/><defs><path id="r" d="M230.4 301.2s1.3 0 4.5-3.3c3-3.3 4.2-4.5 5-4.5.8-.4 2.3 0 3.4 1.2l5.2 5.2v1.2h-18.2z"/></defs><clipPath id="s"><use xlink:href="#r" overflow="visible"/></clipPath><linearGradient id="t" gradientUnits="userSpaceOnUse" x1="233.3" y1="302.9" x2="238.7" y2="293.5"><stop offset="0" stop-color="#3BB44F"/><stop offset="1" stop-color="#006931"/></linearGradient><path clip-path="url(#s)" fill="url(#t)" d="M239 294s4 .7.5 4.3c-.5.5-3.3 2.8-9 3l8.6-7.4z"/><linearGradient id="u" gradientUnits="userSpaceOnUse" x1="245.7" y1="303.3" x2="248.8" y2="298"><stop offset="0" stop-color="#3BB44F"/><stop offset="1" stop-color="#006931"/></linearGradient><path fill="url(#u)" d="M242 301.2s.7 0 2.3-1.7 2-2 2.5-2.2c.4-.2 1.2 0 1.7.7l2.6 2.6.8.6H242z"/><defs><path id="v" d="M242 301.2s.7 0 2.3-1.7 2-2 2.5-2.2c.4-.2 1.2 0 1.7.7l2.6 2.6.8.6H242z"/></defs><clipPath id="w"><use xlink:href="#v" overflow="visible"/></clipPath><linearGradient id="x" gradientUnits="userSpaceOnUse" x1="243.5" y1="302" x2="246.2" y2="297.3"><stop offset="0" stop-color="#3BB44F"/><stop offset="1" stop-color="#006931"/></linearGradient><path clip-path="url(#w)" fill="url(#x)" d="M246.4 297.5s2 .5.2 2.3c-.3.2-1.6 1.4-4.6 1.4l4.4-3.7z"/><linearGradient id="y" gradientUnits="userSpaceOnUse" x1="261.3" y1="243.3" x2="267.4" y2="232.6"><stop offset="0" stop-color="#3BB44F"/><stop offset="1" stop-color="#006931"/></linearGradient><path fill="url(#y)" d="M254.4 239.3s1.3 0 4.5-3.3 4.2-4.3 5-4.4c.8-.4 2.4 0 3.5 1.3l5 5v1.3h-18z"/><defs><path id="z" d="M254.4 239.3s1.3 0 4.5-3.3 4.2-4.3 5-4.4c.8-.4 2.4 0 3.5 1.3l5 5v1.3h-18z"/></defs><clipPath id="A"><use xlink:href="#z" overflow="visible"/></clipPath><linearGradient id="B" gradientUnits="userSpaceOnUse" x1="257.3" y1="241" x2="262.7" y2="231.6"><stop offset="0" stop-color="#3BB44F"/><stop offset="1" stop-color="#006931"/></linearGradient><path clip-path="url(#A)" fill="url(#B)" d="M263 232s4 1 .5 4.5c-.5.5-3.2 2.8-9 2.8l8.6-7.3z"/><linearGradient id="C" gradientUnits="userSpaceOnUse" x1="269.7" y1="241.4" x2="272.8" y2="236.1"><stop offset="0" stop-color="#3BB44F"/><stop offset="1" stop-color="#006931"/></linearGradient><path fill="url(#C)" d="M266 239.3s.7 0 2.3-1.6c1.6-1.6 2-2.2 2.5-2.2.5-.2 1.2 0 1.8.6l2.5 2.7.8.6H266z"/><defs><path id="D" d="M266 239.3s.7 0 2.3-1.6c1.6-1.6 2-2.2 2.5-2.2.5-.2 1.2 0 1.8.6l2.5 2.7.8.6H266z"/></defs><clipPath id="E"><use xlink:href="#D" overflow="visible"/></clipPath><linearGradient id="F" gradientUnits="userSpaceOnUse" x1="267.5" y1="240.2" x2="270.2" y2="235.5"><stop offset="0" stop-color="#3BB44F"/><stop offset="1" stop-color="#006931"/></linearGradient><path clip-path="url(#E)" fill="url(#F)" d="M270.4 235.7s2 .4.2 2.2c-.3.2-1.6 1.3-4.5 1.3l4.4-3.6z"/><linearGradient id="G" gradientUnits="userSpaceOnUse" x1="259.5" y1="203.6" x2="266.3" y2="192"><stop offset="0" stop-color="#3BB44F"/><stop offset="1" stop-color="#006931"/></linearGradient><path fill="url(#G)" d="M252 199.3s1.5 0 5-3.6c3.5-3.5 4.7-4.7 5.5-4.8 1-.5 2.7 0 3.8 1.3l5.7 5.6v1.3h-20z"/><defs><path id="H" d="M252 199.3s1.5 0 5-3.6c3.5-3.5 4.7-4.7 5.5-4.8 1-.5 2.7 0 3.8 1.3l5.7 5.6v1.3h-20z"/></defs><clipPath id="I"><use xlink:href="#H" overflow="visible"/></clipPath><linearGradient id="J" gradientUnits="userSpaceOnUse" x1="255.3" y1="201.2" x2="261.2" y2="190.9"><stop offset="0" stop-color="#3BB44F"/><stop offset="1" stop-color="#006931"/></linearGradient><path clip-path="url(#I)" fill="url(#J)" d="M261.6 191.3s4.2 1 .4 5c-.5.5-3.5 3-10 3l9.6-8z"/><linearGradient id="K" gradientUnits="userSpaceOnUse" x1="268.8" y1="201.7" x2="272.2" y2="195.8"><stop offset="0" stop-color="#3BB44F"/><stop offset="1" stop-color="#006931"/></linearGradient><path fill="url(#K)" d="M264.8 199.3s.7 0 2.5-1.8 2.3-2.4 2.7-2.4c.5 0 1.4 0 2 .8l2.8 2.8.7.7h-10.7z"/><defs><path id="L" d="M264.8 199.3s.7 0 2.5-1.8 2.3-2.4 2.7-2.4c.5 0 1.4 0 2 .8l2.8 2.8.7.7h-10.7z"/></defs><clipPath id="M"><use xlink:href="#L" overflow="visible"/></clipPath><linearGradient id="N" gradientUnits="userSpaceOnUse" x1="266.4" y1="200.3" x2="269.4" y2="195.1"><stop offset="0" stop-color="#3BB44F"/><stop offset="1" stop-color="#006931"/></linearGradient><path clip-path="url(#M)" fill="url(#N)" d="M269.6 195.3s2 .5.2 2.5c-.3.3-1.8 1.5-5 1.5l4.8-4z"/><g><linearGradient id="O" gradientUnits="userSpaceOnUse" x1="250.6" y1="228.2" x2="254.5" y2="221.4"><stop offset="0" stop-color="#3BB44F"/><stop offset="1" stop-color="#006931"/></linearGradient><path fill="url(#O)" d="M246.2 225.7s.8 0 3-2c2-2 2.6-2.8 3-3 .7 0 1.6 0 2.3 1 .8.6 3 3 3.3 3.2v.7h-11.6z"/><defs><path id="P" d="M246.2 225.7s.8 0 3-2c2-2 2.6-2.8 3-3 .7 0 1.6 0 2.3 1 .8.6 3 3 3.3 3.2v.7h-11.6z"/></defs><clipPath id="Q"><use xlink:href="#P" overflow="visible"/></clipPath><linearGradient id="R" gradientUnits="userSpaceOnUse" x1="248.1" y1="226.8" x2="251.5" y2="220.8"><stop offset="0" stop-color="#3BB44F"/><stop offset="1" stop-color="#006931"/></linearGradient><path clip-path="url(#Q)" fill="url(#R)" d="M251.8 221s2.4.6.2 3c-.3.2-2 1.7-5.8 1.7l5.6-4.6z"/><linearGradient id="S" gradientUnits="userSpaceOnUse" x1="256" y1="227.1" x2="257.9" y2="223.7"><stop offset="0" stop-color="#3BB44F"/><stop offset="1" stop-color="#006931"/></linearGradient><path fill="url(#S)" d="M253.6 225.7s.5 0 1.5-1 1.4-1.4 1.7-1.4c.3 0 .7 0 1 .4.5.3 1.6 1.5 1.7 1.6l.5.4h-6.4z"/><defs><path id="T" d="M253.6 225.7s.5 0 1.5-1 1.4-1.4 1.7-1.4c.3 0 .7 0 1 .4.5.3 1.6 1.5 1.7 1.6l.5.4h-6.4z"/></defs><clipPath id="U"><use xlink:href="#T" overflow="visible"/></clipPath><linearGradient id="V" gradientUnits="userSpaceOnUse" x1="254.6" y1="226.3" x2="256.3" y2="223.3"><stop offset="0" stop-color="#3BB44F"/><stop offset="1" stop-color="#006931"/></linearGradient><path clip-path="url(#U)" fill="url(#V)" d="M256.4 223.4s1.2.3 0 1.4c0 .2-1 1-2.8 1l2.8-2.4z"/></g><g><linearGradient id="W" gradientUnits="userSpaceOnUse" x1="244.4" y1="286.6" x2="248.4" y2="279.8"><stop offset="0" stop-color="#3BB44F"/><stop offset="1" stop-color="#006931"/></linearGradient><path fill="url(#W)" d="M240 284s1 0 3-2 2.7-2.8 3-2.8c.7-.3 1.7 0 2.4.8l3.3 3.2v1H240z"/><defs><path id="X" d="M240 284s1 0 3-2 2.7-2.8 3-2.8c.7-.3 1.7 0 2.4.8l3.3 3.2v1H240z"/></defs><clipPath id="Y"><use xlink:href="#X" overflow="visible"/></clipPath><linearGradient id="Z" gradientUnits="userSpaceOnUse" x1="241.9" y1="285.1" x2="245.4" y2="279.2"><stop offset="0" stop-color="#3BB44F"/><stop offset="1" stop-color="#006931"/></linearGradient><path clip-path="url(#Y)" fill="url(#Z)" d="M245.6 279.4s2.5.6.3 2.8c-.4.4-2.2 1.8-6 2l5.6-4.8z"/><linearGradient id="aa" gradientUnits="userSpaceOnUse" x1="249.8" y1="285.4" x2="251.8" y2="282"><stop offset="0" stop-color="#3BB44F"/><stop offset="1" stop-color="#006931"/></linearGradient><path fill="url(#aa)" d="M247.5 284s.4 0 1.4-1 1.3-1.4 1.5-1.4c.3 0 .8 0 1.2.4l1.6 1.7.4.4h-6.2z"/><defs><path id="ab" d="M247.5 284s.4 0 1.4-1 1.3-1.4 1.5-1.4c.3 0 .8 0 1.2.4l1.6 1.7.4.4h-6.2z"/></defs><clipPath id="ac"><use xlink:href="#ab" overflow="visible"/></clipPath><linearGradient id="ad" gradientUnits="userSpaceOnUse" x1="248.4" y1="284.6" x2="250.2" y2="281.6"><stop offset="0" stop-color="#3BB44F"/><stop offset="1" stop-color="#006931"/></linearGradient><path clip-path="url(#ac)" fill="url(#ad)" d="M250.3 281.7s1.2.3 0 1.4c0 .3-1 1-2.8 1l2.8-2.3z"/></g><g><linearGradient id="ae" gradientUnits="userSpaceOnUse" x1="250.1" y1="168.5" x2="256.2" y2="157.8"><stop offset="0" stop-color="#3BB44F"/><stop offset="1" stop-color="#006931"/></linearGradient><path fill="url(#ae)" d="M243.3 164.6s1.2-.2 4.4-3.4c3.2-3.2 4.3-4.3 5-4.4 1-.3 2.5 0 3.6 1.3l5 5.3v1.3h-18z"/><defs><path id="af" d="M243.3 164.6s1.2-.2 4.4-3.4c3.2-3.2 4.3-4.3 5-4.4 1-.3 2.5 0 3.6 1.3l5 5.3v1.3h-18z"/></defs><clipPath id="ag"><use xlink:href="#af" overflow="visible"/></clipPath><linearGradient id="ah" gradientUnits="userSpaceOnUse" x1="246.2" y1="166.2" x2="251.6" y2="156.9"><stop offset="0" stop-color="#3BB44F"/><stop offset="1" stop-color="#006931"/></linearGradient><path clip-path="url(#ag)" fill="url(#ah)" d="M252 157.2s3.8 1 .3 4.5c-.5.5-3.2 2.8-9 3l8.6-7.5z"/><linearGradient id="ai" gradientUnits="userSpaceOnUse" x1="258.6" y1="166.7" x2="261.6" y2="161.3"><stop offset="0" stop-color="#3BB44F"/><stop offset="1" stop-color="#006931"/></linearGradient><path fill="url(#ai)" d="M255 164.6s.5 0 2-1.7c1.7-1.7 2.3-2.3 2.6-2.3.5-.2 1.3 0 1.8.6l2.6 2.6.6.6H255z"/><defs><path id="aj" d="M255 164.6s.5 0 2-1.7c1.7-1.7 2.3-2.3 2.6-2.3.5-.2 1.3 0 1.8.6l2.6 2.6.6.6H255z"/></defs><clipPath id="ak"><use xlink:href="#aj" overflow="visible"/></clipPath><linearGradient id="al" gradientUnits="userSpaceOnUse" x1="256.3" y1="165.4" x2="259" y2="160.7"><stop offset="0" stop-color="#3BB44F"/><stop offset="1" stop-color="#006931"/></linearGradient><path clip-path="url(#ak)" fill="url(#al)" d="M259.2 161s2 .3.2 2c-.2.4-1.6 1.5-4.5 1.6l4.2-3.7z"/></g><g><linearGradient id="am" gradientUnits="userSpaceOnUse" x1="257.1" y1="174.7" x2="261.2" y2="167.7"><stop offset="0" stop-color="#3BB44F"/><stop offset="1" stop-color="#006931"/></linearGradient><path fill="url(#am)" d="M252.3 172s1 0 3-2.2c2-2 2.8-2.8 3.3-3 .6 0 1.6 0 2.3 1l3.3 3.3.8 1h-12.7z"/><defs><path id="an" d="M252.3 172s1 0 3-2.2c2-2 2.8-2.8 3.3-3 .6 0 1.6 0 2.3 1l3.3 3.3.8 1h-12.7z"/></defs><clipPath id="ao"><use xlink:href="#an" overflow="visible"/></clipPath><linearGradient id="ap" gradientUnits="userSpaceOnUse" x1="254.2" y1="173.1" x2="257.8" y2="166.9"><stop offset="0" stop-color="#3BB44F"/><stop offset="1" stop-color="#006931"/></linearGradient><path clip-path="url(#ao)" fill="url(#ap)" d="M258 167.2s2.6.5.3 3c-.3.2-2 1.7-6 1.8l5.7-4.8z"/></g><g><linearGradient id="aq" gradientUnits="userSpaceOnUse" x1="265.7" y1="180.1" x2="269.8" y2="173.1"><stop offset="0" stop-color="#3BB44F"/><stop offset="1" stop-color="#006931"/></linearGradient><path fill="url(#aq)" d="M261 177.4s.8 0 3-2.2c2-2 2.7-2.8 3.2-3 .6 0 1.6.2 2.3 1l3.4 3.4.7.8H261z"/><defs><path id="ar" d="M261 177.4s.8 0 3-2.2c2-2 2.7-2.8 3.2-3 .6 0 1.6.2 2.3 1l3.4 3.4.7.8H261z"/></defs><clipPath id="as"><use xlink:href="#ar" overflow="visible"/></clipPath><linearGradient id="at" gradientUnits="userSpaceOnUse" x1="262.8" y1="178.5" x2="266.4" y2="172.3"><stop offset="0" stop-color="#3BB44F"/><stop offset="1" stop-color="#006931"/></linearGradient><path clip-path="url(#as)" fill="url(#at)" d="M266.6 172.6s2.6.6.3 3c-.4.2-2.2 1.7-6 1.8l5.6-4.8z"/></g><g><linearGradient id="au" gradientUnits="userSpaceOnUse" x1="257.8" y1="210.6" x2="261.8" y2="203.6"><stop offset="0" stop-color="#3BB44F"/><stop offset="1" stop-color="#006931"/></linearGradient><path fill="url(#au)" d="M253 207.8s.8 0 3-2.2 2.7-2.8 3.2-2.8c.6-.3 1.6 0 2.3.8.8.7 3.2 3 3.4 3.4l.7.8H253z"/><defs><path id="av" d="M253 207.8s.8 0 3-2.2 2.7-2.8 3.2-2.8c.6-.3 1.6 0 2.3.8.8.7 3.2 3 3.4 3.4l.7.8H253z"/></defs><clipPath id="aw"><use xlink:href="#av" overflow="visible"/></clipPath><linearGradient id="ax" gradientUnits="userSpaceOnUse" x1="254.9" y1="208.9" x2="258.4" y2="202.8"><stop offset="0" stop-color="#3BB44F"/><stop offset="1" stop-color="#006931"/></linearGradient><path clip-path="url(#aw)" fill="url(#ax)" d="M258.7 203s2.5.6.3 3c-.4.3-2.2 1.8-6 1.8l5.7-4.8z"/></g><g><linearGradient id="ay" gradientUnits="userSpaceOnUse" x1="240.6" y1="260.3" x2="244.7" y2="253.3"><stop offset="0" stop-color="#3BB44F"/><stop offset="1" stop-color="#006931"/></linearGradient><path fill="url(#ay)" d="M236 257.5s.7 0 2.8-2.2c2-2 2.8-2.8 3.3-3 .7 0 1.7.2 2.4 1 .8.7 3.2 3 3.4 3.4l.8.8H236z"/><defs><path id="az" d="M236 257.5s.7 0 2.8-2.2c2-2 2.8-2.8 3.3-3 .7 0 1.7.2 2.4 1 .8.7 3.2 3 3.4 3.4l.8.8H236z"/></defs><clipPath id="aA"><use xlink:href="#az" overflow="visible"/></clipPath><linearGradient id="aB" gradientUnits="userSpaceOnUse" x1="237.8" y1="258.6" x2="241.3" y2="252.5"><stop offset="0" stop-color="#3BB44F"/><stop offset="1" stop-color="#006931"/></linearGradient><path clip-path="url(#aA)" fill="url(#aB)" d="M241.6 252.7s2.5.6.2 3c-.3.3-2 1.8-6 1.8l5.8-4.8z"/></g><g><linearGradient id="aC" gradientUnits="userSpaceOnUse" x1="247.4" y1="269.5" x2="251.4" y2="262.5"><stop offset="0" stop-color="#3BB44F"/><stop offset="1" stop-color="#006931"/></linearGradient><path fill="url(#aC)" d="M242.6 266.8s.8 0 3-2.2c2-2 2.7-3 3.2-3 .6-.2 1.6 0 2.3 1 1 .7 3.3 3 3.5 3.3l.8.8h-12.7z"/><defs><path id="aD" d="M242.6 266.8s.8 0 3-2.2c2-2 2.7-3 3.2-3 .6-.2 1.6 0 2.3 1 1 .7 3.3 3 3.5 3.3l.8.8h-12.7z"/></defs><clipPath id="aE"><use xlink:href="#aD" overflow="visible"/></clipPath><linearGradient id="aF" gradientUnits="userSpaceOnUse" x1="244.5" y1="267.9" x2="248" y2="261.7"><stop offset="0" stop-color="#3BB44F"/><stop offset="1" stop-color="#006931"/></linearGradient><path clip-path="url(#aE)" fill="url(#aF)" d="M248.3 262s2.5.5.3 3c-.4.2-2.2 1.7-6 1.8l5.7-5z"/></g><g><linearGradient id="aG" gradientUnits="userSpaceOnUse" x1="244.4" y1="312.8" x2="248.4" y2="305.7"><stop offset="0" stop-color="#3BB44F"/><stop offset="1" stop-color="#006931"/></linearGradient><path fill="url(#aG)" d="M239.6 310s1 0 3-2.2c2-2 2.8-2.8 3.2-3 .7 0 1.7.2 2.4 1l3.4 3.4.7.8h-12.7z"/><defs><path id="aH" d="M239.6 310s1 0 3-2.2c2-2 2.8-2.8 3.2-3 .7 0 1.7.2 2.4 1l3.4 3.4.7.8h-12.7z"/></defs><clipPath id="aI"><use xlink:href="#aH" overflow="visible"/></clipPath><linearGradient id="aJ" gradientUnits="userSpaceOnUse" x1="241.5" y1="311.1" x2="245.1" y2="304.9"><stop offset="0" stop-color="#3BB44F"/><stop offset="1" stop-color="#006931"/></linearGradient><path clip-path="url(#aI)" fill="url(#aJ)" d="M245.3 305.2s2.6.6.3 3c-.4.3-2.2 1.8-6 1.8l5.7-4.8z"/></g><g><linearGradient id="aK" gradientUnits="userSpaceOnUse" x1="277.7" y1="142.7" x2="277.7" y2="134.4"><stop offset="0" stop-color="#23A635"/><stop offset=".6" stop-color="#0C7E32"/><stop offset="1" stop-color="#006931"/></linearGradient><path fill="url(#aK)" d="M267.4 142.7s1.4 0 4.8-3.5c3.4-3.4 4.5-4.6 5.3-4.7 1-.4 2.6 0 3.8 1.4 1.2 1 5 5 5.4 5.4l1.3 1.3h-20.6z"/><defs><path id="aL" d="M267.4 142.7s1.4 0 4.8-3.5c3.4-3.4 4.5-4.6 5.3-4.7 1-.4 2.6 0 3.8 1.4 1.2 1 5 5 5.4 5.4l1.3 1.3h-20.6z"/></defs><clipPath id="aM"><use xlink:href="#aL" overflow="visible"/></clipPath><linearGradient id="aN" gradientUnits="userSpaceOnUse" x1="270.5" y1="144.5" x2="276.2" y2="134.5"><stop offset="0" stop-color="#23A635"/><stop offset=".2" stop-color="#189334"/><stop offset=".5" stop-color="#0B7C32"/><stop offset=".8" stop-color="#036E31"/><stop offset="1" stop-color="#006931"/></linearGradient><path clip-path="url(#aM)" fill="url(#aN)" d="M276.6 135s4.2 1 .5 4.7c-.5.5-3.4 3-9.6 3l9.2-7.8z"/></g><g><linearGradient id="aO" gradientUnits="userSpaceOnUse" x1="45.7" y1="148.5" x2="45.7" y2="142.3"><stop offset="0" stop-color="#40B23F"/><stop offset=".2" stop-color="#34A53C"/><stop offset=".7" stop-color="#168236"/><stop offset="1" stop-color="#006931"/></linearGradient><path fill="url(#aO)" d="M38 148.5s1 0 3.6-2.6c2.5-2.7 3.4-3.6 4-3.6.7-.3 2 0 2.8 1l4 4 1 1H38z"/><defs><path id="aP" d="M38 148.5s1 0 3.6-2.6c2.5-2.7 3.4-3.6 4-3.6.7-.3 2 0 2.8 1l4 4 1 1H38z"/></defs><clipPath id="aQ"><use xlink:href="#aP" overflow="visible"/></clipPath><linearGradient id="aR" gradientUnits="userSpaceOnUse" x1="42.2" y1="148.5" x2="42.2" y2="142.7"><stop offset="0" stop-color="#40B23F"/><stop offset=".3" stop-color="#2C9B3B"/><stop offset=".7" stop-color="#0C7734"/><stop offset="1" stop-color="#006931"/></linearGradient><path clip-path="url(#aQ)" fill="url(#aR)" d="M45 142.7s3 .7.3 3.6c-.5.4-2.6 2.2-7.3 2.2l7-5.8z"/><path fill="none" d="M38.3 148.5s1 0 3.6-2.6c2.4-2.7 3.3-3.6 4-3.6.6-.3 1.8 0 2.7 1l4 4 1 1H38.3z"/></g><g><linearGradient id="aS" gradientUnits="userSpaceOnUse" x1="53.4" y1="203.8" x2="53.4" y2="198.8"><stop offset="0" stop-color="#40B23F"/><stop offset=".2" stop-color="#34A53C"/><stop offset=".7" stop-color="#168236"/><stop offset="1" stop-color="#006931"/></linearGradient><path fill="url(#aS)" d="M47.3 203.8s.8 0 2.8-2c2-2.2 2.8-3 3.3-3 .6 0 1.5 0 2.2 1 .8.6 3 3 3.3 3.2l.7.8H47.3z"/><defs><path id="aT" d="M47.3 203.8s.8 0 2.8-2c2-2.2 2.8-3 3.3-3 .6 0 1.5 0 2.2 1 .8.6 3 3 3.3 3.2l.7.8H47.3z"/></defs><clipPath id="aU"><use xlink:href="#aT" overflow="visible"/></clipPath><linearGradient id="aV" gradientUnits="userSpaceOnUse" x1="49.1" y1="204.8" x2="52.5" y2="198.9"><stop offset="0" stop-color="#23A635"/><stop offset=".2" stop-color="#189334"/><stop offset=".5" stop-color="#0B7C32"/><stop offset=".8" stop-color="#036E31"/><stop offset="1" stop-color="#006931"/></linearGradient><path clip-path="url(#aU)" fill="url(#aV)" d="M52.8 199s2.4.7.2 3c-.3.3-2 1.7-5.7 1.8l5.5-4.7z"/><g><linearGradient id="aW" gradientUnits="userSpaceOnUse" x1="44.8" y1="203.6" x2="44.8" y2="196.6"><stop offset="0" stop-color="#40B23F"/><stop offset=".2" stop-color="#34A53C"/><stop offset=".7" stop-color="#168236"/><stop offset="1" stop-color="#006931"/></linearGradient><path fill="url(#aW)" d="M36 203.6s1.3 0 4-3 4-4 4.6-4c.8-.2 2.2 0 3.2 1.2l4.5 4.6 1 1.2H36.2z"/><defs><path id="aX" d="M36 203.6s1.3 0 4-3 4-4 4.6-4c.8-.2 2.2 0 3.2 1.2l4.5 4.6 1 1.2H36.2z"/></defs><clipPath id="aY"><use xlink:href="#aX" overflow="visible"/></clipPath><linearGradient id="aZ" gradientUnits="userSpaceOnUse" x1="40.8" y1="203.6" x2="40.8" y2="197"><stop offset="0" stop-color="#40B23F"/><stop offset=".3" stop-color="#2C9B3B"/><stop offset=".7" stop-color="#0C7734"/><stop offset="1" stop-color="#006931"/></linearGradient><path clip-path="url(#aY)" fill="url(#aZ)" d="M44 197s3.3.8.2 4c-.4.5-3 2.5-8 2.6l7.7-6.6z"/><path fill="none" d="M36.5 203.6s1 0 4-3 3.8-4 4.4-4c.7-.2 2 0 3 1.2l4.7 4.6 1 1.2H36.5z"/></g></g><g><linearGradient id="ba" gradientUnits="userSpaceOnUse" x1="62.6" y1="192.6" x2="62.6" y2="186.2"><stop offset="0" stop-color="#40B23F"/><stop offset=".2" stop-color="#34A53C"/><stop offset=".7" stop-color="#168236"/><stop offset="1" stop-color="#006931"/></linearGradient><path fill="url(#ba)" d="M54.7 192.6s1 0 3.6-2.7 3.5-3.6 4-3.7c1-.3 2 0 3 1l4.2 4.3 1 1H54.7z"/><defs><path id="bb" d="M54.7 192.6s1 0 3.6-2.7 3.5-3.6 4-3.7c1-.3 2 0 3 1l4.2 4.3 1 1H54.7z"/></defs><clipPath id="bc"><use xlink:href="#bb" overflow="visible"/></clipPath><linearGradient id="bd" gradientUnits="userSpaceOnUse" x1="57" y1="194" x2="61.4" y2="186.3"><stop offset="0" stop-color="#23A635"/><stop offset=".2" stop-color="#189334"/><stop offset=".5" stop-color="#0B7C32"/><stop offset=".8" stop-color="#036E31"/><stop offset="1" stop-color="#006931"/></linearGradient><path clip-path="url(#bc)" fill="url(#bd)" d="M61.8 186.6s3 .7.3 3.7c-.3.4-2.6 2.3-7.3 2.3l7-6z"/><g><linearGradient id="be" gradientUnits="userSpaceOnUse" x1="51.4" y1="192.4" x2="51.4" y2="183.3"><stop offset="0" stop-color="#40B23F"/><stop offset=".2" stop-color="#34A53C"/><stop offset=".7" stop-color="#168236"/><stop offset="1" stop-color="#006931"/></linearGradient><path fill="url(#be)" d="M40.3 192.4s1.5-.2 5.2-4c3.6-3.6 5-5 5.7-5 1-.4 2.8 0 4 1.5 1.4 1.2 5.6 5.4 6 6l1.4 1.4H40.3z"/><defs><path id="bf" d="M40.3 192.4s1.5-.2 5.2-4c3.6-3.6 5-5 5.7-5 1-.4 2.8 0 4 1.5 1.4 1.2 5.6 5.4 6 6l1.4 1.4H40.3z"/></defs><clipPath id="bg"><use xlink:href="#bf" overflow="visible"/></clipPath><linearGradient id="bh" gradientUnits="userSpaceOnUse" x1="46.3" y1="192.4" x2="46.3" y2="183.9"><stop offset="0" stop-color="#40B23F"/><stop offset=".3" stop-color="#2C9B3B"/><stop offset=".7" stop-color="#0C7734"/><stop offset="1" stop-color="#006931"/></linearGradient><path clip-path="url(#bg)" fill="url(#bh)" d="M50.3 184s4.4 1 .4 5c-.6.6-3.7 3.3-10.4 3.4l10-8.5z"/><path fill="none" d="M40.7 192.4s1.5-.2 5.2-4c3.6-3.6 4.8-5 5.6-5 1-.4 2.8 0 4 1.5 1.5 1.2 5.6 5.4 6 6l1.4 1.4H40.7z"/></g></g><g><linearGradient id="bi" gradientUnits="userSpaceOnUse" x1="55.6" y1="213" x2="55.6" y2="206"><stop offset="0" stop-color="#40B23F"/><stop offset=".2" stop-color="#34A53C"/><stop offset=".7" stop-color="#168236"/><stop offset="1" stop-color="#006931"/></linearGradient><path fill="url(#bi)" d="M47 213s1-.2 4-3 3.8-4 4.4-4c.8-.3 2.2 0 3.2 1.2l4.5 4.6 1.2 1.2H47z"/><defs><path id="bj" d="M47 213s1-.2 4-3 3.8-4 4.4-4c.8-.3 2.2 0 3.2 1.2l4.5 4.6 1.2 1.2H47z"/></defs><clipPath id="bk"><use xlink:href="#bj" overflow="visible"/></clipPath><linearGradient id="bl" gradientUnits="userSpaceOnUse" x1="51.6" y1="213" x2="51.6" y2="206.4"><stop offset="0" stop-color="#40B23F"/><stop offset=".3" stop-color="#2C9B3B"/><stop offset=".7" stop-color="#0C7734"/><stop offset="1" stop-color="#006931"/></linearGradient><path clip-path="url(#bk)" fill="url(#bl)" d="M54.7 206.4s3.4.8.3 4c-.4.5-3 2.5-8 2.6l7.7-6.6z"/><path fill="none" d="M47.3 213s1-.2 4-3 3.8-4 4.4-4c.8-.3 2.2 0 3.2 1.2 1 1 4 4.3 4.5 4.6l1 1.2H47.3z"/></g><g><linearGradient id="bm" gradientUnits="userSpaceOnUse" x1="83.4" y1="190.3" x2="83.4" y2="184.8"><stop offset="0" stop-color="#40B23F"/><stop offset=".2" stop-color="#34A53C"/><stop offset=".7" stop-color="#168236"/><stop offset="1" stop-color="#006931"/></linearGradient><path fill="url(#bm)" d="M76.5 190.3s1 0 3.2-2.4 3-3 3.5-3c.7-.4 1.8 0 2.5.8 1 .7 3.4 3.3 3.7 3.6l.8 1H76.5z"/><defs><path id="bn" d="M76.5 190.3s1 0 3.2-2.4 3-3 3.5-3c.7-.4 1.8 0 2.5.8 1 .7 3.4 3.3 3.7 3.6l.8 1H76.5z"/></defs><clipPath id="bo"><use xlink:href="#bn" overflow="visible"/></clipPath><linearGradient id="bp" gradientUnits="userSpaceOnUse" x1="80.3" y1="190.3" x2="80.3" y2="185.1"><stop offset="0" stop-color="#40B23F"/><stop offset=".3" stop-color="#2C9B3B"/><stop offset=".7" stop-color="#0C7734"/><stop offset="1" stop-color="#006931"/></linearGradient><path clip-path="url(#bo)" fill="url(#bp)" d="M82.7 185s2.7.8.2 3.3c-.4.3-2.4 2-6.5 2l6.2-5.2z"/><path fill="none" d="M76.8 190.3s1 0 3.2-2.4 3-3 3.5-3c.6-.4 1.7 0 2.5.8l3.6 3.6.8 1H76.8z"/></g><g><linearGradient id="bq" gradientUnits="userSpaceOnUse" x1="81.9" y1="182.9" x2="81.9" y2="175.9"><stop offset="0" stop-color="#40B23F"/><stop offset=".2" stop-color="#34A53C"/><stop offset=".7" stop-color="#168236"/><stop offset="1" stop-color="#006931"/></linearGradient><path fill="url(#bq)" d="M73.3 183s1-.2 4-3 3.8-4 4.4-4c.8-.3 2.2 0 3.2 1l4.4 4.8 1 1h-17z"/><defs><path id="br" d="M73.3 183s1-.2 4-3 3.8-4 4.4-4c.8-.3 2.2 0 3.2 1l4.4 4.8 1 1h-17z"/></defs><clipPath id="bs"><use xlink:href="#br" overflow="visible"/></clipPath><linearGradient id="bt" gradientUnits="userSpaceOnUse" x1="77.9" y1="182.9" x2="77.9" y2="176.4"><stop offset="0" stop-color="#40B23F"/><stop offset=".3" stop-color="#2C9B3B"/><stop offset=".7" stop-color="#0C7734"/><stop offset="1" stop-color="#006931"/></linearGradient><path clip-path="url(#bs)" fill="url(#bt)" d="M81 176.4s3.4.7.4 4c-.5.4-3 2.4-8 2.5l7.6-6.6z"/><path fill="none" d="M73.6 183s1-.2 4-3 3.8-4 4.4-4c1-.3 2.2 0 3.2 1l4.6 4.8 1 1H73.6z"/></g><g><linearGradient id="bu" gradientUnits="userSpaceOnUse" x1="24.8" y1="119.1" x2="24.8" y2="107.1"><stop offset="0" stop-color="#40B23F"/><stop offset=".2" stop-color="#34A53C"/><stop offset=".7" stop-color="#168236"/><stop offset="1" stop-color="#006931"/></linearGradient><path fill="url(#bu)" d="M10 119s2 0 7-5c4.7-5 6.4-6.6 7.5-6.7 1.4-.6 3.7 0 5.4 2l7.7 7.8 2 2H10z"/><defs><path id="bv" d="M10 119s2 0 7-5c4.7-5 6.4-6.6 7.5-6.7 1.4-.6 3.7 0 5.4 2l7.7 7.8 2 2H10z"/></defs><clipPath id="bw"><use xlink:href="#bv" overflow="visible"/></clipPath><linearGradient id="bx" gradientUnits="userSpaceOnUse" x1="18" y1="119.1" x2="18" y2="107.9"><stop offset="0" stop-color="#40B23F"/><stop offset=".3" stop-color="#2C9B3B"/><stop offset=".7" stop-color="#0C7734"/><stop offset="1" stop-color="#006931"/></linearGradient><path clip-path="url(#bw)" fill="url(#bx)" d="M23.2 108s6 1.2.7 6.7c-1 .8-5 4.3-14 4.4l13.2-11z"/><path fill="none" d="M10.6 119s2 0 6.8-5c5-5 6.5-6.6 7.6-6.7 1.4-.6 3.8 0 5.4 2l8 7.8 1.7 2H10.7z"/><linearGradient id="by" gradientUnits="userSpaceOnUse" x1="32.3" y1="119.1" x2="32.3" y2="110.9"><stop offset="0" stop-color="#40B23F"/><stop offset=".2" stop-color="#34A53C"/><stop offset=".7" stop-color="#168236"/><stop offset="1" stop-color="#006931"/></linearGradient><path fill="url(#by)" d="M22.2 119s1.3 0 4.7-3.4 4.3-4.5 5-4.5c1-.3 2.6 0 3.7 1.4 1.3 1 5 5 5.4 5.4l1.4 1.3H22.2z"/><defs><path id="bz" d="M22.2 119s1.3 0 4.7-3.4 4.3-4.5 5-4.5c1-.3 2.6 0 3.7 1.4 1.3 1 5 5 5.4 5.4l1.4 1.3H22.2z"/></defs><clipPath id="bA"><use xlink:href="#bz" overflow="visible"/></clipPath><linearGradient id="bB" gradientUnits="userSpaceOnUse" x1="25.2" y1="120.8" x2="30.8" y2="111.1"><stop offset="0" stop-color="#23A635"/><stop offset=".2" stop-color="#189334"/><stop offset=".5" stop-color="#0B7C32"/><stop offset=".8" stop-color="#036E31"/><stop offset="1" stop-color="#006931"/></linearGradient><path clip-path="url(#bA)" fill="url(#bB)" d="M31.2 111.5s4 1 .4 4.6c-.5.6-3.4 3-9.4 3l9-7.5z"/></g><g><linearGradient id="bC" gradientUnits="userSpaceOnUse" x1="66.8" y1="206.2" x2="66.8" y2="200.2"><stop offset="0" stop-color="#40B23F"/><stop offset=".2" stop-color="#34A53C"/><stop offset=".7" stop-color="#168236"/><stop offset="1" stop-color="#006931"/></linearGradient><path fill="url(#bC)" d="M59.4 206.2s1 0 3.4-2.6c2.4-2.4 3.3-3.3 3.8-3.3.7-.3 2 0 2.7 1 1 .8 3.7 3.6 4 4l.8 1H59.5z"/><defs><path id="bD" d="M59.4 206.2s1 0 3.4-2.6c2.4-2.4 3.3-3.3 3.8-3.3.7-.3 2 0 2.7 1 1 .8 3.7 3.6 4 4l.8 1H59.5z"/></defs><clipPath id="bE"><use xlink:href="#bD" overflow="visible"/></clipPath><linearGradient id="bF" gradientUnits="userSpaceOnUse" x1="63.4" y1="206.2" x2="63.4" y2="200.6"><stop offset="0" stop-color="#40B23F"/><stop offset=".3" stop-color="#2C9B3B"/><stop offset=".7" stop-color="#0C7734"/><stop offset="1" stop-color="#006931"/></linearGradient><path clip-path="url(#bE)" fill="url(#bF)" d="M66 200.6s3 .7.3 3.4c-.4.4-2.5 2-7 2.2l6.7-5.6z"/><path fill="none" d="M59.6 206.2s1 0 3.5-2.6c2.5-2.4 3.3-3.3 4-3.3.6-.3 1.8 0 2.6 1 1 .8 3.6 3.6 4 4l.8 1H59.6z"/><linearGradient id="bG" gradientUnits="userSpaceOnUse" x1="70.5" y1="206.2" x2="70.5" y2="202.1"><stop offset="0" stop-color="#40B23F"/><stop offset=".2" stop-color="#34A53C"/><stop offset=".7" stop-color="#168236"/><stop offset="1" stop-color="#006931"/></linearGradient><path fill="url(#bG)" d="M65.5 206.2s.6 0 2.3-1.8c1.7-1.6 2.2-2.2 2.6-2.2.5-.2 1.3 0 1.8.6l2.7 2.7.5.7h-10z"/><defs><path id="bH" d="M65.5 206.2s.6 0 2.3-1.8c1.7-1.6 2.2-2.2 2.6-2.2.5-.2 1.3 0 1.8.6l2.7 2.7.5.7h-10z"/></defs><clipPath id="bI"><use xlink:href="#bH" overflow="visible"/></clipPath><linearGradient id="bJ" gradientUnits="userSpaceOnUse" x1="67" y1="207" x2="69.8" y2="202.2"><stop offset="0" stop-color="#23A635"/><stop offset=".2" stop-color="#189334"/><stop offset=".5" stop-color="#0B7C32"/><stop offset=".8" stop-color="#036E31"/><stop offset="1" stop-color="#006931"/></linearGradient><path clip-path="url(#bI)" fill="url(#bJ)" d="M70 202.4s2 .4.2 2.3c-.3.3-1.7 1.4-4.7 1.5l4.5-3.8z"/></g><g><linearGradient id="bK" gradientUnits="userSpaceOnUse" x1="259.3" y1="154.4" x2="259.3" y2="140.2"><stop offset="0" stop-color="#40B23F"/><stop offset=".2" stop-color="#34A53C"/><stop offset=".7" stop-color="#168236"/><stop offset="1" stop-color="#006931"/></linearGradient><path fill="url(#bK)" d="M242 154.4s2.2-.3 8-6 7.6-7.8 9-8c1.6-.6 4.4.2 6.3 2.4 2.2 2 8.6 8.6 9.3 9.3l2 2.4H242z"/><defs><path id="bL" d="M242 154.4s2.2-.3 8-6 7.6-7.8 9-8c1.6-.6 4.4.2 6.3 2.4 2.2 2 8.6 8.6 9.3 9.3l2 2.4H242z"/></defs><clipPath id="bM"><use xlink:href="#bL" overflow="visible"/></clipPath><linearGradient id="bN" gradientUnits="userSpaceOnUse" x1="251.4" y1="154.4" x2="251.4" y2="141.2"><stop offset="0" stop-color="#40B23F"/><stop offset=".3" stop-color="#2C9B3B"/><stop offset=".7" stop-color="#0C7734"/><stop offset="1" stop-color="#006931"/></linearGradient><path clip-path="url(#bM)" fill="url(#bN)" d="M257.5 141.2s7 1.6.7 8c-1 1-5.8 5-16.3 5.2l15.5-13.2z"/><path fill="none" d="M242.5 154.4s2.3-.3 8-6 7.8-7.8 9-8c1.8-.6 4.5.2 6.5 2.4l9.2 9.3 2.2 2.4h-35z"/><linearGradient id="bO" gradientUnits="userSpaceOnUse" x1="268.1" y1="154.4" x2="268.1" y2="144.7"><stop offset="0" stop-color="#40B23F"/><stop offset=".2" stop-color="#34A53C"/><stop offset=".7" stop-color="#168236"/><stop offset="1" stop-color="#006931"/></linearGradient><path fill="url(#bO)" d="M256.2 154.4s1.6-.2 5.5-4c4-4 5.3-5.4 6.2-5.5 1-.6 3 0 4.2 1.4l6.4 6.4 1.4 1.6h-23.8z"/><defs><path id="bP" d="M256.2 154.4s1.6-.2 5.5-4c4-4 5.3-5.4 6.2-5.5 1-.6 3 0 4.2 1.4l6.4 6.4 1.4 1.6h-23.8z"/></defs><clipPath id="bQ"><use xlink:href="#bP" overflow="visible"/></clipPath><linearGradient id="bR" gradientUnits="userSpaceOnUse" x1="259.8" y1="156.4" x2="266.4" y2="144.9"><stop offset="0" stop-color="#23A635"/><stop offset=".2" stop-color="#189334"/><stop offset=".5" stop-color="#0B7C32"/><stop offset=".8" stop-color="#036E31"/><stop offset="1" stop-color="#006931"/></linearGradient><path clip-path="url(#bQ)" fill="url(#bR)" d="M267 145.4s4.7 1 .4 5.4c-.7.7-4 3.5-11.2 3.6l10.7-9z"/></g><g><linearGradient id="bS" gradientUnits="userSpaceOnUse" x1="53.2" y1="155.7" x2="53.2" y2="149.7"><stop offset="0" stop-color="#40B23F"/><stop offset=".2" stop-color="#34A53C"/><stop offset=".7" stop-color="#168236"/><stop offset="1" stop-color="#006931"/></linearGradient><path fill="url(#bS)" d="M46 155.7s.8 0 3.3-2.5c2.4-2.5 3.2-3.3 3.8-3.4.8-.3 2 0 2.8 1 1 .8 3.6 3.6 4 4l.8 1H46z"/><defs><path id="bT" d="M46 155.7s.8 0 3.3-2.5c2.4-2.5 3.2-3.3 3.8-3.4.8-.3 2 0 2.8 1 1 .8 3.6 3.6 4 4l.8 1H46z"/></defs><clipPath id="bU"><use xlink:href="#bT" overflow="visible"/></clipPath><linearGradient id="bV" gradientUnits="userSpaceOnUse" x1="49.9" y1="155.7" x2="49.9" y2="150.1"><stop offset="0" stop-color="#40B23F"/><stop offset=".3" stop-color="#2C9B3B"/><stop offset=".7" stop-color="#0C7734"/><stop offset="1" stop-color="#006931"/></linearGradient><path clip-path="url(#bU)" fill="url(#bV)" d="M52.5 150s3 .8.3 3.5c-.4.4-2.5 2-7 2.2l6.7-5.6z"/><path fill="none" d="M46 155.7s1 0 3.6-2.5c2.4-2.5 3.2-3.3 3.8-3.4.7-.3 1.8 0 2.6 1 1 .8 3.7 3.6 4 4l1 1H46z"/><linearGradient id="bW" gradientUnits="userSpaceOnUse" x1="57" y1="155.7" x2="57" y2="151.6"><stop offset="0" stop-color="#40B23F"/><stop offset=".2" stop-color="#34A53C"/><stop offset=".7" stop-color="#168236"/><stop offset="1" stop-color="#006931"/></linearGradient><path fill="url(#bW)" d="M52 155.7s.6 0 2.3-1.7c1.6-1.7 2.2-2.3 2.6-2.3.3-.2 1 0 1.7.6l2.7 2.7.6.7H52z"/><defs><path id="bX" d="M52 155.7s.6 0 2.3-1.7c1.6-1.7 2.2-2.3 2.6-2.3.3-.2 1 0 1.7.6l2.7 2.7.6.7H52z"/></defs><clipPath id="bY"><use xlink:href="#bX" overflow="visible"/></clipPath><linearGradient id="bZ" gradientUnits="userSpaceOnUse" x1="53.4" y1="156.6" x2="56.2" y2="151.7"><stop offset="0" stop-color="#23A635"/><stop offset=".2" stop-color="#189334"/><stop offset=".5" stop-color="#0B7C32"/><stop offset=".8" stop-color="#036E31"/><stop offset="1" stop-color="#006931"/></linearGradient><path clip-path="url(#bY)" fill="url(#bZ)" d="M56.4 152s2 .3.2 2.2c-.2.3-1.7 1.5-4.7 1.5l4.4-3.8z"/></g></svg>