<svg xmlns="http://www.w3.org/2000/svg" xmlns:xlink="http://www.w3.org/1999/xlink" width="234" height="234" viewBox="0 0 234 234"><path fill="#60C560" d="M-4-3h240v240H-4z"/><linearGradient id="a" gradientUnits="userSpaceOnUse" x1="114.8" y1="20.6" x2="114.8" y2="12.4"><stop offset="0" stop-color="#60C560"/><stop offset=".2" stop-color="#43A952"/><stop offset=".6" stop-color="#1F8640"/><stop offset=".8" stop-color="#087135"/><stop offset="1" stop-color="#006931"/></linearGradient><path fill="url(#a)" d="M104.6 20.6s1.3-.2 4.7-3.5 4.5-4.4 5.2-4.5c1-.4 2.6 0 3.7 1.3l5.4 5.5 1.4 1.3h-20.4z"/><defs><path id="b" d="M104.6 20.6s1.3-.2 4.7-3.5 4.5-4.4 5.2-4.5c1-.4 2.6 0 3.7 1.3l5.4 5.5 1.4 1.3h-20.4z"/></defs><clipPath id="c"><use xlink:href="#b" overflow="visible"/></clipPath><linearGradient id="d" gradientUnits="userSpaceOnUse" x1="110.1" y1="20.6" x2="110.1" y2="12.9"><stop offset="0" stop-color="#3BB44F"/><stop offset=".1" stop-color="#34AB4C"/><stop offset=".5" stop-color="#18873D"/><stop offset=".8" stop-color="#067134"/><stop offset="1" stop-color="#006931"/></linearGradient><path clip-path="url(#c)" fill="url(#d)" d="M113.7 13s4 .8.4 4.6c-.5.5-3.3 3-9.4 3l9-7.7z"/><linearGradient id="e" gradientUnits="userSpaceOnUse" x1="101.7" y1="20.8" x2="101.7" y2="10.1"><stop offset="0" stop-color="#60C560"/><stop offset=".2" stop-color="#43A952"/><stop offset=".6" stop-color="#1F8640"/><stop offset=".8" stop-color="#087135"/><stop offset="1" stop-color="#006931"/></linearGradient><path fill="url(#e)" d="M88.5 20.8s1.7-.2 6-4.6 5.8-5.8 6.8-6c1.3-.4 3.4.2 4.8 1.8 1.7 1.5 6.6 6.5 7 7l2 1.8H88.4z"/><defs><path id="f" d="M88.5 20.8s1.7-.2 6-4.6 5.8-5.8 6.8-6c1.3-.4 3.4.2 4.8 1.8 1.7 1.5 6.6 6.5 7 7l2 1.8H88.4z"/></defs><clipPath id="g"><use xlink:href="#f" overflow="visible"/></clipPath><linearGradient id="h" gradientUnits="userSpaceOnUse" x1="95.6" y1="20.8" x2="95.6" y2="10.8"><stop offset="0" stop-color="#3BB44F"/><stop offset=".1" stop-color="#34AB4C"/><stop offset=".5" stop-color="#18873D"/><stop offset=".8" stop-color="#067134"/><stop offset="1" stop-color="#006931"/></linearGradient><path clip-path="url(#g)" fill="url(#h)" d="M100.2 10.8s5.3 1.2.6 6c-.7.8-4.4 4-12.3 4l11.7-10z"/><linearGradient id="i" gradientUnits="userSpaceOnUse" x1="98" y1="83" x2="98" y2="76.1"><stop offset="0" stop-color="#60C560"/><stop offset=".2" stop-color="#43A952"/><stop offset=".6" stop-color="#1F8640"/><stop offset=".8" stop-color="#087135"/><stop offset="1" stop-color="#006931"/></linearGradient><path fill="url(#i)" d="M89.4 83s1 0 4-3c2.8-2.8 3.7-3.8 4.4-3.8.8-.4 2 0 3 1l4.6 4.7 1.2 1H89.4z"/><defs><path id="j" d="M89.4 83s1 0 4-3c2.8-2.8 3.7-3.8 4.4-3.8.8-.4 2 0 3 1l4.6 4.7 1.2 1H89.4z"/></defs><clipPath id="k"><use xlink:href="#j" overflow="visible"/></clipPath><linearGradient id="l" gradientUnits="userSpaceOnUse" x1="94" y1="83" x2="94" y2="76.5"><stop offset="0" stop-color="#3BB44F"/><stop offset=".1" stop-color="#34AB4C"/><stop offset=".5" stop-color="#18873D"/><stop offset=".8" stop-color="#067134"/><stop offset="1" stop-color="#006931"/></linearGradient><path clip-path="url(#k)" fill="url(#l)" d="M97 76.5s3.5.8.4 4c-.5.4-3 2.4-8 2.5l7.6-6.5z"/><linearGradient id="m" gradientUnits="userSpaceOnUse" x1="87" y1="83.1" x2="87" y2="74.2"><stop offset="0" stop-color="#60C560"/><stop offset=".2" stop-color="#43A952"/><stop offset=".6" stop-color="#1F8640"/><stop offset=".8" stop-color="#087135"/><stop offset="1" stop-color="#006931"/></linearGradient><path fill="url(#m)" d="M76 83s1.4 0 5-3.7c3.7-3.6 5-5 5.7-5 1-.4 2.8 0 4 1.5l6 6L98 83H76z"/><defs><path id="n" d="M76 83s1.4 0 5-3.7c3.7-3.6 5-5 5.7-5 1-.4 2.8 0 4 1.5l6 6L98 83H76z"/></defs><clipPath id="o"><use xlink:href="#n" overflow="visible"/></clipPath><linearGradient id="p" gradientUnits="userSpaceOnUse" x1="81.9" y1="83.1" x2="81.9" y2="74.8"><stop offset="0" stop-color="#3BB44F"/><stop offset=".1" stop-color="#34AB4C"/><stop offset=".5" stop-color="#18873D"/><stop offset=".8" stop-color="#067134"/><stop offset="1" stop-color="#006931"/></linearGradient><path clip-path="url(#o)" fill="url(#p)" d="M85.8 74.8s4.4 1 .4 5c-.6.6-3.7 3.2-10.3 3.3l9.8-8.2z"/><g><linearGradient id="q" gradientUnits="userSpaceOnUse" x1="158.2" y1="107.7" x2="158.2" y2="100.8"><stop offset="0" stop-color="#60C560"/><stop offset=".2" stop-color="#43A952"/><stop offset=".6" stop-color="#1F8640"/><stop offset=".8" stop-color="#087135"/><stop offset="1" stop-color="#006931"/></linearGradient><path fill="url(#q)" d="M149.6 107.7s1 0 4-3c2.8-2.7 3.7-3.7 4.4-3.8.8-.4 2 0 3 1l4.6 4.6 1.2 1h-17.2z"/><defs><path id="r" d="M149.6 107.7s1 0 4-3c2.8-2.7 3.7-3.7 4.4-3.8.8-.4 2 0 3 1l4.6 4.6 1.2 1h-17.2z"/></defs><clipPath id="s"><use xlink:href="#r" overflow="visible"/></clipPath><linearGradient id="t" gradientUnits="userSpaceOnUse" x1="154.2" y1="107.7" x2="154.2" y2="101.3"><stop offset="0" stop-color="#3BB44F"/><stop offset=".1" stop-color="#34AB4C"/><stop offset=".5" stop-color="#18873D"/><stop offset=".8" stop-color="#067134"/><stop offset="1" stop-color="#006931"/></linearGradient><path clip-path="url(#s)" fill="url(#t)" d="M157.2 101.3s3.5.7.4 4c-.5.3-3 2.4-8 2.4l7.6-6.4z"/><linearGradient id="u" gradientUnits="userSpaceOnUse" x1="147.2" y1="107.9" x2="147.2" y2="98.9"><stop offset="0" stop-color="#60C560"/><stop offset=".2" stop-color="#43A952"/><stop offset=".6" stop-color="#1F8640"/><stop offset=".8" stop-color="#087135"/><stop offset="1" stop-color="#006931"/></linearGradient><path fill="url(#u)" d="M136 108s1.6-.3 5.2-4c3.7-3.6 5-5 5.7-5 1-.3 2.7 0 4 1.5l5.8 6 1.5 1.4H136z"/><defs><path id="v" d="M136 108s1.6-.3 5.2-4c3.7-3.6 5-5 5.7-5 1-.3 2.7 0 4 1.5l5.8 6 1.5 1.4H136z"/></defs><clipPath id="w"><use xlink:href="#v" overflow="visible"/></clipPath><linearGradient id="x" gradientUnits="userSpaceOnUse" x1="142.1" y1="107.9" x2="142.1" y2="99.5"><stop offset="0" stop-color="#3BB44F"/><stop offset=".1" stop-color="#34AB4C"/><stop offset=".5" stop-color="#18873D"/><stop offset=".8" stop-color="#067134"/><stop offset="1" stop-color="#006931"/></linearGradient><path clip-path="url(#w)" fill="url(#x)" d="M146 99.5s4.4 1 .4 5c-.6.7-3.7 3.3-10.3 3.4l10-8.5z"/></g><g><linearGradient id="y" gradientUnits="userSpaceOnUse" x1="120" y1="31.9" x2="120" y2="26.2"><stop offset="0" stop-color="#60C560"/><stop offset=".2" stop-color="#43A952"/><stop offset=".6" stop-color="#1F8640"/><stop offset=".8" stop-color="#087135"/><stop offset="1" stop-color="#006931"/></linearGradient><path fill="url(#y)" d="M113 32s1-.2 3.2-2.5 3-3 3.6-3.2c.7-.2 1.8 0 2.6 1L126 31l1 1h-14z"/><defs><path id="z" d="M113 32s1-.2 3.2-2.5 3-3 3.6-3.2c.7-.2 1.8 0 2.6 1L126 31l1 1h-14z"/></defs><clipPath id="A"><use xlink:href="#z" overflow="visible"/></clipPath><linearGradient id="B" gradientUnits="userSpaceOnUse" x1="116.8" y1="31.9" x2="116.8" y2="26.6"><stop offset="0" stop-color="#3BB44F"/><stop offset=".1" stop-color="#34AB4C"/><stop offset=".5" stop-color="#18873D"/><stop offset=".8" stop-color="#067134"/><stop offset="1" stop-color="#006931"/></linearGradient><path clip-path="url(#A)" fill="url(#B)" d="M119.2 26.6s2.8.6.3 3.2c-.3.4-2.3 2-6.5 2l6.2-5.2z"/><linearGradient id="C" gradientUnits="userSpaceOnUse" x1="111.1" y1="32" x2="111.1" y2="24.7"><stop offset="0" stop-color="#60C560"/><stop offset=".2" stop-color="#43A952"/><stop offset=".6" stop-color="#1F8640"/><stop offset=".8" stop-color="#087135"/><stop offset="1" stop-color="#006931"/></linearGradient><path fill="url(#C)" d="M102 32s1.2 0 4.2-3 4-4 4.6-4c1-.5 2.3 0 3.3 1 1.2 1 4.5 4.4 5 4.8l1 1.2h-18z"/><defs><path id="D" d="M102 32s1.2 0 4.2-3 4-4 4.6-4c1-.5 2.3 0 3.3 1 1.2 1 4.5 4.4 5 4.8l1 1.2h-18z"/></defs><clipPath id="E"><use xlink:href="#D" overflow="visible"/></clipPath><linearGradient id="F" gradientUnits="userSpaceOnUse" x1="106.9" y1="32" x2="106.9" y2="25.2"><stop offset="0" stop-color="#3BB44F"/><stop offset=".1" stop-color="#34AB4C"/><stop offset=".5" stop-color="#18873D"/><stop offset=".8" stop-color="#067134"/><stop offset="1" stop-color="#006931"/></linearGradient><path clip-path="url(#E)" fill="url(#F)" d="M110 25.2s3.7.8.4 4c-.5.6-3 2.7-8.4 2.8l8-6.8z"/></g><g><linearGradient id="G" gradientUnits="userSpaceOnUse" x1="86" y1="91" x2="86" y2="85.9"><stop offset="0" stop-color="#60C560"/><stop offset=".2" stop-color="#43A952"/><stop offset=".6" stop-color="#1F8640"/><stop offset=".8" stop-color="#087135"/><stop offset="1" stop-color="#006931"/></linearGradient><path fill="url(#G)" d="M79.7 91s.8 0 3-2.2c2-2 2.6-2.8 3-2.8.7-.3 1.7 0 2.4.8l3.4 3.3 1 1H79.6z"/><defs><path id="H" d="M79.7 91s.8 0 3-2.2c2-2 2.6-2.8 3-2.8.7-.3 1.7 0 2.4.8l3.4 3.3 1 1H79.6z"/></defs><clipPath id="I"><use xlink:href="#H" overflow="visible"/></clipPath><linearGradient id="J" gradientUnits="userSpaceOnUse" x1="83.1" y1="91" x2="83.1" y2="86.2"><stop offset="0" stop-color="#3BB44F"/><stop offset=".1" stop-color="#34AB4C"/><stop offset=".5" stop-color="#18873D"/><stop offset=".8" stop-color="#067134"/><stop offset="1" stop-color="#006931"/></linearGradient><path clip-path="url(#I)" fill="url(#J)" d="M85.3 86.2s2.5.6.2 3c-.3.2-2 1.7-5.8 1.7l5.6-4.8z"/><linearGradient id="K" gradientUnits="userSpaceOnUse" x1="77.9" y1="91.1" x2="77.9" y2="84.5"><stop offset="0" stop-color="#60C560"/><stop offset=".2" stop-color="#43A952"/><stop offset=".6" stop-color="#1F8640"/><stop offset=".8" stop-color="#087135"/><stop offset="1" stop-color="#006931"/></linearGradient><path fill="url(#K)" d="M69.8 91s1 0 3.7-2.7 3.6-3.6 4.2-3.7c.7-.3 2 0 3 1s4 4 4.2 4.4l1 1H69.7z"/><defs><path id="L" d="M69.8 91s1 0 3.7-2.7 3.6-3.6 4.2-3.7c.7-.3 2 0 3 1s4 4 4.2 4.4l1 1H69.7z"/></defs><clipPath id="M"><use xlink:href="#L" overflow="visible"/></clipPath><linearGradient id="N" gradientUnits="userSpaceOnUse" x1="74.1" y1="91.1" x2="74.1" y2="84.9"><stop offset="0" stop-color="#3BB44F"/><stop offset=".1" stop-color="#34AB4C"/><stop offset=".5" stop-color="#18873D"/><stop offset=".8" stop-color="#067134"/><stop offset="1" stop-color="#006931"/></linearGradient><path clip-path="url(#M)" fill="url(#N)" d="M77 85s3.2.7.3 3.7c-.4.4-2.7 2.3-7.5 2.4l7.2-6z"/></g><g><linearGradient id="O" gradientUnits="userSpaceOnUse" x1="111.1" y1="24" x2="111.1" y2="17.6"><stop offset="0" stop-color="#60C560"/><stop offset=".2" stop-color="#43A952"/><stop offset=".6" stop-color="#1F8640"/><stop offset=".8" stop-color="#087135"/><stop offset="1" stop-color="#006931"/></linearGradient><path fill="url(#O)" d="M103 24s1.2 0 3.8-2.7 3.5-3.6 4-3.6c.8-.3 2 0 3 1l4 4.2 1.2 1h-16z"/><defs><path id="P" d="M103 24s1.2 0 3.8-2.7 3.5-3.6 4-3.6c.8-.3 2 0 3 1l4 4.2 1.2 1h-16z"/></defs><clipPath id="Q"><use xlink:href="#P" overflow="visible"/></clipPath><linearGradient id="R" gradientUnits="userSpaceOnUse" x1="107.4" y1="24" x2="107.4" y2="18"><stop offset="0" stop-color="#3BB44F"/><stop offset=".1" stop-color="#34AB4C"/><stop offset=".5" stop-color="#18873D"/><stop offset=".8" stop-color="#067134"/><stop offset="1" stop-color="#006931"/></linearGradient><path clip-path="url(#Q)" fill="url(#R)" d="M110.2 18s3 .7.3 3.6C110 22 108 24 103 24l7.2-6z"/></g><g><linearGradient id="S" gradientUnits="userSpaceOnUse" x1="90.2" y1="37" x2="90.2" y2="30.7"><stop offset="0" stop-color="#60C560"/><stop offset=".2" stop-color="#43A952"/><stop offset=".6" stop-color="#1F8640"/><stop offset=".8" stop-color="#087135"/><stop offset="1" stop-color="#006931"/></linearGradient><path fill="url(#S)" d="M82.3 37s1 0 3.6-2.7 3.4-3.5 4-3.5c.7-.3 2 0 3 1 .8 1 3.7 4 4 4.2l1 1H82.4z"/><defs><path id="T" d="M82.3 37s1 0 3.6-2.7 3.4-3.5 4-3.5c.7-.3 2 0 3 1 .8 1 3.7 4 4 4.2l1 1H82.4z"/></defs><clipPath id="U"><use xlink:href="#T" overflow="visible"/></clipPath><linearGradient id="V" gradientUnits="userSpaceOnUse" x1="86.6" y1="37" x2="86.6" y2="31.1"><stop offset="0" stop-color="#3BB44F"/><stop offset=".1" stop-color="#34AB4C"/><stop offset=".5" stop-color="#18873D"/><stop offset=".8" stop-color="#067134"/><stop offset="1" stop-color="#006931"/></linearGradient><path clip-path="url(#U)" fill="url(#V)" d="M89.3 31s3.2.8.4 3.7c-.5.4-2.7 2.3-7.4 2.3l7-6z"/></g><g><linearGradient id="W" gradientUnits="userSpaceOnUse" x1="147.9" y1="122" x2="147.9" y2="115.6"><stop offset="0" stop-color="#60C560"/><stop offset=".2" stop-color="#43A952"/><stop offset=".6" stop-color="#1F8640"/><stop offset=".8" stop-color="#087135"/><stop offset="1" stop-color="#006931"/></linearGradient><path fill="url(#W)" d="M140 122s1-.2 3.7-2.8 3.4-3.5 4-3.5c.8-.3 2 0 3 1l4 4.2 1.2 1h-16z"/><defs><path id="X" d="M140 122s1-.2 3.7-2.8 3.4-3.5 4-3.5c.8-.3 2 0 3 1l4 4.2 1.2 1h-16z"/></defs><clipPath id="Y"><use xlink:href="#X" overflow="visible"/></clipPath><linearGradient id="Z" gradientUnits="userSpaceOnUse" x1="144.3" y1="122" x2="144.3" y2="116"><stop offset="0" stop-color="#3BB44F"/><stop offset=".1" stop-color="#34AB4C"/><stop offset=".5" stop-color="#18873D"/><stop offset=".8" stop-color="#067134"/><stop offset="1" stop-color="#006931"/></linearGradient><path clip-path="url(#Y)" fill="url(#Z)" d="M147 116s3.2.7.4 3.6c-.4.5-2.7 2.3-7.4 2.4l7-6z"/></g><g><linearGradient id="aa" gradientUnits="userSpaceOnUse" x1="75.5" y1="28.6" x2="75.5" y2="23.1"><stop offset="0" stop-color="#60C560"/><stop offset=".2" stop-color="#43A952"/><stop offset=".6" stop-color="#1F8640"/><stop offset=".8" stop-color="#087135"/><stop offset="1" stop-color="#006931"/></linearGradient><path fill="url(#aa)" d="M68.6 28.6s1 0 3.2-2.4c2.2-2.2 3-3 3.5-3 .6-.3 1.7 0 2.4.8 1 .8 3.4 3.4 3.6 3.7l1 1H68.6z"/><defs><path id="ab" d="M68.6 28.6s1 0 3.2-2.4c2.2-2.2 3-3 3.5-3 .6-.3 1.7 0 2.4.8 1 .8 3.4 3.4 3.6 3.7l1 1H68.6z"/></defs><clipPath id="ac"><use xlink:href="#ab" overflow="visible"/></clipPath><linearGradient id="ad" gradientUnits="userSpaceOnUse" x1="72.3" y1="28.6" x2="72.3" y2="23.4"><stop offset="0" stop-color="#3BB44F"/><stop offset=".1" stop-color="#34AB4C"/><stop offset=".5" stop-color="#18873D"/><stop offset=".8" stop-color="#067134"/><stop offset="1" stop-color="#006931"/></linearGradient><path clip-path="url(#ac)" fill="url(#ad)" d="M74.7 23.4s2.7.6.3 3c-.4.5-2.3 2-6.4 2.2l6-5.2z"/></g><g><linearGradient id="ae" gradientUnits="userSpaceOnUse" x1="138.3" y1="147.2" x2="138.3" y2="141.7"><stop offset="0" stop-color="#60C560"/><stop offset=".2" stop-color="#43A952"/><stop offset=".6" stop-color="#1F8640"/><stop offset=".8" stop-color="#087135"/><stop offset="1" stop-color="#006931"/></linearGradient><path fill="url(#ae)" d="M131.5 147.2s1 0 3-2.4c2.4-2.2 3-3 3.6-3 .8-.3 2 0 2.6.8 1 .8 3.4 3.4 3.6 3.7l1 1h-13.7z"/><defs><path id="af" d="M131.5 147.2s1 0 3-2.4c2.4-2.2 3-3 3.6-3 .8-.3 2 0 2.6.8 1 .8 3.4 3.4 3.6 3.7l1 1h-13.7z"/></defs><clipPath id="ag"><use xlink:href="#af" overflow="visible"/></clipPath><linearGradient id="ah" gradientUnits="userSpaceOnUse" x1="135.2" y1="147.2" x2="135.2" y2="142"><stop offset="0" stop-color="#3BB44F"/><stop offset=".1" stop-color="#34AB4C"/><stop offset=".5" stop-color="#18873D"/><stop offset=".8" stop-color="#067134"/><stop offset="1" stop-color="#006931"/></linearGradient><path clip-path="url(#ag)" fill="url(#ah)" d="M137.6 142s2.7.6.3 3c-.5.5-2.4 2-6.5 2.2l6-5.2z"/></g></svg>