<svg xmlns="http://www.w3.org/2000/svg" xmlns:xlink="http://www.w3.org/1999/xlink" width="200" height="200" viewBox="0 0 200 200"><path fill="#A5E1A5" d="M-18.2-21h240v240h-240z"/><linearGradient id="a" gradientUnits="userSpaceOnUse" x1="115" y1="105.6" x2="115" y2="99.7"><stop offset="0" stop-color="#91D891"/><stop offset=".1" stop-color="#75C37F"/><stop offset=".4" stop-color="#439C5D"/><stop offset=".7" stop-color="#1F8045"/><stop offset=".9" stop-color="#086F36"/><stop offset="1" stop-color="#006931"/></linearGradient><path fill="url(#a)" d="M107.7 105.6s1 0 3.3-2.5 3.2-3 3.8-3.2c.7-.2 1.8 0 2.6 1 1 .8 3.6 3.6 4 4l1 .8h-14.7z"/><defs><path id="b" d="M107.7 105.6s1 0 3.3-2.5 3.2-3 3.8-3.2c.7-.2 1.8 0 2.6 1 1 .8 3.6 3.6 4 4l1 .8h-14.7z"/></defs><clipPath id="c"><use xlink:href="#b" overflow="visible"/></clipPath><linearGradient id="d" gradientUnits="userSpaceOnUse" x1="109.8" y1="106.9" x2="113.9" y2="99.9"><stop offset="0" stop-color="#91D891"/><stop offset=".1" stop-color="#74C27E"/><stop offset=".4" stop-color="#439C5D"/><stop offset=".7" stop-color="#1E8045"/><stop offset=".9" stop-color="#086F36"/><stop offset="1" stop-color="#006931"/></linearGradient><path clip-path="url(#c)" fill="url(#d)" d="M114.2 100s3 .8.3 3.5c-.4.4-2.5 2-6.8 2l6.5-5.4z"/><linearGradient id="e" gradientUnits="userSpaceOnUse" x1="107.1" y1="105.8" x2="107.1" y2="97.4"><stop offset="0" stop-color="#91D891"/><stop offset=".1" stop-color="#75C37F"/><stop offset=".4" stop-color="#439C5D"/><stop offset=".7" stop-color="#1F8045"/><stop offset=".9" stop-color="#086F36"/><stop offset="1" stop-color="#006931"/></linearGradient><path fill="url(#e)" d="M96.7 105.8s1.3-.2 4.8-3.6 4.5-4.6 5.3-4.7c1-.4 2.6 0 3.8 1.4 1.3 1 5 5 5.5 5.4l1.5 1.4H96.7z"/><defs><path id="f" d="M96.7 105.8s1.3-.2 4.8-3.6 4.5-4.6 5.3-4.7c1-.4 2.6 0 3.8 1.4 1.3 1 5 5 5.5 5.4l1.5 1.4H96.7z"/></defs><clipPath id="g"><use xlink:href="#f" overflow="visible"/></clipPath><linearGradient id="h" gradientUnits="userSpaceOnUse" x1="99.8" y1="107.5" x2="105.5" y2="97.5"><stop offset="0" stop-color="#91D891"/><stop offset=".1" stop-color="#74C27E"/><stop offset=".4" stop-color="#439C5D"/><stop offset=".7" stop-color="#1E8045"/><stop offset=".9" stop-color="#086F36"/><stop offset="1" stop-color="#006931"/></linearGradient><path clip-path="url(#g)" fill="url(#h)" d="M106 98s4 1 .4 4.7c-.6.5-3.5 3-9.7 3L106 98z"/><linearGradient id="i" gradientUnits="userSpaceOnUse" x1="129.5" y1="138.4" x2="129.5" y2="133.9"><stop offset="0" stop-color="#91D891"/><stop offset=".1" stop-color="#75C37F"/><stop offset=".4" stop-color="#439C5D"/><stop offset=".7" stop-color="#1F8045"/><stop offset=".9" stop-color="#086F36"/><stop offset="1" stop-color="#006931"/></linearGradient><path fill="url(#i)" d="M124 138.4s.7 0 2.5-2 2.5-2.4 3-2.4c.4-.2 1.3 0 2 .7l3 3 .6.7h-11z"/><defs><path id="j" d="M124 138.4s.7 0 2.5-2 2.5-2.4 3-2.4c.4-.2 1.3 0 2 .7l3 3 .6.7h-11z"/></defs><clipPath id="k"><use xlink:href="#j" overflow="visible"/></clipPath><linearGradient id="l" gradientUnits="userSpaceOnUse" x1="125.6" y1="139.4" x2="128.7" y2="134"><stop offset="0" stop-color="#91D891"/><stop offset=".1" stop-color="#74C27E"/><stop offset=".4" stop-color="#439C5D"/><stop offset=".7" stop-color="#1E8045"/><stop offset=".9" stop-color="#086F36"/><stop offset="1" stop-color="#006931"/></linearGradient><path clip-path="url(#k)" fill="url(#l)" d="M129 134.2s2 .5 0 2.6c-.2.3-1.7 1.6-5 1.6l5-4.2z"/><linearGradient id="m" gradientUnits="userSpaceOnUse" x1="123.5" y1="138.5" x2="123.5" y2="132.1"><stop offset="0" stop-color="#91D891"/><stop offset=".1" stop-color="#75C37F"/><stop offset=".4" stop-color="#439C5D"/><stop offset=".7" stop-color="#1F8045"/><stop offset=".9" stop-color="#086F36"/><stop offset="1" stop-color="#006931"/></linearGradient><path fill="url(#m)" d="M115.5 138.5s1 0 3.7-2.7c2.6-2.6 3.5-3.6 4-3.6.8-.3 2 0 3 1l4.2 4.3 1 1h-16z"/><defs><path id="n" d="M115.5 138.5s1 0 3.7-2.7c2.6-2.6 3.5-3.6 4-3.6.8-.3 2 0 3 1l4.2 4.3 1 1h-16z"/></defs><clipPath id="o"><use xlink:href="#n" overflow="visible"/></clipPath><linearGradient id="p" gradientUnits="userSpaceOnUse" x1="117.9" y1="139.9" x2="122.3" y2="132.2"><stop offset="0" stop-color="#91D891"/><stop offset=".1" stop-color="#74C27E"/><stop offset=".4" stop-color="#439C5D"/><stop offset=".7" stop-color="#1E8045"/><stop offset=".9" stop-color="#086F36"/><stop offset="1" stop-color="#006931"/></linearGradient><path clip-path="url(#o)" fill="url(#p)" d="M122.6 132.5s3.2.7.3 3.7c-.5.4-2.7 2.3-7.5 2.3l7-6z"/><g><linearGradient id="q" gradientUnits="userSpaceOnUse" x1="189.4" y1="166.4" x2="189.4" y2="160.5"><stop offset="0" stop-color="#91D891"/><stop offset=".1" stop-color="#75C37F"/><stop offset=".4" stop-color="#439C5D"/><stop offset=".7" stop-color="#1F8045"/><stop offset=".9" stop-color="#086F36"/><stop offset="1" stop-color="#006931"/></linearGradient><path fill="url(#q)" d="M182 166.4s1-.2 3.5-2.6c2.4-2.4 3.2-3.2 3.7-3.2.7-.3 2 0 2.7 1l3.7 3.8 1 1h-14.6z"/><defs><path id="r" d="M182 166.4s1-.2 3.5-2.6c2.4-2.4 3.2-3.2 3.7-3.2.7-.3 2 0 2.7 1l3.7 3.8 1 1h-14.6z"/></defs><clipPath id="s"><use xlink:href="#r" overflow="visible"/></clipPath><linearGradient id="t" gradientUnits="userSpaceOnUse" x1="184.3" y1="167.6" x2="188.3" y2="160.6"><stop offset="0" stop-color="#91D891"/><stop offset=".1" stop-color="#74C27E"/><stop offset=".4" stop-color="#439C5D"/><stop offset=".7" stop-color="#1E8045"/><stop offset=".9" stop-color="#086F36"/><stop offset="1" stop-color="#006931"/></linearGradient><path clip-path="url(#s)" fill="url(#t)" d="M188.6 160.8s3 .7.3 3.4c-.5.4-2.5 2-7 2.2l6.6-5.6z"/></g><linearGradient id="u" gradientUnits="userSpaceOnUse" x1="142.4" y1="95.4" x2="142.4" y2="87.7"><stop offset="0" stop-color="#7ACA81"/><stop offset=".2" stop-color="#5EB46F"/><stop offset=".6" stop-color="#2C8C4E"/><stop offset=".8" stop-color="#0C7239"/><stop offset="1" stop-color="#006931"/></linearGradient><path fill="url(#u)" d="M126.5 95.4s3.4-2 5-4c2-2 4-3.5 4.7-3.5.8-.4 2.6-.3 3.4.2 1 .4 2.6 1.7 3.5 2.7 0 0 1.5 1.2 2.6 1.4h1.6s.8-.4 1.6-1.2c0 0 1.8-2.8 4.8 1 .3.4 3 3 4.8 3.2h-32z"/><linearGradient id="v" gradientUnits="userSpaceOnUse" x1="149.4" y1="196" x2="149.4" y2="187.1"><stop offset="0" stop-color="#7ACA81"/><stop offset=".2" stop-color="#5EB46F"/><stop offset=".6" stop-color="#2C8C4E"/><stop offset=".8" stop-color="#0C7239"/><stop offset="1" stop-color="#006931"/></linearGradient><path fill="url(#v)" d="M131 196s4-2.3 5.6-4.8c2.2-2.2 4.6-3.8 5.6-4 1-.2 3 0 4 .4 1 .6 3 2 4 3.2 0 0 1.6 1.5 2.8 1.8h2s.8-.5 1.8-1.5c0 0 2-3 5.5 1.2.3.6 3.4 3.6 5.5 3.8h-37z"/><linearGradient id="w" gradientUnits="userSpaceOnUse" x1="178.2" y1="200" x2="178.2" y2="195.1"><stop offset="0" stop-color="#7ACA81"/><stop offset=".2" stop-color="#5EB46F"/><stop offset=".6" stop-color="#2C8C4E"/><stop offset=".8" stop-color="#0C7239"/><stop offset="1" stop-color="#006931"/></linearGradient><path fill="url(#w)" d="M168 200s2.2-1.3 3.2-2.6c1.2-1.3 2.5-2.2 3-2.2.5-.2 1.7 0 2.2.2.5.3 1.7 1 2.2 1.7 0 0 1 1 1.6 1 .4 0 .7.2 1 0 0 0 .6 0 1-.7 0 0 1.2-1.7 3 .6.4.2 2 2 3.2 2H168z"/><linearGradient id="x" gradientUnits="userSpaceOnUse" x1="184.5" y1="199.2" x2="184.5" y2="196.2"><stop offset="0" stop-color="#7ACA81"/><stop offset=".2" stop-color="#5EB46F"/><stop offset=".6" stop-color="#2C8C4E"/><stop offset=".8" stop-color="#0C7239"/><stop offset="1" stop-color="#006931"/></linearGradient><path fill="url(#x)" d="M178.2 199.2s1.4-.8 2-1.6c.7-.8 1.5-1.3 1.8-1.4.3 0 1 0 1.4.2l1.3 1s.6.5 1 .6h.7s.3 0 .6-.5c0 0 .7-1 2 .4 0 0 1 1 1.7 1.2h-12.5z"/></svg>