<svg xmlns="http://www.w3.org/2000/svg" xmlns:xlink="http://www.w3.org/1999/xlink" width="210" height="210" viewBox="0 0 210 210"><path fill="#49AA49" d="M-4.5-5h220v220h-220z"/><linearGradient id="a" gradientUnits="userSpaceOnUse" x1="172.7" y1="35.5" x2="172.7" y2="31.9"><stop offset="0" stop-color="#49AA49"/><stop offset=".1" stop-color="#3EA045"/><stop offset=".5" stop-color="#1C823A"/><stop offset=".8" stop-color="#087033"/><stop offset="1" stop-color="#006931"/></linearGradient><path fill="url(#a)" d="M168.3 35.5s.6 0 2-1.5c1.5-1.5 2-2 2.3-2 .4-.2 1 0 1.6.5l2.4 2.4.5.5h-8.7z"/><defs><path id="b" d="M168.3 35.5s.6 0 2-1.5c1.5-1.5 2-2 2.3-2 .4-.2 1 0 1.6.5l2.4 2.4.5.5h-8.7z"/></defs><clipPath id="c"><use xlink:href="#b" overflow="visible"/></clipPath><linearGradient id="d" gradientUnits="userSpaceOnUse" x1="169.6" y1="36.2" x2="172.1" y2="32"><stop offset="0" stop-color="#49AA49"/><stop offset=".4" stop-color="#258A3D"/><stop offset=".8" stop-color="#0A7234"/><stop offset="1" stop-color="#006931"/></linearGradient><path clip-path="url(#c)" fill="url(#d)" d="M172.3 32s1.7.5 0 2.2c0 .2-1.3 1.2-4 1.3l4-3.4z"/><linearGradient id="e" gradientUnits="userSpaceOnUse" x1="196.4" y1="75.6" x2="196.4" y2="71.6"><stop offset="0" stop-color="#49AA49"/><stop offset=".1" stop-color="#3EA045"/><stop offset=".5" stop-color="#1C823A"/><stop offset=".8" stop-color="#087033"/><stop offset="1" stop-color="#006931"/></linearGradient><path fill="url(#e)" d="M191.5 75.6s.7 0 2.3-1.7c1.6-1.7 2-2.3 2.5-2.3.4-.2 1.2 0 1.7.6l2.6 2.6.6.6h-9.7z"/><defs><path id="f" d="M191.5 75.6s.7 0 2.3-1.7c1.6-1.7 2-2.3 2.5-2.3.4-.2 1.2 0 1.7.6l2.6 2.6.6.6h-9.7z"/></defs><clipPath id="g"><use xlink:href="#f" overflow="visible"/></clipPath><linearGradient id="h" gradientUnits="userSpaceOnUse" x1="193" y1="76.4" x2="195.7" y2="71.7"><stop offset="0" stop-color="#49AA49"/><stop offset=".4" stop-color="#258A3D"/><stop offset=".8" stop-color="#0A7234"/><stop offset="1" stop-color="#006931"/></linearGradient><path clip-path="url(#g)" fill="url(#h)" d="M196 72s1.8.3 0 2c-.2.4-1.6 1.5-4.5 1.6L196 72z"/><linearGradient id="i" gradientUnits="userSpaceOnUse" x1="99.7" y1="78.4" x2="99.7" y2="74.9"><stop offset="0" stop-color="#49AA49"/><stop offset=".1" stop-color="#3EA045"/><stop offset=".5" stop-color="#1C823A"/><stop offset=".8" stop-color="#087033"/><stop offset="1" stop-color="#006931"/></linearGradient><path fill="url(#i)" d="M95.3 78.4s.6 0 2-1.5 2-2 2.3-2c.4-.2 1 0 1.6.5l2.3 2.4.6.4h-8.7z"/><defs><path id="j" d="M95.3 78.4s.6 0 2-1.5 2-2 2.3-2c.4-.2 1 0 1.6.5l2.3 2.4.6.4h-8.7z"/></defs><clipPath id="k"><use xlink:href="#j" overflow="visible"/></clipPath><linearGradient id="l" gradientUnits="userSpaceOnUse" x1="96.6" y1="79.2" x2="99.1" y2="75"><stop offset="0" stop-color="#49AA49"/><stop offset=".4" stop-color="#258A3D"/><stop offset=".8" stop-color="#0A7234"/><stop offset="1" stop-color="#006931"/></linearGradient><path clip-path="url(#k)" fill="url(#l)" d="M99.2 75s1.8.5.2 2c-.2.4-1.5 1.4-4 1.4L99 75z"/><linearGradient id="m" gradientUnits="userSpaceOnUse" x1="77.7" y1="92.1" x2="77.7" y2="87.5"><stop offset="0" stop-color="#49AA49"/><stop offset=".1" stop-color="#3EA045"/><stop offset=".5" stop-color="#1C823A"/><stop offset=".8" stop-color="#087033"/><stop offset="1" stop-color="#006931"/></linearGradient><path fill="url(#m)" d="M72 92s.8 0 2.7-2 2.5-2.4 3-2.4c.4-.2 1.3 0 2 .7l3 3 .6.8H72z"/><defs><path id="n" d="M72 92s.8 0 2.7-2 2.5-2.4 3-2.4c.4-.2 1.3 0 2 .7l3 3 .6.8H72z"/></defs><clipPath id="o"><use xlink:href="#n" overflow="visible"/></clipPath><linearGradient id="p" gradientUnits="userSpaceOnUse" x1="73.8" y1="93" x2="76.9" y2="87.6"><stop offset="0" stop-color="#49AA49"/><stop offset=".4" stop-color="#258A3D"/><stop offset=".8" stop-color="#0A7234"/><stop offset="1" stop-color="#006931"/></linearGradient><path clip-path="url(#o)" fill="url(#p)" d="M77 87.8s2.4.5.4 2.6c-.3.3-2 1.6-5.3 1.7l5-4.2z"/><linearGradient id="q" gradientUnits="userSpaceOnUse" x1="60.6" y1="100.4" x2="60.6" y2="93.5"><stop offset="0" stop-color="#49AA49"/><stop offset=".1" stop-color="#3EA045"/><stop offset=".5" stop-color="#1C823A"/><stop offset=".8" stop-color="#087033"/><stop offset="1" stop-color="#006931"/></linearGradient><path fill="url(#q)" d="M52 100.4s1.3-.2 4-3c3-2.8 3.8-3.8 4.4-3.8 1-.3 2.2 0 3.2 1s4 4.3 4.5 4.6l1 1.2H52z"/><defs><path id="r" d="M52 100.4s1.3-.2 4-3c3-2.8 3.8-3.8 4.4-3.8 1-.3 2.2 0 3.2 1s4 4.3 4.5 4.6l1 1.2H52z"/></defs><clipPath id="s"><use xlink:href="#r" overflow="visible"/></clipPath><linearGradient id="t" gradientUnits="userSpaceOnUse" x1="54.7" y1="101.8" x2="59.4" y2="93.6"><stop offset="0" stop-color="#49AA49"/><stop offset=".4" stop-color="#258A3D"/><stop offset=".8" stop-color="#0A7234"/><stop offset="1" stop-color="#006931"/></linearGradient><path clip-path="url(#s)" fill="url(#t)" d="M59.7 94s3.4.7.4 3.8c-.4.5-2.8 2.5-8 2.6l7.7-6.5z"/><linearGradient id="u" gradientUnits="userSpaceOnUse" x1="93.6" y1="152.6" x2="93.6" y2="146.3"><stop offset="0" stop-color="#49AA49"/><stop offset=".1" stop-color="#3EA045"/><stop offset=".5" stop-color="#1C823A"/><stop offset=".8" stop-color="#087033"/><stop offset="1" stop-color="#006931"/></linearGradient><path fill="url(#u)" d="M85.8 152.6s1-.2 3.6-2.7c2.6-2.7 3.5-3.6 4-3.6.8-.3 2 0 3 1 .8 1 3.7 3.8 4 4l1 1.2H85.8z"/><defs><path id="v" d="M85.8 152.6s1-.2 3.6-2.7c2.6-2.7 3.5-3.6 4-3.6.8-.3 2 0 3 1 .8 1 3.7 3.8 4 4l1 1.2H85.8z"/></defs><clipPath id="w"><use xlink:href="#v" overflow="visible"/></clipPath><linearGradient id="x" gradientUnits="userSpaceOnUse" x1="88.1" y1="153.9" x2="92.5" y2="146.4"><stop offset="0" stop-color="#49AA49"/><stop offset=".4" stop-color="#258A3D"/><stop offset=".8" stop-color="#0A7234"/><stop offset="1" stop-color="#006931"/></linearGradient><path clip-path="url(#w)" fill="url(#x)" d="M92.8 146.7s3 .7.3 3.6c-.3.4-2.5 2.2-7.2 2.3l7-6z"/><g><linearGradient id="y" gradientUnits="userSpaceOnUse" x1="97.7" y1="156" x2="97.7" y2="150.9"><stop offset="0" stop-color="#49AA49"/><stop offset=".1" stop-color="#3EA045"/><stop offset=".5" stop-color="#1C823A"/><stop offset=".8" stop-color="#087033"/><stop offset="1" stop-color="#006931"/></linearGradient><path fill="url(#y)" d="M91.5 156s.8 0 3-2.2c2-2 2.6-2.7 3-2.8.7-.2 1.6 0 2.3.8l3.3 3.3 1 1H91.4z"/><defs><path id="z" d="M91.5 156s.8 0 3-2.2c2-2 2.6-2.7 3-2.8.7-.2 1.6 0 2.3.8l3.3 3.3 1 1H91.4z"/></defs><clipPath id="A"><use xlink:href="#z" overflow="visible"/></clipPath><linearGradient id="B" gradientUnits="userSpaceOnUse" x1="93.4" y1="157" x2="96.8" y2="151"><stop offset="0" stop-color="#49AA49"/><stop offset=".4" stop-color="#258A3D"/><stop offset=".8" stop-color="#0A7234"/><stop offset="1" stop-color="#006931"/></linearGradient><path clip-path="url(#A)" fill="url(#B)" d="M97 151.3s2.5.5.3 2.8c-.3.5-2 2-5.8 2l5.6-4.7z"/></g><g><linearGradient id="C" gradientUnits="userSpaceOnUse" x1="200.8" y1="127.7" x2="200.8" y2="122.7"><stop offset="0" stop-color="#49AA49"/><stop offset=".1" stop-color="#3EA045"/><stop offset=".5" stop-color="#1C823A"/><stop offset=".8" stop-color="#087033"/><stop offset="1" stop-color="#006931"/></linearGradient><path fill="url(#C)" d="M194.6 127.7s.8 0 3-2.2c2-2 2.6-2.7 3-2.8.7-.2 1.6 0 2.3 1l3.2 3.2.8.7h-12.4z"/><defs><path id="D" d="M194.6 127.7s.8 0 3-2.2c2-2 2.6-2.7 3-2.8.7-.2 1.6 0 2.3 1l3.2 3.2.8.7h-12.4z"/></defs><clipPath id="E"><use xlink:href="#D" overflow="visible"/></clipPath><linearGradient id="F" gradientUnits="userSpaceOnUse" x1="196.4" y1="128.8" x2="199.9" y2="122.8"><stop offset="0" stop-color="#49AA49"/><stop offset=".4" stop-color="#258A3D"/><stop offset=".8" stop-color="#0A7234"/><stop offset="1" stop-color="#006931"/></linearGradient><path clip-path="url(#E)" fill="url(#F)" d="M200 123s2.6.6.4 2.8c-.3.4-2 1.8-5.8 2l5.5-4.8z"/></g><g><linearGradient id="G" gradientUnits="userSpaceOnUse" x1="184.5" y1="93.3" x2="184.5" y2="88.3"><stop offset="0" stop-color="#49AA49"/><stop offset=".1" stop-color="#3EA045"/><stop offset=".5" stop-color="#1C823A"/><stop offset=".8" stop-color="#087033"/><stop offset="1" stop-color="#006931"/></linearGradient><path fill="url(#G)" d="M178.3 93.3s1 0 3-2.2c2-2 2.7-2.6 3-2.7.7-.2 1.7 0 2.4 1l3.3 3.2.7.8h-12.4z"/><defs><path id="H" d="M178.3 93.3s1 0 3-2.2c2-2 2.7-2.6 3-2.7.7-.2 1.7 0 2.4 1l3.3 3.2.7.8h-12.4z"/></defs><clipPath id="I"><use xlink:href="#H" overflow="visible"/></clipPath><linearGradient id="J" gradientUnits="userSpaceOnUse" x1="180.2" y1="94.4" x2="183.7" y2="88.4"><stop offset="0" stop-color="#49AA49"/><stop offset=".4" stop-color="#258A3D"/><stop offset=".8" stop-color="#0A7234"/><stop offset="1" stop-color="#006931"/></linearGradient><path clip-path="url(#I)" fill="url(#J)" d="M184 88.6s2.4.5.2 2.8c-.4.4-2 1.8-6 2l5.7-4.8z"/></g><g><linearGradient id="K" gradientUnits="userSpaceOnUse" x1="170.5" y1="41.7" x2="170.5" y2="39"><stop offset="0" stop-color="#49AA49"/><stop offset=".1" stop-color="#3EA045"/><stop offset=".5" stop-color="#1C823A"/><stop offset=".8" stop-color="#087033"/><stop offset="1" stop-color="#006931"/></linearGradient><path fill="url(#K)" d="M167 41.7s.6 0 1.7-1 1.5-1.7 1.7-1.7c.4 0 1 0 1.3.5l1.8 1.8.4.4h-7z"/><defs><path id="L" d="M167 41.7s.6 0 1.7-1 1.5-1.7 1.7-1.7c.4 0 1 0 1.3.5l1.8 1.8.4.4h-7z"/></defs><clipPath id="M"><use xlink:href="#L" overflow="visible"/></clipPath><linearGradient id="N" gradientUnits="userSpaceOnUse" x1="168.1" y1="42.3" x2="170" y2="39"><stop offset="0" stop-color="#49AA49"/><stop offset=".4" stop-color="#258A3D"/><stop offset=".8" stop-color="#0A7234"/><stop offset="1" stop-color="#006931"/></linearGradient><path clip-path="url(#M)" fill="url(#N)" d="M170.2 39s1.3.5 0 1.7c0 .2-1 1-3 1l3-2.6z"/><g><linearGradient id="O" gradientUnits="userSpaceOnUse" x1="162.5" y1="41.6" x2="162.5" y2="36.3"><stop offset="0" stop-color="#49AA49"/><stop offset=".1" stop-color="#3EA045"/><stop offset=".5" stop-color="#1C823A"/><stop offset=".8" stop-color="#087033"/><stop offset="1" stop-color="#006931"/></linearGradient><path fill="url(#O)" d="M156 41.6s1 0 3-2.3c2.2-2 3-3 3.4-3 .6-.2 1.6 0 2.4 1 .8.7 3.2 3 3.4 3.4l.8 1h-13z"/><defs><path id="P" d="M156 41.6s1 0 3-2.3c2.2-2 3-3 3.4-3 .6-.2 1.6 0 2.4 1 .8.7 3.2 3 3.4 3.4l.8 1h-13z"/></defs><clipPath id="Q"><use xlink:href="#P" overflow="visible"/></clipPath><linearGradient id="R" gradientUnits="userSpaceOnUse" x1="158" y1="42.7" x2="161.6" y2="36.4"><stop offset="0" stop-color="#49AA49"/><stop offset=".4" stop-color="#258A3D"/><stop offset=".8" stop-color="#0A7234"/><stop offset="1" stop-color="#006931"/></linearGradient><path clip-path="url(#Q)" fill="url(#R)" d="M161.8 36.6s2.7.6.3 3c-.2.4-2 2-6 2l5.8-5z"/></g></g><g><linearGradient id="S" gradientUnits="userSpaceOnUse" x1="166.5" y1="49.9" x2="166.5" y2="45.7"><stop offset="0" stop-color="#49AA49"/><stop offset=".1" stop-color="#3EA045"/><stop offset=".5" stop-color="#1C823A"/><stop offset=".8" stop-color="#087033"/><stop offset="1" stop-color="#006931"/></linearGradient><path fill="url(#S)" d="M161.4 50s.7-.2 2.4-2c1.6-1.6 2.2-2.2 2.6-2.2.5-.2 1.3 0 2 .6l2.6 2.8.6.7h-10.2z"/><defs><path id="T" d="M161.4 50s.7-.2 2.4-2c1.6-1.6 2.2-2.2 2.6-2.2.5-.2 1.3 0 2 .6l2.6 2.8.6.7h-10.2z"/></defs><clipPath id="U"><use xlink:href="#T" overflow="visible"/></clipPath><linearGradient id="V" gradientUnits="userSpaceOnUse" x1="162.9" y1="50.7" x2="165.8" y2="45.8"><stop offset="0" stop-color="#49AA49"/><stop offset=".4" stop-color="#258A3D"/><stop offset=".8" stop-color="#0A7234"/><stop offset="1" stop-color="#006931"/></linearGradient><path clip-path="url(#U)" fill="url(#V)" d="M166 46s2 .4.2 2.3c-.3.3-1.7 1.5-4.8 1.6l4.6-4z"/><g><linearGradient id="W" gradientUnits="userSpaceOnUse" x1="154.5" y1="49.6" x2="154.5" y2="41.7"><stop offset="0" stop-color="#49AA49"/><stop offset=".1" stop-color="#3EA045"/><stop offset=".5" stop-color="#1C823A"/><stop offset=".8" stop-color="#087033"/><stop offset="1" stop-color="#006931"/></linearGradient><path fill="url(#W)" d="M144.8 49.6s1.3 0 4.5-3.4c3.2-3.2 4.3-4.3 5-4.3 1-.5 2.5 0 3.6 1 1 1.3 4.7 5 5 5.3l1.3 1.3h-19.5z"/><defs><path id="X" d="M144.8 49.6s1.3 0 4.5-3.4c3.2-3.2 4.3-4.3 5-4.3 1-.5 2.5 0 3.6 1 1 1.3 4.7 5 5 5.3l1.3 1.3h-19.5z"/></defs><clipPath id="Y"><use xlink:href="#X" overflow="visible"/></clipPath><linearGradient id="Z" gradientUnits="userSpaceOnUse" x1="147.7" y1="51.3" x2="153.1" y2="41.9"><stop offset="0" stop-color="#49AA49"/><stop offset=".4" stop-color="#258A3D"/><stop offset=".8" stop-color="#0A7234"/><stop offset="1" stop-color="#006931"/></linearGradient><path clip-path="url(#Y)" fill="url(#Z)" d="M153.5 42.2s4 1 .4 4.5c-.6.5-3.4 2.8-9.2 3l8.7-7.5z"/></g></g><g><linearGradient id="aa" gradientUnits="userSpaceOnUse" x1="107.9" y1="146.5" x2="107.9" y2="141.9"><stop offset="0" stop-color="#49AA49"/><stop offset=".1" stop-color="#3EA045"/><stop offset=".5" stop-color="#1C823A"/><stop offset=".8" stop-color="#087033"/><stop offset="1" stop-color="#006931"/></linearGradient><path fill="url(#aa)" d="M102.2 146.5s.8 0 2.7-2c1.7-1.8 2.4-2.5 2.8-2.5.5-.2 1.4 0 2 .8.7.6 3 2.8 3 3l.8.7h-11.4z"/><defs><path id="ab" d="M102.2 146.5s.8 0 2.7-2c1.7-1.8 2.4-2.5 2.8-2.5.5-.2 1.4 0 2 .8.7.6 3 2.8 3 3l.8.7h-11.4z"/></defs><clipPath id="ac"><use xlink:href="#ab" overflow="visible"/></clipPath><linearGradient id="ad" gradientUnits="userSpaceOnUse" x1="103.9" y1="147.5" x2="107.1" y2="142"><stop offset="0" stop-color="#49AA49"/><stop offset=".4" stop-color="#258A3D"/><stop offset=".8" stop-color="#0A7234"/><stop offset="1" stop-color="#006931"/></linearGradient><path clip-path="url(#ac)" fill="url(#ad)" d="M107.3 142.2s2.3.6.3 2.6c-.4.4-2 1.7-5.4 1.7l5-4.3z"/><g><linearGradient id="ae" gradientUnits="userSpaceOnUse" x1="94.7" y1="146.3" x2="94.7" y2="137.5"><stop offset="0" stop-color="#49AA49"/><stop offset=".1" stop-color="#3EA045"/><stop offset=".5" stop-color="#1C823A"/><stop offset=".8" stop-color="#087033"/><stop offset="1" stop-color="#006931"/></linearGradient><path fill="url(#ae)" d="M84 146.3s1.3-.2 5-3.8c3.5-3.5 4.6-4.8 5.4-4.8 1-.5 2.8 0 4 1.4l5.7 5.8 1.4 1.5H84z"/><defs><path id="af" d="M84 146.3s1.3-.2 5-3.8c3.5-3.5 4.6-4.8 5.4-4.8 1-.5 2.8 0 4 1.4l5.7 5.8 1.4 1.5H84z"/></defs><clipPath id="ag"><use xlink:href="#af" overflow="visible"/></clipPath><linearGradient id="ah" gradientUnits="userSpaceOnUse" x1="87.1" y1="148.1" x2="93.1" y2="137.7"><stop offset="0" stop-color="#49AA49"/><stop offset=".4" stop-color="#258A3D"/><stop offset=".8" stop-color="#0A7234"/><stop offset="1" stop-color="#006931"/></linearGradient><path clip-path="url(#ag)" fill="url(#ah)" d="M93.5 138s4.4 1 .5 5c-.6.6-3.6 3.2-10 3.3l9.5-8.2z"/></g></g><g><linearGradient id="ai" gradientUnits="userSpaceOnUse" x1="176.1" y1="140.3" x2="176.1" y2="135.7"><stop offset="0" stop-color="#49AA49"/><stop offset=".1" stop-color="#3EA045"/><stop offset=".5" stop-color="#1C823A"/><stop offset=".8" stop-color="#087033"/><stop offset="1" stop-color="#006931"/></linearGradient><path fill="url(#ai)" d="M170.4 140.3s.8 0 2.6-2c2-1.8 2.5-2.4 3-2.5.5-.2 1.4 0 2 .8l3 3 .7.7h-11.3z"/><defs><path id="aj" d="M170.4 140.3s.8 0 2.6-2c2-1.8 2.5-2.4 3-2.5.5-.2 1.4 0 2 .8l3 3 .7.7h-11.3z"/></defs><clipPath id="ak"><use xlink:href="#aj" overflow="visible"/></clipPath><linearGradient id="al" gradientUnits="userSpaceOnUse" x1="172.1" y1="141.3" x2="175.3" y2="135.8"><stop offset="0" stop-color="#49AA49"/><stop offset=".4" stop-color="#258A3D"/><stop offset=".8" stop-color="#0A7234"/><stop offset="1" stop-color="#006931"/></linearGradient><path clip-path="url(#ak)" fill="url(#al)" d="M175.5 136s2.3.6.2 2.7c-.3.3-2 1.6-5.3 1.6l5-4.3z"/><g><linearGradient id="am" gradientUnits="userSpaceOnUse" x1="162.8" y1="140.1" x2="162.8" y2="131.3"><stop offset="0" stop-color="#49AA49"/><stop offset=".1" stop-color="#3EA045"/><stop offset=".5" stop-color="#1C823A"/><stop offset=".8" stop-color="#087033"/><stop offset="1" stop-color="#006931"/></linearGradient><path fill="url(#am)" d="M152 140s1.5 0 5-3.6c3.6-3.6 4.8-4.8 5.6-5 1-.3 2.7 0 4 1.5 1.3 1 5.3 5.2 5.7 5.7l1.3 1.4H152z"/><defs><path id="an" d="M152 140s1.5 0 5-3.6c3.6-3.6 4.8-4.8 5.6-5 1-.3 2.7 0 4 1.5 1.3 1 5.3 5.2 5.7 5.7l1.3 1.4H152z"/></defs><clipPath id="ao"><use xlink:href="#an" overflow="visible"/></clipPath><linearGradient id="ap" gradientUnits="userSpaceOnUse" x1="155.3" y1="141.9" x2="161.3" y2="131.5"><stop offset="0" stop-color="#49AA49"/><stop offset=".4" stop-color="#258A3D"/><stop offset=".8" stop-color="#0A7234"/><stop offset="1" stop-color="#006931"/></linearGradient><path clip-path="url(#ao)" fill="url(#ap)" d="M161.7 132s4.3 1 .5 5c-.6.4-3.7 3-10 3l9.5-8z"/></g></g><g><linearGradient id="aq" gradientUnits="userSpaceOnUse" x1="203.8" y1="109" x2="203.8" y2="104.4"><stop offset="0" stop-color="#49AA49"/><stop offset=".1" stop-color="#3EA045"/><stop offset=".5" stop-color="#1C823A"/><stop offset=".8" stop-color="#087033"/><stop offset="1" stop-color="#006931"/></linearGradient><path fill="url(#aq)" d="M198 109s1 0 2.8-2 2.5-2.5 3-2.6c.4-.2 1.3 0 2 .8l3 3 .7.8H198z"/><defs><path id="ar" d="M198 109s1 0 2.8-2 2.5-2.5 3-2.6c.4-.2 1.3 0 2 .8l3 3 .7.8H198z"/></defs><clipPath id="as"><use xlink:href="#ar" overflow="visible"/></clipPath><linearGradient id="at" gradientUnits="userSpaceOnUse" x1="199.8" y1="109.9" x2="203" y2="104.5"><stop offset="0" stop-color="#49AA49"/><stop offset=".4" stop-color="#258A3D"/><stop offset=".8" stop-color="#0A7234"/><stop offset="1" stop-color="#006931"/></linearGradient><path clip-path="url(#as)" fill="url(#at)" d="M203.2 104.7s2.3.5.2 2.6c-.3.3-2 1.6-5.3 1.7l5.2-4.3z"/><g><linearGradient id="au" gradientUnits="userSpaceOnUse" x1="190.6" y1="108.7" x2="190.6" y2="100"><stop offset="0" stop-color="#49AA49"/><stop offset=".1" stop-color="#3EA045"/><stop offset=".5" stop-color="#1C823A"/><stop offset=".8" stop-color="#087033"/><stop offset="1" stop-color="#006931"/></linearGradient><path fill="url(#au)" d="M179.8 108.7s1.4-.2 5-3.7c3.5-3.6 4.7-4.8 5.5-5 1-.3 2.8 0 4 1.5l5.7 5.8 1.3 1.4h-21.5z"/><defs><path id="av" d="M179.8 108.7s1.4-.2 5-3.7c3.5-3.6 4.7-4.8 5.5-5 1-.3 2.8 0 4 1.5l5.7 5.8 1.3 1.4h-21.5z"/></defs><clipPath id="aw"><use xlink:href="#av" overflow="visible"/></clipPath><linearGradient id="ax" gradientUnits="userSpaceOnUse" x1="183" y1="110.5" x2="189" y2="100.1"><stop offset="0" stop-color="#49AA49"/><stop offset=".4" stop-color="#258A3D"/><stop offset=".8" stop-color="#0A7234"/><stop offset="1" stop-color="#006931"/></linearGradient><path clip-path="url(#aw)" fill="url(#ax)" d="M189.4 100.5s4.4 1 .5 5c-.7.6-3.7 3-10.2 3.2l9.6-8.2z"/></g></g><g><linearGradient id="ay" gradientUnits="userSpaceOnUse" x1="112.3" y1="159.4" x2="112.3" y2="156.7"><stop offset="0" stop-color="#49AA49"/><stop offset=".1" stop-color="#3EA045"/><stop offset=".5" stop-color="#1C823A"/><stop offset=".8" stop-color="#087033"/><stop offset="1" stop-color="#006931"/></linearGradient><path fill="url(#ay)" d="M109 159.4s.4 0 1.5-1.2c1-1 1.5-1.5 1.7-1.5.3 0 .8 0 1.2.5l1.8 1.7.4.4H109z"/><defs><path id="az" d="M109 159.4s.4 0 1.5-1.2c1-1 1.5-1.5 1.7-1.5.3 0 .8 0 1.2.5l1.8 1.7.4.4H109z"/></defs><clipPath id="aA"><use xlink:href="#az" overflow="visible"/></clipPath><linearGradient id="aB" gradientUnits="userSpaceOnUse" x1="109.9" y1="159.9" x2="111.8" y2="156.7"><stop offset="0" stop-color="#49AA49"/><stop offset=".4" stop-color="#258A3D"/><stop offset=".8" stop-color="#0A7234"/><stop offset="1" stop-color="#006931"/></linearGradient><path clip-path="url(#aA)" fill="url(#aB)" d="M112 157s1.3.2 0 1.4c0 .2-1 1-3 1l3-2.5z"/><g><linearGradient id="aC" gradientUnits="userSpaceOnUse" x1="104.5" y1="159.2" x2="104.5" y2="154.1"><stop offset="0" stop-color="#49AA49"/><stop offset=".1" stop-color="#3EA045"/><stop offset=".5" stop-color="#1C823A"/><stop offset=".8" stop-color="#087033"/><stop offset="1" stop-color="#006931"/></linearGradient><path fill="url(#aC)" d="M98.2 159.2s.8 0 3-2.2c2-2 2.7-2.8 3.2-2.8.6-.3 1.6 0 2.3.8l3.3 3.4.8.8H98.2z"/><defs><path id="aD" d="M98.2 159.2s.8 0 3-2.2c2-2 2.7-2.8 3.2-2.8.6-.3 1.6 0 2.3.8l3.3 3.4.8.8H98.2z"/></defs><clipPath id="aE"><use xlink:href="#aD" overflow="visible"/></clipPath><linearGradient id="aF" gradientUnits="userSpaceOnUse" x1="100.1" y1="160.3" x2="103.6" y2="154.2"><stop offset="0" stop-color="#49AA49"/><stop offset=".4" stop-color="#258A3D"/><stop offset=".8" stop-color="#0A7234"/><stop offset="1" stop-color="#006931"/></linearGradient><path clip-path="url(#aE)" fill="url(#aF)" d="M104 154.4s2.4.6 0 3c-.2.3-2 1.8-5.8 1.8l5.7-4.8z"/></g></g><g><linearGradient id="aG" gradientUnits="userSpaceOnUse" x1="143.9" y1="61.2" x2="143.9" y2="57"><stop offset="0" stop-color="#49AA49"/><stop offset=".1" stop-color="#3EA045"/><stop offset=".5" stop-color="#1C823A"/><stop offset=".8" stop-color="#087033"/><stop offset="1" stop-color="#006931"/></linearGradient><path fill="url(#aG)" d="M138.8 61.2s.6 0 2.3-1.8c2-1.7 2.4-2.3 2.8-2.3.5 0 1.3 0 2 .8l2.6 2.7.7.7H139z"/><defs><path id="aH" d="M138.8 61.2s.6 0 2.3-1.8c2-1.7 2.4-2.3 2.8-2.3.5 0 1.3 0 2 .8l2.6 2.7.7.7H139z"/></defs><clipPath id="aI"><use xlink:href="#aH" overflow="visible"/></clipPath><linearGradient id="aJ" gradientUnits="userSpaceOnUse" x1="140.3" y1="62.1" x2="143.2" y2="57.1"><stop offset="0" stop-color="#49AA49"/><stop offset=".4" stop-color="#258A3D"/><stop offset=".8" stop-color="#0A7234"/><stop offset="1" stop-color="#006931"/></linearGradient><path clip-path="url(#aI)" fill="url(#aJ)" d="M143.4 57.3s2 .5.2 2.4c-.3.2-1.7 1.4-4.8 1.5l4.6-4z"/><g><linearGradient id="aK" gradientUnits="userSpaceOnUse" x1="131.9" y1="60.9" x2="131.9" y2="53"><stop offset="0" stop-color="#49AA49"/><stop offset=".1" stop-color="#3EA045"/><stop offset=".5" stop-color="#1C823A"/><stop offset=".8" stop-color="#087033"/><stop offset="1" stop-color="#006931"/></linearGradient><path fill="url(#aK)" d="M122 61s1.4-.2 4.6-3.4 4.3-4.4 5-4.5c1-.3 2.5.2 3.6 1.4 1.2 1 5 4.8 5.3 5.2l1.2 1.3H122z"/><defs><path id="aL" d="M122 61s1.4-.2 4.6-3.4 4.3-4.4 5-4.5c1-.3 2.5.2 3.6 1.4 1.2 1 5 4.8 5.3 5.2l1.2 1.3H122z"/></defs><clipPath id="aM"><use xlink:href="#aL" overflow="visible"/></clipPath><linearGradient id="aN" gradientUnits="userSpaceOnUse" x1="125" y1="62.6" x2="130.5" y2="53.1"><stop offset="0" stop-color="#49AA49"/><stop offset=".4" stop-color="#258A3D"/><stop offset=".8" stop-color="#0A7234"/><stop offset="1" stop-color="#006931"/></linearGradient><path clip-path="url(#aM)" fill="url(#aN)" d="M130.8 53.5s4 1 .5 4.5c-.6.6-3.4 3-9.2 3l8.8-7.5z"/></g></g><g><linearGradient id="aO" gradientUnits="userSpaceOnUse" x1="153.3" y1="52.2" x2="153.3" y2="47.6"><stop offset="0" stop-color="#49AA49"/><stop offset=".1" stop-color="#3EA045"/><stop offset=".5" stop-color="#1C823A"/><stop offset=".8" stop-color="#087033"/><stop offset="1" stop-color="#006931"/></linearGradient><path fill="url(#aO)" d="M147.6 52.2s.7 0 2.6-2c2-1.8 2.5-2.5 3-2.5.5-.2 1.4 0 2 .7l3 3 .7.8h-11.4z"/><defs><path id="aP" d="M147.6 52.2s.7 0 2.6-2c2-1.8 2.5-2.5 3-2.5.5-.2 1.4 0 2 .7l3 3 .7.8h-11.4z"/></defs><clipPath id="aQ"><use xlink:href="#aP" overflow="visible"/></clipPath><linearGradient id="aR" gradientUnits="userSpaceOnUse" x1="149.3" y1="53.2" x2="152.4" y2="47.7"><stop offset="0" stop-color="#49AA49"/><stop offset=".4" stop-color="#258A3D"/><stop offset=".8" stop-color="#0A7234"/><stop offset="1" stop-color="#006931"/></linearGradient><path clip-path="url(#aQ)" fill="url(#aR)" d="M152.7 48s2.2.4.2 2.5c-.4.3-2 1.7-5.4 1.7l5-4.3z"/></g></svg>