<svg xmlns="http://www.w3.org/2000/svg" xmlns:xlink="http://www.w3.org/1999/xlink" width="181" height="181.1" viewBox="0 0 181 181.097"><path fill="#60C560" d="M-5-5h191v191.2H-5z"/><linearGradient id="a" gradientUnits="userSpaceOnUse" x1="93.6" y1="139.1" x2="93.6" y2="134"><stop offset="0" stop-color="#60C560"/><stop offset=".2" stop-color="#43A952"/><stop offset=".6" stop-color="#1F8640"/><stop offset=".8" stop-color="#087135"/><stop offset="1" stop-color="#006931"/></linearGradient><path fill="url(#a)" d="M87.3 139s.8 0 3-2 2.6-2.8 3-3c.7 0 1.7.2 2.4 1l3.3 3.3.8.8H87.3z"/><defs><path id="b" d="M87.3 139s.8 0 3-2 2.6-2.8 3-3c.7 0 1.7.2 2.4 1l3.3 3.3.8.8H87.3z"/></defs><clipPath id="c"><use xlink:href="#b" overflow="visible"/></clipPath><linearGradient id="d" gradientUnits="userSpaceOnUse" x1="90.7" y1="139.1" x2="90.7" y2="134.4"><stop offset="0" stop-color="#3BB44F"/><stop offset=".1" stop-color="#34AB4C"/><stop offset=".5" stop-color="#18873D"/><stop offset=".8" stop-color="#067134"/><stop offset="1" stop-color="#006931"/></linearGradient><path clip-path="url(#c)" fill="url(#d)" d="M93 134.4s2.4.5 0 3c-.2.2-2 1.7-5.7 1.7l5.6-4.6z"/><linearGradient id="e" gradientUnits="userSpaceOnUse" x1="85.5" y1="139.2" x2="85.5" y2="132.7"><stop offset="0" stop-color="#60C560"/><stop offset=".2" stop-color="#43A952"/><stop offset=".6" stop-color="#1F8640"/><stop offset=".8" stop-color="#087135"/><stop offset="1" stop-color="#006931"/></linearGradient><path fill="url(#e)" d="M77.4 139.2s1 0 3.7-2.8c2.8-2.6 3.7-3.6 4.3-3.6.8-.3 2 0 3 1l4.2 4.3 1 1.2h-16z"/><defs><path id="f" d="M77.4 139.2s1 0 3.7-2.8c2.8-2.6 3.7-3.6 4.3-3.6.8-.3 2 0 3 1l4.2 4.3 1 1.2h-16z"/></defs><clipPath id="g"><use xlink:href="#f" overflow="visible"/></clipPath><linearGradient id="h" gradientUnits="userSpaceOnUse" x1="81.8" y1="139.2" x2="81.8" y2="133.1"><stop offset="0" stop-color="#3BB44F"/><stop offset=".1" stop-color="#34AB4C"/><stop offset=".5" stop-color="#18873D"/><stop offset=".8" stop-color="#067134"/><stop offset="1" stop-color="#006931"/></linearGradient><path clip-path="url(#g)" fill="url(#h)" d="M84.6 133s3.2.8.4 3.8c-.5.5-2.8 2.4-7.6 2.4l7.2-6z"/><linearGradient id="i" gradientUnits="userSpaceOnUse" x1="95.7" y1="147.9" x2="95.7" y2="144.4"><stop offset="0" stop-color="#60C560"/><stop offset=".2" stop-color="#43A952"/><stop offset=".6" stop-color="#1F8640"/><stop offset=".8" stop-color="#087135"/><stop offset="1" stop-color="#006931"/></linearGradient><path fill="url(#i)" d="M91.4 148s.6 0 2-1.6 2-2 2.2-2c.4 0 1 0 1.6.7l2.3 2.4.6.5h-8.6z"/><defs><path id="j" d="M91.4 148s.6 0 2-1.6 2-2 2.2-2c.4 0 1 0 1.6.7l2.3 2.4.6.5h-8.6z"/></defs><clipPath id="k"><use xlink:href="#j" overflow="visible"/></clipPath><linearGradient id="l" gradientUnits="userSpaceOnUse" x1="93.7" y1="147.9" x2="93.7" y2="144.7"><stop offset="0" stop-color="#3BB44F"/><stop offset=".1" stop-color="#34AB4C"/><stop offset=".5" stop-color="#18873D"/><stop offset=".8" stop-color="#067134"/><stop offset="1" stop-color="#006931"/></linearGradient><path clip-path="url(#k)" fill="url(#l)" d="M95.2 144.7s1.8.4.2 2c-.2.2-1.4 1.2-4 1.2l3.8-3.3z"/><linearGradient id="m" gradientUnits="userSpaceOnUse" x1="90.2" y1="148" x2="90.2" y2="143.5"><stop offset="0" stop-color="#60C560"/><stop offset=".2" stop-color="#43A952"/><stop offset=".6" stop-color="#1F8640"/><stop offset=".8" stop-color="#087135"/><stop offset="1" stop-color="#006931"/></linearGradient><path fill="url(#m)" d="M84.6 148s.7 0 2.5-2 2.6-2.4 3-2.4c.5-.3 1.4 0 2 .7l3 3 .8.7H84.6z"/><defs><path id="n" d="M84.6 148s.7 0 2.5-2 2.6-2.4 3-2.4c.5-.3 1.4 0 2 .7l3 3 .8.7H84.6z"/></defs><clipPath id="o"><use xlink:href="#n" overflow="visible"/></clipPath><linearGradient id="p" gradientUnits="userSpaceOnUse" x1="87.6" y1="148" x2="87.6" y2="143.8"><stop offset="0" stop-color="#3BB44F"/><stop offset=".1" stop-color="#34AB4C"/><stop offset=".5" stop-color="#18873D"/><stop offset=".8" stop-color="#067134"/><stop offset="1" stop-color="#006931"/></linearGradient><path clip-path="url(#o)" fill="url(#p)" d="M89.5 143.8s2.3.5.3 2.6c-.3.2-2 1.6-5.2 1.6l5-4.2z"/><g><linearGradient id="q" gradientUnits="userSpaceOnUse" x1="95.2" y1="166.6" x2="95.2" y2="161.6"><stop offset="0" stop-color="#60C560"/><stop offset=".2" stop-color="#43A952"/><stop offset=".6" stop-color="#1F8640"/><stop offset=".8" stop-color="#087135"/><stop offset="1" stop-color="#006931"/></linearGradient><path fill="url(#q)" d="M89 166.6s.7 0 2.8-2c2-2.2 2.7-3 3.2-3 .6-.2 1.6 0 2.3 1l3.3 3.2 1 .8H88.8z"/><defs><path id="r" d="M89 166.6s.7 0 2.8-2c2-2.2 2.7-3 3.2-3 .6-.2 1.6 0 2.3 1l3.3 3.2 1 .8H88.8z"/></defs><clipPath id="s"><use xlink:href="#r" overflow="visible"/></clipPath><linearGradient id="t" gradientUnits="userSpaceOnUse" x1="92.3" y1="166.6" x2="92.3" y2="161.9"><stop offset="0" stop-color="#3BB44F"/><stop offset=".1" stop-color="#34AB4C"/><stop offset=".5" stop-color="#18873D"/><stop offset=".8" stop-color="#067134"/><stop offset="1" stop-color="#006931"/></linearGradient><path clip-path="url(#s)" fill="url(#t)" d="M94.5 162s2.5.5.2 2.8c-.3.3-2 1.8-5.8 1.8l5.5-4.7z"/><linearGradient id="u" gradientUnits="userSpaceOnUse" x1="87.1" y1="166.8" x2="87.1" y2="160.2"><stop offset="0" stop-color="#60C560"/><stop offset=".2" stop-color="#43A952"/><stop offset=".6" stop-color="#1F8640"/><stop offset=".8" stop-color="#087135"/><stop offset="1" stop-color="#006931"/></linearGradient><path fill="url(#u)" d="M79 166.8s1-.2 3.7-2.8c2.7-2.7 3.6-3.6 4.2-3.7.7-.3 2 0 2.8 1l4.3 4.4 1.3 1H79z"/><defs><path id="v" d="M79 166.8s1-.2 3.7-2.8c2.7-2.7 3.6-3.6 4.2-3.7.7-.3 2 0 2.8 1l4.3 4.4 1.3 1H79z"/></defs><clipPath id="w"><use xlink:href="#v" overflow="visible"/></clipPath><linearGradient id="x" gradientUnits="userSpaceOnUse" x1="83.4" y1="166.8" x2="83.4" y2="160.6"><stop offset="0" stop-color="#3BB44F"/><stop offset=".1" stop-color="#34AB4C"/><stop offset=".5" stop-color="#18873D"/><stop offset=".8" stop-color="#067134"/><stop offset="1" stop-color="#006931"/></linearGradient><path clip-path="url(#w)" fill="url(#x)" d="M86.2 160.6s3.3.8.4 3.8c-.5.4-2.7 2.3-7.6 2.4l7.2-6.2z"/></g><g><linearGradient id="y" gradientUnits="userSpaceOnUse" x1="23.1" y1="125.2" x2="23.1" y2="120.1"><stop offset="0" stop-color="#60C560"/><stop offset=".2" stop-color="#43A952"/><stop offset=".6" stop-color="#1F8640"/><stop offset=".8" stop-color="#087135"/><stop offset="1" stop-color="#006931"/></linearGradient><path fill="url(#y)" d="M17 125.2s.7 0 2.8-2.2 2.7-2.7 3.2-2.8c.6-.2 1.5 0 2.2.8l3.4 3.4.8.8H17z"/><defs><path id="z" d="M17 125.2s.7 0 2.8-2.2 2.7-2.7 3.2-2.8c.6-.2 1.5 0 2.2.8l3.4 3.4.8.8H17z"/></defs><clipPath id="A"><use xlink:href="#z" overflow="visible"/></clipPath><linearGradient id="B" gradientUnits="userSpaceOnUse" x1="20.3" y1="125.2" x2="20.3" y2="120.5"><stop offset="0" stop-color="#3BB44F"/><stop offset=".1" stop-color="#34AB4C"/><stop offset=".5" stop-color="#18873D"/><stop offset=".8" stop-color="#067134"/><stop offset="1" stop-color="#006931"/></linearGradient><path clip-path="url(#A)" fill="url(#B)" d="M22.4 120.5s2.5.5.3 2.8c-.3.4-2 1.8-5.8 2l5.4-4.8z"/><linearGradient id="C" gradientUnits="userSpaceOnUse" x1="15.1" y1="125.3" x2="15.1" y2="118.8"><stop offset="0" stop-color="#60C560"/><stop offset=".2" stop-color="#43A952"/><stop offset=".6" stop-color="#1F8640"/><stop offset=".8" stop-color="#087135"/><stop offset="1" stop-color="#006931"/></linearGradient><path fill="url(#C)" d="M7 125.3s1 0 3.7-2.8 3.6-3.6 4.2-3.6c.6-.4 2 0 2.8 1L22 124l1.2 1H7z"/><defs><path id="D" d="M7 125.3s1 0 3.7-2.8 3.6-3.6 4.2-3.6c.6-.4 2 0 2.8 1L22 124l1.2 1H7z"/></defs><clipPath id="E"><use xlink:href="#D" overflow="visible"/></clipPath><linearGradient id="F" gradientUnits="userSpaceOnUse" x1="11.4" y1="125.3" x2="11.4" y2="119.2"><stop offset="0" stop-color="#3BB44F"/><stop offset=".1" stop-color="#34AB4C"/><stop offset=".5" stop-color="#18873D"/><stop offset=".8" stop-color="#067134"/><stop offset="1" stop-color="#006931"/></linearGradient><path clip-path="url(#E)" fill="url(#F)" d="M14.2 119.2s3.2.7.3 3.7c-.4.3-2.7 2.2-7.5 2.3l7.2-6z"/></g><g><linearGradient id="G" gradientUnits="userSpaceOnUse" x1="37.4" y1="119" x2="37.4" y2="115.5"><stop offset="0" stop-color="#60C560"/><stop offset=".2" stop-color="#43A952"/><stop offset=".6" stop-color="#1F8640"/><stop offset=".8" stop-color="#087135"/><stop offset="1" stop-color="#006931"/></linearGradient><path fill="url(#G)" d="M33 119s.6 0 2-1.5 2-2 2.3-2c.4 0 1 0 1.6.6.4.6 2 2.3 2.2 2.4l.6.6H33z"/><defs><path id="H" d="M33 119s.6 0 2-1.5 2-2 2.3-2c.4 0 1 0 1.6.6.4.6 2 2.3 2.2 2.4l.6.6H33z"/></defs><clipPath id="I"><use xlink:href="#H" overflow="visible"/></clipPath><linearGradient id="J" gradientUnits="userSpaceOnUse" x1="35.4" y1="119" x2="35.4" y2="115.7"><stop offset="0" stop-color="#3BB44F"/><stop offset=".1" stop-color="#34AB4C"/><stop offset=".5" stop-color="#18873D"/><stop offset=".8" stop-color="#067134"/><stop offset="1" stop-color="#006931"/></linearGradient><path clip-path="url(#I)" fill="url(#J)" d="M37 115.7s1.6.4 0 2c-.2.3-1.4 1.3-4 1.3l4-3.3z"/><linearGradient id="K" gradientUnits="userSpaceOnUse" x1="31.8" y1="119.1" x2="31.8" y2="114.5"><stop offset="0" stop-color="#60C560"/><stop offset=".2" stop-color="#43A952"/><stop offset=".6" stop-color="#1F8640"/><stop offset=".8" stop-color="#087135"/><stop offset="1" stop-color="#006931"/></linearGradient><path fill="url(#K)" d="M26 119s.8 0 2.7-2c1.8-1.7 2.5-2.4 3-2.4.4-.2 1.3 0 2 .7l3 3 .7.8H26z"/><defs><path id="L" d="M26 119s.8 0 2.7-2c1.8-1.7 2.5-2.4 3-2.4.4-.2 1.3 0 2 .7l3 3 .7.8H26z"/></defs><clipPath id="M"><use xlink:href="#L" overflow="visible"/></clipPath><linearGradient id="N" gradientUnits="userSpaceOnUse" x1="29.1" y1="119.1" x2="29.1" y2="114.8"><stop offset="0" stop-color="#3BB44F"/><stop offset=".1" stop-color="#34AB4C"/><stop offset=".5" stop-color="#18873D"/><stop offset=".8" stop-color="#067134"/><stop offset="1" stop-color="#006931"/></linearGradient><path clip-path="url(#M)" fill="url(#N)" d="M31 114.8s2.4.5.4 2.6c-.4.3-2 1.7-5.3 1.7l5-4.2z"/></g><g><linearGradient id="O" gradientUnits="userSpaceOnUse" x1="60.4" y1="147.9" x2="60.4" y2="142.1"><stop offset="0" stop-color="#60C560"/><stop offset=".2" stop-color="#43A952"/><stop offset=".6" stop-color="#1F8640"/><stop offset=".8" stop-color="#087135"/><stop offset="1" stop-color="#006931"/></linearGradient><path fill="url(#O)" d="M53 148s1-.2 3.5-2.6c2.4-2.3 3-3.2 3.7-3.2.7-.3 1.8 0 2.6 1 1 .8 3.6 3.5 3.8 3.8l1 1H53.2z"/><defs><path id="P" d="M53 148s1-.2 3.5-2.6c2.4-2.3 3-3.2 3.7-3.2.7-.3 1.8 0 2.6 1 1 .8 3.6 3.5 3.8 3.8l1 1H53.2z"/></defs><clipPath id="Q"><use xlink:href="#P" overflow="visible"/></clipPath><linearGradient id="R" gradientUnits="userSpaceOnUse" x1="57.1" y1="147.9" x2="57.1" y2="142.5"><stop offset="0" stop-color="#3BB44F"/><stop offset=".1" stop-color="#34AB4C"/><stop offset=".5" stop-color="#18873D"/><stop offset=".8" stop-color="#067134"/><stop offset="1" stop-color="#006931"/></linearGradient><path clip-path="url(#Q)" fill="url(#R)" d="M59.6 142.5s3 .6.3 3.3c-.5.4-2.5 2-7 2l6.6-5.3z"/></g><g><linearGradient id="S" gradientUnits="userSpaceOnUse" x1="37.6" y1="171.2" x2="37.6" y2="165.4"><stop offset="0" stop-color="#60C560"/><stop offset=".2" stop-color="#43A952"/><stop offset=".6" stop-color="#1F8640"/><stop offset=".8" stop-color="#087135"/><stop offset="1" stop-color="#006931"/></linearGradient><path fill="url(#S)" d="M30.4 171.2s1 0 3.3-2.5c2.4-2.3 3.2-3.2 3.7-3.2.7-.3 2 0 2.7 1 1 .8 3.6 3.5 4 3.8l1 1H30.3z"/><defs><path id="T" d="M30.4 171.2s1 0 3.3-2.5c2.4-2.3 3.2-3.2 3.7-3.2.7-.3 2 0 2.7 1 1 .8 3.6 3.5 4 3.8l1 1H30.3z"/></defs><clipPath id="U"><use xlink:href="#T" overflow="visible"/></clipPath><linearGradient id="V" gradientUnits="userSpaceOnUse" x1="34.3" y1="171.2" x2="34.3" y2="165.8"><stop offset="0" stop-color="#3BB44F"/><stop offset=".1" stop-color="#34AB4C"/><stop offset=".5" stop-color="#18873D"/><stop offset=".8" stop-color="#067134"/><stop offset="1" stop-color="#006931"/></linearGradient><path clip-path="url(#U)" fill="url(#V)" d="M36.8 165.8s3 .6.3 3.3c-.3.5-2.3 2.2-6.6 2.2l6.4-5.4z"/></g><g><linearGradient id="W" gradientUnits="userSpaceOnUse" x1="90.8" y1="157.8" x2="90.8" y2="152"><stop offset="0" stop-color="#60C560"/><stop offset=".2" stop-color="#43A952"/><stop offset=".6" stop-color="#1F8640"/><stop offset=".8" stop-color="#087135"/><stop offset="1" stop-color="#006931"/></linearGradient><path fill="url(#W)" d="M83.6 157.8s1 0 3.3-2.5c2.3-2.3 3-3.2 3.6-3.2.7-.2 2 0 2.7 1l3.8 4 1 .8H83.7z"/><defs><path id="X" d="M83.6 157.8s1 0 3.3-2.5c2.3-2.3 3-3.2 3.6-3.2.7-.2 2 0 2.7 1l3.8 4 1 .8H83.7z"/></defs><clipPath id="Y"><use xlink:href="#X" overflow="visible"/></clipPath><linearGradient id="Z" gradientUnits="userSpaceOnUse" x1="87.5" y1="157.8" x2="87.5" y2="152.4"><stop offset="0" stop-color="#3BB44F"/><stop offset=".1" stop-color="#34AB4C"/><stop offset=".5" stop-color="#18873D"/><stop offset=".8" stop-color="#067134"/><stop offset="1" stop-color="#006931"/></linearGradient><path clip-path="url(#Y)" fill="url(#Z)" d="M90 152.4s3 .6.3 3.3c-.3.4-2.4 2-6.7 2l6.4-5.3z"/></g><g><linearGradient id="aa" gradientUnits="userSpaceOnUse" x1="78.4" y1="163.5" x2="78.4" y2="158.6"><stop offset="0" stop-color="#60C560"/><stop offset=".2" stop-color="#43A952"/><stop offset=".6" stop-color="#1F8640"/><stop offset=".8" stop-color="#087135"/><stop offset="1" stop-color="#006931"/></linearGradient><path fill="url(#aa)" d="M72.4 163.5s.8 0 2.8-2c2-2 2.6-2.8 3-2.8.6-.3 1.6 0 2.3.8l3.2 3.2.8.8h-12z"/><defs><path id="ab" d="M72.4 163.5s.8 0 2.8-2c2-2 2.6-2.8 3-2.8.6-.3 1.6 0 2.3.8l3.2 3.2.8.8h-12z"/></defs><clipPath id="ac"><use xlink:href="#ab" overflow="visible"/></clipPath><linearGradient id="ad" gradientUnits="userSpaceOnUse" x1="75.6" y1="163.5" x2="75.6" y2="158.9"><stop offset="0" stop-color="#3BB44F"/><stop offset=".1" stop-color="#34AB4C"/><stop offset=".5" stop-color="#18873D"/><stop offset=".8" stop-color="#067134"/><stop offset="1" stop-color="#006931"/></linearGradient><path clip-path="url(#ac)" fill="url(#ad)" d="M77.8 159s2.4.5.2 2.7c-.3.3-2 1.7-5.6 1.8l5.4-4.6z"/></g><g><linearGradient id="ae" gradientUnits="userSpaceOnUse" x1="74" y1="97.1" x2="74" y2="93.2"><stop offset="0" stop-color="#60C560"/><stop offset=".2" stop-color="#43A952"/><stop offset=".6" stop-color="#1F8640"/><stop offset=".8" stop-color="#087135"/><stop offset="1" stop-color="#006931"/></linearGradient><path fill="url(#ae)" d="M69.2 97s.6 0 2.2-1.6 2-2 2.5-2c.3-.3 1 0 1.6.5l2.6 2.5.6.6h-9.6z"/><defs><path id="af" d="M69.2 97s.6 0 2.2-1.6 2-2 2.5-2c.3-.3 1 0 1.6.5l2.6 2.5.6.6h-9.6z"/></defs><clipPath id="ag"><use xlink:href="#af" overflow="visible"/></clipPath><linearGradient id="ah" gradientUnits="userSpaceOnUse" x1="71.8" y1="97.1" x2="71.8" y2="93.5"><stop offset="0" stop-color="#3BB44F"/><stop offset=".1" stop-color="#34AB4C"/><stop offset=".5" stop-color="#18873D"/><stop offset=".8" stop-color="#067134"/><stop offset="1" stop-color="#006931"/></linearGradient><path clip-path="url(#ag)" fill="url(#ah)" d="M73.5 93.5s2 .4.2 2.2c-.3.2-1.6 1.3-4.5 1.4l4.3-3.5z"/></g></svg>