<svg xmlns="http://www.w3.org/2000/svg" width="450" height="450" viewBox="0 0 450 450"><path fill="#265E26" d="M-5-5h460v460H-5z"/><path fill="#2C6D2C" d="M216.8 90.8l-39.5 11-14 50.8-11 48 2.2 17 38.3 9 26.6-16.4 21-2.8 6-35.8 2-27-11-23-3.2-10-11.6-12m228.4 98h-18.4l-6.3 10v26.7l-12.3 12h-20.6V238h-11l-6.4 8.4v8.4h-6.3V245l-8.4 6.3h-17.5l-7 3.5v7l9.8 3.5h12.6v7H374v12.5l-5.7 7.2v12.4h6.3v-8H399v-13h10.5v-14h16.8v-15.3h25.4"/><path fill="#407C40" d="M389 199.6l-13.3 4.6-16.5 23H322l-9.4 5v7l15 6.6-5.7 11.7-23-6.6-7.4 16.7v7.5l25.2 16.8H355l4.2-19.7v-7h-12.6l-9.8-3.5v-7l7-3.5h17.5l8.4-6.3v9.8h6.3v-8.4l6.3-8.4h11v8.4H414l12.3-12v-26.7l6.3-10.2H451l10-20-11.2-13 2-7.8-5-7-12.8 5-15 17-15 7"/><path fill="#5D9B5D" d="M233.3 372.4h10l5 6.7 18.8 25.2 5-3-2-17.8 7-5 10 20 49.2-1.3 10 11.3 7-1.2 3-5 15.8-17.8 7 5 5-7 5 9 15 5 17.3.4-4.4-7.4-2-24-18-28-7.3-7H359v-6l2.3-6.6H327v-5.2l-7.7 4.7-27 11-16.8 19.5-18.3 1.5"/><path fill="#4D8E4D" d="M317 312.4h-9v-13l8.8-7.4H355l4.2-19.7H374v12.5l-5.7 7.2v12.4h6.3v8.5h-16.4v4.6H317"/><path fill="#2C6D2C" d="M141.3 322l14-22.6 9.2-8h12l9-3.5-9-10.4h-10.2l19.8-19.8 25 11-2.7 14.6v36h15.3l6.6-4.5-6.7-6.2v-9.4l18.8 9-11 42-7-1.2-10.8-10.8-15 8.7h-8.3l-24 4.3-15-11"/><path fill="#407C40" d="M227.7 186l30-9.2L133 240l-16.7 65.2 134-44.2-23.5 1.3-21.4-16.8-24 14.3 9.7 2.5 6 12.2-9.4 1.2-11.8-3-10.8 5.6-5.7 22-24-2-4.6-7 4-10.7 14-2.4 4-3.3-1.2-4.3-14.2.3-20-22.8v-5l52-45.2 4 1 5.2 11.7 1.6 2 12.4-44.8"/><path fill="#5D9B5D" d="M240.4 188.4l20 68h17l5.6 3.5-4.5 12.3h-24V284H283l25 15.4 8.8-7.4-25.2-16.8v-7.5L299 251l23 6.5 5.5-11.7-15-6.5v-7l9.4-5-22.6-42.5 10.6-20.2-25-13-10 4-11.5-6-17 3"/><path fill="#4D8E4D" d="M324.2 165.5l-14.2-1-10.6 20.3 22.5 42.4H359l16.5-23-23.7 8.3-17-13 2-7.8-8.7-13"/><path fill="#80B4C9" d="M284 273l8-15.3L300 273"/><path fill="#79A7BD" d="M300.2 273l-8.3-15.3V273"/><path fill="#FFF" d="M289.5 262.3l1-.5-.2 1.8 1-1.3.6 2.4.8-3 2 1.4-.6-1-2.3-4.3"/><path fill="#80B4C9" d="M294.7 273l7.5-11.8L310 273"/><path fill="#79A7BD" d="M310 273l-7.8-11.8V273"/><path fill="#FFF" d="M300 264.8l1-.4-.3 1.4 1-1 .5 1.8.8-2.3 2 1-.7-1-2-3"/><path fill="#80B4C9" d="M275.6 273l7.5-11.7 8 11.8"/><path fill="#79A7BD" d="M291 273l-8-11.7V273"/><path fill="#FFF" d="M280.8 265l1-.5-.2 1.4 1-1 .5 1.8 1-2.3 1.8 1-.6-1-2-3.2"/><path fill="#80B4C9" d="M305.8 327.7l7.8-15.2 8.4 15.2"/><path fill="#79A7BD" d="M322 327.7l-8.4-15.2v15.2"/><path fill="#FFF" d="M311.3 317l1-.4-.2 1.8 1.2-1.3.4 2.5 1-3 2 1.4-.7-1.3-2.4-4.2"/><path fill="#80B4C9" d="M316.5 327.7L324 316l7.8 11.7"/><path fill="#79A7BD" d="M331.8 327.7l-8-11.7v11.7"/><path fill="#FFF" d="M321.6 319.6l1-.4-.2 1.4 1-1 .5 1.8.7-2.2 2 1-.6-1-2-3.2"/><g><path fill="#80B4C9" d="M297.4 328l7.4-12 8 12"/><path fill="#79A7BD" d="M312.7 328l-8-12v12"/><path fill="#FFF" d="M302.5 319.7l1-.4-.2 1.4 1-1 .5 2 .8-2.4 2 1-.6-1-2.2-3.2"/></g><g><path fill="#858B0B" d="M246 286.6l-4.4 19h4.4v-19"/><path fill="#737900" d="M246 286.6v19h4.4"/><path fill="#291401" d="M246 293l-.2 4.5-1.3-1.3 1.3 1.8v2l-2-2 2 2.7v2l-2.6-2.4 2.5 3.2-.2 5.6h.5v-15"/><path fill="#170200" d="M246.3 303.5l2.5-3.2-2.5 2.5v-2l2-3-2 2.2-.2-2 1.4-2-1.3 1.5V294v15h.5"/><path fill="#858B0B" d="M259 283.6l-4.2 19h4.3v-19"/><path fill="#737900" d="M259 283.6v19h4.5"/><path fill="#291401" d="M259 290v4.5l-1.4-1.3 1.3 1.8v2l-2.2-2 2 2.7v2l-2.5-2.4 2.5 3.2-.2 5.6h.5v-15"/><path fill="#170200" d="M259.4 300.5l2.5-3.2-2.6 2.5v-2l2-2.8-2 2-.2-2 1.3-2-1.3 1.5V291v15h.4"/><path fill="#858B0B" d="M269 284.2l-3.8 17h4v-17"/><path fill="#737900" d="M269 284.3V301h4"/><path fill="#291401" d="M269 290v4l-1.2-1.2 1.2 1.6v1.7l-2-1.7 2 2.5-.2 1.8-2.2-2 2.2 2.7-.2 5h.5v-13.5"/><path fill="#170200" d="M269.4 299.3l2.2-2.8-2.3 2.2v-2l2-2.4-2 2v-2l1-1.6-1 1.2-.2-3.2v13.5h.6"/><path fill="#858B0B" d="M290 287l-3.6 16.3h3.7V287"/><path fill="#737900" d="M290 287v16.3h3.8"/><path fill="#291401" d="M290 292.6v3.8l-1.2-1 1.2 1.5v1.5l-2-1.7 2 2.4-.2 1.7-2-2 2 2.5-.2 5h.5v-13"/><path fill="#170200" d="M290.3 301.6l2.2-2.7-2.2 2v-1.8l1.8-2.4-1.7 1.8v-1.8l1-1.6-1 1.2-.2-3v13h.5"/><path fill="#858B0B" d="M279.3 290.6l-3.6 15.6h3.6v-15.6"/><path fill="#737900" d="M279.3 290.6v15.6h3.6"/><path fill="#291401" d="M279.3 296v3.6l-1.3-1 1.2 1.4v1.7l-1.8-1.7 1.7 2.3v1.7l-2-2 2 2.6-.2 4.6h.5v-12.5"/><path fill="#170200" d="M279.5 304.6l2-2.6-2 2v-1.7l1.7-2.3-1.8 1.7V300l1-1.6-1 1.2v-3 12.6h.3"/><g><path fill="#9EA424" d="M272.7 301.3l-4.3 19h4.3v-19"/><path fill="#8C9212" d="M272.7 301.3v19h4.4"/><path fill="#422D1A" d="M272.7 307.7v4.5L271 311l1.3 1.7v2l-2-2 2 2.7v2l-2.6-2.4 2.4 3.2-.2 5.6h.5v-15"/><path fill="#301B08" d="M273 318.2l2.5-3.2-2.5 2.5v-2l2-3-2 2.2-.2-2 1.3-2-1.2 1.5v-3.5 15h.4"/></g><g><path fill="#9EA424" d="M286 301.8l-3.6 15h3.5v-15"/><path fill="#8C9212" d="M286 301.8v15h3.3"/><path fill="#422D1A" d="M285.8 307v3.4l-1.2-1 1 1.5v1.4l-1.6-1.6 1.6 2.2v1.7l-2-2 2 2.5-.2 4.5h.5v-12"/><path fill="#301B08" d="M286 315.3l2-2.6-2 2V313l1.7-2.2-1.7 1.7v-1.7l1-1.4-1 1v-2.7 12h.2"/></g><g><path fill="#9EA424" d="M265 293.2l-4.3 19h4.4v-19"/><path fill="#8C9212" d="M265 293.2v19h4.4"/><path fill="#422D1A" d="M265 299.6v4.5l-1.4-1.2 1.3 1.8-.2 2-2-2 2 2.7v2l-2.6-2.4 2.5 3-.2 5.7h.6v-15"/><path fill="#301B08" d="M265.3 310l2.6-3-2.7 2.4v-2l2-2.8-2 2v-2l1.2-2-1.3 1.5v-3.4 15h.4"/></g><g><path fill="#9EA424" d="M253.3 291.4l-4.3 19h4.3v-19"/><path fill="#8C9212" d="M253.3 291.4v19h4.4"/><path fill="#422D1A" d="M253.3 297.8v4.5l-1.5-1.3 1.3 1.8v2l-2-2 2 2.7v2l-2.5-2.4 2.5 3.3-.2 5.6h.5v-15.2"/><path fill="#301B08" d="M253.6 308.3l2.5-3.2-2.4 2.6v-2l2-2.8-2 2-.2-2 1.3-2-1.3 1.5v-3.5 15h.4"/></g></g><g><path fill="#858B0B" d="M154.5 268.4l-4 18h4v-18"/><path fill="#737900" d="M154.5 268.4v18h4.2"/><path fill="#291401" d="M154.5 274.5v4.2l-1.4-1.3 1.4 1.8v1.8l-2-2 2 2.7-.2 2-2.4-2.3 2.4 3-.2 5.3h.5v-14.3"/><path fill="#170200" d="M154.8 284.4l2.4-3-2.4 2.3v-2l2-2.6-2 2-.2-2 1.3-1.6-1.4 1.3v-3.3 14.3h.4"/><path fill="#858B0B" d="M167 265.5l-4.2 18h4v-18"/><path fill="#737900" d="M167 265.5v18h4"/><path fill="#291401" d="M167 271.6l-.2 4.2-1.3-1.2 1.3 1.7v2l-2-2 2 2.6-.2 1.8-2.3-2.3 2.3 3-.2 5.3h.5v-14.3"/><path fill="#170200" d="M167.2 281.6l2.4-3-2.4 2.3v-2l2-2.7-2 2v-2l1-1.8-1.2 1.4v-3.5 14.3h.4"/><path fill="#858B0B" d="M176.4 266l-3.7 16h3.7v-16"/><path fill="#737900" d="M176.4 266v16h3.7"/><path fill="#291401" d="M176.4 271.6v3.7l-1.3-1 1.3 1.4v1.7l-1.8-1.7 1.7 2.3v1.8l-2.2-2 2 2.6v4.7h.4v-12.6"/><path fill="#170200" d="M176.7 280.4l2-2.7-2 2v-1.6l1.7-2.3-1.8 1.7v-1.7l1-1.6-1 1.3-.2-3v12.8h.4"/><path fill="#858B0B" d="M196.3 269l-3.5 15.2h3.5V269"/><path fill="#737900" d="M196.3 269V284h3.6"/><path fill="#291401" d="M196.3 274v3.7l-1.2-1 1.2 1.4v1.7l-1.8-1.7 1.7 2.3v1.7l-2-2 2 2.5v4.6h.3v-12"/><path fill="#170200" d="M196.5 282.6l2-2.6-2 2v-1.7l1.7-2.3-1.7 1.7V278l1-1.5-1 1.2-.2-2.8v12h.4"/><path fill="#858B0B" d="M186 272l-3.4 15h3.5v-15"/><path fill="#737900" d="M186 272v15h3.5"/><path fill="#291401" d="M186 277.2v3.5l-1-1 1 1.4v1.6l-1.7-1.5 1.6 2.2-.2 1.6-2-2 2 2.6-.2 4.4h.5V278"/><path fill="#170200" d="M186.3 285.4l2-2.5-2 2v-1.7l1.6-2.2-1.8 1.7V281l1-1.4-1 1V278v11.8h.3"/><g><path fill="#9EA424" d="M179.8 282.3l-4 18h4v-18"/><path fill="#8C9212" d="M179.8 282.3v18h4.2"/><path fill="#422D1A" d="M179.8 288.4v4.2l-1.4-1.2 1.3 1.7v2l-2-2 2 2.6-.2 2-2.3-2.3 2.3 3-.2 5.3h.5v-14.3"/><path fill="#301B08" d="M180 298.4l2.5-3-2.4 2.3v-2l2-2.6-2 2v-2l1.2-1.7-1.3 1.3-.2-3.3v14.3h.5"/></g><g><path fill="#9EA424" d="M192.3 282.8L189 297h3.3v-14.2"/><path fill="#8C9212" d="M192.3 282.8V297h3.3"/><path fill="#422D1A" d="M192.3 287.6v3.4l-1.2-1 1.2 1.4v1.5l-1.7-1.7 1.6 2v1.7l-1.8-2 1.8 2.5v4.3h.3v-11.4"/><path fill="#301B08" d="M192.5 295.6l2-2.5-2 2v-1.5l1.5-2.2-1.6 1.6v-1.7l1-1.4-1 1v-2.6 11.4h.3"/></g><g><path fill="#9EA424" d="M172.6 274.6l-4.2 18h4.2v-18"/><path fill="#8C9212" d="M172.6 274.6v18h4"/><path fill="#422D1A" d="M172.6 280.7l-.2 4.2-1.3-1.3 1.4 1.7v2l-2-2 2 2.6v2l-2.5-2.4 2.3 3-.2 5.3h.6v-14.4"/><path fill="#301B08" d="M172.8 290.7l2.5-3-2.5 2.3v-2l2-2.6-2 2v-2l1-1.8-1 1.4-.2-3.3V296h.5"/></g><g><path fill="#9EA424" d="M161.4 273l-4 17.8h4v-18"/><path fill="#8C9212" d="M161.4 273v17.8h4.2"/><path fill="#422D1A" d="M161.4 279v4.2L160 282l1.3 1.7v2l-2-2 2 2.6-.2 2-2.2-2.4 2.3 3v5.2h.5V280"/><path fill="#301B08" d="M161.7 289l2.4-3-2.3 2.3v-2l2-2.6-2 2v-2l1-1.8-1.2 1.2V280 294h.4"/></g></g><g><path fill="#858B0B" d="M371 239.3l-4.2 18.2h4.2v-18.2"/><path fill="#737900" d="M371 239.3v18.2h4.2"/><path fill="#291401" d="M371 245.5l-.2 4.3-1.3-1.3 1.3 1.8v2l-2-2 2 2.6v2l-2.6-2.4 2.4 3-.2 5.4h.6v-14.5"/><path fill="#170200" d="M371.2 255.6l2.5-3-2.5 2.4v-2l2-2.7-2 2v-2l1-1.8-1 1.3-.2-3.3V261h.4"/><path fill="#858B0B" d="M383.6 236.4l-4.2 18.2h4.2v-18"/><path fill="#737900" d="M383.6 236.5v18h4.2"/><path fill="#291401" d="M383.6 242.6v4.3l-1.4-1.4 1.2 1.8v2l-2-2 2 2.6v2l-2.5-2.3 2.3 3-.2 5.4h.6v-14.4"/><path fill="#170200" d="M384 252.8l2.3-3-2.4 2.3-.2-2 2-2.6-2 2v-2l1.2-1.8-1.3 1.3v-3.4V258h.4"/><path fill="#858B0B" d="M393.3 237l-3.8 16.3h3.8V237"/><path fill="#737900" d="M393.3 237v16.3h3.7"/><path fill="#291401" d="M393.2 242.6v3.8l-1.2-1 1 1.4v1.7l-1.7-1.7 1.7 2.3v2l-2.2-2.2 2.2 2.7-.2 5h.5v-13"/><path fill="#170200" d="M393.5 251.6l2.2-2.8-2.2 2.2v-1.8l1.7-2.4-1.8 1.8v-1.8l1-1.6-1 1.2v-3 13h.3"/><path fill="#858B0B" d="M413.5 239.8l-3.6 15.6h3.5v-15.6"/><path fill="#737900" d="M413.5 239.8v15.6h3.6"/><path fill="#291401" d="M413.5 245v3.8l-1.3-1 1 1.4v1.6l-1.6-1.6 1.7 2.2v1.8l-2-2 2 2.5-.3 4.7h.5V246"/><path fill="#170200" d="M413.7 253.8l2-2.7-2 2.2v-1.7l1.7-2.3-1.8 1.7V249l1-1.6-1 1.2v-3 12.6h.3"/><path fill="#858B0B" d="M403 243.2l-3.4 15h3.5v-15"/><path fill="#737900" d="M403 243.2v15h3.6"/><path fill="#291401" d="M403 248.3v3.5l-1-1 1 1.5v1.5l-1.8-1.6 1.7 2.2-.2 1.7-2-2 2 2.6-.2 4.5h.5v-12"/><path fill="#170200" d="M403.3 256.7l2-2.6-2 2v-1.5l1.6-2.3-1.8 1.7V252l1-1.5-1 1.2v-3 12h.3"/><g><path fill="#9EA424" d="M396.7 253.5l-4.2 18.2h4.2v-18.2"/><path fill="#8C9212" d="M396.7 253.5v18.2h4.2"/><path fill="#422D1A" d="M396.7 259.7v4.3l-1.4-1.3 1.3 1.8v2l-2-2 2 2.6-.2 2-2.4-2.3 2.4 3-.2 5.5h.5v-14.6"/><path fill="#301B08" d="M397 269.8l2.4-3-2.4 2.3v-2l2-2.6-2 2-.2-2 1.3-1.8-1.2 1.4v-3.4 14.6h.4"/></g><g><path fill="#9EA424" d="M409.4 254l-3.4 14.5h3.4V254"/><path fill="#8C9212" d="M409.4 254v14.5h3.3"/><path fill="#422D1A" d="M409.4 259v3.3l-1.2-1 1 1.4v1.5l-1.6-1.5 1.6 2v1.7l-2-2 2 2.5-.2 4.3h.4v-11.6"/><path fill="#301B08" d="M409.6 267l2-2.5-2 2v-1.7l1.6-2-1.7 1.5v-1.6l1-1.4-1 1v-2.6 11.6h.3"/></g><g><path fill="#9EA424" d="M389.3 245.7L385 264h4.3v-18.3"/><path fill="#8C9212" d="M389.3 245.7V264h4.2"/><path fill="#422D1A" d="M389.3 252v4.2l-1.4-1.3 1.2 1.7v2l-2-2 2 2.6-.2 2-2.4-2.4 2.4 3-.2 5.4h.5v-14.6"/><path fill="#301B08" d="M389.6 262l2.5-3-2.4 2.3v-2l2-2.7-2 2v-2l1-1.8-1.2 1.4v-3.4 14.6h.4"/></g><g><path fill="#9EA424" d="M378 244l-4.2 18.2h4.2V244"/><path fill="#8C9212" d="M378 244v18.2h4.2"/><path fill="#422D1A" d="M378 250.2v4.2l-1.4-1.2 1.3 1.7-.2 1.8-2-2 2 2.7v2l-2.5-2.3 2.4 3-.2 5.4h.5V251"/><path fill="#301B08" d="M378.3 260.3l2.4-3-2.4 2.3v-2l2-2.7-2 2-.2-2 1.4-2-1.3 1.5V251v14.6h.5"/></g></g></svg>