<svg xmlns="http://www.w3.org/2000/svg" xmlns:xlink="http://www.w3.org/1999/xlink" width="240" height="240" viewBox="0 0 240 240"><path fill="#ACE5AC" d="M-5-5h250v250H-5z"/><linearGradient id="a" gradientUnits="userSpaceOnUse" x1="134.5" y1="138.1" x2="134.5" y2="134.7"><stop offset="0" stop-color="#53BC53"/><stop offset=".2" stop-color="#3EA74A"/><stop offset=".5" stop-color="#1C853D"/><stop offset=".8" stop-color="#087134"/><stop offset="1" stop-color="#006931"/></linearGradient><path fill="url(#a)" d="M130.4 138s.5 0 2-1.4c1.3-1.3 1.7-1.8 2-1.8.4-.2 1 0 1.5.5s2 2 2 2.2l.6.6h-8.2z"/><defs><path id="b" d="M130.4 138s.5 0 2-1.4c1.3-1.3 1.7-1.8 2-1.8.4-.2 1 0 1.5.5s2 2 2 2.2l.6.6h-8.2z"/></defs><clipPath id="c"><use xlink:href="#b" overflow="visible"/></clipPath><linearGradient id="d" gradientUnits="userSpaceOnUse" x1="131.6" y1="138.8" x2="133.9" y2="134.8"><stop offset="0" stop-color="#53BC53"/><stop offset=".2" stop-color="#3BA449"/><stop offset=".5" stop-color="#1B843C"/><stop offset=".8" stop-color="#077034"/><stop offset="1" stop-color="#006931"/></linearGradient><path clip-path="url(#c)" fill="url(#d)" d="M134 135s1.7.3.3 1.8c-.3.3-1.4 1.2-4 1.3l3.8-3z"/><linearGradient id="e" gradientUnits="userSpaceOnUse" x1="63.9" y1="73.4" x2="63.9" y2="69.5"><stop offset="0" stop-color="#53BC53"/><stop offset=".2" stop-color="#3EA74A"/><stop offset=".5" stop-color="#1C853D"/><stop offset=".8" stop-color="#087134"/><stop offset="1" stop-color="#006931"/></linearGradient><path fill="url(#e)" d="M59.2 73.4s.6 0 2.2-1.7 2-2 2.4-2c.5-.3 1.2 0 1.8.5l2.5 2.5.7.7h-9.5z"/><defs><path id="f" d="M59.2 73.4s.6 0 2.2-1.7 2-2 2.4-2c.5-.3 1.2 0 1.8.5l2.5 2.5.7.7h-9.5z"/></defs><clipPath id="g"><use xlink:href="#f" overflow="visible"/></clipPath><linearGradient id="h" gradientUnits="userSpaceOnUse" x1="60.6" y1="74.2" x2="63.2" y2="69.6"><stop offset="0" stop-color="#53BC53"/><stop offset=".2" stop-color="#3BA449"/><stop offset=".5" stop-color="#1B843C"/><stop offset=".8" stop-color="#077034"/><stop offset="1" stop-color="#006931"/></linearGradient><path clip-path="url(#g)" fill="url(#h)" d="M63.4 69.8s2 .4.2 2.2c-.2.2-1.6 1.3-4.4 1.4l4.2-3.6z"/><linearGradient id="i" gradientUnits="userSpaceOnUse" x1="230.7" y1="37.8" x2="230.7" y2="32.1"><stop offset="0" stop-color="#53BC53"/><stop offset=".2" stop-color="#3EA74A"/><stop offset=".5" stop-color="#1C853D"/><stop offset=".8" stop-color="#087134"/><stop offset="1" stop-color="#006931"/></linearGradient><path fill="url(#i)" d="M223.6 37.8s1 0 3.3-2.4 3-3 3.5-3.2c.7-.2 1.8 0 2.6 1 1 .8 3.6 3.4 3.8 3.7l1 .8h-14.2z"/><defs><path id="j" d="M223.6 37.8s1 0 3.3-2.4 3-3 3.5-3.2c.7-.2 1.8 0 2.6 1 1 .8 3.6 3.4 3.8 3.7l1 .8h-14.2z"/></defs><clipPath id="k"><use xlink:href="#j" overflow="visible"/></clipPath><linearGradient id="l" gradientUnits="userSpaceOnUse" x1="225.7" y1="39" x2="229.7" y2="32.3"><stop offset="0" stop-color="#53BC53"/><stop offset=".2" stop-color="#3BA449"/><stop offset=".5" stop-color="#1B843C"/><stop offset=".8" stop-color="#077034"/><stop offset="1" stop-color="#006931"/></linearGradient><path clip-path="url(#k)" fill="url(#l)" d="M230 32.5s2.7.7.2 3.3c-.4.3-2.3 2-6.6 2l6.3-5.3z"/><linearGradient id="m" gradientUnits="userSpaceOnUse" x1="166.1" y1="84.5" x2="166.1" y2="78.8"><stop offset="0" stop-color="#53BC53"/><stop offset=".2" stop-color="#3EA74A"/><stop offset=".5" stop-color="#1C853D"/><stop offset=".8" stop-color="#087134"/><stop offset="1" stop-color="#006931"/></linearGradient><path fill="url(#m)" d="M159 84.5s1 0 3.3-2.4 3-3 3.6-3c.6-.4 1.7 0 2.5.8.8 1 3.4 3.5 3.7 3.8l1 1H159z"/><defs><path id="n" d="M159 84.5s1 0 3.3-2.4 3-3 3.6-3c.6-.4 1.7 0 2.5.8.8 1 3.4 3.5 3.7 3.8l1 1H159z"/></defs><clipPath id="o"><use xlink:href="#n" overflow="visible"/></clipPath><linearGradient id="p" gradientUnits="userSpaceOnUse" x1="161.1" y1="85.7" x2="165.1" y2="78.9"><stop offset="0" stop-color="#53BC53"/><stop offset=".2" stop-color="#3BA449"/><stop offset=".5" stop-color="#1B843C"/><stop offset=".8" stop-color="#077034"/><stop offset="1" stop-color="#006931"/></linearGradient><path clip-path="url(#o)" fill="url(#p)" d="M165.3 79.2s2.8.6.3 3.2c-.4.4-2.3 2-6.6 2l6.3-5.2z"/><linearGradient id="q" gradientUnits="userSpaceOnUse" x1="110.7" y1="173.9" x2="110.7" y2="170"><stop offset="0" stop-color="#53BC53"/><stop offset=".2" stop-color="#3EA74A"/><stop offset=".5" stop-color="#1C853D"/><stop offset=".8" stop-color="#087134"/><stop offset="1" stop-color="#006931"/></linearGradient><path fill="url(#q)" d="M106 174s.6-.2 2-1.8 2.2-2 2.6-2c.4-.3 1.2 0 1.7.5l2.5 2.5.6.7H106z"/><defs><path id="r" d="M106 174s.6-.2 2-1.8 2.2-2 2.6-2c.4-.3 1.2 0 1.7.5l2.5 2.5.6.7H106z"/></defs><clipPath id="s"><use xlink:href="#r" overflow="visible"/></clipPath><linearGradient id="t" gradientUnits="userSpaceOnUse" x1="107.3" y1="174.7" x2="110" y2="170.1"><stop offset="0" stop-color="#53BC53"/><stop offset=".2" stop-color="#3BA449"/><stop offset=".5" stop-color="#1B843C"/><stop offset=".8" stop-color="#077034"/><stop offset="1" stop-color="#006931"/></linearGradient><path clip-path="url(#s)" fill="url(#t)" d="M110.2 170.3s2 .4.2 2c-.3.4-1.6 1.5-4.5 1.6l4.2-3.7z"/><path fill="#C6CC38" d="M176 66c0-.7-.3-1.2-.8-1.4v-.3c0-.7-.5-1.2-1.2-1.2h-.3c0-.6-.5-1-1.2-1s-1.2.4-1.2 1v.2h-.4c-.7 0-1.3.5-1.3 1v.4c-.4.2-.8.7-.8 1.3 0 .4.2 1 .7 1v.6c0 .7.5 1.3 1.2 1.3l.5-.3c.2.4.5.7 1 .7.4 0 .8-.3 1-.7h.6c.8 0 1.4-.4 1.4-1.2V67c.3 0 .6-.6.6-1"/><path fill="#432416" d="M175 67.7c-.2 0-.3 0-.4-.3V66.8c-.2.2-.3.5-.2.7 0 0 0 .2.2.2v.2h-.6c-.2.2-.4 0-.6 0v-.2c-.2 0-.3-.4-.2-.6h.2c0-.2.2-.3.3-.4v-.3h-.2v.2s0 .2-.2.3h-.3c-.2 0-.3-.2-.3-.4h-.2c0 .2.2.5.4.5v.2c0 .2 0 .5.2.8v.2c0 .3-.3.5-.6.5h-.3c-.3 0-.5-.4-.5-.7.4 0 .7-.6.6-1v-.3-.4-.3.3s-.2.3-.4.3c-.3 0-.4-.2-.5-.3 0 .2 0 .4.4.5 0 0 .2 0 .2.2v.5l-.5.4c-.3 0-.6-.2-.8-.4 0-.3 0-.4-.2-.5h-.2v.2c.2 0 .2.2.2.3 0 0 0 .2-.2.3h-.2-.2c0 .2 0 .3.3.2h.3v-.2c.2.2.5.3.8.3 0 .4.3.8.7 1V71h.4V69c.3-.2.6-.4.7-.7V68c.2.3.4.3.7.3.3 0 .5 0 .6-.3v-.2h.4z"/><path fill="#C6CC38" d="M61.7 56c0-.7-.4-1.3-1-1.5V54c0-.7-.6-1.3-1.4-1.3H59c0-.8-.7-1.5-1.5-1.5S56 52 56 52.7h-.3c-.8 0-1.5.7-1.5 1.5v.3c-.5.3-1 1-1 1.5 0 .7.4 1.2 1 1.5v.6c0 1 .5 1.6 1.4 1.6.3 0 .5 0 .8-.2 0 .4.6.8 1 .8.6 0 1-.4 1.3-1 .2.3.4.3.7.3 1 0 1.6-.6 1.6-1.5 0-.2 0-.4-.2-.5.6-.3 1-1 1-1.5"/><path fill="#432416" d="M60.5 58.2c-.2 0-.4 0-.5-.3 0-.3 0-.5.2-.7H60c-.2 0-.3.4-.2.7l.2.2s0 .2-.2.2c0 .2-.3.3-.5.3s-.5 0-.7-.2c-.3-.3-.3-.7-.2-1 .3 0 .4-.2.5-.4V57h-.3v.2c0 .2 0 .3-.3.3H58L58 57v-.2h-.3c0 .4.2.6.5.7h.2V59c0 .3-.2.6-.6.7h-.3c-.4 0-.6-.5-.7-1 .6 0 1-.7.7-1.2V57l.2-.5v-.3h-.2v.3c0 .2-.2.4-.4.4h-.2c-.2 0-.4-.3-.4-.5H56c.2.3.4.6.7.6h.2v.3c.2.2.2.5 0 .7 0 .2-.2.3-.4.4-.5 0-.8 0-1-.3v-.5c-.2 0-.2-.2-.3-.2v.2c0 .2.2.3 0 .5v.3H55h-.3v.2h.8v-.2c.4.3.7.4 1 .4 0 .4.4.8.8 1v2.6h.5v-2.6c.4 0 .7-.4.8-.8v-.3c.3.2.6.3 1 .2l.5-.4s0-.2.2-.3h.2z"/><path fill="#C6CC38" d="M120.3 174.5c0-.7-.4-1.2-1-1.5v-.3c0-.8-.6-1.4-1.3-1.4h-.4c0-.8-.6-1.4-1.4-1.4-.7 0-1.3.5-1.3 1.3h-.5c-.8 0-1.4.7-1.4 1.4v.4c-.4.3-.8 1-.8 1.5 0 .6.3 1 .8 1.4v.4c0 .8.6 1.5 1.4 1.5.3 0 .5-.2.7-.3.3.4.7.8 1.2.8s1-.4 1-.8h1c.7 0 1.3-.5 1.3-1.3v-.5c.4-.4.8-1 .8-1.5"/><path fill="#432416" d="M119 176.6l-.4-.3c0-.2 0-.4.2-.6h-.2c-.2 0-.3.4-.2.7l.2.2v.2l-.6.2h-.7v-.2c-.3-.3-.3-.6-.2-.8h.2l.4-.5v-.3h-.2v.3l-.3.2h-.2c-.2 0-.3-.2-.3-.4h-.2c0 .3 0 .5.4.6 0 .3 0 .6.3 1v.2c0 .3-.3.5-.7.6h-.3c-.3 0-.6-.5-.6-.8.5-.2.8-.8.7-1.3v-.3l.2-.4v-.3h-.2v.2s0 .3-.3.3h-.2c-.2 0-.3-.2-.4-.4 0 .3.2.5.5.5h.2s0 .2.2.2c0 .2 0 .5-.2.7 0 .2-.3.3-.5.4-.4 0-.7 0-1-.3.2 0 .2 0 .2-.2 0 0 0-.3-.2-.4 0-.2 0-.3-.2-.3v.2h.2v.6h-.3c-.2.2-.3 0-.4 0l-.2.2c.2 0 .4.2.5 0h.2l1 .2c0 .4.3.8.7 1v2.5h.4V178c.4 0 .7-.4.8-.8h.8c.2 0 .5 0 .6-.3 0 0 0-.2.2-.3h.2z"/><path fill="#C6CC38" d="M120 148.4c0-.8-.4-1.4-1-1.7v-.4c0-1-.8-1.7-1.7-1.7h-.5c0-1-.7-1.8-1.7-1.8-.8 0-1.5.8-1.5 1.7v.2h-.5c-1 0-1.7.7-1.7 1.6v.4c-.7.3-1 1-1 1.8 0 .7.3 1.4 1 1.7-.2.2-.2.4-.2.7 0 .8 1 1.6 2 1.6.2 0 .5 0 .8-.2.2.5.7 1 1.3 1 .8 0 1.3-.5 1.5-1l1 .2c1 0 1.7-.8 1.7-1.8v-.6c.5-.4 1-1 1-1.8"/><path fill="#432416" d="M118.6 151c-.2 0-.4 0-.5-.3 0-.3 0-.5.2-.7v-.2c-.4.3-.5.6-.3 1v.5l-.7.3c-.3 0-.6 0-1-.2v-.2c-.2-.2-.3-.6 0-1 .2 0 .4-.2.5-.5v-.3h-.2v.3l-.4.3h-.4c-.2 0-.4-.3-.4-.5h-.2c0 .3.2.6.5.7h.2c-.2.5 0 1 0 1.2v.3c0 .4-.3.7-.7.8h-.5c-.4 0-.6-.6-.7-1 .8-.2 1.2-1 1-1.6 0-.2 0-.3-.2-.4.2 0 .3-.3.4-.6v-.3h-.3v.3c0 .2-.3.4-.6.5-.4 0-.6-.2-.6-.5h-.3c0 .4.4.7.7.7h.3l.2.3v.8l-.7.5c-.5 0-.8 0-1-.4v-.2c0-.3 0-.5-.2-.6l-.3-.3v.2c.2.2.2.4.2.5 0 .2 0 .3-.2.4 0 .2 0 .2-.2.2H111.7v.2h.9v-.2c.4.3.8.4 1.2.4 0 .4.3 1 .8 1v3.3h.6v-3.3c.4 0 .8-.4 1-1 .2.2.6.2 1 .2l.7-.5.3-.3h.3v-.2z"/><path fill="#C6CC38" d="M69 58.2c0-.8-.4-1.6-1.2-2V56c0-1-.8-2-1.8-2-.2 0-.4 0-.5.2 0-1.2-1-2-2-2s-1.8.8-1.8 2h-.5c-1 0-2 .8-2 2v.3c-.6.3-1.2 1-1.2 2 0 .8.5 1.6 1.2 2v.6c0 1 .8 2 2 2l1-.3c0 .6.7 1 1.4 1s1.3-.4 1.5-1l1 .2c1.2 0 2-1 2-2V60c.7-.4 1-1 1-2"/><path fill="#432416" d="M67.5 61c-.3 0-.5 0-.6-.3-.2-.2 0-.5 0-.7v-.2c-.4.2-.5.7-.4 1 0 .2.2.3.2.3v.4l-.8.4c-.3 0-.7 0-1-.3-.3-.4-.4-.8-.3-1.2h.2l.4-.6v-.4h-.2v.3c0 .2-.2.3-.4.4h-.5c-.2 0-.4-.3-.4-.6h-.4c0 .4.3.7.7 1 0 .3 0 .8.4 1v.5c-.2.4-.5.7-1 .8h-.4c-.5-.2-.8-.7-1-1 1-.4 1.3-1.2 1-2v-.3s.3-.3.3-.6v-.5h-.3v.4s-.2.4-.5.4h-.2c-.2 0-.5-.2-.5-.5H62c0 .3.4.6.8.7h.3v.3c.2.3.2.6 0 .8 0 .3-.3.5-.6.6h-.2c-.4 0-.8 0-1-.4v-.2c0-.2 0-.5-.2-.7h-.3l-.2.2h.3v1c-.2 0-.3 0-.4.2H59.8c.2.2.4.3.6.2.2 0 .4 0 .5-.2.3.2.7.4 1.2.3 0 .6.4 1.2 1 1.3v3.5h.7V63c.4 0 .8-.5 1-1v-.2c.3.2.7.3 1 .3.4 0 .7 0 1-.4v-.3h.4v-.2z"/><linearGradient id="u" gradientUnits="userSpaceOnUse" x1="62.4" y1="75" x2="62.4" y2="70.2"><stop offset="0" stop-color="#7ACA81"/><stop offset=".2" stop-color="#5EB46F"/><stop offset=".6" stop-color="#2C8C4E"/><stop offset=".8" stop-color="#0C7239"/><stop offset="1" stop-color="#006931"/></linearGradient><path fill="url(#u)" d="M52.5 75s2-1.3 3-2.6c1.3-1.2 2.6-2 3-2 .6-.2 1.7-.2 2.2 0l2.2 1.8s.7.8 1.4 1h1l1-.8s1-1.7 3 .6c.2.2 1.8 2 3 2h-20z"/><linearGradient id="v" gradientUnits="userSpaceOnUse" x1="41.7" y1="59" x2="41.7" y2="54.3"><stop offset="0" stop-color="#7ACA81"/><stop offset=".2" stop-color="#5EB46F"/><stop offset=".6" stop-color="#2C8C4E"/><stop offset=".8" stop-color="#0C7239"/><stop offset="1" stop-color="#006931"/></linearGradient><path fill="url(#v)" d="M31.7 59s2.2-1.2 3-2.5c1.3-1.2 2.6-2 3-2 .6-.3 1.7-.2 2.2 0 .4.3 1.5 1.2 2 1.8 0 0 1 .8 1.6 1h1s.5-.3 1-1c0 0 1-1.6 3 .7.2.3 1.8 2 3 2h-20z"/><linearGradient id="w" gradientUnits="userSpaceOnUse" x1="60.1" y1="89.3" x2="60.1" y2="87"><stop offset="0" stop-color="#7ACA81"/><stop offset=".2" stop-color="#5EB46F"/><stop offset=".6" stop-color="#2C8C4E"/><stop offset=".8" stop-color="#0C7239"/><stop offset="1" stop-color="#006931"/></linearGradient><path fill="url(#w)" d="M55.3 89.3s1-.6 1.5-1.3c.6-.6 1.2-1 1.4-1h1c.3.2.8.6 1 1l.8.4h.5s.3 0 .5-.4c0 0 .5-.8 1.4.3 0 0 1 1 1.5 1h-9.7z"/><linearGradient id="x" gradientUnits="userSpaceOnUse" x1="47.1" y1="57.3" x2="47.1" y2="55"><stop offset="0" stop-color="#7ACA81"/><stop offset=".2" stop-color="#5EB46F"/><stop offset=".6" stop-color="#2C8C4E"/><stop offset=".8" stop-color="#0C7239"/><stop offset="1" stop-color="#006931"/></linearGradient><path fill="url(#x)" d="M42.3 57.3s1-.6 1.5-1.2c.6-.5 1.2-1 1.5-1 .2 0 .7 0 1 .2.2 0 .8.5 1 .8l.8.5h.6l.5-.4s.6-.7 1.5.4c0 0 1 1 1.4 1h-9.7z"/><linearGradient id="y" gradientUnits="userSpaceOnUse" x1="131.8" y1="140.5" x2="131.8" y2="135"><stop offset="0" stop-color="#7ACA81"/><stop offset=".2" stop-color="#5EB46F"/><stop offset=".6" stop-color="#2C8C4E"/><stop offset=".8" stop-color="#0C7239"/><stop offset="1" stop-color="#006931"/></linearGradient><path fill="url(#y)" d="M120.2 140.5s2.5-1.4 3.6-3c1.4-1.4 3-2.4 3.5-2.4s1.8 0 2.4.3c.6.3 2 1.3 2.6 2 0 0 1 1 1.8 1 .4 0 .8.2 1.2 0 0 0 .6-.2 1.2-.8 0 0 1.3-2 3.5.7 0 .3 2 2.2 3.3 2.3h-23z"/><linearGradient id="z" gradientUnits="userSpaceOnUse" x1="223.3" y1="38.5" x2="223.3" y2="33.8"><stop offset="0" stop-color="#7ACA81"/><stop offset=".2" stop-color="#5EB46F"/><stop offset=".6" stop-color="#2C8C4E"/><stop offset=".8" stop-color="#0C7239"/><stop offset="1" stop-color="#006931"/></linearGradient><path fill="url(#z)" d="M213.4 38.5s2-1.2 3-2.5c1.2-1.2 2.5-2 3-2 .5-.3 1.6-.2 2 0 .7.3 1.8 1 2.3 1.8 0 0 1 .8 1.6 1h1s.5-.3 1-1c0 0 1-1.6 3 .7 0 .3 1.8 2 3 2h-20z"/><linearGradient id="A" gradientUnits="userSpaceOnUse" x1="181.6" y1="47.8" x2="181.6" y2="44.6"><stop offset="0" stop-color="#7ACA81"/><stop offset=".2" stop-color="#5EB46F"/><stop offset=".6" stop-color="#2C8C4E"/><stop offset=".8" stop-color="#0C7239"/><stop offset="1" stop-color="#006931"/></linearGradient><path fill="url(#A)" d="M174.8 47.8s1.4-.8 2-1.7l2-1.4c.5 0 1.2 0 1.6.2l1.5 1s.5.7 1 .8h.6l.7-.5s.8-1 2 .5c.2.2 1.3 1.3 2 1.3H175z"/><linearGradient id="B" gradientUnits="userSpaceOnUse" x1="50.6" y1="91.7" x2="50.6" y2="86.9"><stop offset="0" stop-color="#7ACA81"/><stop offset=".2" stop-color="#5EB46F"/><stop offset=".6" stop-color="#2C8C4E"/><stop offset=".8" stop-color="#0C7239"/><stop offset="1" stop-color="#006931"/></linearGradient><path fill="url(#B)" d="M40.7 91.7s2-1.3 3-2.6c1.2-1 2.5-2 3-2 .5-.2 1.6 0 2 .2.7.2 1.7 1 2.3 1.7 0 0 1 .7 1.6.8h1l1-.8s1-1.7 3 .6c0 .3 1.8 2 3 2h-20z"/><linearGradient id="C" gradientUnits="userSpaceOnUse" x1="184.7" y1="50.9" x2="184.7" y2="46.2"><stop offset="0" stop-color="#7ACA81"/><stop offset=".2" stop-color="#5EB46F"/><stop offset=".6" stop-color="#2C8C4E"/><stop offset=".8" stop-color="#0C7239"/><stop offset="1" stop-color="#006931"/></linearGradient><path fill="url(#C)" d="M174.8 51s2-1.3 3-2.6c1.2-1.2 2.5-2 3-2 .5-.3 1.6-.2 2.2 0 .5.3 1.6 1 2 1.8 0 0 1 .8 1.7 1 .3 0 .6 0 1-.2 0 0 .5 0 1-.7 0 0 1-1.7 3 .6 0 .2 1.8 1.8 3 2h-20z"/></svg>