<svg xmlns="http://www.w3.org/2000/svg" width="800" height="800" viewBox="0 0 800 800"><path fill="#D9CDA4" d="M0 0h800v800H0z"/><path fill="#D9CDA4" d="M547 99.8h8.3L550 116l7.4 8.6 1 6 16.2 16.4 4.3 12.5 21.4 1.2 9.5 8.2h5l12.5 26.6 12.5 32.2-6.5 19.3 1.3 7.5-11.6 19.7 3 15.5 40.4 17.2 43.4 6.4 45.2 31 14.6 5 1 8.2 9.3 19.8 9.6 25.8 12 21.5-7 8v14.8l-15.3 7.3-38.3 15.4-25 20.7-17.6 8-3 12.5 5.2 59.8-14.2-2.2-6.4 5.3-95 18.4-13.4 10.4 1.3 25 28.7 23.6-9.4 15.5-13.4 6-2.2 7.4 3 8.2h7.3l4.4 5.2-28 9.4-16.3-6-8.5-5H518l-37-17h-23.7l-18.5 5.2h-20.6L386 698l-26-3-25.7 9-21.4-6.8-13.5-11.6-34.4-5-22.2 15.3-12.5-5.2-10.3-8.2-25-6-3.8-4.3-10.3-1-15.6-24-15.5-3.8-39.6 12.4-16.3-4.4-34-25-9.4-.7-7.3-16.5 5.2-16.8-1.7-8-12.5-8.3-4.3-8-25.8-14.8v-4.3l12.5-5 7.3 4.2 7.3-7.3-2.2-24.5 2.3-20.7-16.8-16.7-11 3-4.4-12 6.5-12.5L2 446.2l11-10 4.5-4.2v-9.5l15.5-7.3 15.5-3 13.7-5 11.2 3 8.2-3 3 2 1.3 10.3 7.2 3 17.2-.8 19.8-22 40.4 8.6 20.6-14.6 59.8-13.3 3.8-8.2 5.2-22.7 16.7-13.4h5.2v-6.7l.8-57.2 3-11.5-16.4-6-.8-4.3 17.2-5.2 44.7-4 7 9.2 15.3 3.4 4.3 1 6.2-8.3-8.2-8.2 33-67 5.2-3.4 30 14.6h13.5l6 8.2 28.8-9 7.3-47.7 12.4-8.2 14.7-1 10.2-12.3 4-12.5 8-4.3"/><path fill="#D0EAF6" d="M212 439c.6-3.6 3.7-6.4 7.4-6.4 4 0 7.4 3.3 7.4 7.4h1c2 0 3.5 1.4 3.7 3.3.5-.2 1-.2 1.5-.2 2.5 0 4.5 2 4.5 4.6 0 2.5-2 4.5-4.5 4.5h-21c-3.5 0-6.4-2.8-6.4-6.4 0-3.6 3-6.5 6.5-6.5z"/><path fill="#FFF" d="M234.3 449.4c-.6 0-1 0-1.5.3-.3-2-1.8-3.3-3.8-3.3h-1c0-4-3.2-7.4-7.3-7.4-3.8 0-7 2.8-7.3 6.5-3 0-5.3 1.8-6.2 4.4-1-1.3-1.6-2.8-1.6-4.4 0-3.6 3-6.5 6.5-6.5.6-3.6 3.7-6.4 7.5-6.4 4 0 7.3 3.3 7.3 7.4h1c2 0 3.5 1.4 3.7 3.3.5-.2 1-.2 1.5-.2 2.5 0 4.5 2 4.5 4.6 0 1-.3 1.8-.8 2.5-.7-.3-1.6-.6-2.4-.6z"/><g fill="#FFF"><path d="M66.5 583.7h184.7v1.7H66.5z"/><circle cx="67.4" cy="578" r="7.4"/><circle cx="240.8" cy="578" r="7.4"/><circle cx="76.2" cy="575.5" r="5.5"/><circle cx="255.7" cy="566.6" r="4.6"/><circle cx="96.6" cy="564.4" r="20.4"/><circle cx="220.4" cy="564.4" r="20.4"/><circle cx="119.4" cy="567.5" r="18"/><circle cx="164.2" cy="552.3" r="33.2"/><path d="M197.4 531.3c0 .7-.5 1.2-1.2 1.2h-9c-.5 0-1-.5-1-1.2s.5-1.2 1-1.2h9c.7 0 1.2.6 1.2 1.3zm10.7 5.2c0 .7-.8 1.2-2 1.2h-14.3c-1 0-2-.5-2-1.2s1-1.2 2-1.2H206c1.2 0 2 .5 2 1.2z"/><circle cx="211.3" cy="536.5" r="1.4"/><circle cx="200" cy="531.3" r="1.4"/><circle cx="254.8" cy="584.8" r=".9"/><path d="M66.5 578l16.6-7.4 36.4-8.6 47-5 27.4 3.2s6.2-2.3 9 1.8c3 4 34.3 14 34.3 14l3.8 9.4H67.4l-1-7.4z"/></g><g fill="#FFF"><path d="M34.2 461.8H132v1H34.2z"/><circle cx="34.7" cy="458.8" r="3.9"/><circle cx="126.5" cy="458.8" r="3.9"/><circle cx="39.4" cy="457.5" r="2.9"/><circle cx="134.4" cy="452.8" r="2.4"/><circle cx="50.2" cy="451.6" r="10.8"/><circle cx="115.7" cy="451.6" r="10.8"/><circle cx="62.2" cy="453.3" r="9.5"/><circle cx="86" cy="445.2" r="17.6"/><path d="M103.6 434c0 .4-.3.7-.7.7H98c-.3 0-.6-.3-.6-.6s.3-.6.6-.6h4.7c.3 0 .6.3.6.7zm5.6 2.8c0 .4-.5.7-1 .7h-7.7c-.6 0-1-.3-1-.7 0-.3.4-.6 1-.6h7.7c.5 0 1 .3 1 .6z"/><circle cx="110.9" cy="436.8" r=".8"/><circle cx="104.9" cy="434.1" r=".8"/><circle cx="133.9" cy="462.4" r=".5"/><path d="M34.2 458.8l8.8-4 19.2-4.5 25-2.6 14.4 1.7s3.3-1.2 4.8 1 18.2 7.4 18.2 7.4l2 5h-92l-.4-4z"/></g><g fill="#FFF"><path d="M218 433.3h97.8v1H218z"/><circle cx="218.5" cy="430.3" r="3.9"/><circle cx="310.3" cy="430.3" r="3.9"/><circle cx="223.1" cy="429" r="2.9"/><circle cx="318.2" cy="424.3" r="2.4"/><circle cx="233.9" cy="423.1" r="10.8"/><circle cx="299.5" cy="423.1" r="10.8"/><circle cx="246" cy="424.8" r="9.5"/><circle cx="269.8" cy="416.7" r="17.6"/><path d="M287.3 405.6c0 .3-.2.6-.6.6H282c-.4 0-.7-.3-.7-.6 0-.4.3-.7.7-.7h4.7c.4 0 .6.2.6.6zm5.7 2.7c0 .4-.5.7-1 .7h-7.7c-.6 0-1-.3-1-.7 0-.3.4-.6 1-.6h7.6c.5 0 1 .3 1 .6z"/><circle cx="294.7" cy="408.3" r=".8"/><circle cx="288.7" cy="405.6" r=".8"/><circle cx="317.7" cy="433.9" r=".5"/><path d="M218 430.3l8.8-4L246 422l25-2.6 14.4 1.7s3.3-1.3 4.8.8c1.5 2.2 18.2 7.5 18.2 7.5l2 5h-92l-.4-4z"/></g><path fill="#FFF" d="M502.4 353c-1 0-1.6-.8-1.6-1.7 0 1-.7 1.6-1.6 1.6-1 0-1.6-.8-1.6-1.7 0 1-.8 1.6-1.7 1.6-1 0-1.7-.8-1.7-1.7 0 1-.7 1.6-1.6 1.6-.6 0-1.2-.5-1.4-1l3.6-6.3c1-2 4-2 5.2 0l3.7 6.3c-.4.5-1 1-1.6 1z"/><linearGradient id="a" gradientUnits="userSpaceOnUse" x1="497.6" y1="361.7" x2="497.6" y2="351.3"><stop offset="0" stop-color="#C5B189"/><stop offset=".1" stop-color="#B9A47F"/><stop offset=".3" stop-color="#968164"/><stop offset=".6" stop-color="#7E6A54"/><stop offset=".8" stop-color="#705E4C"/><stop offset="1" stop-color="#6C5949"/></linearGradient><path fill="url(#a)" d="M491.3 352c.2.5.8 1 1.4 1 1 0 1.6-.8 1.6-1.7 0 1 .8 1.6 1.6 1.6s1.6-.8 1.6-1.7c0 1 .7 1.6 1.6 1.6 1 0 1.6-.8 1.6-1.7 0 1 .7 1.6 1.6 1.6.6 0 1.2-.5 1.5-1l5.5 9.7h-24l5.8-9.7z"/><path fill="#FFF" d="M531.2 353c-1 0-1.6-.8-1.6-1.7 0 1-.8 1.6-1.7 1.6-1 0-1.7-.8-1.7-1.7 0 1-.7 1.6-1.6 1.6-1 0-1.6-.8-1.6-1.7 0 1-.6 1.6-1.5 1.6-.7 0-1.2-.5-1.5-1l3.7-6.3c1.2-2 4-2 5.3 0l3.6 6.3c-.2.5-.8 1-1.4 1z"/><linearGradient id="b" gradientUnits="userSpaceOnUse" x1="526.3" y1="361.7" x2="526.3" y2="351.3"><stop offset="0" stop-color="#C5B189"/><stop offset=".1" stop-color="#B9A47F"/><stop offset=".3" stop-color="#968164"/><stop offset=".6" stop-color="#7E6A54"/><stop offset=".8" stop-color="#705E4C"/><stop offset="1" stop-color="#6C5949"/></linearGradient><path fill="url(#b)" d="M520 352c.3.5.8 1 1.5 1 1 0 1.6-.8 1.6-1.7 0 1 .8 1.6 1.7 1.6 1 0 1.6-.8 1.6-1.7 0 1 .8 1.6 1.6 1.6s1.6-.8 1.6-1.7c0 1 .7 1.6 1.6 1.6.6 0 1.2-.5 1.4-1l5.6 9.7h-23.8l5.6-9.7z"/><path fill="#FFF" d="M519 350.5c-1.2 0-2.2-1-2.2-2 0 1-1 2-2 2-1.2 0-2-1-2-2 0 1-1 2-2 2-1.3 0-2.2-1-2.2-2 0 1-1 2-2 2s-1.6-.5-2-1.2l4.7-8c1.5-2.6 5.3-2.6 6.8 0l4.8 8c-.4.7-1 1.2-2 1.2z"/><linearGradient id="c" gradientUnits="userSpaceOnUse" x1="512.7" y1="361.7" x2="512.7" y2="348.4"><stop offset="0" stop-color="#C5B189"/><stop offset="1" stop-color="#6C5949"/></linearGradient><path fill="url(#c)" d="M504.7 349.3c.3.7 1 1.2 2 1.2s2-1 2-2c0 1 .8 2 2 2 1 0 2-1 2-2 0 1 1 2 2 2 1.2 0 2-1 2-2 0 1 1 2 2.2 2 .7 0 1.4-.5 1.8-1.2l7 12.4h-30.2l7-12.4z"/><path fill="#FFF" d="M538.4 355.8c0-.6-.6-1.2-1.2-1.2h-.6-.2c-.3-.6-1-1-1.6-1-.6 0-1.2.3-1.5.7l-.6.3h-.3c-.7 0-1.2.6-1.3 1.2 0 .4.4.7.7.7h6c.5 0 .8-.3.7-.7zm-39-16c0-1-1-2-2.3-2.3h-1c0 .2-.2 0-.3 0-.6-1-1.7-1.8-3-1.8-1.2 0-2.2.6-2.8 1.4-.4.4-.8.6-1.2.6h-.6c-1.2 0-2.2 1-2.3 2.3-.2.6.3 1 1 1h11.3c.7 0 1.2-.4 1.2-1zM432 582.6c-1 0-1.7-.7-1.7-1.6 0 1-.7 1.6-1.6 1.6-1 0-1.6-.7-1.6-1.6 0 1-.7 1.6-1.6 1.6-.8 0-1.6-.7-1.6-1.6 0 1-.7 1.6-1.6 1.6-.6 0-1.2-.3-1.4-1l3.6-6.2c1.2-2 4-2 5.3 0l3.7 6.3c-.3.6-1 1-1.5 1z"/><linearGradient id="d" gradientUnits="userSpaceOnUse" x1="427.1" y1="591.4" x2="427.1" y2="581"><stop offset="0" stop-color="#C5B189"/><stop offset=".1" stop-color="#B9A47F"/><stop offset=".3" stop-color="#968164"/><stop offset=".6" stop-color="#7E6A54"/><stop offset=".8" stop-color="#705E4C"/><stop offset="1" stop-color="#6C5949"/></linearGradient><path fill="url(#d)" d="M420.8 581.7c.2.6.8 1 1.4 1 1 0 1.6-.8 1.6-1.7 0 1 .7 1.6 1.6 1.6 1 0 1.7-.7 1.7-1.6 0 1 .8 1.6 1.7 1.6 1 0 1.6-.7 1.6-1.6 0 1 .7 1.6 1.6 1.6.5 0 1-.3 1.4-1l5.6 9.8h-24l5.8-9.7z"/><path fill="#FFF" d="M460.7 582.6c-1 0-1.6-.7-1.6-1.6 0 1-.7 1.6-1.6 1.6-.8 0-1.6-.7-1.6-1.6 0 1-.7 1.6-1.6 1.6-1 0-1.6-.7-1.6-1.6 0 1-.7 1.6-1.6 1.6-.7 0-1.2-.3-1.5-1l3.7-6.2c1.2-2 4-2 5.3 0l3.6 6.3c0 .6-.7 1-1.3 1z"/><linearGradient id="e" gradientUnits="userSpaceOnUse" x1="455.8" y1="591.4" x2="455.8" y2="581"><stop offset="0" stop-color="#C5B189"/><stop offset=".1" stop-color="#B9A47F"/><stop offset=".3" stop-color="#968164"/><stop offset=".6" stop-color="#7E6A54"/><stop offset=".8" stop-color="#705E4C"/><stop offset="1" stop-color="#6C5949"/></linearGradient><path fill="url(#e)" d="M449.5 581.7c.3.6.8 1 1.5 1 1 0 1.6-.8 1.6-1.7 0 1 .7 1.6 1.6 1.6 1 0 1.6-.7 1.6-1.6 0 1 .7 1.6 1.6 1.6 1 0 1.7-.7 1.7-1.6 0 1 .8 1.6 1.7 1.6.6 0 1.2-.3 1.4-1l5.7 9.8H444l5.5-9.7z"/><path fill="#FFF" d="M448.4 580.2c-1 0-2-1-2-2 0 1-1 2-2 2-1.3 0-2.2-1-2.2-2 0 1-1 2-2 2-1.2 0-2-1-2-2 0 1-1 2-2 2s-1.7-.4-2-1l4.6-8.2c1.5-2.6 5.3-2.6 6.8 0l4.7 8c-.4.8-1 1.2-2 1.2z"/><linearGradient id="f" gradientUnits="userSpaceOnUse" x1="442.2" y1="591.4" x2="442.2" y2="578.2"><stop offset="0" stop-color="#C5B189"/><stop offset="1" stop-color="#6C5949"/></linearGradient><path fill="url(#f)" d="M434.2 579c.3.8 1 1.2 2 1.2s2-1 2-2c0 1 .8 2 2 2 1 0 2-1 2-2 0 1 1 2 2 2 1.2 0 2-1 2-2 0 1 1 2 2.2 2 .8 0 1.5-.4 2-1l7 12.2H427l7.2-12.3z"/><path fill="#FFF" d="M468 585.6c0-.7-.7-1.2-1.3-1.3h-.6c-.4-.6-1-1-1.7-1-.6 0-1.2.3-1.5.8-.2.3-.4.4-.6.3h-.3c-.8 0-1.3.6-1.4 1.3 0 .4.3.7.6.7h6c.5 0 .8-.3.7-.7zm-39-16c-.2-1.2-1-2.2-2.4-2.3h-1-.4c-.6-1-1.7-1.8-3-1.8-1.2 0-2.2.5-2.8 1.3-.3.4-.7.6-1 .5h-.7c-1.2 0-2.2 1-2.3 2.3 0 .7.4 1.3 1 1.3H428c.7 0 1.2-.7 1.2-1.3z"/><g><path fill="#FFF" d="M521.8 480.4c-1 0-1.6-.7-1.6-1.6 0 1-.8 1.6-1.7 1.6-.8 0-1.6-.7-1.6-1.6 0 1-.8 1.6-1.7 1.6-1 0-1.6-.7-1.6-1.6 0 1-.7 1.6-1.6 1.6-.6 0-1-.4-1.4-1l3.7-6.2c1.2-2 4-2 5.3 0l3.6 6.3c-.2.5-.8 1-1.4 1z"/><linearGradient id="g" gradientUnits="userSpaceOnUse" x1="516.9" y1="489.2" x2="516.9" y2="478.8"><stop offset="0" stop-color="#C5B189"/><stop offset=".1" stop-color="#B9A47F"/><stop offset=".3" stop-color="#968164"/><stop offset=".6" stop-color="#7E6A54"/><stop offset=".8" stop-color="#705E4C"/><stop offset="1" stop-color="#6C5949"/></linearGradient><path fill="url(#g)" d="M510.6 479.5c.3.5.8 1 1.5 1 1 0 1.7-.8 1.7-1.7 0 1 .7 1.6 1.6 1.6 1 0 1.6-.7 1.6-1.6 0 1 .7 1.6 1.5 1.6 1 0 1.7-.7 1.7-1.6 0 1 .7 1.6 1.6 1.6.6 0 1.2-.4 1.4-1l5.6 9.8H505l5.6-9.7z"/><path fill="#FFF" d="M550.5 480.4c-.8 0-1.6-.7-1.6-1.6 0 1-.8 1.6-1.7 1.6-1 0-1.6-.7-1.6-1.6 0 1-.7 1.6-1.6 1.6s-1.5-.7-1.5-1.6c0 1-.7 1.6-1.6 1.6-.8 0-1.3-.4-1.6-1l3.6-6.2c1.2-2 4.2-2 5.4 0l3.6 6.3c-.3.5-.8 1-1.5 1z"/><linearGradient id="h" gradientUnits="userSpaceOnUse" x1="545.7" y1="489.2" x2="545.7" y2="478.8"><stop offset="0" stop-color="#C5B189"/><stop offset=".1" stop-color="#B9A47F"/><stop offset=".3" stop-color="#968164"/><stop offset=".6" stop-color="#7E6A54"/><stop offset=".8" stop-color="#705E4C"/><stop offset="1" stop-color="#6C5949"/></linearGradient><path fill="url(#h)" d="M539.4 479.5c.3.5.8 1 1.5 1 .8 0 1.5-.8 1.5-1.7 0 1 .7 1.6 1.6 1.6s1.7-.7 1.7-1.6c0 1 .7 1.6 1.6 1.6 1 0 1.6-.7 1.6-1.6 0 1 .7 1.6 1.5 1.6.7 0 1.2-.4 1.5-1l5.6 9.8h-23.8l5.6-9.7z"/><path fill="#FFF" d="M538.3 478c-1.2 0-2-1-2-2 0 1-1 2-2 2-1.3 0-2.2-1-2.2-2 0 1-.8 2-2 2-1 0-2-1-2-2 0 1-1 2-2 2s-1.6-.5-2-1.2l4.7-8c1.5-2.6 5.3-2.6 6.8 0l4.6 8c-.2.7-1 1.2-1.7 1.2z"/><linearGradient id="i" gradientUnits="userSpaceOnUse" x1="532.1" y1="489.2" x2="532.1" y2="475.9"><stop offset="0" stop-color="#C5B189"/><stop offset="1" stop-color="#6C5949"/></linearGradient><path fill="url(#i)" d="M524 476.8c.4.7 1 1.2 2 1.2s2-1 2-2c0 1 1 2 2 2 1.2 0 2-1 2-2 0 1 1 2 2.2 2 1 0 2-1 2-2 0 1 1 2 2 2s1.6-.5 2-1.2l7 12.4H517l7-12.4z"/><path fill="#FFF" d="M557.8 483.3c0-.6-.6-1.2-1.3-1.2h-.5c0 .2-.2 0-.2 0-.4-.5-1-1-1.7-1-.5 0-1 .4-1.4.8 0 .2-.3.3-.6.3h-.3c-.6 0-1.2.7-1.2 1.3 0 .4.2.7.6.7h6.2c.3 0 .6-.3.6-.7zm-39-16c0-1.2-1-2-2.3-2.3h-1c-.2.2-.3 0-.4 0-.5-1-1.7-1.8-3-1.8-1 0-2 .6-2.7 1.4-.3.3-.7.5-1 .5h-.7c-1.3.2-2.2 1-2.4 2.4 0 .7.5 1.2 1.2 1.2h11.3c.7 0 1.2-.5 1-1.2z"/></g><g><path fill="#FFF" d="M414 232.8c-.8 0-1.5-.7-1.5-1.6 0 1-.7 1.6-1.6 1.6-1 0-1.7-.7-1.7-1.6 0 1-.7 1.6-1.6 1.6-1 0-1.7-.7-1.7-1.6 0 1-.7 1.6-1.6 1.6-.6 0-1.2-.4-1.4-1l3.6-6.2c1.2-2 4.2-2 5.3 0l3.6 6.3c-.3.5-.8.8-1.5.8z"/><linearGradient id="j" gradientUnits="userSpaceOnUse" x1="409.3" y1="241.6" x2="409.3" y2="231.2"><stop offset="0" stop-color="#C5B189"/><stop offset=".1" stop-color="#B9A47F"/><stop offset=".3" stop-color="#968164"/><stop offset=".6" stop-color="#7E6A54"/><stop offset=".8" stop-color="#705E4C"/><stop offset="1" stop-color="#6C5949"/></linearGradient><path fill="url(#j)" d="M403 232c.2.5.8.8 1.4.8 1 0 1.6-.7 1.6-1.6 0 1 .8 1.6 1.7 1.6.8 0 1.6-.7 1.6-1.6 0 1 .7 1.6 1.6 1.6.8 0 1.5-.7 1.5-1.6 0 1 .7 1.6 1.6 1.6.8 0 1.3-.4 1.6-1l5.6 9.8h-23.8l5.6-9.7z"/><path fill="#FFF" d="M443 232.8c-1 0-1.7-.7-1.7-1.6 0 1-.7 1.6-1.6 1.6-1 0-1.7-.7-1.7-1.6 0 1-.7 1.6-1.6 1.6-1 0-1.6-.7-1.6-1.6 0 1-.7 1.6-1.6 1.6-.6 0-1.2-.4-1.5-1l3.7-6.2c1.2-2 4-2 5.3 0l3.7 6.3c-.3.5-1 .8-1.5.8z"/><linearGradient id="k" gradientUnits="userSpaceOnUse" x1="438" y1="241.6" x2="438" y2="231.2"><stop offset="0" stop-color="#C5B189"/><stop offset=".1" stop-color="#B9A47F"/><stop offset=".3" stop-color="#968164"/><stop offset=".6" stop-color="#7E6A54"/><stop offset=".8" stop-color="#705E4C"/><stop offset="1" stop-color="#6C5949"/></linearGradient><path fill="url(#k)" d="M431.7 232c.3.5 1 .8 1.5.8 1 0 1.6-.7 1.6-1.6 0 1 .7 1.6 1.6 1.6 1 0 1.6-.7 1.6-1.6 0 1 .8 1.6 1.7 1.6.8 0 1.6-.7 1.6-1.6 0 1 .7 1.6 1.6 1.6.5 0 1-.4 1.3-1l5.7 9.8h-24l5.7-9.7z"/><path fill="#FFF" d="M430.6 230.4c-1 0-2-1-2-2 0 1-1 2-2 2-1.2 0-2.2-1-2.2-2 0 1-1 2-2 2s-2-1-2-2c0 1-1 2-2 2s-1.7-.5-2-1.2l4.7-8c1.6-2.6 5.3-2.6 6.8 0l4.7 8c-.4.7-1 1.2-2 1.2z"/><linearGradient id="l" gradientUnits="userSpaceOnUse" x1="424.4" y1="241.6" x2="424.4" y2="228.4"><stop offset="0" stop-color="#C5B189"/><stop offset="1" stop-color="#6C5949"/></linearGradient><path fill="url(#l)" d="M416.4 229.2c.3.7 1 1.2 2 1.2s2-1 2-2c0 1 1 2 2 2s2-1 2-2c0 1 1 2 2 2 1.2 0 2.2-1 2.2-2 0 1 1 2 2 2 .8 0 1.5-.5 2-1.2l7 12.4h-30.3l7-12.4z"/><path fill="#FFF" d="M450 235.8c0-.7-.5-1.2-1-1.3h-.7-.2c-.2-.6-.8-1-1.5-1-.6 0-1.2.3-1.5.8-.2.2-.4.2-.6.2h-.3c-.6 0-1 .6-1.2 1.3 0 .3.3.6.6.6h6c.5 0 .8-.3.7-.6zm-38.8-16c0-1.2-1-2.2-2.3-2.3h-1.2-.4c-.6-1-1.7-1.8-3-1.8-1.2 0-2.2.5-2.8 1.3-.3.4-.7.5-1 .5h-.7c-1.3 0-2.3 1-2.4 2.3 0 .7.5 1.3 1 1.3H410c.7 0 1.2-.5 1.2-1.2z"/></g><g><path fill="#FFF" d="M290.7 346.6c-1 0-1.6-.7-1.6-1.6 0 1-.6 1.6-1.5 1.6-1 0-1.6-.7-1.6-1.6 0 1-.8 1.6-1.7 1.6-1 0-1.6-.7-1.6-1.6 0 1-.8 1.6-1.7 1.6-.6 0-1.2-.4-1.4-1l3.6-6.2c1.2-2 4.2-2 5.3 0l3.7 6.3c-.3.5-.8 1-1.5 1z"/><linearGradient id="m" gradientUnits="userSpaceOnUse" x1="285.9" y1="355.4" x2="285.9" y2="345"><stop offset="0" stop-color="#C5B189"/><stop offset=".1" stop-color="#B9A47F"/><stop offset=".3" stop-color="#968164"/><stop offset=".6" stop-color="#7E6A54"/><stop offset=".8" stop-color="#705E4C"/><stop offset="1" stop-color="#6C5949"/></linearGradient><path fill="url(#m)" d="M279.6 345.7c.2.5.8 1 1.4 1 1 0 1.7-.8 1.7-1.7 0 1 .7 1.6 1.6 1.6 1 0 1.6-.7 1.6-1.6 0 1 .6 1.6 1.5 1.6 1 0 1.6-.7 1.6-1.6 0 1 .8 1.6 1.7 1.6.7 0 1.2-.4 1.5-1l5.6 9.8H274l5.6-9.7z"/><path fill="#FFF" d="M319.5 346.6c-1 0-1.6-.7-1.6-1.6 0 1-.8 1.6-1.7 1.6s-1.6-.7-1.6-1.6c0 1-.8 1.6-1.7 1.6-.8 0-1.6-.7-1.6-1.6 0 1-.7 1.6-1.6 1.6-.6 0-1.2-.4-1.4-1l3.6-6.2c1.2-2 4-2 5.3 0l3.7 6.3c-.3.5-1 1-1.5 1z"/><linearGradient id="n" gradientUnits="userSpaceOnUse" x1="314.7" y1="355.4" x2="314.7" y2="345"><stop offset="0" stop-color="#C5B189"/><stop offset=".1" stop-color="#B9A47F"/><stop offset=".3" stop-color="#968164"/><stop offset=".6" stop-color="#7E6A54"/><stop offset=".8" stop-color="#705E4C"/><stop offset="1" stop-color="#6C5949"/></linearGradient><path fill="url(#n)" d="M308.4 345.7c.2.5.8 1 1.4 1 1 0 1.6-.8 1.6-1.7 0 1 .8 1.6 1.6 1.6 1 0 1.7-.7 1.7-1.6 0 1 .7 1.6 1.6 1.6s1.6-.7 1.6-1.6c0 1 .6 1.6 1.5 1.6.6 0 1.2-.4 1.5-1l5.6 9.8h-24l5.8-9.7z"/><path fill="#FFF" d="M307.2 344.2c-1 0-2-1-2-2 0 1-1 2-2 2-1.2 0-2-1-2-2 0 1-1 2-2.2 2-1 0-2-1-2-2 0 1-1 2-2 2s-1.6-.5-2-1.2l4.7-8c1.5-2.6 5.2-2.6 6.7 0l4.7 8c-.2.7-1 1.2-1.8 1.2z"/><linearGradient id="o" gradientUnits="userSpaceOnUse" x1="301.1" y1="355.4" x2="301.1" y2="342.2"><stop offset="0" stop-color="#C5B189"/><stop offset="1" stop-color="#6C5949"/></linearGradient><path fill="url(#o)" d="M293 343c.4.7 1 1.2 2 1.2s2-1 2-2c0 1 1 2 2 2s2-1 2-2c0 1 1 2 2 2 1.2 0 2.2-1 2.2-2 0 1 1 2 2 2 .8 0 1.6-.5 2-1.2l7 12.4H286l7-12.4z"/><path fill="#FFF" d="M326.8 349.6c0-.7-.6-1.2-1.3-1.3h-.5-.3c-.3-.6-1-1-1.6-1-.5 0-1 .3-1.4.8 0 .2-.4.3-.6.3h-.3c-.7 0-1.2.6-1.3 1.2 0 .4.3.7.6.7h6c.5 0 .8-.3.8-.6zm-39-16c0-1.2-1-2.2-2.3-2.3H284c-.6-1-1.7-2-3-2-1 0-2 .7-2.8 1.5-.2.4-.7.5-1 .5h-.7c-1.2 0-2.2 1-2.3 2.3 0 .7.5 1.3 1 1.3h11.4c.7 0 1.3-.7 1.2-1.4z"/></g><g><path fill="#FFF" d="M148 629c-.8 0-1.5-.6-1.5-1.5 0 .8-.7 1.6-1.6 1.6-1 0-1.7-.6-1.7-1.5 0 .8-.8 1.6-1.7 1.6-.8 0-1.6-.6-1.6-1.5 0 .8-.7 1.6-1.6 1.6-.6 0-1.2-.3-1.4-1l3.6-6.2c1.2-2 4-2 5.3 0l3.6 6.3c-.3.7-1 1-1.5 1z"/><linearGradient id="p" gradientUnits="userSpaceOnUse" x1="143.3" y1="637.9" x2="143.3" y2="627.5"><stop offset="0" stop-color="#C5B189"/><stop offset=".1" stop-color="#B9A47F"/><stop offset=".3" stop-color="#968164"/><stop offset=".6" stop-color="#7E6A54"/><stop offset=".8" stop-color="#705E4C"/><stop offset="1" stop-color="#6C5949"/></linearGradient><path fill="url(#p)" d="M137 628c.2.7.8 1 1.4 1 1 0 1.6-.6 1.6-1.5 0 1 .8 1.6 1.6 1.6 1 0 1.7-.6 1.7-1.5 0 1 .7 1.6 1.6 1.6.8 0 1.5-.6 1.5-1.5 0 1 .7 1.6 1.6 1.6.7 0 1.3-.3 1.6-1l5.6 10h-23.8l5.6-10z"/><path fill="#FFF" d="M177 629c-1 0-1.7-.6-1.7-1.5 0 .8-.8 1.6-1.7 1.6-.8 0-1.6-.6-1.6-1.5 0 .8-.7 1.6-1.6 1.6-1 0-1.6-.6-1.6-1.5 0 .8-.7 1.6-1.6 1.6-.7 0-1.2-.3-1.5-1l3.7-6.2c1.2-2 4-2 5.3 0l3.6 6.3c-.2.7-.8 1-1.4 1z"/><linearGradient id="q" gradientUnits="userSpaceOnUse" x1="172" y1="637.9" x2="172" y2="627.5"><stop offset="0" stop-color="#C5B189"/><stop offset=".1" stop-color="#B9A47F"/><stop offset=".3" stop-color="#968164"/><stop offset=".6" stop-color="#7E6A54"/><stop offset=".8" stop-color="#705E4C"/><stop offset="1" stop-color="#6C5949"/></linearGradient><path fill="url(#q)" d="M165.7 628c.3.7.8 1 1.5 1 1 0 1.6-.6 1.6-1.5 0 1 .7 1.6 1.6 1.6 1 0 1.6-.6 1.6-1.5 0 1 .8 1.6 1.6 1.6 1 0 1.7-.6 1.7-1.5 0 1 .7 1.6 1.6 1.6.5 0 1-.3 1.3-1l5.6 10h-24l5.7-10z"/><path fill="#FFF" d="M164.6 626.7c-1 0-2-1-2-2 0 1-1 2-2 2-1.3 0-2.2-1-2.2-2 0 1-1 2-2 2-1.2 0-2-1-2-2 0 1-1 2-2 2s-1.7-.5-2-1.2l4.6-8c1.5-2.7 5.3-2.7 6.8 0l4.7 8c-.4.7-1 1.2-2 1.2z"/><linearGradient id="r" gradientUnits="userSpaceOnUse" x1="158.4" y1="637.9" x2="158.4" y2="624.6"><stop offset="0" stop-color="#C5B189"/><stop offset="1" stop-color="#6C5949"/></linearGradient><path fill="url(#r)" d="M150.4 625.5c.3.7 1 1.2 2 1.2s2-1 2-2c0 1 .8 2 2 2 1 0 2-1 2-2 0 1 1 2 2 2 1.2 0 2-1 2-2 0 1 1 2 2.2 2 .8 0 1.5-.5 2-1.2l7 12.3h-30.3l7-12.3z"/><path fill="#FFF" d="M184 632c0-.7-.5-1.2-1-1.2h-.7-.2c-.2-.6-.8-1-1.5-1-.6 0-1.2.3-1.5.7l-.6.3h-.3c-.6 0-1 .5-1.2 1.2 0 .4.3.7.6.7h6c.5 0 .8-.3.7-.7zm-38.8-16c-.2-1.2-1-2.2-2.4-2.3h-1c0 .2-.3 0-.4 0-.6-1-1.7-1.8-3-1.8-1.2 0-2.2.4-2.8 1.3-.3.3-.7.5-1 .4h-.7c-1.3 0-2.3 1-2.4 2.4 0 .8.4 1.3 1 1.3H144c.7 0 1.2-.5 1.2-1.2z"/></g><g><path fill="#FFF" d="M346.4 290c-.6 0-1.2-.6-1.2-1.3 0 .7-.5 1.2-1.2 1.2s-1.2-.6-1.2-1.3c0 .7-.6 1.2-1.3 1.2-.6 0-1.2-.6-1.2-1.3 0 .7-.5 1.2-1.2 1.2-.4 0-.8-.4-1-.8l2.7-4.8c1-1.5 3.2-1.5 4 0l3 4.8c-.3.4-.8.7-1.2.7z"/><linearGradient id="s" gradientUnits="userSpaceOnUse" x1="333.7" y1="292.6" x2="351.8" y2="292.6"><stop offset="0" stop-color="#C5B189"/><stop offset=".1" stop-color="#B9A47F"/><stop offset=".3" stop-color="#968164"/><stop offset=".6" stop-color="#7E6A54"/><stop offset=".8" stop-color="#705E4C"/><stop offset="1" stop-color="#6C5949"/></linearGradient><path fill="url(#s)" d="M338 289.2c.2.4.6.7 1 .7.8 0 1.3-.6 1.3-1.3 0 .7.6 1.2 1.2 1.2.7 0 1.3-.6 1.3-1.3 0 .7.5 1.2 1.2 1.2s1.2-.6 1.2-1.3c0 .7.6 1.2 1.3 1.2.4 0 1-.4 1-.8l4.3 7.4h-18l4.2-7.4z"/><path fill="#FFF" d="M363.2 286c-1 0-2-1-2-2 0 1-1 2-2 2s-2-1-2-2c0 1-.8 2-2 2s-2-1-2-2c0 1-.7 2-1.8 2-.8 0-1.5-.6-1.8-1.2l4.4-7.7c1.5-2.4 5-2.4 6.5 0l4.4 7.8c-.4.6-1 1-1.8 1z"/><linearGradient id="t" gradientUnits="userSpaceOnUse" x1="357.3" y1="296.6" x2="357.3" y2="283.9"><stop offset="0" stop-color="#C5B189"/><stop offset=".1" stop-color="#B9A47F"/><stop offset=".3" stop-color="#968164"/><stop offset=".6" stop-color="#7E6A54"/><stop offset=".8" stop-color="#705E4C"/><stop offset="1" stop-color="#6C5949"/></linearGradient><path fill="url(#t)" d="M349.6 284.8c.3.6 1 1 1.8 1 1 0 2-.8 2-2 0 1.2.8 2 2 2s2-.8 2-2c0 1.2.8 2 1.8 2s2-.8 2-2c0 1.2 1 2 2 2 .8 0 1.4-.4 1.7-1l6.8 11.8h-29l6.8-11.8z"/><path fill="#FFF" d="M374.6 290.5c0-1-1-2-2-2h-1-.3c-.5-1-1.5-1.7-2.7-1.7-1 0-2 .5-2.4 1.2-.3.3-.6.5-1 .4h-.5c-1 0-2 1-2 2-.2.7.3 1.2 1 1.2h10c.5 0 1-.5 1-1z"/></g><g><path fill="#FFF" d="M568 403c-.6 0-1.2-.6-1.2-1.3 0 .7-.5 1.2-1.2 1.2s-1.2-.6-1.2-1.3c0 .7-.6 1.2-1.2 1.2-.7 0-1.3-.6-1.3-1.3 0 .7-.6 1.2-1.3 1.2-.5 0-1-.4-1-.8l2.7-4.8c1-1.6 3-1.6 4 0l2.8 4.8c-.2.4-.6.7-1 .7z"/><linearGradient id="u" gradientUnits="userSpaceOnUse" x1="555.3" y1="405.6" x2="573.4" y2="405.6"><stop offset="0" stop-color="#C5B189"/><stop offset=".1" stop-color="#B9A47F"/><stop offset=".3" stop-color="#968164"/><stop offset=".6" stop-color="#7E6A54"/><stop offset=".8" stop-color="#705E4C"/><stop offset="1" stop-color="#6C5949"/></linearGradient><path fill="url(#u)" d="M559.6 402.2c.2.4.6.7 1 .7.8 0 1.3-.6 1.3-1.3 0 .7.5 1.2 1.2 1.2.6 0 1.2-.6 1.2-1.3 0 .7.5 1.2 1.2 1.2s1.2-.6 1.2-1.3c0 .7.6 1.2 1.3 1.2.6 0 1-.4 1.2-.8l4.2 7.4h-18l4.2-7.4z"/><path fill="#FFF" d="M584.8 399c-1 0-2-1-2-2 0 1-1 2-2 2s-2-1-2-2c0 1-.8 2-2 2-1 0-2-1-2-2 0 1-.7 2-1.8 2-.8 0-1.5-.6-1.8-1.2l4.4-7.7c1.5-2.4 5-2.4 6.5 0l4.6 7.8c-.4.6-1 1-1.8 1z"/><linearGradient id="v" gradientUnits="userSpaceOnUse" x1="578.9" y1="409.6" x2="578.9" y2="396.9"><stop offset="0" stop-color="#C5B189"/><stop offset=".1" stop-color="#B9A47F"/><stop offset=".3" stop-color="#968164"/><stop offset=".6" stop-color="#7E6A54"/><stop offset=".8" stop-color="#705E4C"/><stop offset="1" stop-color="#6C5949"/></linearGradient><path fill="url(#v)" d="M571.2 397.8c.3.6 1 1 1.8 1 1 0 2-.8 2-2 0 1.2.8 2 2 2 1 0 2-.8 2-2 0 1.2.8 2 2 2 1 0 1.8-.8 1.8-2 0 1.2 1 2 2 2 .8 0 1.4-.4 1.8-1l6.8 11.8h-29l6.8-11.8z"/><path fill="#FFF" d="M596.2 403.5c0-1-1-2-2-2h-1s-.2 0-.3-.2c-.6-1-1.6-1.5-2.8-1.5-1 0-2 .5-2.4 1.2-.3.3-.6.5-1 .4h-.5c-1 0-2 1-2 2 0 .7.3 1.2 1 1.2h10c.5 0 1-.5 1-1z"/></g><g fill="#FFF"><path d="M314.6 520.7H309l1.6-45.7h2.4"/><path d="M313.2 476.2H310l1-23.2h1.3"/><path d="M309.4 476.5l1.3-2.8 21 10.3-.8 1.4"/><path d="M312.8 474l1 3-22 7.3-.5-1.4M326.7 520.7h-3.4l1-27.6h1.5"/><path d="M326 493.8h-2l.5-14h1"/><path d="M323.6 494l.8-1.7 12.6 6.3-.4.8"/><path d="M325.7 492.5l.6 1.8-13.3 4.4-.3-.8"/><g><path d="M345.6 520.7H342l1-28.7h1.6"/><path d="M344.7 492.8h-2l.5-14.6h1"/><path d="M342.3 493l.8-1.8 13.2 6.5-.4 1"/><path d="M344.4 491.4l.7 1.8-13.7 4.7-.3-1M353.2 520.7h-2l.5-17.3h1"/><path d="M352.6 503.8h-1l.2-8.7h.5"/><path d="M351.2 504l.5-1 8 3.8-.3.5"/><path d="M352.5 503l.4 1-8.4 3-.2-.6"/></g><g><path d="M292 520.7H290l.7-19.4h1"/><path d="M291.6 501.8h-1.4l.4-10h.6"/><path d="M290 502l.5-1.3 9 4.4-.4.7"/><path d="M291.4 500.8l.5 1.3-9.5 3.2-.2-.6M297.3 520.7H296l.3-11.7h.6"/><path d="M297 509.3h-1l.4-6h.3"/><path d="M296 509.4l.3-.8 5.4 2.7-.2.3"/><path d="M297 508.7v.7l-5.5 2v-.4"/></g></g><g fill="#FFF"><path d="M355 468.4c1.7-.3 3.5 1 3.5 1s.8-1.8 2.5-2c1.7-.4 3.6-.5 5.2-1.3 0 0-1 1.6-2.6 2-1.3.3-3.3 2.4-3.8 3-.2.2-.3 0-.3 0-1.2-.3-5-1.3-6.3-1.2-1.6.2-3.6-.7-3.6-.7 2 .2 3.7-.3 5.4-.6zm-19.7-3.2c1.7-.3 3.5 1 3.5 1s.8-1.8 2.5-2c1.7-.4 3.6-.5 5.2-1.3 0 0-1 1.4-2.6 1.8-1.4.3-3.3 2.4-4 3 0 .2-.2 0-.2 0-1.2-.3-5-1.3-6.3-1.2-1.6.2-3.6-.7-3.6-.7 2 0 3.6-.5 5.3-.8zm9.2-13.3c1.6-.4 3.5.8 3.5.8s.7-1.7 2.4-2c1.7-.3 3.6-.4 5.3-1.2 0 0-1 1.5-2.7 2-1.3.2-3.2 2.3-3.8 3h-.3c-1.2-.4-5-1.4-6.4-1.2-1.6 0-3.6-.8-3.6-.8 2 .2 3.8-.4 5.5-.7zm-18-13.4c1.8-.3 3.6 1 3.6 1s1-1.8 2.6-2c1.7-.4 3.6-.4 5.2-1.3 0 0-1 1.6-2.6 2-1.3.2-3.2 2.3-3.8 3h-.3c-1-.4-5-1.4-6.2-1.2-1.6.3-3.6-.7-3.6-.7 2 .2 3.7-.4 5.4-.7zm3-15c1.5-.4 3.4.8 3.4.8s.6-1.7 2.3-2c1.7-.3 3.6-.4 5.3-1.2 0 0-1 1.5-2.7 2-1.4.2-3.3 2.3-4 3 0 0 .2 0 0 0h-.2c-1-.4-5-1.4-6.3-1.2-1.6.2-3.6-.8-3.6-.8 2 .2 3.7-.4 5.4-.7z"/></g></svg>