<svg xmlns="http://www.w3.org/2000/svg" width="240" height="240" viewBox="0 0 240 240"><path fill="#9BDE9B" d="M-4.3-5.4h250v250h-250z"/><path fill-rule="evenodd" clip-rule="evenodd" fill="#FFF" d="M102.6 57.7h-.5c0-1.5-1.4-2.5-2.8-2.4-1.3 0-2.2 1-2.4 2.3-.3-.8-1-1.3-2-1.2-.8 0-1.5.8-1.6 1.7-1 .2-1.5 1-1.5 1.7 0 1 .6 1.5 1.4 1.6h10c.8 0 1.5-1 1.5-1.8 0-1-1-2-2-1.8zm-18.4 3.8h-.4c0-1-1-1.8-2-1.7-1 0-1.6.8-1.8 1.6-.2-.5-.7-1-1.3-.8-.7 0-1.2.6-1.3 1.2-.5 0-1 .6-1 1.2s.5 1 1 1h7c.6 0 1-.5 1-1.2s-.5-1.3-1.2-1.3zm-30-4.4H54c0-.6-.7-1-1.4-1-.6 0-1 .5-1 1-.3-.3-.6-.6-1-.5-.5 0-.8.3-.8.8-.4 0-.7.3-.7.8 0 .4.4.8.7.8h4.7c.4 0 .7-.4.7-1 0-.3-.3-.7-.8-.7zm39.6 13.2h-.2c0-.7-.7-1.2-1.4-1-.6 0-1 .4-1 1-.2-.4-.6-.6-1-.6-.5 0-.8.4-.8.8-.4 0-.7.4-.7.8s.3.7.7.7H94c.4 0 .7-.5.7-1 0-.4-.4-.8-1-.8zm-23.4-5.7H70c-.3-1.3-1.5-2.4-3-2.2-1 0-2 1-2 2-.4-.6-1-1-2-1-.8 0-1.5.7-1.5 1.6-.8 0-1.4.6-1.4 1.5 0 .7.7 1.4 1.4 1.5h9.3c.8-.2 1.5-1 1.5-1.8 0-1-.8-1.7-1.8-1.7zm-25 3.7h.3c0-1 1-1.8 2-1.7 1 0 1.6.8 1.7 1.7.2-.6.8-1 1.4-1 .7.2 1.2.7 1.2 1.3.6 0 1 .6 1 1.2s-.4 1-1 1h-7c-.6 0-1-.5-1-1.2s.6-1.3 1.3-1.3z"/><path fill-rule="evenodd" clip-rule="evenodd" fill="#FFF" d="M101.4 67.8h.4c0-1 1-1.8 2-1.7 1 .2 1.7 1 1.8 1.8.3-.6.8-1 1.5-1s1.2.7 1.3 1.3c.6.2 1 .7 1 1.3 0 .7-.4 1-1 1.2H101c-.5 0-1-.7-1-1.3 0-.8.6-1.4 1.4-1.4z" opacity=".2"/><path fill="#80B6CE" d="M54.5 61.5L41 84h13.5"/><path fill="#80B6CE" d="M54.5 61.5L41 84h13.5m25.2-21l-9 22h9"/><path fill="#80B6CE" d="M79.7 63l-9 22h9"/><path fill="#6A9EAF" d="M79.7 63l9 22h-9m-25.2-1H68L54.5 61.4"/><path fill="#80B6CE" d="M87 65.4L75.7 84.6H87"/><path fill="#80B6CE" d="M87 65.4L75.7 84.6H87"/><path fill="#6A9EAF" d="M87 65.4l11.7 19.2H87"/><path fill="#80B6CE" d="M74.8 70l-9 15h9"/><path fill="#80B6CE" d="M74.8 70l-9 15h9"/><path fill="#6A9EAF" d="M74.8 70l9 15h-9"/><path fill="#80B6CE" d="M62.5 66.8l-7 18h7"/><path fill="#80B6CE" d="M62.5 66.8l-7 18h7"/><path fill="#6A9EAF" d="M62.5 66.8l7.2 18h-7.2"/><path fill="#6F8326" d="M56.2 80.3c-1.5-1.3-2.6-3-4-3s-2.3 1.7-3.8 3-2.7 1.7-3.6 1.8h15c-1 0-2-.4-3.6-1.7z"/><path fill="#7B9226" d="M52.2 77.3c-1.2 0-2.3 1.7-3.8 3S45.7 82 44.8 82h7.4v-4.7z"/><path fill="#6F8326" d="M74.3 80.7C72 78.7 70 76 68 76s-3.8 2.6-6.2 4.7c-2.3 2-4.3 2.8-5.7 3h24c-1.3-.2-3.3-1-5.7-3z"/><path fill="#7B9226" d="M68 76c-2 0-3.8 2.7-6.2 4.7-2.3 2-4.3 2.8-5.7 3h12V76z"/><path fill="#6F8326" d="M89 81.8c-1.8-1.6-3.2-3.6-4.7-3.6-1.6 0-3 2-4.7 3.6-1.8 1.6-3.4 2-4.4 2.3h18c-1 0-2.4-.6-4.2-2.2z"/><path fill="#7B9226" d="M84.2 78.2c-1.5 0-3 2-4.6 3.6-1.8 1.6-3.4 2-4.4 2.3h9v-5.8z"/><path d="M48.5 79v2.3m0 .2s-.2 0-.2-.2V79c0-.2 0-.3.2-.3 0 0 .2 0 .2.2v2.3s0 .2-.2.2z" fill="#0C5B6B"/><path fill="#46551B" d="M49.4 79.4c0 .6-.4 1-1 1-.4 0-.8-.4-.8-1V78c0-.4.4-.8 1-.8.4 0 .8.4.8 1v1.2z"/><path fill="#8BC120" d="M35 84.4s3.6.4 5.5 1c2 .8 4 2 6.2 2 2 0 4.5-2.3 8-1.2 3.2 1 6.5 2.3 11.6 0 5-2.3 9 .3 9 .3s8.3 7.2 16 2.4c7.2-4.5 11-4.6 12.6-4.6"/><path d="M66 78.5V81m0 0h-.3v-2.5s0-.2.2-.2V81z" fill="#0C5B6B"/><path fill="#46551B" d="M66.8 79c0 .5-.4 1-1 1-.4 0-1-.5-1-1v-1.3c0-.6.6-1 1-1 .6 0 1 .4 1 1V79z"/><path fill="#91AB29" d="M50.5 82c-2-2-3.5-4.2-5.3-4.2-1.7 0-3.2 2.3-5.3 4-2 2-3.8 2.5-5 2.6h20.4c-1 0-2.8-.7-5-2.5z"/><path fill="#91AB29" d="M67.7 80.8c-3-2.6-5.3-6-7.8-6-2.6 0-4.8 3.4-7.8 6-3 2.5-5.5 3.4-7 3.6h29.6c-1.7-.2-4.2-1-7-3.6z"/><path fill="#8BC120" d="M59.8 74.8c-2.5 0-4.7 3.4-7.6 6-3 2.5-5.5 3.4-7 3.6h14.6v-9.6z"/><path fill="#91AB29" d="M82.3 82c-2-2-3.6-4.2-5.4-4.2-1.8 0-3.3 2.3-5.4 4-2 2-3.7 2.5-5 2.6h20.5c-1 0-2.7-.7-4.7-2.5z"/><path d="M89 80.7V83m0 .3c-.2 0-.3 0-.3-.2v-2.3s0-.2.2-.2v2.9z" fill="#0C5B6B"/><path fill="#46551B" d="M89.8 81.3c0 .5-.4 1-1 1-.4 0-.8-.5-.8-1V80c0-.6.4-1 1-1 .4 0 .8.4.8 1v1.3z"/><path fill="#8BC120" d="M76.8 77.8c-1.6 0-3.2 2.4-5.2 4-2 2-3.7 2.5-5 2.6H77v-6.6z"/><path fill="#91AB29" d="M99.8 82c-2-2-3.6-4.2-5.3-4.2-1.7 0-3.3 2.3-5.3 4-2 2-3.7 2.5-5 2.6h20.5c-1 0-3-.7-5-2.5z"/><path fill="#8BC120" d="M94.4 77.8c-1.7 0-3.2 2.4-5.2 4-2 2-3.8 2.5-5 2.6h10.2v-6.6z"/><path d="M76.2 80.8v2.4m0 .2v-2.6-.2s.2 0 .2.2v2.4s0 .2-.2.2z" fill="#0C5B6B"/><path fill="#46551B" d="M77.2 81.4c0 .5-.5 1-1 1s-1-.5-1-1V80c0-.5.5-1 1-1s1 .5 1 1v1.4z"/><path fill="#DEE6EA" d="M54.5 61.5l-2.3 3.7 1-.4V66l1-1.3.3.7.3-.5 1.3 1.5.5-1 .5.2"/><path fill="#FFF" d="M54.5 61.5l-2.3 3.7 1-.4V66l1-1.3.3.5"/><path fill="#DEE6EA" d="M79.8 63l-1.5 3.6.7-.4v1.2l.7-1.3v.8l.3-.5 1 1.6v-1.2l.5.3"/><path fill="#FFF" d="M79.7 63l-1.4 3.6.7-.4v1.2l.7-1.3v.5"/><path fill="#DEE6EA" d="M62.5 66.8L61 70.6l.8-.2-.3 1.3 1-.6 1 1.5.2-2 .8 1.2"/><path fill="#FFF" d="M62.6 67v-.2L61 70.6l.8-.2-.3 1.3 1-.6v.2"/><path fill="#DEE6EA" d="M87 65.4L85 69h1l-.4 1.2 1.5-.6 1.5 1.3.3-2L90 70"/><path fill="#FFF" d="M87.2 65.5L84.8 69h1l-.4 1.2 1.5-.6h.2"/><path fill="#DEE6EA" d="M74.8 70l-1.5 2.6h.8l-.2.7 1-.4 1 .8v-1.3l1 .8"/><path fill="#FFF" d="M74.8 70.2l-1.5 2.4h.8l-.2.7 1-.4"/><path d="M92.4 83v2.5m0 .2s-.2 0-.2-.2V83h.4v2.5s0 .2-.2.2z" fill="#0C5B6B"/><path fill="#6F8326" d="M93.3 83.7c0 .5-.4 1-1 1-.4 0-.8-.5-.8-1v-1.4c0-.5.4-1 1-1 .4 0 .8.5.8 1v1.4z"/><path d="M82.2 85.4v2.4m0 .2v-2.6-.2s.2 0 .2.2v2.4s0 .2-.2.2z" fill="#0C5B6B"/><path fill="#6F8326" d="M83.2 86c0 .5-.5 1-1 1s-1-.5-1-1v-1.4c0-.5.5-1 1-1 .6 0 1 .5 1 1V86z"/><path d="M63.2 82.8v2.4m0 .2s-.2 0-.2-.2v-2.4s0-.2.2-.2c0 0 .2 0 .2.2v2.4s0 .2-.2.2z" fill="#0C5B6B"/><path fill="#6F8326" d="M64 83.3c0 .5-.3 1-.8 1s-1-.5-1-1V82c0-.5.5-1 1-1s1 .5 1 1v1.3z"/><path d="M55.8 82.2V84m0 .2s-.2 0-.2-.2v-1.8s0-.2.2-.2.2 0 .2.2V84s0 .2-.2.2z" fill="#0C5B6B"/><path fill="#6F8326" d="M56.5 82.6c0 .4-.3.7-.7.7-.4 0-.7-.3-.7-.7v-1c0-.4.4-.7.8-.7s.7.2.7.6v1z"/><path d="M70.6 79.5v1.8m0 .2h-.2v-2s0-.2.2-.2c0 0 .2 0 .2.2v2h-.2z" fill="#0C5B6B"/><path fill="#46551B" d="M71.3 80c0 .3-.3.7-.7.7-.4 0-.7-.4-.7-.8v-1c0-.5.2-.8.6-.8.4 0 .7.3.7.7v1z"/><path d="M54.3 82.8V85m0 .2V82.8v-.2s.2 0 .2.2V85s0 .2-.2.2z" fill="#0C5B6B"/><path fill="#46551B" d="M55.2 83.3c0 .5-.4 1-1 1-.3 0-.7-.5-.7-1V82c0-.5.4-1 .8-1 .5 0 1 .5 1 1v1.3z"/><path d="M79.7 79.5v1.8m0 .2s-.2 0-.2-.2v-1.8s0-.2.2-.2c0 0 .2 0 .2.2v1.8l-.3.2z" fill="#0C5B6B"/><path fill="#46551B" d="M80.4 80c0 .3-.3.6-.7.6-.4 0-.7-.3-.7-.7v-1c0-.5.3-.8.7-.8.4 0 .7.3.7.7v1z"/><path d="M97.5 82v1.7m0 .2v-2.1-.3s.2 0 .2.2v1.7s0 .2-.2.2z" fill="#0C5B6B"/><path fill="#46551B" d="M98.2 82.3c0 .4-.3.7-.7.7-.4 0-.7-.3-.7-.7v-1c0-.5.3-.8.7-.8.4 0 .7.3.7.7v1z"/><path d="M48.5 84v1.8m0 .2s-.2 0-.2-.2V84s0-.2.2-.2c0 0 .2 0 .2.2v1.8s0 .2-.2.2z" fill="#0C5B6B"/><path fill="#6F8326" d="M49.2 84.4c0 .4-.3.8-.7.8-.4 0-.7-.4-.7-.8v-1c0-.4.3-.7.7-.7.4 0 .7.3.7.7v1z"/><path d="M61.2 80.4v1.8m0 .2s-.2 0-.2-.2v-1.8s0-.2.2-.2c0 0 .2 0 .2.2v1.8s0 .2-.2.2z" fill="#0C5B6B"/><path fill="#6F8326" d="M62 80.8c0 .4-.4.7-.8.7s-.7-.3-.7-.7v-1c0-.4.3-.7.7-.7.4 0 .7.4.7.8v1z"/><path d="M75 82v2m0 .2V82h.2v2s0 .2-.2.2z" fill="#0C5B6B"/><path fill="#6F8326" d="M75.8 82.6c0 .4-.4.7-.8.7-.3 0-.7-.3-.7-.7v-1c0-.5.4-.8.7-.8.4 0 .8.3.8.7v1z"/><path d="M83 78.3v1.5m0 .2s-.2 0-.2-.2v-1.5s0-.2.2-.2l.2.3v1.5s0 .2-.2.2z" fill="#0C5B6B"/><path fill="#6F8326" d="M83.6 78.6c0 .4-.2.6-.6.6-.3 0-.6-.2-.6-.6v-1c0-.2.3-.5.6-.5.4 0 .6.4.6.7v1z"/><path d="M51 77.7v1.6m0 .2v-1.8-.2c.2 0 .3 0 .3.2v1.6s0 .2-.2.2z" fill="#0C5B6B"/><path fill="#6F8326" d="M51.7 78c0 .4-.2.7-.6.7-.2 0-.5-.3-.5-.6v-.8c0-.3.3-.6.6-.6.5 0 .7.3.7.6v1z"/><path d="M85 87v2m0 0h-.3v-2h.2v2z" fill="#0C5B6B"/><path fill="#46551B" d="M85.6 87.5c0 .4-.3.7-.7.7-.5 0-.8-.3-.8-.7v-1c0-.5.3-.8.7-.8.3 0 .6.3.6.7v1z"/><path d="M98.7 81.4v1.8m0 .2s-.2 0-.2-.2v-1.8s0-.2.2-.2c0 0 .2 0 .2.2v1.8l-.3.2z" fill="#0C5B6B"/><path fill="#6F8326" d="M99.4 81.8c0 .4-.3.7-.7.7-.4 0-.7-.3-.7-.7v-1c0-.4.3-.7.7-.7.4 0 .7.4.7.8v1z"/><g><linearGradient id="a" gradientUnits="userSpaceOnUse" x1="136.4" y1="24.6" x2="136.4" y2="10"><stop offset="0" stop-color="#9BDE9B"/><stop offset=".2" stop-color="#98DC99"/><stop offset=".4" stop-color="#8ED492"/><stop offset=".5" stop-color="#7CC887"/><stop offset=".6" stop-color="#64B677"/><stop offset=".8" stop-color="#45A062"/><stop offset=".9" stop-color="#1F854A"/><stop offset="1" stop-color="#006E35"/></linearGradient><path opacity=".8" fill="url(#a)" d="M126 24.6s3.8-3.8 4.8-8c1.5-4 5-11.5 8.5-1.7 2.4 4.6 3.6 8 7.5 9.6h-21z"/><linearGradient id="b" gradientUnits="userSpaceOnUse" x1="131.9" y1="24.6" x2="131.9" y2="2"><stop offset="0" stop-color="#9BDE9B"/><stop offset=".2" stop-color="#6CBB7B"/><stop offset=".5" stop-color="#3E985B"/><stop offset=".7" stop-color="#1C7E44"/><stop offset=".9" stop-color="#076F36"/><stop offset="1" stop-color="#006931"/></linearGradient><path fill="url(#b)" d="M122.4 22.6s2-2.4 2.6-8c0 0 5.2-28.6 10 .4 0 0 0 3.2 6.3 9.6l-19-2z"/><linearGradient id="c" gradientUnits="userSpaceOnUse" x1="131.1" y1="24.6" x2="131.1" y2="10"><stop offset="0" stop-color="#9BDE9B"/><stop offset="1" stop-color="#006E35"/></linearGradient><path fill="url(#c)" d="M120.7 24.6s3.8-3.8 4.8-8c1.6-4 5-11.5 8.6-1.7 2.4 4.6 3.7 8 7.6 9.6h-21z"/></g><g><linearGradient id="d" gradientUnits="userSpaceOnUse" x1="230.6" y1="63.5" x2="230.6" y2="53.2"><stop offset="0" stop-color="#9BDE9B"/><stop offset=".2" stop-color="#98DC99"/><stop offset=".4" stop-color="#8ED492"/><stop offset=".5" stop-color="#7CC887"/><stop offset=".6" stop-color="#64B677"/><stop offset=".8" stop-color="#45A062"/><stop offset=".9" stop-color="#1F854A"/><stop offset="1" stop-color="#006E35"/></linearGradient><path opacity=".8" fill="url(#d)" d="M223.2 63.5s2.7-2.6 3.4-5.6c1-3 3.5-8.3 6-1.3 1.7 3.3 2.6 5.8 5.3 6.8H223z"/><linearGradient id="e" gradientUnits="userSpaceOnUse" x1="227.4" y1="63.5" x2="227.4" y2="47.5"><stop offset="0" stop-color="#9BDE9B"/><stop offset=".2" stop-color="#6CBB7B"/><stop offset=".5" stop-color="#3E985B"/><stop offset=".7" stop-color="#1C7E44"/><stop offset=".9" stop-color="#076F36"/><stop offset="1" stop-color="#006931"/></linearGradient><path fill="url(#e)" d="M220.7 62s1.4-1.6 1.8-5.5c0 0 3.7-20.3 7 .2 0 0 0 2.3 4.6 6.8L220.8 62z"/><linearGradient id="f" gradientUnits="userSpaceOnUse" x1="226.8" y1="63.5" x2="226.8" y2="53.2"><stop offset="0" stop-color="#9BDE9B"/><stop offset="1" stop-color="#006E35"/></linearGradient><path fill="url(#f)" d="M219.5 63.5s2.7-2.6 3.4-5.6c1-3 3.4-8.3 6-1.3 1.6 3.3 2.5 5.8 5.2 6.8h-14.7z"/></g><g><linearGradient id="g" gradientUnits="userSpaceOnUse" x1="26.1" y1="121.8" x2="26.1" y2="111.5"><stop offset="0" stop-color="#9BDE9B"/><stop offset=".2" stop-color="#98DC99"/><stop offset=".4" stop-color="#8ED492"/><stop offset=".5" stop-color="#7CC887"/><stop offset=".6" stop-color="#64B677"/><stop offset=".8" stop-color="#45A062"/><stop offset=".9" stop-color="#1F854A"/><stop offset="1" stop-color="#006E35"/></linearGradient><path opacity=".8" fill="url(#g)" d="M18.7 121.8s2.7-2.7 3.4-5.6c1.2-3 3.6-8.2 6.2-1.3 1.6 3.3 2.5 5.8 5.3 6.8H18.7z"/><linearGradient id="h" gradientUnits="userSpaceOnUse" x1="22.9" y1="121.8" x2="22.9" y2="105.8"><stop offset="0" stop-color="#9BDE9B"/><stop offset=".2" stop-color="#6CBB7B"/><stop offset=".5" stop-color="#3E985B"/><stop offset=".7" stop-color="#1C7E44"/><stop offset=".9" stop-color="#076F36"/><stop offset="1" stop-color="#006931"/></linearGradient><path fill="url(#h)" d="M16.2 120.4s1.4-1.7 1.8-5.7c0 0 3.7-20.2 7 .3 0 0 0 2.3 4.6 6.8l-13.4-1.4z"/><linearGradient id="i" gradientUnits="userSpaceOnUse" x1="22.4" y1="121.8" x2="22.4" y2="111.5"><stop offset="0" stop-color="#9BDE9B"/><stop offset="1" stop-color="#006E35"/></linearGradient><path fill="url(#i)" d="M15 121.8s2.7-2.7 3.4-5.6c1-3 3.5-8.2 6-1.3 1.7 3.3 2.6 5.8 5.4 6.8H15z"/></g><g><linearGradient id="j" gradientUnits="userSpaceOnUse" x1="92.8" y1="138.9" x2="92.8" y2="128.6"><stop offset="0" stop-color="#9BDE9B"/><stop offset=".2" stop-color="#98DC99"/><stop offset=".4" stop-color="#8ED492"/><stop offset=".5" stop-color="#7CC887"/><stop offset=".6" stop-color="#64B677"/><stop offset=".8" stop-color="#45A062"/><stop offset=".9" stop-color="#1F854A"/><stop offset="1" stop-color="#006E35"/></linearGradient><path opacity=".8" fill="url(#j)" d="M85.5 139s2.7-2.8 3.4-5.7c1-3 3.4-8.2 6-1.3 1.6 3.4 2.5 6 5.2 7H85.5z"/><linearGradient id="k" gradientUnits="userSpaceOnUse" x1="89.7" y1="138.9" x2="89.7" y2="122.9"><stop offset="0" stop-color="#9BDE9B"/><stop offset=".2" stop-color="#6CBB7B"/><stop offset=".5" stop-color="#3E985B"/><stop offset=".7" stop-color="#1C7E44"/><stop offset=".9" stop-color="#076F36"/><stop offset="1" stop-color="#006931"/></linearGradient><path fill="url(#k)" d="M83 137.5s1.4-1.7 1.8-5.7c0 0 3.7-20.2 7 .3 0 0 0 2.4 4.6 7L83 137.4z"/><linearGradient id="l" gradientUnits="userSpaceOnUse" x1="89.1" y1="138.9" x2="89.1" y2="128.6"><stop offset="0" stop-color="#9BDE9B"/><stop offset="1" stop-color="#006E35"/></linearGradient><path fill="url(#l)" d="M81.8 139s2.7-2.8 3.4-5.7c1-3 3.5-8.2 6-1.3 1.7 3.4 2.6 6 5.3 7H81.8z"/></g><g><linearGradient id="m" gradientUnits="userSpaceOnUse" x1="29.8" y1="121" x2="29.8" y2="113"><stop offset="0" stop-color="#9BDE9B"/><stop offset=".2" stop-color="#98DC99"/><stop offset=".4" stop-color="#8ED492"/><stop offset=".5" stop-color="#7CC887"/><stop offset=".6" stop-color="#64B677"/><stop offset=".8" stop-color="#45A062"/><stop offset=".9" stop-color="#1F854A"/><stop offset="1" stop-color="#006E35"/></linearGradient><path opacity=".8" fill="url(#m)" d="M24 121s2.2-2 2.8-4.4c.8-2.3 2.7-6.3 4.6-1 1.3 2.6 2 4.5 4 5.4H24.2z"/><linearGradient id="n" gradientUnits="userSpaceOnUse" x1="27.4" y1="121" x2="27.4" y2="108.6"><stop offset="0" stop-color="#9BDE9B"/><stop offset=".2" stop-color="#6CBB7B"/><stop offset=".5" stop-color="#3E985B"/><stop offset=".7" stop-color="#1C7E44"/><stop offset=".9" stop-color="#076F36"/><stop offset="1" stop-color="#006931"/></linearGradient><path fill="url(#n)" d="M22.2 120s1-1.4 1.4-4.5c0 0 2.8-15.6 5.4.2 0 0 0 1.8 3.5 5.3l-10.3-1z"/><linearGradient id="o" gradientUnits="userSpaceOnUse" x1="27" y1="121" x2="27" y2="113"><stop offset="0" stop-color="#9BDE9B"/><stop offset="1" stop-color="#006E35"/></linearGradient><path fill="url(#o)" d="M21.3 121s2-2 2.6-4.4c.7-2.3 2.6-6.3 4.6-1 1.3 2.6 2 4.5 4 5.4H21.4z"/></g><g><linearGradient id="p" gradientUnits="userSpaceOnUse" x1="135.7" y1="108.2" x2="135.7" y2="97.9"><stop offset="0" stop-color="#9BDE9B"/><stop offset=".2" stop-color="#98DC99"/><stop offset=".4" stop-color="#8ED492"/><stop offset=".5" stop-color="#7CC887"/><stop offset=".6" stop-color="#64B677"/><stop offset=".8" stop-color="#45A062"/><stop offset=".9" stop-color="#1F854A"/><stop offset="1" stop-color="#006E35"/></linearGradient><path opacity=".8" fill="url(#p)" d="M128.3 108.2s2.7-2.7 3.4-5.6c1-3 3.5-8.2 6-1.3 1.7 3.4 2.6 6 5.3 7h-14.7z"/><linearGradient id="q" gradientUnits="userSpaceOnUse" x1="132.5" y1="108.2" x2="132.5" y2="92.2"><stop offset="0" stop-color="#9BDE9B"/><stop offset=".2" stop-color="#6CBB7B"/><stop offset=".5" stop-color="#3E985B"/><stop offset=".7" stop-color="#1C7E44"/><stop offset=".9" stop-color="#076F36"/><stop offset="1" stop-color="#006931"/></linearGradient><path fill="url(#q)" d="M125.8 106.8s1.4-1.7 1.8-5.7c0 0 3.7-20 7 .4 0 0 0 2.3 4.6 6.8l-13.4-1.4z"/><linearGradient id="r" gradientUnits="userSpaceOnUse" x1="132" y1="108.2" x2="132" y2="97.9"><stop offset="0" stop-color="#9BDE9B"/><stop offset="1" stop-color="#006E35"/></linearGradient><path fill="url(#r)" d="M124.6 108.2s2.7-2.7 3.4-5.6c1-3 3.5-8.2 6-1.3 1.7 3.4 2.6 6 5.3 7h-14.7z"/></g><g><linearGradient id="s" gradientUnits="userSpaceOnUse" x1="156.3" y1="68.3" x2="156.3" y2="58"><stop offset="0" stop-color="#9BDE9B"/><stop offset=".2" stop-color="#98DC99"/><stop offset=".4" stop-color="#8ED492"/><stop offset=".5" stop-color="#7CC887"/><stop offset=".6" stop-color="#64B677"/><stop offset=".8" stop-color="#45A062"/><stop offset=".9" stop-color="#1F854A"/><stop offset="1" stop-color="#006E35"/></linearGradient><path opacity=".8" fill="url(#s)" d="M149 68.3s2.6-2.7 3.3-5.6c1-3 3.5-8.2 6-1.3 1.7 3.3 2.6 6 5.3 7H149z"/><linearGradient id="t" gradientUnits="userSpaceOnUse" x1="153.1" y1="68.3" x2="153.1" y2="52.3"><stop offset="0" stop-color="#9BDE9B"/><stop offset=".2" stop-color="#6CBB7B"/><stop offset=".5" stop-color="#3E985B"/><stop offset=".7" stop-color="#1C7E44"/><stop offset=".9" stop-color="#076F36"/><stop offset="1" stop-color="#006931"/></linearGradient><path fill="url(#t)" d="M146.4 67s1.4-1.8 1.8-5.8c0 0 3.7-20.2 7 .3 0 0 0 2.3 4.6 6.8L146.4 67z"/><linearGradient id="u" gradientUnits="userSpaceOnUse" x1="152.6" y1="68.3" x2="152.6" y2="58"><stop offset="0" stop-color="#9BDE9B"/><stop offset="1" stop-color="#006E35"/></linearGradient><path fill="url(#u)" d="M145.2 68.3s2.7-2.7 3.4-5.6c1-3 3.5-8.2 6-1.3 1.7 3.3 2.6 6 5.3 7H145z"/></g><g><linearGradient id="v" gradientUnits="userSpaceOnUse" x1="65" y1="43.9" x2="65" y2="36.4"><stop offset="0" stop-color="#9BDE9B"/><stop offset=".2" stop-color="#98DC99"/><stop offset=".4" stop-color="#8ED492"/><stop offset=".5" stop-color="#7CC887"/><stop offset=".6" stop-color="#64B677"/><stop offset=".8" stop-color="#45A062"/><stop offset=".9" stop-color="#1F854A"/><stop offset="1" stop-color="#006E35"/></linearGradient><path opacity=".8" fill="url(#v)" d="M59.6 44s2-2 2.5-4.2c1-2.2 2.7-6 4.6-1 1.2 2.5 1.8 4.4 4 5h-11z"/><linearGradient id="w" gradientUnits="userSpaceOnUse" x1="62.7" y1="43.9" x2="62.7" y2="32.2"><stop offset="0" stop-color="#9BDE9B"/><stop offset=".2" stop-color="#6CBB7B"/><stop offset=".5" stop-color="#3E985B"/><stop offset=".7" stop-color="#1C7E44"/><stop offset=".9" stop-color="#076F36"/><stop offset="1" stop-color="#006931"/></linearGradient><path fill="url(#w)" d="M57.8 43s1-1.3 1.3-4.3c0 0 2.8-14.8 5.3.2 0 0 0 1.6 3.3 5l-9.8-1z"/><linearGradient id="x" gradientUnits="userSpaceOnUse" x1="62.3" y1="43.9" x2="62.3" y2="36.4"><stop offset="0" stop-color="#9BDE9B"/><stop offset="1" stop-color="#006E35"/></linearGradient><path fill="url(#x)" d="M57 44s2-2 2.4-4.2c.8-2.2 2.6-6 4.5-1 1 2.5 1.7 4.4 3.7 5H57z"/></g><g><linearGradient id="y" gradientUnits="userSpaceOnUse" x1="58.9" y1="49.3" x2="58.9" y2="39"><stop offset="0" stop-color="#9BDE9B"/><stop offset=".2" stop-color="#98DC99"/><stop offset=".4" stop-color="#8ED492"/><stop offset=".5" stop-color="#7CC887"/><stop offset=".6" stop-color="#64B677"/><stop offset=".8" stop-color="#45A062"/><stop offset=".9" stop-color="#1F854A"/><stop offset="1" stop-color="#006E35"/></linearGradient><path opacity=".8" fill="url(#y)" d="M51.5 49.3s2.7-2.7 3.4-5.6c1-3 3.4-8.2 6-1.3 1.6 3.4 2.5 6 5.3 7H51.5z"/><linearGradient id="z" gradientUnits="userSpaceOnUse" x1="55.7" y1="49.3" x2="55.7" y2="33.3"><stop offset="0" stop-color="#9BDE9B"/><stop offset=".2" stop-color="#6CBB7B"/><stop offset=".5" stop-color="#3E985B"/><stop offset=".7" stop-color="#1C7E44"/><stop offset=".9" stop-color="#076F36"/><stop offset="1" stop-color="#006931"/></linearGradient><path fill="url(#z)" d="M49 48s1.4-1.8 1.8-5.8c0 0 3.7-20.2 7 .3 0 0 0 2.3 4.6 6.8L49 48z"/><linearGradient id="A" gradientUnits="userSpaceOnUse" x1="55.2" y1="49.3" x2="55.2" y2="39"><stop offset="0" stop-color="#9BDE9B"/><stop offset="1" stop-color="#006E35"/></linearGradient><path fill="url(#A)" d="M47.8 49.3s2.7-2.7 3.4-5.6c1-3 3.5-8.2 6-1.3 1.7 3.4 2.6 6 5.4 7H47.8z"/></g></svg>