<svg xmlns="http://www.w3.org/2000/svg" xmlns:xlink="http://www.w3.org/1999/xlink" width="200" height="200" viewBox="0 0 200 200"><path fill="#9BDE9B" d="M-7.8-7.6h220v220h-220z"/><linearGradient id="a" gradientUnits="userSpaceOnUse" x1="65.8" y1="161.9" x2="65.8" y2="159.3"><stop offset="0" stop-color="#53BC53"/><stop offset=".2" stop-color="#3EA74A"/><stop offset=".5" stop-color="#1C853D"/><stop offset=".8" stop-color="#087134"/><stop offset="1" stop-color="#006931"/></linearGradient><path fill="url(#a)" d="M62.6 162s.4-.2 1.5-1.2 1.5-1.4 1.7-1.5c.4 0 1 0 1.2.5l1.6 1.7.4.4h-6.4z"/><defs><path id="b" d="M62.6 162s.4-.2 1.5-1.2 1.5-1.4 1.7-1.5c.4 0 1 0 1.2.5l1.6 1.7.4.4h-6.4z"/></defs><clipPath id="c"><use xlink:href="#b" overflow="visible"/></clipPath><linearGradient id="d" gradientUnits="userSpaceOnUse" x1="63.5" y1="162.4" x2="65.3" y2="159.3"><stop offset="0" stop-color="#53BC53"/><stop offset=".2" stop-color="#3BA449"/><stop offset=".5" stop-color="#1B843C"/><stop offset=".8" stop-color="#077034"/><stop offset="1" stop-color="#006931"/></linearGradient><path clip-path="url(#c)" fill="url(#d)" d="M65.5 159.5s1.3.3 0 1.4c0 0-1 1-3 1l3-2.5z"/><linearGradient id="e" gradientUnits="userSpaceOnUse" x1="87.3" y1="16.6" x2="87.3" y2="12.1"><stop offset="0" stop-color="#53BC53"/><stop offset=".2" stop-color="#3EA74A"/><stop offset=".5" stop-color="#1C853D"/><stop offset=".8" stop-color="#087134"/><stop offset="1" stop-color="#006931"/></linearGradient><path fill="url(#e)" d="M81.6 16.6s.8 0 2.6-2c2-1.8 2.5-2.4 3-2.4.5-.3 1.4 0 2 .7.7.5 2.8 2.6 3 3l.7.6H81.5z"/><defs><path id="f" d="M81.6 16.6s.8 0 2.6-2c2-1.8 2.5-2.4 3-2.4.5-.3 1.4 0 2 .7.7.5 2.8 2.6 3 3l.7.6H81.5z"/></defs><clipPath id="g"><use xlink:href="#f" overflow="visible"/></clipPath><linearGradient id="h" gradientUnits="userSpaceOnUse" x1="83.3" y1="17.6" x2="86.4" y2="12.2"><stop offset="0" stop-color="#53BC53"/><stop offset=".2" stop-color="#3BA449"/><stop offset=".5" stop-color="#1B843C"/><stop offset=".8" stop-color="#077034"/><stop offset="1" stop-color="#006931"/></linearGradient><path clip-path="url(#g)" fill="url(#h)" d="M86.7 12.4s2.3.5.2 2.6c-.4.3-2 1.6-5.4 1.6l5-4.2z"/><path fill="#C6CC38" d="M150.2 119.2s-4 7.6-4.2 10.4c0 2.7 1.8 4.6 6.5 3 4.8-1.4-2.3-13.4-2.3-13.4"/><path fill="#9EB121" d="M152 122s-5 5.5-5.6 7.8c-.7 2.2.5 4.2 4.7 3.7 4.5-.4 1-11.6 1-11.6"/><path fill="#432416" d="M151.7 130.3l-1.5 1V129l.5-.3 1 .4h.2l-1-.5.7-.6-.2-.3-1.3 1v-2.5h-.3v1.2l-1-.6v.2l1 .8v2.5l-1-.4v-1.3h-.3v1l-.7-.4v.2l2 1v1.8l-1.5-.6v.2l1.4.6v3h.2v-4l1.6-1"/><path fill="#C6CC38" d="M146 123.8s-3 5.5-3 7.5 1.3 3.4 4.7 2.3c3.6-1-1.6-9.8-1.6-9.8"/><path fill="#9EB121" d="M147.3 125.7s-3.6 4-4 5.7c-.5 1.7.4 3 3.5 2.8 3-.4.6-8.5.6-8.5"/><path fill="#432416" d="M147.2 131.8l-1 .8V131l.2-.3.8.3v-.2l-.6-.3.6-.4-1 .7V129h-.4v.8l-.5-.5-.2.2.8.5v1.8l-.5-.3v-.8h-.3v.7l-.5-.3v.3l1.3.7v1.3l-1-.5v.2l1 .5v2.2h.3v-3l1.3-.7"/><path fill="#C6CC38" d="M153.2 124s-3 5.5-3 7.5 1.3 3.4 4.6 2.3c3.6-1-1.6-9.8-1.6-9.8"/><path fill="#9EB121" d="M154.5 126s-3.6 4-4 5.7c-.6 1.6.3 3 3.4 2.7 3-.3.5-8.5.5-8.5"/><path fill="#432416" d="M154.3 132l-1 .8v-1.6l.3-.3.7.2v-.2l-.6-.2.6-.4v-.2l-1 .7v-2h-.4v1l-.6-.5-.2.2.7.5v1.8l-.6-.3v-.8h-.3l.2.6-.6-.3v.2l1.4.7v1.4l-1-.5v.2l1 .6v2h.2V133l1.2-.8"/><path fill="#C6CC38" d="M84.2 17.7s-4 7.5-4.2 10.3c0 2.7 1.8 4.7 6.4 3.2 5-1.6-2.2-13.5-2.2-13.5"/><path fill="#9EB121" d="M86 20.3s-5 5.6-5.7 8c-.6 2 .6 4 4.8 3.6 4.5-.5 1-11.7 1-11.7"/><path fill="#432416" d="M85.7 28.7l-1.5 1v-2.2l.5-.4 1 .5.2-.2-1-.4.7-.6-.2-.2-1.3 1v-2.6h-.4V26L83 25v.2l.8.8v2.5l-.7-.4v-1h-.3v.8l-.7-.3v.2l1.8 1v1.8l-1.3-.7v.3l1.3.8v3h.4v-4l1.6-1"/><path fill="#C6CC38" d="M49.5 186.6s-2.8 5.3-3 7.2c0 2 1.3 3.2 4.6 2.2 3.5-1-1.5-9.4-1.5-9.4"/><path fill="#9EB121" d="M50.7 188.4s-3.4 4-4 5.5c-.3 1.5.5 3 3.5 2.5 3-.3.5-8 .5-8"/><path fill="#432416" d="M50.6 194.3l-1 .7v-1.6l.3-.2.6.3v-.2l-.6-.3.6-.3-.2-.2-1 .7v-1.8 1l-.7-.5.6.5v1.8l-.6-.3v-.8h-.2v.7l-.5-.4 1.3 1v1l-1-.4v.2l1 .5v2h.2v-2.8l1.2-.8"/><path fill="#C6CC38" d="M69 135.8s-3 5.8-3.2 7.8c0 2 1.4 3.6 5 2.5C74.4 145 69 136 69 136"/><path fill="#9EB121" d="M70.3 137.8s-3.7 4.3-4.2 6c-.4 1.7.5 3.2 3.7 3 3.3-.5.6-9 .6-9"/><path fill="#432416" d="M70.2 144.2l-1.2.8v-1.7l.4-.3.8.3v-.2l-.6-.2.5-.4-1 .6v-2h-.2v1l-.7-.5v.2l.8.6v2l-.6-.4v-1h-.3v.8l-.7-.4v.2l1.4.8v1.4l-1-.5 1 .7v2.3h.3v-3l1.3-1"/><path fill="#C6CC38" d="M122.2 106s-2 3.4-2 4.7c0 1.3 1 2.2 3 1.5 2.3-.8-1-6.3-1-6.3"/><path fill="#9EB121" d="M123 107s-2.3 2.7-2.6 3.8c-.3 1 .2 2 2.2 1.7 2-.2.4-5.4.4-5.4"/><path fill="#432416" d="M123 111l-.8.5v-1l.2-.2.5.2-.5-.3.3-.3v-.2l-.6.5V109h-.2v.7l-.4-.3.4.5v1l-.4-.2v-.5.5l-.5-.2 1 .5v1l-.6-.3.6.4v1.5h.2v-2l.7-.4"/><g><path fill="#C6CC38" d="M120.3 104.2s-2.8 5.2-3 7c0 2 1.3 3.3 4.6 2.3 3.2-1-1.7-9.3-1.7-9.3"/><path fill="#9EB121" d="M121.5 106s-3.4 4-3.8 5.4c-.5 1.6.3 3 3.2 2.6 3-.3.5-8 .5-8"/><path fill="#432416" d="M121.3 111.8l-1 .7V111l.3-.3.8.3v-.2l-.6-.2.5-.4-1 .5V109h-.2v1l-.5-.6v.2l.6.5v1.8l-.5-.3v-.8h-.2v.7l-.5-.3v.3l1.3.7v1.2l-.8-.4 1 .6v2-2.7l1.2-.7"/></g><linearGradient id="i" gradientUnits="userSpaceOnUse" x1="108.9" y1="113.4" x2="108.9" y2="109.5"><stop offset="0" stop-color="#7ACA81"/><stop offset=".2" stop-color="#5EB46F"/><stop offset=".6" stop-color="#2C8C4E"/><stop offset=".8" stop-color="#0C7239"/><stop offset="1" stop-color="#006931"/></linearGradient><path fill="url(#i)" d="M100.7 113.4s1.8-1 2.6-2c1-1 2-1.8 2.4-1.8.4-.2 1.3 0 1.8 0l1.8 1.5 1.2 1c.3 0 .6 0 1-.2 0 0 .3 0 .7-.6 0 0 1-1.3 2.4.5.2.2 1.5 1.6 2.5 1.7h-16.3z"/><linearGradient id="j" gradientUnits="userSpaceOnUse" x1="102.6" y1="115.8" x2="102.6" y2="109.3"><stop offset="0" stop-color="#7ACA81"/><stop offset=".2" stop-color="#5EB46F"/><stop offset=".6" stop-color="#2C8C4E"/><stop offset=".8" stop-color="#0C7239"/><stop offset="1" stop-color="#006931"/></linearGradient><path fill="url(#j)" d="M89 115.8s3-1.7 4.2-3.5c1.6-1.6 3.4-2.8 4-2.8.8-.3 2.3-.2 3 .2s2.2 1.5 3 2.3c0 0 1.2 1 2 1.3h1.5s.7-.3 1.4-1c0 0 1.6-2.4 4 .7.4.4 2.7 2.6 4.2 2.8H89z"/><linearGradient id="k" gradientUnits="userSpaceOnUse" x1="67.1" y1="165.2" x2="67.1" y2="161.3"><stop offset="0" stop-color="#7ACA81"/><stop offset=".2" stop-color="#5EB46F"/><stop offset=".6" stop-color="#2C8C4E"/><stop offset=".8" stop-color="#0C7239"/><stop offset="1" stop-color="#006931"/></linearGradient><path fill="url(#k)" d="M59 165.2s1.7-1 2.4-2c1-1 2-1.8 2.5-1.8h1.7l1.8 1.5s.7.6 1.2.7h1l.7-.6s1-1.3 2.5.6c0 .2 1.4 1.5 2.3 1.6H59z"/><linearGradient id="l" gradientUnits="userSpaceOnUse" x1="88.2" y1="18.5" x2="88.2" y2="12.9"><stop offset="0" stop-color="#7ACA81"/><stop offset=".2" stop-color="#5EB46F"/><stop offset=".6" stop-color="#2C8C4E"/><stop offset=".8" stop-color="#0C7239"/><stop offset="1" stop-color="#006931"/></linearGradient><path fill="url(#l)" d="M76.3 18.5s2.6-1.4 3.7-3c1.4-1.4 3-2.4 3.6-2.4.5 0 1.8 0 2.5.2.7.4 2 1.3 2.6 2 0 0 1 1 2 1.2h1s.7-.3 1.3-1c0 0 1.2-2 3.4.8.2.3 2.2 2.2 3.6 2.3H76.3z"/></svg>