<svg xmlns="http://www.w3.org/2000/svg" xmlns:xlink="http://www.w3.org/1999/xlink" width="80" height="80" viewBox="0 0 80 80"><path fill="#91D891" d="M-10-10H90V90H-10z"/><linearGradient id="a" gradientUnits="userSpaceOnUse" x1="57.4" y1="9" x2="57.4" y2="7.5"><stop offset="0" stop-color="#60C560"/><stop offset=".2" stop-color="#43A952"/><stop offset=".6" stop-color="#1F8640"/><stop offset=".8" stop-color="#087135"/><stop offset="1" stop-color="#006931"/></linearGradient><path fill="url(#a)" d="M55.5 9s.3 0 1-.6l.8-.8c.2 0 .5 0 .7.2l1 1 .2.2h-3.7z"/><defs><path id="b" d="M55.5 9s.3 0 1-.6l.8-.8c.2 0 .5 0 .7.2l1 1 .2.2h-3.7z"/></defs><clipPath id="c"><use xlink:href="#b" overflow="visible"/></clipPath><linearGradient id="d" gradientUnits="userSpaceOnUse" x1="56.5" y1="9" x2="56.5" y2="7.6"><stop offset="0" stop-color="#3BB44F"/><stop offset=".1" stop-color="#34AB4C"/><stop offset=".5" stop-color="#18873D"/><stop offset=".8" stop-color="#067134"/><stop offset="1" stop-color="#006931"/></linearGradient><path clip-path="url(#c)" fill="url(#d)" d="M57.2 7.6s.7.2 0 1c0 0-.6.4-1.7.4l1.7-1.4z"/><linearGradient id="e" gradientUnits="userSpaceOnUse" x1="55.9" y1="68.4" x2="55.9" y2="65.9"><stop offset="0" stop-color="#60C560"/><stop offset=".2" stop-color="#43A952"/><stop offset=".6" stop-color="#1F8640"/><stop offset=".8" stop-color="#087135"/><stop offset="1" stop-color="#006931"/></linearGradient><path fill="url(#e)" d="M52.7 68.4s.5 0 1.5-1 1.3-1.5 1.6-1.5c.3-.2.8 0 1 .3l1.7 1.7.5.4h-6.3z"/><defs><path id="f" d="M52.7 68.4s.5 0 1.5-1 1.3-1.5 1.6-1.5c.3-.2.8 0 1 .3l1.7 1.7.5.4h-6.3z"/></defs><clipPath id="g"><use xlink:href="#f" overflow="visible"/></clipPath><linearGradient id="h" gradientUnits="userSpaceOnUse" x1="54.4" y1="68.4" x2="54.4" y2="66"><stop offset="0" stop-color="#3BB44F"/><stop offset=".1" stop-color="#34AB4C"/><stop offset=".5" stop-color="#18873D"/><stop offset=".8" stop-color="#067134"/><stop offset="1" stop-color="#006931"/></linearGradient><path clip-path="url(#g)" fill="url(#h)" d="M55.5 66s1.3.3 0 1.5c0 0-1 1-2.8 1l2.8-2.5z"/><linearGradient id="i" gradientUnits="userSpaceOnUse" x1="56.1" y1="69.1" x2="56.1" y2="67.1"><stop offset="0" stop-color="#7ACA81"/><stop offset=".2" stop-color="#5EB46F"/><stop offset=".6" stop-color="#2C8C4E"/><stop offset=".8" stop-color="#0C7239"/><stop offset="1" stop-color="#006931"/></linearGradient><path fill="url(#i)" d="M52 69s1-.5 1.4-1c.5-.5 1-.8 1.2-.8h.8l1 .7.5.3h.4l.4-.3s.4-.7 1 .2l1.4 1h-8z"/><g><linearGradient id="j" gradientUnits="userSpaceOnUse" x1="44.9" y1="3.2" x2="44.9" y2="1.3"><stop offset="0" stop-color="#7ACA81"/><stop offset=".2" stop-color="#5EB46F"/><stop offset=".6" stop-color="#2C8C4E"/><stop offset=".8" stop-color="#0C7239"/><stop offset="1" stop-color="#006931"/></linearGradient><path fill="url(#j)" d="M41 3.2s.8-.5 1.2-1c.4-.5 1-1 1.2-1 .2 0 .6 0 .8.2.2 0 .7.4 1 .7l.5.5h.4s.3 0 .5-.3c0 0 .5-.7 1.2.2 0 0 .8.8 1.2.8h-8z"/><linearGradient id="k" gradientUnits="userSpaceOnUse" x1="41.8" y1="4.4" x2="41.8" y2="1.2"><stop offset="0" stop-color="#7ACA81"/><stop offset=".2" stop-color="#5EB46F"/><stop offset=".6" stop-color="#2C8C4E"/><stop offset=".8" stop-color="#0C7239"/><stop offset="1" stop-color="#006931"/></linearGradient><path fill="url(#k)" d="M35 4.4s1.6-.8 2.2-1.7c.8-.8 1.7-1.4 2-1.4h1.5L42 2.6s.7.6 1.2.7h.6l.7-.5s.8-1.2 2 .4c.2.3 1.3 1.4 2 1.4H35z"/></g><g><linearGradient id="l" gradientUnits="userSpaceOnUse" x1="48" y1="76.7" x2="48" y2="74.9"><stop offset="0" stop-color="#60C560"/><stop offset=".2" stop-color="#43A952"/><stop offset=".6" stop-color="#1F8640"/><stop offset=".8" stop-color="#087135"/><stop offset="1" stop-color="#006931"/></linearGradient><path fill="url(#l)" d="M45.7 76.7s.3 0 1-.8c.8-.8 1-1 1.2-1 0-.2.5 0 .8.2l1.2 1.2.3.3h-4.6z"/><defs><path id="m" d="M45.7 76.7s.3 0 1-.8c.8-.8 1-1 1.2-1 0-.2.5 0 .8.2l1.2 1.2.3.3h-4.6z"/></defs><clipPath id="n"><use xlink:href="#m" overflow="visible"/></clipPath><linearGradient id="o" gradientUnits="userSpaceOnUse" x1="46.9" y1="76.7" x2="46.9" y2="75"><stop offset="0" stop-color="#3BB44F"/><stop offset=".1" stop-color="#34AB4C"/><stop offset=".5" stop-color="#18873D"/><stop offset=".8" stop-color="#067134"/><stop offset="1" stop-color="#006931"/></linearGradient><path clip-path="url(#n)" fill="url(#o)" d="M47.7 75s1 .2 0 1c0 .2-.6.7-2 .7l2-1.7z"/><linearGradient id="p" gradientUnits="userSpaceOnUse" x1="45" y1="76.8" x2="45" y2="74.3"><stop offset="0" stop-color="#60C560"/><stop offset=".2" stop-color="#43A952"/><stop offset=".6" stop-color="#1F8640"/><stop offset=".8" stop-color="#087135"/><stop offset="1" stop-color="#006931"/></linearGradient><path fill="url(#p)" d="M42 76.8s.4 0 1.4-1c1-1 1.3-1.4 1.6-1.4.2 0 .7 0 1 .4l1.6 1.6.4.4h-6z"/><defs><path id="q" d="M42 76.8s.4 0 1.4-1c1-1 1.3-1.4 1.6-1.4.2 0 .7 0 1 .4l1.6 1.6.4.4h-6z"/></defs><clipPath id="r"><use xlink:href="#q" overflow="visible"/></clipPath><linearGradient id="s" gradientUnits="userSpaceOnUse" x1="43.7" y1="76.8" x2="43.7" y2="74.5"><stop offset="0" stop-color="#3BB44F"/><stop offset=".1" stop-color="#34AB4C"/><stop offset=".5" stop-color="#18873D"/><stop offset=".8" stop-color="#067134"/><stop offset="1" stop-color="#006931"/></linearGradient><path clip-path="url(#r)" fill="url(#s)" d="M44.7 74.5s1.2.3 0 1.4c0 0-1 .7-2.7.8l2.7-2.3z"/><linearGradient id="t" gradientUnits="userSpaceOnUse" x1="45.6" y1="77.5" x2="45.6" y2="74.7"><stop offset="0" stop-color="#7ACA81"/><stop offset=".2" stop-color="#5EB46F"/><stop offset=".6" stop-color="#2C8C4E"/><stop offset=".8" stop-color="#0C7239"/><stop offset="1" stop-color="#006931"/></linearGradient><path fill="url(#t)" d="M39.6 77.5s1.3-.7 2-1.5c.6-.7 1.4-1.3 1.7-1.3h1.3L46 76l.8.4h.6s.3 0 .6-.4c0 0 .7-1 1.8.3 0 .2 1 1.2 1.8 1.2h-12z"/></g><linearGradient id="u" gradientUnits="userSpaceOnUse" x1="41.3" y1="11.3" x2="41.3" y2="10"><stop offset="0" stop-color="#7ACA81"/><stop offset=".2" stop-color="#5EB46F"/><stop offset=".6" stop-color="#2C8C4E"/><stop offset=".8" stop-color="#0C7239"/><stop offset="1" stop-color="#006931"/></linearGradient><path fill="url(#u)" d="M38.6 11.3s.6-.3 1-.7l.6-.6h.6l.6.5s.2.3.4.3h.3l.4-.2s.2-.5.7 0c.2.2.6.7 1 .7h-5.4z"/></svg>