<svg xmlns="http://www.w3.org/2000/svg" xmlns:xlink="http://www.w3.org/1999/xlink" width="110" height="110" viewBox="0 0 110 110"><path fill="#9BDE9B" d="M-5-5h120v120H-5z"/><linearGradient id="a" gradientUnits="userSpaceOnUse" x1="97.7" y1="21.8" x2="97.7" y2="18.6"><stop offset="0" stop-color="#60C560"/><stop offset=".2" stop-color="#43A952"/><stop offset=".6" stop-color="#1F8640"/><stop offset=".8" stop-color="#087135"/><stop offset="1" stop-color="#006931"/></linearGradient><path fill="url(#a)" d="M93.8 21.8s.5 0 1.8-1.4 1.7-1.8 2-1.8c.4 0 1 0 1.5.5l2.2 2.2.5.6h-8z"/><defs><path id="b" d="M93.8 21.8s.5 0 1.8-1.4 1.7-1.8 2-1.8c.4 0 1 0 1.5.5l2.2 2.2.5.6h-8z"/></defs><clipPath id="c"><use xlink:href="#b" overflow="visible"/></clipPath><linearGradient id="d" gradientUnits="userSpaceOnUse" x1="95.9" y1="21.8" x2="95.9" y2="18.8"><stop offset="0" stop-color="#3BB44F"/><stop offset=".1" stop-color="#34AB4C"/><stop offset=".5" stop-color="#18873D"/><stop offset=".8" stop-color="#067134"/><stop offset="1" stop-color="#006931"/></linearGradient><path clip-path="url(#c)" fill="url(#d)" d="M97.3 18.8s1.6.3.2 1.8c-.3.2-1.4 1-3.7 1.2l3.5-3z"/><linearGradient id="e" gradientUnits="userSpaceOnUse" x1="79.1" y1="103.1" x2="79.1" y2="99.1"><stop offset="0" stop-color="#7ACA81"/><stop offset=".2" stop-color="#5EB46F"/><stop offset=".6" stop-color="#2C8C4E"/><stop offset=".8" stop-color="#0C7239"/><stop offset="1" stop-color="#006931"/></linearGradient><path fill="url(#e)" d="M70.8 103s1.8-1 2.6-2c1-1 2-1.8 2.5-1.8.3-.2 1.2 0 1.7 0s1.3 1 1.8 1.5c0 0 .7.7 1.3 1 .2 0 .5 0 .8-.2 0 0 .4 0 1-.6 0 0 .8-1.5 2.3.4 0 .2 1.5 1.6 2.5 1.7H70.8z"/><linearGradient id="f" gradientUnits="userSpaceOnUse" x1="95.4" y1="86.2" x2="95.4" y2="84.1"><stop offset="0" stop-color="#7ACA81"/><stop offset=".2" stop-color="#5EB46F"/><stop offset=".6" stop-color="#2C8C4E"/><stop offset=".8" stop-color="#0C7239"/><stop offset="1" stop-color="#006931"/></linearGradient><path fill="url(#f)" d="M91 86.2s1-.6 1.3-1.2c.6-.5 1.2-1 1.4-1 .2 0 .7 0 1 .2l1 .7.6.4h.5s.2 0 .4-.4c0 0 .5-.7 1.3.3 0 0 1 1 1.4 1h-9z"/><linearGradient id="g" gradientUnits="userSpaceOnUse" x1="75.4" y1="52.5" x2="75.4" y2="49.7"><stop offset="0" stop-color="#7ACA81"/><stop offset=".2" stop-color="#5EB46F"/><stop offset=".6" stop-color="#2C8C4E"/><stop offset=".8" stop-color="#0C7239"/><stop offset="1" stop-color="#006931"/></linearGradient><path fill="url(#g)" d="M69.7 52.5s1.2-.8 1.8-1.5c.6-.7 1.4-1.2 1.7-1.2h1.2l1.3 1s.5.5 1 .6h.4s.4 0 .7-.5c0 0 .7-1 1.7.3.2.2 1 1 1.8 1.2H69.7z"/></svg>