<svg xmlns="http://www.w3.org/2000/svg" xmlns:xlink="http://www.w3.org/1999/xlink" width="160" height="160" viewBox="0 0 160 160"><path fill="#53BC53" d="M-5-5h170v170H-5z"/><linearGradient id="a" gradientUnits="userSpaceOnUse" x1="129.5" y1="55.4" x2="129.5" y2="50.8"><stop offset="0" stop-color="#53BC53"/><stop offset=".2" stop-color="#3EA74A"/><stop offset=".5" stop-color="#1C853D"/><stop offset=".8" stop-color="#087134"/><stop offset="1" stop-color="#006931"/></linearGradient><path fill="url(#a)" d="M123.7 55.4s.8 0 2.7-2c2-1.8 2.5-2.5 3-2.5.5-.4 1.4 0 2 .6.7.7 3 2.8 3 3l.8.8h-11.5z"/><defs><path id="b" d="M123.7 55.4s.8 0 2.7-2c2-1.8 2.5-2.5 3-2.5.5-.4 1.4 0 2 .6.7.7 3 2.8 3 3l.8.8h-11.5z"/></defs><clipPath id="c"><use xlink:href="#b" overflow="visible"/></clipPath><linearGradient id="d" gradientUnits="userSpaceOnUse" x1="125.4" y1="56.4" x2="128.6" y2="50.9"><stop offset="0" stop-color="#53BC53"/><stop offset=".2" stop-color="#3BA449"/><stop offset=".5" stop-color="#1B843C"/><stop offset=".8" stop-color="#077034"/><stop offset="1" stop-color="#006931"/></linearGradient><path clip-path="url(#c)" fill="url(#d)" d="M129 51s2.2.6 0 2.7c-.2.3-1.8 1.7-5.3 1.7L129 51z"/><linearGradient id="e" gradientUnits="userSpaceOnUse" x1="134.2" y1="148.1" x2="134.2" y2="142.6"><stop offset="0" stop-color="#53BC53"/><stop offset=".2" stop-color="#3EA74A"/><stop offset=".5" stop-color="#1C853D"/><stop offset=".8" stop-color="#087134"/><stop offset="1" stop-color="#006931"/></linearGradient><path fill="url(#e)" d="M127.4 148s1 0 3.2-2.2c2.2-2.3 3-3 3.5-3 .8-.4 1.8 0 2.6.8l3.6 3.6 1 1h-13.8z"/><defs><path id="f" d="M127.4 148s1 0 3.2-2.2c2.2-2.3 3-3 3.5-3 .8-.4 1.8 0 2.6.8l3.6 3.6 1 1h-13.8z"/></defs><clipPath id="g"><use xlink:href="#f" overflow="visible"/></clipPath><linearGradient id="h" gradientUnits="userSpaceOnUse" x1="129.5" y1="149.3" x2="133.3" y2="142.7"><stop offset="0" stop-color="#53BC53"/><stop offset=".2" stop-color="#3BA449"/><stop offset=".5" stop-color="#1B843C"/><stop offset=".8" stop-color="#077034"/><stop offset="1" stop-color="#006931"/></linearGradient><path clip-path="url(#g)" fill="url(#h)" d="M133.5 143s2.8.6.3 3c-.3.5-2.3 2-6.4 2l6-5z"/><linearGradient id="i" gradientUnits="userSpaceOnUse" x1="93.1" y1="37.5" x2="93.1" y2="33.3"><stop offset="0" stop-color="#53BC53"/><stop offset=".2" stop-color="#3EA74A"/><stop offset=".5" stop-color="#1C853D"/><stop offset=".8" stop-color="#087134"/><stop offset="1" stop-color="#006931"/></linearGradient><path fill="url(#i)" d="M88 37.5s.6 0 2.3-1.8 2.3-2.3 2.7-2.4c.5-.2 1.3 0 2 .7l2.6 2.8.7.7H88z"/><defs><path id="j" d="M88 37.5s.6 0 2.3-1.8 2.3-2.3 2.7-2.4c.5-.2 1.3 0 2 .7l2.6 2.8.7.7H88z"/></defs><clipPath id="k"><use xlink:href="#j" overflow="visible"/></clipPath><linearGradient id="l" gradientUnits="userSpaceOnUse" x1="89.4" y1="38.4" x2="92.3" y2="33.4"><stop offset="0" stop-color="#53BC53"/><stop offset=".2" stop-color="#3BA449"/><stop offset=".5" stop-color="#1B843C"/><stop offset=".8" stop-color="#077034"/><stop offset="1" stop-color="#006931"/></linearGradient><path clip-path="url(#k)" fill="url(#l)" d="M92.5 33.5s2 .5.3 2.4c-.3.2-1.8 1.4-5 1.5l4.7-4z"/><g><linearGradient id="m" gradientUnits="userSpaceOnUse" x1="128.7" y1="152.5" x2="128.7" y2="145.4"><stop offset="0" stop-color="#53BC53"/><stop offset=".2" stop-color="#3EA74A"/><stop offset=".5" stop-color="#1C853D"/><stop offset=".8" stop-color="#087134"/><stop offset="1" stop-color="#006931"/></linearGradient><path fill="url(#m)" d="M119.8 152.5s1.2 0 4-3 4-4 4.7-4c.8-.4 2.2 0 3.2 1 1 1.2 4.4 4.5 4.7 5l1 1H120z"/><defs><path id="n" d="M119.8 152.5s1.2 0 4-3 4-4 4.7-4c.8-.4 2.2 0 3.2 1 1 1.2 4.4 4.5 4.7 5l1 1H120z"/></defs><clipPath id="o"><use xlink:href="#n" overflow="visible"/></clipPath><linearGradient id="p" gradientUnits="userSpaceOnUse" x1="122.5" y1="154" x2="127.4" y2="145.5"><stop offset="0" stop-color="#53BC53"/><stop offset=".2" stop-color="#3BA449"/><stop offset=".5" stop-color="#1B843C"/><stop offset=".8" stop-color="#077034"/><stop offset="1" stop-color="#006931"/></linearGradient><path clip-path="url(#o)" fill="url(#p)" d="M127.7 145.8s3.6.8.4 4c-.4.6-3 2.7-8.2 2.7l8-6.7z"/></g><g><linearGradient id="q" gradientUnits="userSpaceOnUse" x1="96.7" y1="42.5" x2="96.7" y2="35.4"><stop offset="0" stop-color="#53BC53"/><stop offset=".2" stop-color="#3EA74A"/><stop offset=".5" stop-color="#1C853D"/><stop offset=".8" stop-color="#087134"/><stop offset="1" stop-color="#006931"/></linearGradient><path fill="url(#q)" d="M88 42.5s1 0 4-3 4-4 4.5-4c1-.4 2.3 0 3.3 1 1 1.2 4.3 4.5 4.6 5l1 1H88z"/><defs><path id="r" d="M88 42.5s1 0 4-3 4-4 4.5-4c1-.4 2.3 0 3.3 1 1 1.2 4.3 4.5 4.6 5l1 1H88z"/></defs><clipPath id="s"><use xlink:href="#r" overflow="visible"/></clipPath><linearGradient id="t" gradientUnits="userSpaceOnUse" x1="90.5" y1="44" x2="95.5" y2="35.5"><stop offset="0" stop-color="#53BC53"/><stop offset=".2" stop-color="#3BA449"/><stop offset=".5" stop-color="#1B843C"/><stop offset=".8" stop-color="#077034"/><stop offset="1" stop-color="#006931"/></linearGradient><path clip-path="url(#s)" fill="url(#t)" d="M95.8 35.8s3.5.8.4 4c-.5.6-3 2.7-8.3 2.7l7.8-6.7z"/></g><g><linearGradient id="u" gradientUnits="userSpaceOnUse" x1="92.9" y1="75" x2="92.9" y2="69.4"><stop offset="0" stop-color="#53BC53"/><stop offset=".2" stop-color="#3EA74A"/><stop offset=".5" stop-color="#1C853D"/><stop offset=".8" stop-color="#087134"/><stop offset="1" stop-color="#006931"/></linearGradient><path fill="url(#u)" d="M86 75s1 0 3.3-2.4c2.2-2.2 3-3 3.5-3 .7-.3 1.7 0 2.5.8L99 74l.8 1H86z"/><defs><path id="v" d="M86 75s1 0 3.3-2.4c2.2-2.2 3-3 3.5-3 .7-.3 1.7 0 2.5.8L99 74l.8 1H86z"/></defs><clipPath id="w"><use xlink:href="#v" overflow="visible"/></clipPath><linearGradient id="x" gradientUnits="userSpaceOnUse" x1="88.1" y1="76.2" x2="92" y2="69.5"><stop offset="0" stop-color="#53BC53"/><stop offset=".2" stop-color="#3BA449"/><stop offset=".5" stop-color="#1B843C"/><stop offset=".8" stop-color="#077034"/><stop offset="1" stop-color="#006931"/></linearGradient><path clip-path="url(#w)" fill="url(#x)" d="M92.2 69.8s2.8.6.3 3.2c-.4.3-2.3 2-6.4 2l6.2-5.2z"/><g><linearGradient id="y" gradientUnits="userSpaceOnUse" x1="86.2" y1="75" x2="86.2" y2="66.8"><stop offset="0" stop-color="#53BC53"/><stop offset=".2" stop-color="#3EA74A"/><stop offset=".5" stop-color="#1C853D"/><stop offset=".8" stop-color="#087134"/><stop offset="1" stop-color="#006931"/></linearGradient><path fill="url(#y)" d="M76 75s1.4-.2 4.8-3.5C84 68 85.2 67 86 67c1-.5 2.5 0 3.7 1.2l5.3 5.4 1.3 1.4H76z"/><defs><path id="z" d="M76 75s1.4-.2 4.8-3.5C84 68 85.2 67 86 67c1-.5 2.5 0 3.7 1.2l5.3 5.4 1.3 1.4H76z"/></defs><clipPath id="A"><use xlink:href="#z" overflow="visible"/></clipPath><linearGradient id="B" gradientUnits="userSpaceOnUse" x1="79.1" y1="76.7" x2="84.7" y2="66.9"><stop offset="0" stop-color="#53BC53"/><stop offset=".2" stop-color="#3BA449"/><stop offset=".5" stop-color="#1B843C"/><stop offset=".8" stop-color="#077034"/><stop offset="1" stop-color="#006931"/></linearGradient><path clip-path="url(#A)" fill="url(#B)" d="M85 67.3s4.2 1 .6 4.7c-.6.5-3.5 3-9.5 3l9-7.7z"/></g></g><g><linearGradient id="C" gradientUnits="userSpaceOnUse" x1="139.3" y1="58.2" x2="139.3" y2="53.6"><stop offset="0" stop-color="#53BC53"/><stop offset=".2" stop-color="#3EA74A"/><stop offset=".5" stop-color="#1C853D"/><stop offset=".8" stop-color="#087134"/><stop offset="1" stop-color="#006931"/></linearGradient><path fill="url(#C)" d="M133.6 58.2s.7 0 2.6-2 2.5-2.5 3-2.6c.5-.2 1.4 0 2 .8.8.7 3 2.8 3 3l.8.8h-11.4z"/><defs><path id="D" d="M133.6 58.2s.7 0 2.6-2 2.5-2.5 3-2.6c.5-.2 1.4 0 2 .8.8.7 3 2.8 3 3l.8.8h-11.4z"/></defs><clipPath id="E"><use xlink:href="#D" overflow="visible"/></clipPath><linearGradient id="F" gradientUnits="userSpaceOnUse" x1="135.3" y1="59.2" x2="138.5" y2="53.7"><stop offset="0" stop-color="#53BC53"/><stop offset=".2" stop-color="#3BA449"/><stop offset=".5" stop-color="#1B843C"/><stop offset=".8" stop-color="#077034"/><stop offset="1" stop-color="#006931"/></linearGradient><path clip-path="url(#E)" fill="url(#F)" d="M138.7 54s2.3.4.2 2.5c-.4.3-2 1.7-5.4 1.7l5-4.3z"/><g><linearGradient id="G" gradientUnits="userSpaceOnUse" x1="133.6" y1="58.2" x2="133.6" y2="51.3"><stop offset="0" stop-color="#53BC53"/><stop offset=".2" stop-color="#3EA74A"/><stop offset=".5" stop-color="#1C853D"/><stop offset=".8" stop-color="#087134"/><stop offset="1" stop-color="#006931"/></linearGradient><path fill="url(#G)" d="M125.2 58.2s1 0 4-3 3.6-3.7 4.3-3.7c.8-.4 2 0 3 1l4.6 4.6 1 1.2h-16.8z"/><defs><path id="H" d="M125.2 58.2s1 0 4-3 3.6-3.7 4.3-3.7c.8-.4 2 0 3 1l4.6 4.6 1 1.2h-16.8z"/></defs><clipPath id="I"><use xlink:href="#H" overflow="visible"/></clipPath><linearGradient id="J" gradientUnits="userSpaceOnUse" x1="127.7" y1="59.7" x2="132.4" y2="51.5"><stop offset="0" stop-color="#53BC53"/><stop offset=".2" stop-color="#3BA449"/><stop offset=".5" stop-color="#1B843C"/><stop offset=".8" stop-color="#077034"/><stop offset="1" stop-color="#006931"/></linearGradient><path clip-path="url(#I)" fill="url(#J)" d="M132.8 51.8s3.3.8.3 4c-.4.3-2.7 2.3-7.8 2.4l7.5-6.4z"/></g></g></svg>