<svg xmlns="http://www.w3.org/2000/svg" width="660" height="660" viewBox="0 0 660 660"><path fill="#D6D692" d="M-5-5h670v670H-5z"/><g fill="#FFF"><path d="M181.8 74.3H359V76H182z"/><circle cx="182.7" cy="68.8" r="7.1"/><circle cx="349.1" cy="68.8" r="7.1"/><circle cx="191.1" cy="66.4" r="5.3"/><circle cx="363.4" cy="57.8" r="4.4"/><circle cx="210.7" cy="55.8" r="19.6"/><circle cx="329.5" cy="55.8" r="19.6"/><circle cx="232.6" cy="58.7" r="17.3"/><circle cx="275.6" cy="44.1" r="31.9"/><path d="M307.5 24c0 .6-.5 1-1.2 1h-8.5c-.6 0-1.2-.4-1.2-1 0-.7.6-1.2 1.2-1.2h8.5c.7 0 1.2.5 1.2 1.2zm10.2 5c0 .6-.8 1-2 1H302c-1 0-2-.4-2-1 0-.7 1-1.2 2-1.2h13.8c1 0 2 .5 2 1.2z"/><circle cx="320.8" cy="29" r="1.4"/><circle cx="309.9" cy="24" r="1.4"/><circle cx="362.6" cy="75.3" r=".9"/><path d="M181.8 68.8l16-7.2 34.8-8.2 45-4.7 26.4 3s6-2.2 8.7 1.7 33 13.5 33 13.5l3.4 9H182.8l-1-7.2z"/></g><g fill="#FFF"><path d="M269.6 140.2h116.7v1H269.6z"/><circle cx="270.2" cy="136.6" r="4.7"/><circle cx="379.7" cy="136.6" r="4.7"/><circle cx="275.7" cy="135" r="3.5"/><circle cx="389.2" cy="129.4" r="2.9"/><circle cx="288.6" cy="128" r="12.9"/><circle cx="366.8" cy="128" r="12.9"/><circle cx="303.1" cy="130" r="11.4"/><circle cx="331.4" cy="120.4" r="21"/><path d="M352.3 107c0 .5-.3 1-.7 1H346c-.5 0-.8-.5-.8-1 0-.3.3-.7.8-.7h5.6c.4 0 .7.4.7.8zm6.8 3.4c0 .4-.5.8-1.2.8h-9c-.8 0-1.3-.4-1.3-.8s.5-.8 1.2-.8h9c.8 0 1.4.4 1.4.8z"/><circle cx="361.1" cy="110.4" r=".9"/><circle cx="353.9" cy="107.1" r=".9"/><circle cx="388.6" cy="140.9" r=".6"/><path d="M269.6 136.6L280 132l23-5.5 29.7-3 17.3 1.8s4-1.4 5.8 1.2c1.8 2.6 21.6 9 21.6 9l2.3 5.8H270.2l-.6-4.7z"/></g><path fill="#FFF" d="M35.3 148.7c-.7 0-1.2-.6-1.2-1.3 0 .7-.5 1.3-1 1.3-.8 0-1.3-.6-1.3-1.3 0 .7-.6 1.3-1.3 1.3-.6 0-1.2-.6-1.2-1.3 0 .7-.5 1.3-1.2 1.3-.5 0-1-.3-1-.7l2.7-4.8c1-1.5 3-1.5 4 0l2.7 4.8c-.2.4-.6.7-1 .7z"/><linearGradient id="a" gradientUnits="userSpaceOnUse" x1="31.7" y1="155.3" x2="31.7" y2="147.4"><stop offset="0" stop-color="#C8B38A"/><stop offset=".1" stop-color="#BBA681"/><stop offset=".3" stop-color="#998569"/><stop offset=".6" stop-color="#816D57"/><stop offset=".8" stop-color="#725F4D"/><stop offset="1" stop-color="#6D5A49"/></linearGradient><path fill="url(#a)" d="M27 148c0 .4.5.6 1 .6.7 0 1.2-.5 1.2-1.2 0 .7.6 1.3 1.2 1.3.7 0 1.3-.6 1.3-1.3 0 .7.5 1.3 1.2 1.3.5 0 1-.6 1-1.3 0 .7.6 1.3 1.3 1.3.5 0 1-.3 1-.7l4.3 7.3h-18L27 148z"/><path fill="#FFF" d="M57 148.7c-.7 0-1.3-.6-1.3-1.3 0 .7-.5 1.3-1.2 1.3-.6 0-1.2-.6-1.2-1.3 0 .7-.5 1.3-1.2 1.3-.6 0-1-.6-1-1.3 0 .7-.7 1.3-1.3 1.3-.5 0-1-.3-1-.7l2.6-4.8c1-1.5 3-1.5 4 0L58 148c0 .4-.6.7-1 .7z"/><linearGradient id="b" gradientUnits="userSpaceOnUse" x1="53.3" y1="155.3" x2="53.3" y2="147.4"><stop offset="0" stop-color="#C8B38A"/><stop offset=".1" stop-color="#BBA681"/><stop offset=".3" stop-color="#998569"/><stop offset=".6" stop-color="#816D57"/><stop offset=".8" stop-color="#725F4D"/><stop offset="1" stop-color="#6D5A49"/></linearGradient><path fill="url(#b)" d="M48.6 148c.2.4.6.6 1 .6.7 0 1.3-.5 1.3-1.2 0 .7.4 1.3 1 1.3.8 0 1.3-.6 1.3-1.3 0 .7.6 1.3 1.2 1.3.7 0 1.2-.6 1.2-1.3 0 .7.6 1.3 1.3 1.3.4 0 1-.3 1-.7l4.3 7.3h-18l4.3-7.3z"/><path fill="#FFF" d="M47.7 146.8c-.8 0-1.5-.7-1.5-1.5 0 1-.7 1.5-1.6 1.5-.8 0-1.5-.7-1.5-1.5 0 1-.6 1.5-1.5 1.5s-1.5-.7-1.5-1.5c0 1-.7 1.5-1.6 1.5-.6 0-1-.3-1.4-1l3.5-6c1.2-2 4-2 5 0l3.6 6c0 .7-.7 1-1.3 1z"/><linearGradient id="c" gradientUnits="userSpaceOnUse" x1="43.1" y1="155.3" x2="43.1" y2="145.3"><stop offset="0" stop-color="#C8B38A"/><stop offset="1" stop-color="#6D5A49"/></linearGradient><path fill="url(#c)" d="M37 146c.3.5.8.8 1.4.8 1 0 1.6-.7 1.6-1.5 0 .8.7 1.5 1.5 1.5 1 0 1.6-.7 1.6-1.5 0 .8.8 1.5 1.6 1.5 1 0 1.6-.7 1.6-1.5 0 .8.7 1.5 1.5 1.5.6 0 1.2-.3 1.4-1l5.5 9.5H31.7L37 146z"/><path fill="#FFF" d="M62.4 151c0-.6-.4-1-1-1h-.3c-.4-.5-.8-.8-1.3-.8s-1 .2-1.2.5c0 .2-.2.2-.4.2H58c-.4 0-.8.4-1 1 0 0 .3.4.6.4H62c.2 0 .4-.3.4-.5zM33 139c0-1-.7-1.8-1.7-2-.2 0-.5 0-.7.2h-.3c-.5-1-1.3-1.5-2.3-1.5-1 0-1.6.4-2 1-.3.3-.6.4-1 .4h-.4c-1 .2-1.6 1-1.7 2-.2.4.2.8.7.8h8.5c.5 0 1-.4 1-1zM286 171.8c-.5 0-1-.5-1-1.2 0 .7-.6 1.2-1.3 1.2-.7 0-1.2-.5-1.2-1.2 0 .7-.5 1.2-1.2 1.2s-1.2-.5-1.2-1.2c0 .7-.5 1.2-1.2 1.2-.4 0-1-.3-1-.7l2.7-4.6c1-1.6 3-1.6 4 0l2.7 4.7c-.2.5-.6.8-1 .8z"/><linearGradient id="d" gradientUnits="userSpaceOnUse" x1="282.5" y1="178.4" x2="282.5" y2="170.6"><stop offset="0" stop-color="#C8B38A"/><stop offset=".1" stop-color="#BBA681"/><stop offset=".3" stop-color="#998569"/><stop offset=".6" stop-color="#816D57"/><stop offset=".8" stop-color="#725F4D"/><stop offset="1" stop-color="#6D5A49"/></linearGradient><path fill="url(#d)" d="M277.8 171c0 .5.6.8 1 .8.7 0 1.3-.5 1.3-1.2 0 .7.6 1.2 1.3 1.2.7 0 1.2-.5 1.2-1.2 0 .7.5 1.2 1.2 1.2s1.2-.5 1.2-1.2c0 .7.5 1.2 1 1.2.6 0 1-.3 1.2-.7l4.3 7.4h-18l4.3-7.3z"/><path fill="#FFF" d="M307.8 171.8c-.7 0-1.2-.5-1.2-1.2 0 .7-.6 1.2-1.2 1.2s-1.3-.5-1.3-1.2c0 .7-.4 1.2-1 1.2-.7 0-1.3-.5-1.3-1.2 0 .7-.5 1.2-1.2 1.2-.5 0-1-.3-1-.7l2.6-4.6c1-1.6 3.3-1.6 4 0l3 4.7c-.3.5-.7.8-1.2.8z"/><linearGradient id="e" gradientUnits="userSpaceOnUse" x1="304.1" y1="178.4" x2="304.1" y2="170.6"><stop offset="0" stop-color="#C8B38A"/><stop offset=".1" stop-color="#BBA681"/><stop offset=".3" stop-color="#998569"/><stop offset=".6" stop-color="#816D57"/><stop offset=".8" stop-color="#725F4D"/><stop offset="1" stop-color="#6D5A49"/></linearGradient><path fill="url(#e)" d="M299.4 171c.2.5.6.8 1 .8.8 0 1.3-.5 1.3-1.2 0 .7.6 1.2 1.2 1.2s1-.5 1-1.2c0 .7.7 1.2 1.4 1.2s1.2-.5 1.2-1.2c0 .7.5 1.2 1.2 1.2.5 0 1-.3 1-.7l4.3 7.4h-17.8l4.2-7.3z"/><path fill="#FFF" d="M298.6 170c-1 0-1.6-.7-1.6-1.5 0 .8-.7 1.5-1.5 1.5-1 0-1.6-.7-1.6-1.5 0 .8-.8 1.5-1.6 1.5-1 0-1.6-.7-1.6-1.5 0 .8-.7 1.5-1.5 1.5-.7 0-1.2-.4-1.4-1l3.4-6c1-2 4-2 5 0l3.6 6c-.3.6-.8 1-1.4 1z"/><linearGradient id="f" gradientUnits="userSpaceOnUse" x1="293.9" y1="178.4" x2="293.9" y2="168.5"><stop offset="0" stop-color="#C8B38A"/><stop offset="1" stop-color="#6D5A49"/></linearGradient><path fill="url(#f)" d="M288 169c0 .6.6 1 1.3 1 .8 0 1.5-.7 1.5-1.5 0 .8.7 1.5 1.6 1.5.8 0 1.5-.7 1.5-1.5 0 .8.6 1.5 1.5 1.5s1.5-.7 1.5-1.5c0 .8.7 1.5 1.6 1.5.6 0 1-.4 1.4-1l5.3 9.4h-22.8l5.4-9.3z"/><path fill="#FFF" d="M313.2 174c0-.5-.4-1-1-1h-.6c-.2-.4-.7-.7-1.2-.7s-1 .3-1 .6H308.5c-.5 0-1 .5-1 1 0 .3.2.5.5.5h4.6c.2 0 .5-.2.4-.5zM284 162c-.2-1-1-1.6-1.8-1.7h-.8-.3c-.4-1-1.2-1.4-2.2-1.4-.8 0-1.6.3-2 1-.3.2-.6.3-1 .3h-.3c-1 0-1.7.8-1.8 1.7 0 .5.4 1 1 1h8.4c.6 0 1-.5 1-1z"/><g><path fill="#FFF" d="M441.6 226c-.6 0-1.2-.6-1.2-1.2 0 .6-.5 1.2-1.2 1.2s-1.2-.6-1.2-1.2c0 .6-.6 1.2-1.2 1.2-.7 0-1.2-.6-1.2-1.2 0 .6-.6 1.2-1.3 1.2-.4 0-1-.3-1-.7l2.7-4.8c1-1.5 3-1.5 4 0l2.7 4.8c-.2.4-.6.7-1 .7z"/><linearGradient id="g" gradientUnits="userSpaceOnUse" x1="438" y1="232.6" x2="438" y2="224.8"><stop offset="0" stop-color="#C8B38A"/><stop offset=".1" stop-color="#BBA681"/><stop offset=".3" stop-color="#998569"/><stop offset=".6" stop-color="#816D57"/><stop offset=".8" stop-color="#725F4D"/><stop offset="1" stop-color="#6D5A49"/></linearGradient><path fill="url(#g)" d="M433.3 225.3c0 .4.6.7 1 .7.7 0 1.3-.6 1.3-1.2 0 .6.5 1.2 1.2 1.2.6 0 1.2-.6 1.2-1.2 0 .6.5 1.2 1.2 1.2s1.2-.6 1.2-1.2c0 .6.6 1.2 1.2 1.2.5 0 1-.3 1-.7l4.4 7.3h-18l4.2-7.3z"/><path fill="#FFF" d="M463.3 226c-.7 0-1.2-.6-1.2-1.2 0 .6-.5 1.2-1 1.2-.8 0-1.4-.6-1.4-1.2 0 .6-.5 1.2-1.2 1.2-.6 0-1.2-.6-1.2-1.2 0 .6-.5 1.2-1.2 1.2-.5 0-1-.3-1-.7l2.6-4.8c1-1.5 3.2-1.5 4 0l2.8 4.8c-.2.4-.6.7-1 .7z"/><linearGradient id="h" gradientUnits="userSpaceOnUse" x1="459.6" y1="232.6" x2="459.6" y2="224.8"><stop offset="0" stop-color="#C8B38A"/><stop offset=".1" stop-color="#BBA681"/><stop offset=".3" stop-color="#998569"/><stop offset=".6" stop-color="#816D57"/><stop offset=".8" stop-color="#725F4D"/><stop offset="1" stop-color="#6D5A49"/></linearGradient><path fill="url(#h)" d="M455 225.3c0 .4.5.7 1 .7.7 0 1.2-.6 1.2-1.2 0 .6.6 1.2 1.2 1.2.7 0 1.2-.6 1.2-1.2 0 .6.6 1.2 1.3 1.2.5 0 1-.6 1-1.2 0 .6.6 1.2 1.3 1.2.5 0 1-.3 1-.7l4.3 7.3h-18l4.3-7.3z"/><path fill="#FFF" d="M454 224.2c-.8 0-1.5-.7-1.5-1.6 0 1-.7 1.6-1.5 1.6-1 0-1.6-.7-1.6-1.6 0 1-.7 1.6-1.5 1.6-1 0-1.7-.7-1.7-1.6 0 1-.7 1.6-1.5 1.6-.7 0-1.2-.4-1.4-1l3.5-6c1-2 3.8-2 5 0l3.5 6c-.3.6-.8 1-1.5 1z"/><linearGradient id="i" gradientUnits="userSpaceOnUse" x1="449.4" y1="232.6" x2="449.4" y2="222.6"><stop offset="0" stop-color="#C8B38A"/><stop offset="1" stop-color="#6D5A49"/></linearGradient><path fill="url(#i)" d="M443.4 223.3c.2.5.7 1 1.4 1 .8 0 1.5-.8 1.5-1.7 0 1 .7 1.6 1.6 1.6.7 0 1.4-.7 1.4-1.6 0 1 .7 1.6 1.6 1.6s1.5-.7 1.5-1.6c0 1 .7 1.6 1.6 1.6.7 0 1.2-.4 1.5-1l5.3 9.4H438l5.4-9.3z"/><path fill="#FFF" d="M468.7 228.2c0-.5-.4-1-1-1h-.3-.2c-.2-.4-.7-.7-1.2-.7s-1 .2-1 .6c-.2.2-.4.3-.6.2h-.2c-.5 0-1 .5-1 1 0 .3.2.5.5.5h4.6c.2 0 .5-.2.4-.5zm-29.3-12c0-1-.8-1.7-1.7-1.8H436.5c-.5-.8-1.3-1.3-2.3-1.3-.8 0-1.6.5-2 1-.3.3-.6.5-1 .4h-.4c-1 0-1.7.8-1.8 1.8 0 .5.4 1 1 1h8.4c.5 0 1-.5.8-1z"/></g><g><path fill="#FFF" d="M183.6 121c-.7 0-1.2-.5-1.2-1.2 0 .7-.6 1.2-1.3 1.2-.5 0-1-.5-1-1.2 0 .7-.6 1.2-1.3 1.2-.7 0-1.2-.5-1.2-1.2 0 .7-.5 1.2-1.2 1.2-.5 0-1-.3-1-.7l2.6-4.7c.8-1.6 3-1.6 4 0l2.7 4.7c-.2.4-.6.7-1 .7z"/><linearGradient id="j" gradientUnits="userSpaceOnUse" x1="179.9" y1="127.6" x2="179.9" y2="119.8"><stop offset="0" stop-color="#C8B38A"/><stop offset=".1" stop-color="#BBA681"/><stop offset=".3" stop-color="#998569"/><stop offset=".6" stop-color="#816D57"/><stop offset=".8" stop-color="#725F4D"/><stop offset="1" stop-color="#6D5A49"/></linearGradient><path fill="url(#j)" d="M175.2 120.3c.2.4.6.7 1 .7.8 0 1.3-.5 1.3-1.2 0 .7.5 1.2 1.2 1.2s1.2-.5 1.2-1.2c0 .7.5 1.2 1 1.2.8 0 1.4-.5 1.4-1.2 0 .7.5 1.2 1.2 1.2.5 0 1-.3 1-.7l4.3 7.3h-18l4.2-7.3z"/><path fill="#FFF" d="M205.2 121c-.6 0-1.2-.5-1.2-1.2 0 .7-.5 1.2-1.2 1.2s-1.2-.5-1.2-1.2c0 .7-.6 1.2-1.2 1.2-.7 0-1.2-.5-1.2-1.2 0 .7-.6 1.2-1.3 1.2-.5 0-1-.3-1.2-.7l2.8-4.7c1-1.6 3-1.6 4 0l2.7 4.7c-.2.4-.6.7-1 .7z"/><linearGradient id="k" gradientUnits="userSpaceOnUse" x1="201.6" y1="127.6" x2="201.6" y2="119.8"><stop offset="0" stop-color="#C8B38A"/><stop offset=".1" stop-color="#BBA681"/><stop offset=".3" stop-color="#998569"/><stop offset=".6" stop-color="#816D57"/><stop offset=".8" stop-color="#725F4D"/><stop offset="1" stop-color="#6D5A49"/></linearGradient><path fill="url(#k)" d="M196.8 120.3c.2.4.7.7 1 .7.8 0 1.4-.5 1.4-1.2 0 .7.5 1.2 1.2 1.2.6 0 1.2-.5 1.2-1.2 0 .7.5 1.2 1.2 1.2s1.2-.5 1.2-1.2c0 .7.6 1.2 1.2 1.2.5 0 1-.3 1-.7l4.3 7.3h-18l4.3-7.3z"/><path fill="#FFF" d="M196 119.2c-1 0-1.6-.7-1.6-1.6 0 1-.6 1.6-1.5 1.6-1 0-1.6-.7-1.6-1.6 0 1-.7 1.6-1.6 1.6-1 0-1.5-.7-1.5-1.6 0 1-.7 1.6-1.6 1.6-.6 0-1-.4-1.4-1l3.5-6c1-2 4-2 5 0l3.6 6c-.3.6-.8 1-1.4 1z"/><linearGradient id="l" gradientUnits="userSpaceOnUse" x1="191.3" y1="127.6" x2="191.3" y2="117.6"><stop offset="0" stop-color="#C8B38A"/><stop offset="1" stop-color="#6D5A49"/></linearGradient><path fill="url(#l)" d="M185.3 118.3c.3.5.8 1 1.4 1 1 0 1.6-.8 1.6-1.7 0 1 .6 1.6 1.5 1.6 1 0 1.5-.7 1.5-1.6 0 1 .7 1.6 1.6 1.6.7 0 1.4-.7 1.4-1.6 0 1 .7 1.6 1.6 1.6.6 0 1-.4 1.4-1l5.4 9.4h-23l5.5-9.3z"/><path fill="#FFF" d="M210.7 123.2c0-.5-.5-1-1-1h-.4c-.4-.4-.8-.7-1.4-.7-.5 0-1 .2-1.2.6 0 .2-.3.3-.4.3h-.3c-.4 0-.8.4-.8 1 0 .2.2.4.4.4h4.6c.3 0 .5-.2.5-.5zm-29.3-12c0-1-1-1.7-1.8-1.8h-.7c-.3.2-.4 0-.5 0-.4-.8-1.3-1.3-2.2-1.3-1 0-1.7.5-2 1-.3.4-.7.5-1 .5h-.4c-1 0-1.8.8-2 1.7 0 .5.5 1 1 1h8.5c.5 0 1-.5 1-1z"/></g><g><path fill="#FFF" d="M427.6 13c-.6 0-1.2-.6-1.2-1.3 0 .7-.5 1.2-1.2 1.2s-1.2-.6-1.2-1.3c0 .7-.5 1.2-1.2 1.2s-1.2-.6-1.2-1.3c0 .7-.6 1.2-1.2 1.2-.5 0-1-.4-1-.8l2.6-4.7c1-1.6 3-1.6 4 0l2.7 4.7c0 .4-.6.7-1 .7z"/><linearGradient id="m" gradientUnits="userSpaceOnUse" x1="424" y1="19.5" x2="424" y2="11.7"><stop offset="0" stop-color="#C8B38A"/><stop offset=".1" stop-color="#BBA681"/><stop offset=".3" stop-color="#998569"/><stop offset=".6" stop-color="#816D57"/><stop offset=".8" stop-color="#725F4D"/><stop offset="1" stop-color="#6D5A49"/></linearGradient><path fill="url(#m)" d="M419.3 12.2c.2.4.6.7 1 .7.7 0 1.3-.6 1.3-1.3 0 .7.5 1.2 1.2 1.2s1.2-.6 1.2-1.3c0 .7.5 1.2 1.2 1.2s1.2-.6 1.2-1.3c0 .7.6 1.2 1.2 1.2.5 0 1-.4 1-.8l4.4 7.3h-18l4.3-7.3z"/><path fill="#FFF" d="M449.3 13c-.7 0-1.2-.6-1.2-1.3 0 .7-.5 1.2-1 1.2-.8 0-1.3-.6-1.3-1.3 0 .7-.6 1.2-1.3 1.2-.6 0-1.2-.6-1.2-1.3 0 .7-.5 1.2-1.2 1.2-.5 0-1-.4-1-.8l2.7-4.7c.8-1.6 3-1.6 4 0l2.7 4.7c-.2.4-.6.7-1 .7z"/><linearGradient id="n" gradientUnits="userSpaceOnUse" x1="445.7" y1="19.5" x2="445.7" y2="11.7"><stop offset="0" stop-color="#C8B38A"/><stop offset=".1" stop-color="#BBA681"/><stop offset=".3" stop-color="#998569"/><stop offset=".6" stop-color="#816D57"/><stop offset=".8" stop-color="#725F4D"/><stop offset="1" stop-color="#6D5A49"/></linearGradient><path fill="url(#n)" d="M441 12.2c0 .4.5.7 1 .7.7 0 1.2-.6 1.2-1.3 0 .7.6 1.2 1.2 1.2.7 0 1.3-.6 1.3-1.3 0 .7.5 1.2 1.2 1.2.5 0 1-.6 1-1.3 0 .7.6 1.2 1.3 1.2.5 0 1-.4 1-.8l4.3 7.3h-18l4.3-7.3z"/><path fill="#FFF" d="M440 11c-.8 0-1.5-.6-1.5-1.4 0 .8-.7 1.5-1.5 1.5-1 0-1.6-.6-1.6-1.4 0 .8-.7 1.5-1.5 1.5-1 0-1.7-.6-1.7-1.4 0 .8-.7 1.5-1.5 1.5-.6 0-1.2-.3-1.4-.8l3.5-6c1-2 3.8-2 5 0l3.5 6c-.3.5-.8 1-1.4 1z"/><linearGradient id="o" gradientUnits="userSpaceOnUse" x1="435.4" y1="19.5" x2="435.4" y2="9.6"><stop offset="0" stop-color="#C8B38A"/><stop offset="1" stop-color="#6D5A49"/></linearGradient><path fill="url(#o)" d="M429.4 10.2c.2.5.8 1 1.4 1 .8 0 1.5-.8 1.5-1.6 0 .8.7 1.5 1.6 1.5s1.4-.6 1.4-1.4c0 .8.7 1.5 1.6 1.5.8 0 1.5-.6 1.5-1.4 0 .8.7 1.5 1.6 1.5.7 0 1.2-.3 1.5-.8l5.3 9.3H424l5.4-9.3z"/><path fill="#FFF" d="M454.8 15c0-.4-.5-.8-1-.8h-.4-.2c-.2-.5-.7-.8-1.2-.8s-1 .3-1 .6l-.6.2h-.2c-.5 0-1 .4-1 1 0 .2.2.4.5.4h4.6c.3 0 .5-.2.5-.5zM425.4 3c0-.8-.8-1.5-1.7-1.6H422.5c-.5-1-1.3-1.4-2.3-1.4-.8 0-1.6.4-2 1-.3.3-.6.4-1 .4h-.3c-1 0-1.7.8-1.8 1.7 0 .6.4 1 1 1h8.4c.5 0 1-.4.8-1z"/></g><g><path fill="#FFF" d="M50 170c-.8 0-1.3-.5-1.3-1 0 .5-.6 1-1.2 1-.7 0-1.3-.5-1.3-1 0 .5-.5 1-1.2 1-.6 0-1.2-.5-1.2-1 0 .5-.5 1-1.2 1-.5 0-1-.2-1-.6l2.6-4.8c1-1.5 3-1.5 4 0l2.8 4.8c-.2.4-.6.7-1 .7z"/><linearGradient id="p" gradientUnits="userSpaceOnUse" x1="46.2" y1="176.7" x2="46.2" y2="168.9"><stop offset="0" stop-color="#C8B38A"/><stop offset=".1" stop-color="#BBA681"/><stop offset=".3" stop-color="#998569"/><stop offset=".6" stop-color="#816D57"/><stop offset=".8" stop-color="#725F4D"/><stop offset="1" stop-color="#6D5A49"/></linearGradient><path fill="url(#p)" d="M41.5 169.4c.2.4.6.7 1 .7.8 0 1.3-.5 1.3-1 0 .5.6 1 1.2 1 .7 0 1.2-.5 1.2-1 0 .5.6 1 1.3 1 .6 0 1.2-.5 1.2-1 0 .5.5 1 1.2 1 .4 0 .8-.2 1-.6l4.2 7.3h-18l4.3-7.3z"/><path fill="#FFF" d="M71.5 170c-.6 0-1.2-.5-1.2-1 0 .5-.5 1-1.2 1s-1-.5-1-1c0 .5-.7 1-1.3 1-.7 0-1.2-.5-1.2-1 0 .5-.6 1-1.3 1-.4 0-1-.2-1-.6l2.7-4.8c.8-1.5 3-1.5 4 0l2.6 4.8c-.2.4-.6.7-1 .7z"/><linearGradient id="q" gradientUnits="userSpaceOnUse" x1="67.9" y1="176.7" x2="67.9" y2="168.9"><stop offset="0" stop-color="#C8B38A"/><stop offset=".1" stop-color="#BBA681"/><stop offset=".3" stop-color="#998569"/><stop offset=".6" stop-color="#816D57"/><stop offset=".8" stop-color="#725F4D"/><stop offset="1" stop-color="#6D5A49"/></linearGradient><path fill="url(#q)" d="M63 169.4c.3.4.8.7 1.2.7.7 0 1.3-.5 1.3-1 0 .5.5 1 1.2 1 .6 0 1.2-.5 1.2-1 0 .5.4 1 1 1s1.3-.5 1.3-1c0 .5.6 1 1.2 1 .5 0 1-.2 1-.6l4.3 7.3h-18l4.3-7.3z"/><path fill="#FFF" d="M62.3 168.3c-1 0-1.6-.7-1.6-1.6 0 1-.6 1.6-1.5 1.6-1 0-1.5-.7-1.5-1.6 0 1-.7 1.6-1.6 1.6-.7 0-1.4-.7-1.4-1.6 0 1-.7 1.6-1.6 1.6-.6 0-1-.4-1.4-1l3.5-6c1.2-2 4-2 5.2 0l3.5 6c-.2.6-.8 1-1.4 1z"/><linearGradient id="r" gradientUnits="userSpaceOnUse" x1="57.7" y1="176.7" x2="57.7" y2="166.7"><stop offset="0" stop-color="#C8B38A"/><stop offset="1" stop-color="#6D5A49"/></linearGradient><path fill="url(#r)" d="M51.6 167.4c.3.5.8 1 1.4 1 1 0 1.6-.8 1.6-1.7 0 1 .7 1.6 1.5 1.6 1 0 1.7-.7 1.7-1.6 0 1 .6 1.6 1.5 1.6 1 0 1.5-.7 1.5-1.6 0 1 .7 1.6 1.6 1.6.6 0 1-.4 1.4-1l5.4 9.4H46.3l5.4-9.3z"/><path fill="#FFF" d="M77 172.3c0-.5-.5-1-1-1h-.4c-.4-.4-.8-.7-1.4-.7-.4 0-.8.2-1 .6-.2 0-.4.2-.5 0h-.3c-.5.2-1 .6-1 1s.3.6.5.6h4.5c.3 0 .5-.2.5-.5zm-29.3-12c0-1-1-1.7-1.8-1.8H44.7c-.4-.8-1.3-1.3-2.2-1.3-1 0-1.7.4-2 1-.3.2-.6.4-1 .3h-.4c-1 0-1.7 1-1.8 1.8 0 .5.4 1 1 1h8.4c.5 0 1-.5 1-1z"/></g><g><path fill="#FFF" d="M343.4 15.6c-.7 0-1.2-.5-1.2-1.2 0 .7-.6 1.2-1.3 1.2-.7 0-1.3-.5-1.3-1.2 0 .7-.5 1.2-1.2 1.2s-1.2-.5-1.2-1.2c0 .7-.5 1.2-1.2 1.2-.4 0-.8-.2-1-.7l2.7-4.8c1-1.6 3-1.6 4 0l2.8 4.7c-.2.3-.6.6-1 .6z"/><linearGradient id="s" gradientUnits="userSpaceOnUse" x1="339.7" y1="22.2" x2="339.7" y2="14.4"><stop offset="0" stop-color="#C8B38A"/><stop offset=".1" stop-color="#BBA681"/><stop offset=".3" stop-color="#998569"/><stop offset=".6" stop-color="#816D57"/><stop offset=".8" stop-color="#725F4D"/><stop offset="1" stop-color="#6D5A49"/></linearGradient><path fill="url(#s)" d="M335 15c.2.3.6.6 1 .6.8 0 1.3-.5 1.3-1.2 0 .7.5 1.2 1.2 1.2s1.2-.5 1.2-1.2c0 .7.6 1.2 1.2 1.2s1.2-.5 1.2-1.2c0 .7.5 1.2 1.2 1.2.5 0 1-.3 1-.7l4.3 7.2h-18L335 15z"/><path fill="#FFF" d="M365 15.6c-.6 0-1.2-.5-1.2-1.2 0 .7-.5 1.2-1.2 1.2s-1.2-.5-1.2-1.2c0 .7-.6 1.2-1.2 1.2-.7 0-1.2-.5-1.2-1.2 0 .7-.6 1.2-1.3 1.2-.4 0-1-.2-1-.7l2.7-4.8c1-1.6 3-1.6 4 0L366 15c0 .3-.5.6-1 .6z"/><linearGradient id="t" gradientUnits="userSpaceOnUse" x1="361.4" y1="22.2" x2="361.4" y2="14.4"><stop offset="0" stop-color="#C8B38A"/><stop offset=".1" stop-color="#BBA681"/><stop offset=".3" stop-color="#998569"/><stop offset=".6" stop-color="#816D57"/><stop offset=".8" stop-color="#725F4D"/><stop offset="1" stop-color="#6D5A49"/></linearGradient><path fill="url(#t)" d="M356.6 15c.2.3.7.6 1 .6.8 0 1.4-.5 1.4-1.2 0 .7.5 1.2 1.2 1.2.6 0 1.2-.5 1.2-1.2 0 .7.5 1.2 1.2 1.2s1.2-.5 1.2-1.2c0 .7.6 1.2 1.2 1.2.5 0 1-.3 1-.7l4.3 7.2h-18l4.3-7.3z"/><path fill="#FFF" d="M355.8 13.8c-1 0-1.6-.7-1.6-1.5 0 .8-.6 1.5-1.5 1.5-1 0-1.6-.7-1.6-1.5 0 .8-.5 1.5-1.4 1.5-1 0-1.5-.7-1.5-1.5 0 .8-.6 1.5-1.5 1.5-.6 0-1-.3-1.4-1l3.6-6c1-2 4-2 5 0l3.6 6c-.3.7-.8 1-1.4 1z"/><linearGradient id="u" gradientUnits="userSpaceOnUse" x1="351.1" y1="22.2" x2="351.1" y2="12.3"><stop offset="0" stop-color="#C8B38A"/><stop offset="1" stop-color="#6D5A49"/></linearGradient><path fill="url(#u)" d="M345 13c.4.5 1 .8 1.5.8 1 0 1.6-.7 1.6-1.5 0 .8.7 1.5 1.6 1.5 1 0 1.5-.7 1.5-1.5 0 .8.8 1.5 1.7 1.5 1 0 1.5-.7 1.5-1.5 0 .8.7 1.5 1.6 1.5.6 0 1-.3 1.4-1l5.4 9.4h-23l5.5-9.3z"/><path fill="#FFF" d="M370.5 18v-.2c0-.5-.5-1-1-1h-.4c0 .2 0 0 0 0-.3-.3-.7-.6-1.3-.6-.4 0-.8.2-1 .5-.2.2-.4.2-.5.2h-.3c-.6 0-1 .4-1 .8 0 .3.2.6.4.6h4.6c.3 0 .5-.3.5-.5zM341.2 6v-.2c0-1-1-1.6-1.8-1.7-.3 0-.5 0-.7.2-.2 0-.3 0-.4-.2-.4-.8-1.3-1.3-2.2-1.3-.8 0-1.6.4-2 1-.2.3-.6.4-1 .4h-.3c-1 .2-1.7 1-1.8 1.8 0 .6.3 1 .8 1h8.5c.5 0 1-.4 1-1z"/></g><g><path fill="#FFF" d="M396.7 225c-.5 0-1-.3-1-.8 0 .5-.3 1-.8 1s-1-.5-1-1c0 .5-.4 1-1 1s-1-.5-1-1c0 .5-.3 1-.8 1-.4 0-.7-.3-.8-.6l2-3.6c.7-1.2 2.4-1.2 3 0l2.2 3.6c-.2.3-.5.5-1 .5z"/><linearGradient id="v" gradientUnits="userSpaceOnUse" x1="387.2" y1="227.2" x2="400.8" y2="227.2"><stop offset="0" stop-color="#C8B38A"/><stop offset=".1" stop-color="#BBA681"/><stop offset=".3" stop-color="#998569"/><stop offset=".6" stop-color="#816D57"/><stop offset=".8" stop-color="#725F4D"/><stop offset="1" stop-color="#6D5A49"/></linearGradient><path fill="url(#v)" d="M390.4 224.6c0 .3.4.5.8.5.5 0 1-.3 1-.8 0 .5.3 1 .8 1s1-.5 1-1c0 .5.4 1 1 1s.8-.5.8-1c0 .5.4 1 1 1 .3 0 .6-.3.8-.6l3.2 5.5h-13.6l3.2-5.4z"/><path fill="#FFF" d="M409.3 222c-.8 0-1.5-.6-1.5-1.4 0 .8-.6 1.5-1.4 1.5-1 0-1.5-.6-1.5-1.4 0 .8-.8 1.5-1.6 1.5s-1.5-.6-1.5-1.4c0 .8-.7 1.5-1.6 1.5-.5 0-1-.3-1.3-.8l3.4-5.7c1-2 3.8-2 5 0l3.3 5.7c-.3.5-.8 1-1.4 1z"/><linearGradient id="w" gradientUnits="userSpaceOnUse" x1="404.9" y1="230.1" x2="404.9" y2="220.6"><stop offset="0" stop-color="#C8B38A"/><stop offset=".1" stop-color="#BBA681"/><stop offset=".3" stop-color="#998569"/><stop offset=".6" stop-color="#816D57"/><stop offset=".8" stop-color="#725F4D"/><stop offset="1" stop-color="#6D5A49"/></linearGradient><path fill="url(#w)" d="M399 221.2c.3.5 1 1 1.4 1 1 0 1.5-.8 1.5-1.6 0 .8.6 1.5 1.4 1.5.8 0 1.5-.6 1.5-1.4 0 .8.5 1.5 1.4 1.5.8 0 1.4-.6 1.4-1.4 0 .8.7 1.5 1.5 1.5.6 0 1-.3 1.4-.8l5 9H394l5-9z"/><path fill="#FFF" d="M418 225.5c0-.8-.8-1.4-1.6-1.5h-.7-.3c-.4-.8-1-1.2-2-1.2-.7 0-1.4.3-1.8 1l-.8.2h-.4c-.8 0-1.4.7-1.5 1.5 0 .5.2 1 .7 1h7.5c.4 0 .8-.5.7-1z"/></g><g><path fill="#FFF" d="M29.7 189.7c-.5 0-1-.5-1-1 0 .5-.3 1-.8 1s-1-.5-1-1c0 .5-.5 1-1 1s-1-.5-1-1c0 .5-.3 1-.8 1-.4 0-.7-.3-1-.6l2.2-3.5c.7-1.2 2.4-1.2 3 0l2 3.6c0 .4-.3.6-.7.6z"/><linearGradient id="x" gradientUnits="userSpaceOnUse" x1="20.1" y1="191.7" x2="33.8" y2="191.7"><stop offset="0" stop-color="#C8B38A"/><stop offset=".1" stop-color="#BBA681"/><stop offset=".3" stop-color="#998569"/><stop offset=".6" stop-color="#816D57"/><stop offset=".8" stop-color="#725F4D"/><stop offset="1" stop-color="#6D5A49"/></linearGradient><path fill="url(#x)" d="M23.3 189c.2.4.5.7 1 .7.4 0 .8-.5.8-1 0 .5.5 1 1 1s1-.5 1-1c0 .5.3 1 1 1s.8-.5.8-1c0 .5.4 1 1 1 .3 0 .6-.3.7-.6l3.3 5.7H20l3.3-5.6z"/><path fill="#FFF" d="M42.3 186.6c-.8 0-1.5-.6-1.5-1.4 0 .8-.7 1.4-1.5 1.4s-1.5-.6-1.5-1.4c0 .8-.6 1.4-1.4 1.4-.8 0-1.5-.6-1.5-1.4 0 .8-.8 1.4-1.6 1.4-.6 0-1-.3-1.3-.8l3.4-5.8c1-2 3.8-2 5 0l3.2 5.8c-.2.5-.7.8-1.3.8z"/><linearGradient id="y" gradientUnits="userSpaceOnUse" x1="37.8" y1="194.7" x2="37.8" y2="185.2"><stop offset="0" stop-color="#C8B38A"/><stop offset=".1" stop-color="#BBA681"/><stop offset=".3" stop-color="#998569"/><stop offset=".6" stop-color="#816D57"/><stop offset=".8" stop-color="#725F4D"/><stop offset="1" stop-color="#6D5A49"/></linearGradient><path fill="url(#y)" d="M32 185.8c.3.5.8.8 1.4.8.8 0 1.5-.6 1.5-1.4 0 .8.6 1.4 1.4 1.4s1.5-.6 1.5-1.4c0 .8.5 1.4 1.3 1.4s1.5-.6 1.5-1.4c0 .8.7 1.4 1.5 1.4.6 0 1-.3 1.3-.8l5.2 9h-22l5.3-9z"/><path fill="#FFF" d="M51 190c-.2-.7-.8-1.4-1.6-1.5h-.7-.3c-.4-.7-1.2-1.2-2-1.2s-1.4.4-2 1c0 .2-.3.3-.6.2h-.4c-.8 0-1.5.8-1.5 1.6-.2.5.2 1 .6 1H50c.6 0 1-.5 1-1z"/></g></svg>