<svg xmlns="http://www.w3.org/2000/svg" width="100" height="100" viewBox="0 0 100 100"><path fill="#ACE5AC" d="M-10-8.5h120v120H-10z"/><g fill="#A27343"><path d="M47.8 79l-.3.6s-.2 0-.2-.2l.3-.5h.2zm-.3.7v.3H47c0-.2 0-.4.2-.5l.3.2zm0 .4l-.4.7s-.3 0-.3-.2c0 0 0-.6.2-.6h.4zm-.4.8s0 .5-.2.5c0 0-.4 0-.4-.2 0 0 0-.3.2-.4l.5.2zm-.2.7s0 .5-.2.5H46c0-.2 0-.7.2-.8l.6.3z"/><path d="M46.7 82.2l-.3.6h-.6c0-.2 0-.8.2-1l.7.4z"/><path d="M46.5 83l-.3.7h-.7v-1l1 .2zm-.2.8l-.3.8h-.7v-1l1 .2z"/></g><path fill="#058246" d="M47.8 78.8s1.3-2.3 2.7-.8H50l.2.2H49.3v.2H49s0 0-.3.2c0 0-.8.6-1 .3l-.7-1.4-.2-.2-.2-.3h.2-.3l-.2-.4s2 0 1.5 2.2z"/><path fill="#0EA752" d="M47.8 78.8s0-2.7-2.4-1h.4l-.2.2h.7v.2H46.8h-.2s.5 0 .5.2c0 0-2 .3-2 1.4l.5-.2v.2l.2-.3h.3l.2-.2v.2l.3-.3.4-.2s.4-.2.5 0c0 0 .2.2 0 .4h.2l-.2.4v.6h.2v.6s1-.6.4-2h.2l.3.4v.3h.4l.2.3.2.2V80l.3.3s.3-2.5-2.2-1.5z"/><circle fill="#7E4919" cx="48" cy="79" r=".3"/><circle fill="#8E5D2C" cx="47.6" cy="78.9" r=".3"/><path fill="#B98B5D" d="M42.4 76.7l.2.6s.3 0 .3-.2l-.4-.4h-.2zm.2.7l.2.3h.3V77l-.4.2zm.2.4l.3.6c.2 0 .5 0 .5-.2l-.2-.6-.5.2zm.3.7l.3.5s.5 0 .5-.2l-.2-.5-.5.2zm.3.7l.3.5h.5v-.8s-.6 0-.7.2z"/><path fill="#B98B5D" d="M43.5 80l.2.5h.7c0-.2 0-.8-.2-1l-.7.4z"/><path fill="#B98B5D" d="M43.7 80.6l.3.8h.6v-1l-1 .2zm.2 1c-.2 0 0 .7 0 .7h1c0-.2 0-1-.2-1l-1 .2zM44 82.5l.3.8h.8v-1s-1 0-1 .2z"/><path fill="#B98B5D" d="M44.2 83.4s0 .8.2.8h1v-1c-.2 0-1 0-1.2.2zM44.3 84.4v.7c.2.2 1.2.2 1.2 0v-.7h-1.2z"/><path fill="#0EA752" d="M42.5 76.6s-1.6-3 1.2-3.5l-.3.6h.2l-.3.3h.2l-.3.2h.2l-.4.4h.3l-.4.4s0 .2 0 .4c0 0 0 1.4-.4 1.3 0 0-1.7 0-2-.2h-.8l-.4.2v-.2H39s1.4-2.2 3.5 0z"/><path fill="#43C753" d="M42.5 76.7s-3-2-3 1.8l.4-.4v.4l.2-.5.4-.3v.2l.2-.5v.2l.3-.6.2.4s.3-.6.5-.5c0 0-1.2 2.3 0 3v-.6l.3.2V79v.2-.5l.2.2v-1-.6h.2s0-.6 0-.6.6 0 .7.3h.2l.3.4v-.2l.4.3h.2l.4.3v-.2l.4.4s0-1.5-1.8-2h.8v-.3h.8v-.2h.4-.2.5l-.2-.3h.6s-2.8-2-3.5 1.5z"/><circle fill="#7E4919" cx="42" cy="76.8" r=".3"/><circle fill="#7E4919" cx="42.9" cy="76.5" r=".3"/><circle fill="#8E5D2C" cx="42.6" cy="76.8" r=".4"/><g><path fill="#B98B5D" d="M74.5 73.7v.7H74l.3-.8h.2zm0 1l-.2.2s-.4 0-.4-.2v-.3h.4zm-.2.4c0 .2 0 .7-.2.8h-.4V75h.7zm0 1l-.3.6h-.6c0-.2 0-.7.2-.8h.6zm-.2.8v.7h-.7v-.8h.8z"/><path fill="#B98B5D" d="M74 77.6c.2 0 0 .7 0 .8-.2 0-.7.2-.8 0 0 0-.2-.8 0-1l1 .2zM74 78.6v1h-1v-1h1zm0 1c.2 0 0 1 0 1s-1 .2-1 0c0 0-.2-.8 0-1h1zM74 80.8c.2 0 0 1 0 1h-1s-.2-.8 0-1h1zM74.2 82v1s-1 .2-1 0c-.2 0-.4-1-.3-1 0 0 1-.2 1.2 0z"/><path fill="#B98B5D" d="M74.3 83v1s-1 .3-1.2.2v-1s1-.3 1.3-.2z"/><path fill="#0EA752" d="M74.4 73.5s1-4-2.4-3.7l.5.5h-.3l.5.4h-.2l.4.3h-.3l.5.4H73l.4.4h-.2s.3.2.4.5c0 0 .2 1.6.6 1.5l2.3-.8v-.2l.6.2v-.2h.5-.2.7l-.3-.2h.7s-2.3-2.3-4 1z"/><path fill="#43C753" d="M74.4 73.6s3-3 4 1.4l-.7-.4v.3l-.4-.5v.2l-.4-.3v.2l-.5-.4v.2l-.4-.6v.3s-.4-.5-.7-.3c0 0 2 2.4.7 3.6v-.7l-.3.3V76v.3l-.3-.6v.2-.7l-.2.2V75l-.3.3-.2-1v.3s0-.8-.4-.8c0 0-.5 0-.7.5l-.4.4v-.2l-.4.5v-.2l-.3.4V75l-.4.5v-.3l-.5.6s-.5-1.6 1.6-2.6H73l.2-.3H71v-.2l-.5.2.2-.3-.6.2s2.6-3.3 4.4.6z"/><circle fill="#7E4919" cx="74.9" cy="73.6" r=".4"/><circle fill="#1A1A1A" cx="74.9" cy="73.9" r=".1"/><circle fill="#7E4919" cx="73.8" cy="73.5" r=".4"/><circle fill="#1A1A1A" cx="73.6" cy="73.6" r=".1"/><g><circle fill="#8E5D2C" cx="74.3" cy="73.8" r=".4"/><circle fill="#1A1A1A" cx="73.9" cy="73.9" r=".1"/></g></g><g><g fill="#A27343"><path d="M63 80.4V80.3zm0 .3v.2l-.3-.2v-.2h.3zm0 .3l-.2.2h-.3s0-.3.2-.4l.2.2zm-.2.3l-.2.3h-.2V81h.4zm-.2.4v.3H62v-.5s.4 0 .4.2z"/><path d="M62.5 82v.4H62s0-.4.2-.5h.3z"/><path d="M62.4 82.5v.4l-.5-.2v-.4h.4zm0 .5l-.2.4h-.4v-.5c0-.2.5 0 .5 0z"/></g><path fill="#058246" d="M63.2 80.2s.6-1.2 1.4-.4h-.4v.2h-.5-.2s-.4.5-.5.3l-.3-.7v-.2h-.2V79h-.2s1.2-.2 1 1z"/><path fill="#0EA752" d="M63 80.2s0-1.4-1.2-.5h.5v.2h.7s-1.2.2-1 .8v-.2.2l.2-.2h.3v-.2h.3s.2-.2.3 0c0 0 .2 0 0 .2h.2v.8s.6-.3.3-1l.2.2h.2v.2l.2.2h.2s0-1.3-1.3-.7z"/><circle fill="#7E4919" cx="63.2" cy="80.3" r=".2"/><circle fill="#8E5D2C" cx="63" cy="80.3" r=".2"/><path fill="#B98B5D" d="M60.2 79l.2.4V79H60zm.2.5v.2h.2v-.3h-.2zm0 .2l.2.3h.2v-.4h-.3zm.2.4v.3h.4V80h-.4zm0 .4l.3.3h.2v-.4h-.5zm.2.4s0 .3.2.3c0 .2.3.2.3 0v-.3h-.5z"/><path fill="#B98B5D" d="M61 81.2v.4h.4v-.4H61zm0 .5s0 .4.2.4c0 .2.3 0 .4 0v-.4H61z"/><path fill="#B98B5D" d="M61 82.2l.3.4h.4V82l-.6.2zm.2.5v.5h.6v-.6h-.6zM61.3 83.2v.4h.6v-.4h-.7z"/><path fill="#0EA752" d="M60.3 79s-1-1.6.6-1.8l-.2.2v.4l-.2.2v.4s0 .8-.3.7h-1.9s.8-1.2 2 0z"/><path fill="#43C753" d="M60.3 79s-1.7-1-1.6 1h.2v-.2h.3v-.3.2l.3-.4v.2s0-.3.3-.3c0 0-.8 1.3 0 1.7v-.5.2V79.8h.2v-.3s0-.3 0-.3h.4l.3.3h.2l.2.2h.2s0-.7-1-1h.8v-.2H62l-.2-.2h.3s-1.3-1-1.7.8z"/><circle fill="#7E4919" cx="60" cy="79.1" r=".2"/><circle fill="#7E4919" cx="60.5" cy="79" r=".2"/><circle fill="#8E5D2C" cx="60.3" cy="79.2" r=".2"/></g><g><path fill="#A1C219" d="M43.4 86s5.5-.4 8.3-1.2c3.7-1 5.7-2 9.8-2 4.6 0 11 3 18 3.2h-36z"/><path fill="#B8E332" d="M30 86s5.5-.4 8.3-1.2c3.7-1 5.7-2 9.8-2 4.7 0 11.2 3 18.2 3.2H30z"/><path fill="#B8E332" d="M59.6 86s4-.3 6-1c2.6-1 4-1.7 7-1.7 3.2 0 8 2.6 13 2.7h-26z"/></g></svg>