<svg xmlns="http://www.w3.org/2000/svg" xmlns:xlink="http://www.w3.org/1999/xlink" width="200" height="200" viewBox="0 0 200 200"><path fill="#91D891" d="M-9.6-8.5h220v220h-220z"/><circle fill="#2BB34B" cx="44" cy="104.7" r="3"/><path fill="#5F4325" d="M43.8 110.4v-3.2l-1.5-1.8 1.5 1.2.2-1.3.3 1.4 1.6-1-1.7 1.5v3.2"/><circle fill="#2BB34B" cx="47" cy="104.7" r="3"/><path fill="#5F4325" d="M46.8 110.4v-3.2l-1.4-1.8 1.4 1.2.2-1.3.3 1.4 1.6-1-1.7 1.5v3.2"/><circle fill="#2BB34B" cx="45.4" cy="102.3" r="4.4"/><path fill="#5F4325" d="M45 110.6V106l-2-2.6 2 1.7.4-2 .4 2.2 2.3-1.6L46 106v4.6"/><linearGradient id="a" gradientUnits="userSpaceOnUse" x1="173.8" y1="80.7" x2="173.8" y2="73.4"><stop offset="0" stop-color="#91D891"/><stop offset=".1" stop-color="#75C37F"/><stop offset=".4" stop-color="#439C5D"/><stop offset=".7" stop-color="#1F8045"/><stop offset=".9" stop-color="#086F36"/><stop offset="1" stop-color="#006931"/></linearGradient><path fill="url(#a)" d="M164.7 80.7s1.2 0 4.2-3 4-4 4.5-4c1-.5 2.3 0 3.3 1s4.5 4.5 4.8 5l1.3 1h-18.3z"/><defs><path id="b" d="M164.7 80.7s1.2 0 4.2-3 4-4 4.5-4c1-.5 2.3 0 3.3 1s4.5 4.5 4.8 5l1.3 1h-18.3z"/></defs><clipPath id="c"><use xlink:href="#b" overflow="visible"/></clipPath><linearGradient id="d" gradientUnits="userSpaceOnUse" x1="167.4" y1="82.3" x2="172.4" y2="73.6"><stop offset="0" stop-color="#91D891"/><stop offset=".1" stop-color="#74C27E"/><stop offset=".4" stop-color="#439C5D"/><stop offset=".7" stop-color="#1E8045"/><stop offset=".9" stop-color="#086F36"/><stop offset="1" stop-color="#006931"/></linearGradient><path clip-path="url(#c)" fill="url(#d)" d="M172.8 74s3.6.7.4 4c-.5.6-3 2.7-8.5 2.7l8-6.8z"/><linearGradient id="e" gradientUnits="userSpaceOnUse" x1="164" y1="80.9" x2="164" y2="70.5"><stop offset="0" stop-color="#91D891"/><stop offset=".1" stop-color="#75C37F"/><stop offset=".4" stop-color="#439C5D"/><stop offset=".7" stop-color="#1F8045"/><stop offset=".9" stop-color="#086F36"/><stop offset="1" stop-color="#006931"/></linearGradient><path fill="url(#e)" d="M151 81s1.8-.3 6-4.5 5.7-5.7 6.7-5.8c1.2-.5 3.2 0 4.6 1.7 1.6 1.4 6.4 6.3 6.8 6.8l2 1.7h-26z"/><defs><path id="f" d="M151 81s1.8-.3 6-4.5 5.7-5.7 6.7-5.8c1.2-.5 3.2 0 4.6 1.7 1.6 1.4 6.4 6.3 6.8 6.8l2 1.7h-26z"/></defs><clipPath id="g"><use xlink:href="#f" overflow="visible"/></clipPath><linearGradient id="h" gradientUnits="userSpaceOnUse" x1="154.9" y1="83.1" x2="162.1" y2="70.7"><stop offset="0" stop-color="#91D891"/><stop offset=".1" stop-color="#74C27E"/><stop offset=".4" stop-color="#439C5D"/><stop offset=".7" stop-color="#1E8045"/><stop offset=".9" stop-color="#086F36"/><stop offset="1" stop-color="#006931"/></linearGradient><path clip-path="url(#g)" fill="url(#h)" d="M162.6 71.2s5 1 .5 6c-.6.6-4.2 3.6-12 3.7l11.6-9.8z"/><g><linearGradient id="i" gradientUnits="userSpaceOnUse" x1="159" y1="65.9" x2="159" y2="60.3"><stop offset="0" stop-color="#91D891"/><stop offset=".1" stop-color="#75C37F"/><stop offset=".4" stop-color="#439C5D"/><stop offset=".7" stop-color="#1F8045"/><stop offset=".9" stop-color="#086F36"/><stop offset="1" stop-color="#006931"/></linearGradient><path fill="url(#i)" d="M152 66s1-.2 3.3-2.5 3-3 3.5-3c.7-.4 1.8 0 2.6.8L165 65l1 1h-14z"/><defs><path id="j" d="M152 66s1-.2 3.3-2.5 3-3 3.5-3c.7-.4 1.8 0 2.6.8L165 65l1 1h-14z"/></defs><clipPath id="k"><use xlink:href="#j" overflow="visible"/></clipPath><linearGradient id="l" gradientUnits="userSpaceOnUse" x1="154.1" y1="67.1" x2="158" y2="60.4"><stop offset="0" stop-color="#91D891"/><stop offset=".1" stop-color="#74C27E"/><stop offset=".4" stop-color="#439C5D"/><stop offset=".7" stop-color="#1E8045"/><stop offset=".9" stop-color="#086F36"/><stop offset="1" stop-color="#006931"/></linearGradient><path clip-path="url(#k)" fill="url(#l)" d="M158.3 60.7s2.7.6.3 3.2c-.4.2-2.4 2-6.5 2l6.3-5.3z"/><linearGradient id="m" gradientUnits="userSpaceOnUse" x1="151.5" y1="66" x2="151.5" y2="58"><stop offset="0" stop-color="#91D891"/><stop offset=".1" stop-color="#75C37F"/><stop offset=".4" stop-color="#439C5D"/><stop offset=".7" stop-color="#1F8045"/><stop offset=".9" stop-color="#086F36"/><stop offset="1" stop-color="#006931"/></linearGradient><path fill="url(#m)" d="M141.6 66s1.3 0 4.5-3.4 4.5-4.4 5.2-4.4c1-.4 2.5 0 3.6 1.3 1.2 1 5 4.8 5.3 5.2l1.4 1.3h-19.8z"/><defs><path id="n" d="M141.6 66s1.3 0 4.5-3.4 4.5-4.4 5.2-4.4c1-.4 2.5 0 3.6 1.3 1.2 1 5 4.8 5.3 5.2l1.4 1.3h-19.8z"/></defs><clipPath id="o"><use xlink:href="#n" overflow="visible"/></clipPath><linearGradient id="p" gradientUnits="userSpaceOnUse" x1="144.5" y1="67.7" x2="150" y2="58.2"><stop offset="0" stop-color="#91D891"/><stop offset=".1" stop-color="#74C27E"/><stop offset=".4" stop-color="#439C5D"/><stop offset=".7" stop-color="#1E8045"/><stop offset=".9" stop-color="#086F36"/><stop offset="1" stop-color="#006931"/></linearGradient><path clip-path="url(#o)" fill="url(#p)" d="M150.4 58.6s4 1 .4 4.5c-.5.6-3.3 3-9.2 3l8.8-7.4z"/></g><g><linearGradient id="q" gradientUnits="userSpaceOnUse" x1="154.5" y1="37.3" x2="154.5" y2="33.3"><stop offset="0" stop-color="#91D891"/><stop offset=".1" stop-color="#75C37F"/><stop offset=".4" stop-color="#439C5D"/><stop offset=".7" stop-color="#1F8045"/><stop offset=".9" stop-color="#086F36"/><stop offset="1" stop-color="#006931"/></linearGradient><path fill="url(#q)" d="M149.5 37.3s.7 0 2.3-1.7 2.2-2.2 2.5-2.3c.5-.2 1.3 0 1.8.7.7.5 2.6 2.4 2.8 2.6l.6.7h-10z"/><defs><path id="r" d="M149.5 37.3s.7 0 2.3-1.7 2.2-2.2 2.5-2.3c.5-.2 1.3 0 1.8.7.7.5 2.6 2.4 2.8 2.6l.6.7h-10z"/></defs><clipPath id="s"><use xlink:href="#r" overflow="visible"/></clipPath><linearGradient id="t" gradientUnits="userSpaceOnUse" x1="151" y1="38.1" x2="153.7" y2="33.3"><stop offset="0" stop-color="#91D891"/><stop offset=".1" stop-color="#74C27E"/><stop offset=".4" stop-color="#439C5D"/><stop offset=".7" stop-color="#1E8045"/><stop offset=".9" stop-color="#086F36"/><stop offset="1" stop-color="#006931"/></linearGradient><path clip-path="url(#s)" fill="url(#t)" d="M154 33.5s2 .5 0 2.3c0 .3-1.5 1.4-4.5 1.5l4.4-3.8z"/></g><g><linearGradient id="u" gradientUnits="userSpaceOnUse" x1="23.7" y1="29.2" x2="23.7" y2="23.6"><stop offset="0" stop-color="#91D891"/><stop offset=".1" stop-color="#75C37F"/><stop offset=".4" stop-color="#439C5D"/><stop offset=".7" stop-color="#1F8045"/><stop offset=".9" stop-color="#086F36"/><stop offset="1" stop-color="#006931"/></linearGradient><path fill="url(#u)" d="M16.8 29.2s1 0 3.2-2.4 3-3 3.5-3c.7-.4 1.8 0 2.6.8 1 .8 3.5 3.4 3.7 3.7l1 1h-14z"/><defs><path id="v" d="M16.8 29.2s1 0 3.2-2.4 3-3 3.5-3c.7-.4 1.8 0 2.6.8 1 .8 3.5 3.4 3.7 3.7l1 1h-14z"/></defs><clipPath id="w"><use xlink:href="#v" overflow="visible"/></clipPath><linearGradient id="x" gradientUnits="userSpaceOnUse" x1="18.8" y1="30.4" x2="22.7" y2="23.7"><stop offset="0" stop-color="#91D891"/><stop offset=".1" stop-color="#74C27E"/><stop offset=".4" stop-color="#439C5D"/><stop offset=".7" stop-color="#1E8045"/><stop offset=".9" stop-color="#086F36"/><stop offset="1" stop-color="#006931"/></linearGradient><path clip-path="url(#w)" fill="url(#x)" d="M23 24s2.7.6.2 3c-.3.5-2.3 2-6.4 2.2l6-5.3z"/><linearGradient id="y" gradientUnits="userSpaceOnUse" x1="16.2" y1="29.3" x2="16.2" y2="21.3"><stop offset="0" stop-color="#91D891"/><stop offset=".1" stop-color="#75C37F"/><stop offset=".4" stop-color="#439C5D"/><stop offset=".7" stop-color="#1F8045"/><stop offset=".9" stop-color="#086F36"/><stop offset="1" stop-color="#006931"/></linearGradient><path fill="url(#y)" d="M6.3 29.3s1.3-.2 4.5-3.4 4.4-4.5 5-4.6c1-.4 2.6 0 3.7 1.3l5.3 5.3 1.3 1.3H6.4z"/><defs><path id="z" d="M6.3 29.3s1.3-.2 4.5-3.4 4.4-4.5 5-4.6c1-.4 2.6 0 3.7 1.3l5.3 5.3 1.3 1.3H6.4z"/></defs><clipPath id="A"><use xlink:href="#z" overflow="visible"/></clipPath><linearGradient id="B" gradientUnits="userSpaceOnUse" x1="9.2" y1="31" x2="14.7" y2="21.5"><stop offset="0" stop-color="#91D891"/><stop offset=".1" stop-color="#74C27E"/><stop offset=".4" stop-color="#439C5D"/><stop offset=".7" stop-color="#1E8045"/><stop offset=".9" stop-color="#086F36"/><stop offset="1" stop-color="#006931"/></linearGradient><path clip-path="url(#A)" fill="url(#B)" d="M15 21.8s4 1 .5 4.6c-.5.5-3.3 2.8-9.2 3l8.8-7.6z"/></g><g><linearGradient id="C" gradientUnits="userSpaceOnUse" x1="117.6" y1="55.5" x2="117.6" y2="49.9"><stop offset="0" stop-color="#91D891"/><stop offset=".1" stop-color="#75C37F"/><stop offset=".4" stop-color="#439C5D"/><stop offset=".7" stop-color="#1F8045"/><stop offset=".9" stop-color="#086F36"/><stop offset="1" stop-color="#006931"/></linearGradient><path fill="url(#C)" d="M110.7 55.5s1 0 3.2-2.4c2-2.2 3-3 3.4-3 .7-.3 1.8 0 2.6 1l3.6 3.6 1 1h-14z"/><defs><path id="D" d="M110.7 55.5s1 0 3.2-2.4c2-2.2 3-3 3.4-3 .7-.3 1.8 0 2.6 1l3.6 3.6 1 1h-14z"/></defs><clipPath id="E"><use xlink:href="#D" overflow="visible"/></clipPath><linearGradient id="F" gradientUnits="userSpaceOnUse" x1="112.7" y1="56.7" x2="116.6" y2="50"><stop offset="0" stop-color="#91D891"/><stop offset=".1" stop-color="#74C27E"/><stop offset=".4" stop-color="#439C5D"/><stop offset=".7" stop-color="#1E8045"/><stop offset=".9" stop-color="#086F36"/><stop offset="1" stop-color="#006931"/></linearGradient><path clip-path="url(#E)" fill="url(#F)" d="M116.8 50.3s2.8.6.3 3c-.2.5-2.2 2-6.3 2.2l6-5.2z"/><linearGradient id="G" gradientUnits="userSpaceOnUse" x1="110.1" y1="55.6" x2="110.1" y2="47.6"><stop offset="0" stop-color="#91D891"/><stop offset=".1" stop-color="#75C37F"/><stop offset=".4" stop-color="#439C5D"/><stop offset=".7" stop-color="#1F8045"/><stop offset=".9" stop-color="#086F36"/><stop offset="1" stop-color="#006931"/></linearGradient><path fill="url(#G)" d="M100.2 55.6s1.3 0 4.5-3.4c3.3-3.2 4.4-4.4 5-4.4 1-.4 2.6 0 3.7 1.2l5.3 5.3 1.3 1.3h-19.8z"/><defs><path id="H" d="M100.2 55.6s1.3 0 4.5-3.4c3.3-3.2 4.4-4.4 5-4.4 1-.4 2.6 0 3.7 1.2l5.3 5.3 1.3 1.3h-19.8z"/></defs><clipPath id="I"><use xlink:href="#H" overflow="visible"/></clipPath><linearGradient id="J" gradientUnits="userSpaceOnUse" x1="103.1" y1="57.3" x2="108.6" y2="47.8"><stop offset="0" stop-color="#91D891"/><stop offset=".1" stop-color="#74C27E"/><stop offset=".4" stop-color="#439C5D"/><stop offset=".7" stop-color="#1E8045"/><stop offset=".9" stop-color="#086F36"/><stop offset="1" stop-color="#006931"/></linearGradient><path clip-path="url(#I)" fill="url(#J)" d="M109 48s4 1 .4 4.7c-.5.5-3.3 2.8-9.2 3L109 48z"/></g><g><linearGradient id="K" gradientUnits="userSpaceOnUse" x1="118.2" y1="76.7" x2="118.2" y2="72.3"><stop offset="0" stop-color="#91D891"/><stop offset=".1" stop-color="#75C37F"/><stop offset=".4" stop-color="#439C5D"/><stop offset=".7" stop-color="#1F8045"/><stop offset=".9" stop-color="#086F36"/><stop offset="1" stop-color="#006931"/></linearGradient><path fill="url(#K)" d="M112.8 76.7s.7 0 2.5-2 2.4-2.3 2.8-2.3c.6-.2 1.4 0 2 .7l3 3 .6.7h-10.8z"/><defs><path id="L" d="M112.8 76.7s.7 0 2.5-2 2.4-2.3 2.8-2.3c.6-.2 1.4 0 2 .7l3 3 .6.7h-10.8z"/></defs><clipPath id="M"><use xlink:href="#L" overflow="visible"/></clipPath><linearGradient id="N" gradientUnits="userSpaceOnUse" x1="114.4" y1="77.6" x2="117.4" y2="72.4"><stop offset="0" stop-color="#91D891"/><stop offset=".1" stop-color="#74C27E"/><stop offset=".4" stop-color="#439C5D"/><stop offset=".7" stop-color="#1E8045"/><stop offset=".9" stop-color="#086F36"/><stop offset="1" stop-color="#006931"/></linearGradient><path clip-path="url(#M)" fill="url(#N)" d="M117.6 72.6s2.2.5.3 2.5c-.4.4-2 1.6-5.2 1.7l4.8-4z"/><linearGradient id="O" gradientUnits="userSpaceOnUse" x1="112.4" y1="76.8" x2="112.4" y2="70.6"><stop offset="0" stop-color="#91D891"/><stop offset=".1" stop-color="#75C37F"/><stop offset=".4" stop-color="#439C5D"/><stop offset=".7" stop-color="#1F8045"/><stop offset=".9" stop-color="#086F36"/><stop offset="1" stop-color="#006931"/></linearGradient><path fill="url(#O)" d="M104.7 76.8s1-.2 3.5-2.7c2.6-2.4 3.4-3.3 4-3.3.7-.3 2 0 2.8 1 1 .8 3.7 3.7 4 4l1 1h-15.3z"/><defs><path id="P" d="M104.7 76.8s1-.2 3.5-2.7c2.6-2.4 3.4-3.3 4-3.3.7-.3 2 0 2.8 1 1 .8 3.7 3.7 4 4l1 1h-15.3z"/></defs><clipPath id="Q"><use xlink:href="#P" overflow="visible"/></clipPath><linearGradient id="R" gradientUnits="userSpaceOnUse" x1="107" y1="78.1" x2="111.3" y2="70.7"><stop offset="0" stop-color="#91D891"/><stop offset=".1" stop-color="#74C27E"/><stop offset=".4" stop-color="#439C5D"/><stop offset=".7" stop-color="#1E8045"/><stop offset=".9" stop-color="#086F36"/><stop offset="1" stop-color="#006931"/></linearGradient><path clip-path="url(#Q)" fill="url(#R)" d="M111.5 71s3 .7.4 3.5c-.5.4-2.7 2.2-7.3 2.3l6.8-5.8z"/></g></svg>