<svg xmlns="http://www.w3.org/2000/svg" xmlns:xlink="http://www.w3.org/1999/xlink" width="240" height="240" viewBox="0 0 240 240"><path fill="#40B23F" d="M-4.8-2.6h250v250h-250z"/><linearGradient id="a" gradientUnits="userSpaceOnUse" x1="13.7" y1="144.9" x2="13.7" y2="142.5"><stop offset="0" stop-color="#40B23F"/><stop offset=".1" stop-color="#36A73D"/><stop offset=".5" stop-color="#198536"/><stop offset=".8" stop-color="#077132"/><stop offset="1" stop-color="#006931"/></linearGradient><path fill="url(#a)" d="M10.8 145s.4 0 1.3-1 1.4-1.4 1.7-1.4c.2-.2.7 0 1 .3l1.6 1.5.4.4h-6z"/><defs><path id="b" d="M10.8 145s.4 0 1.3-1 1.4-1.4 1.7-1.4c.2-.2.7 0 1 .3l1.6 1.5.4.4h-6z"/></defs><clipPath id="c"><use xlink:href="#b" overflow="visible"/></clipPath><linearGradient id="d" gradientUnits="userSpaceOnUse" x1="11.7" y1="145.4" x2="13.3" y2="142.6"><stop offset="0" stop-color="#40B23F"/><stop offset=".4" stop-color="#208E38"/><stop offset=".8" stop-color="#097333"/><stop offset="1" stop-color="#006931"/></linearGradient><path clip-path="url(#c)" fill="url(#d)" d="M13.4 142.7s1.2.2 0 1.3c0 .2-.8 1-2.6 1l2.6-2.3z"/><linearGradient id="e" gradientUnits="userSpaceOnUse" x1="15.6" y1="149.3" x2="15.6" y2="145.5"><stop offset="0" stop-color="#40B23F"/><stop offset=".1" stop-color="#36A73D"/><stop offset=".5" stop-color="#198536"/><stop offset=".8" stop-color="#077132"/><stop offset="1" stop-color="#006931"/></linearGradient><path fill="url(#e)" d="M11 149.3s.6 0 2-1.6 2.2-2 2.5-2c.5-.3 1.2 0 1.7.5l2.5 2.5.6.6H11z"/><defs><path id="f" d="M11 149.3s.6 0 2-1.6 2.2-2 2.5-2c.5-.3 1.2 0 1.7.5l2.5 2.5.6.6H11z"/></defs><clipPath id="g"><use xlink:href="#f" overflow="visible"/></clipPath><linearGradient id="h" gradientUnits="userSpaceOnUse" x1="12.3" y1="150.1" x2="14.9" y2="145.6"><stop offset="0" stop-color="#40B23F"/><stop offset=".4" stop-color="#208E38"/><stop offset=".8" stop-color="#097333"/><stop offset="1" stop-color="#006931"/></linearGradient><path clip-path="url(#g)" fill="url(#h)" d="M15 145.8s2 .4.3 2c-.2.4-1.5 1.5-4.3 1.5l4-3.5z"/><linearGradient id="i" gradientUnits="userSpaceOnUse" x1="11.5" y1="139.7" x2="11.5" y2="136.3"><stop offset="0" stop-color="#40B23F"/><stop offset=".1" stop-color="#36A73D"/><stop offset=".5" stop-color="#198536"/><stop offset=".8" stop-color="#077132"/><stop offset="1" stop-color="#006931"/></linearGradient><path fill="url(#i)" d="M7.3 139.7s.6 0 2-1.5 1.8-1.8 2-1.8c.5-.2 1 0 1.6.5l2 2 .6.7H7.3z"/><defs><path id="j" d="M7.3 139.7s.6 0 2-1.5 1.8-1.8 2-1.8c.5-.2 1 0 1.6.5l2 2 .6.7H7.3z"/></defs><clipPath id="k"><use xlink:href="#j" overflow="visible"/></clipPath><linearGradient id="l" gradientUnits="userSpaceOnUse" x1="8.5" y1="140.4" x2="10.9" y2="136.4"><stop offset="0" stop-color="#40B23F"/><stop offset=".4" stop-color="#208E38"/><stop offset=".8" stop-color="#097333"/><stop offset="1" stop-color="#006931"/></linearGradient><path clip-path="url(#k)" fill="url(#l)" d="M11 136.5s1.7.4.2 2c-.2 0-1.4 1-4 1.2l3.8-3.2z"/><linearGradient id="m" gradientUnits="userSpaceOnUse" x1="102.1" y1="74.6" x2="102.1" y2="71.2"><stop offset="0" stop-color="#40B23F"/><stop offset=".1" stop-color="#36A73D"/><stop offset=".5" stop-color="#198536"/><stop offset=".8" stop-color="#077132"/><stop offset="1" stop-color="#006931"/></linearGradient><path fill="url(#m)" d="M98 74.6s.5 0 2-1.5c1.3-1.2 1.7-1.7 2-1.7.4-.2 1 0 1.6.5l2.2 2.2.5.6H98z"/><defs><path id="n" d="M98 74.6s.5 0 2-1.5c1.3-1.2 1.7-1.7 2-1.7.4-.2 1 0 1.6.5l2.2 2.2.5.6H98z"/></defs><clipPath id="o"><use xlink:href="#n" overflow="visible"/></clipPath><linearGradient id="p" gradientUnits="userSpaceOnUse" x1="99.2" y1="75.3" x2="101.5" y2="71.3"><stop offset="0" stop-color="#40B23F"/><stop offset=".4" stop-color="#208E38"/><stop offset=".8" stop-color="#097333"/><stop offset="1" stop-color="#006931"/></linearGradient><path clip-path="url(#o)" fill="url(#p)" d="M101.7 71.4s1.7.4.2 2c-.4.2-1.5 1.2-4 1.2l3.7-3.2z"/><linearGradient id="q" gradientUnits="userSpaceOnUse" x1="79" y1="72.4" x2="79" y2="69.1"><stop offset="0" stop-color="#40B23F"/><stop offset=".1" stop-color="#36A73D"/><stop offset=".5" stop-color="#198536"/><stop offset=".8" stop-color="#077132"/><stop offset="1" stop-color="#006931"/></linearGradient><path fill="url(#q)" d="M74.8 72.4s.6 0 2-1.4c1.3-1.4 1.8-2 2-2 .5 0 1 0 1.6.7l2.2 2.2.5.4H75z"/><defs><path id="r" d="M74.8 72.4s.6 0 2-1.4c1.3-1.4 1.8-2 2-2 .5 0 1 0 1.6.7l2.2 2.2.5.4H75z"/></defs><clipPath id="s"><use xlink:href="#r" overflow="visible"/></clipPath><linearGradient id="t" gradientUnits="userSpaceOnUse" x1="76.1" y1="73.2" x2="78.4" y2="69.1"><stop offset="0" stop-color="#40B23F"/><stop offset=".4" stop-color="#208E38"/><stop offset=".8" stop-color="#097333"/><stop offset="1" stop-color="#006931"/></linearGradient><path clip-path="url(#s)" fill="url(#t)" d="M78.5 69.3s1.7.4.2 2c-.2 0-1.4 1-4 1l3.8-3z"/><linearGradient id="u" gradientUnits="userSpaceOnUse" x1="98.8" y1="76" x2="98.8" y2="72.6"><stop offset="0" stop-color="#40B23F"/><stop offset=".1" stop-color="#36A73D"/><stop offset=".5" stop-color="#198536"/><stop offset=".8" stop-color="#077132"/><stop offset="1" stop-color="#006931"/></linearGradient><path fill="url(#u)" d="M94.6 76s.6 0 2-1.4 1.8-2 2-2c.5 0 1 0 1.6.6l2.2 2.2.5.6h-8.4z"/><defs><path id="v" d="M94.6 76s.6 0 2-1.4 1.8-2 2-2c.5 0 1 0 1.6.6l2.2 2.2.5.6h-8.4z"/></defs><clipPath id="w"><use xlink:href="#v" overflow="visible"/></clipPath><linearGradient id="x" gradientUnits="userSpaceOnUse" x1="95.8" y1="76.7" x2="98.2" y2="72.7"><stop offset="0" stop-color="#40B23F"/><stop offset=".4" stop-color="#208E38"/><stop offset=".8" stop-color="#097333"/><stop offset="1" stop-color="#006931"/></linearGradient><path clip-path="url(#w)" fill="url(#x)" d="M98.3 72.8s1.7.4.2 2c-.2.2-1.4 1.2-4 1.2l3.8-3.2z"/><g><linearGradient id="y" gradientUnits="userSpaceOnUse" x1="63.6" y1="83.2" x2="63.6" y2="79.8"><stop offset="0" stop-color="#40B23F"/><stop offset=".1" stop-color="#36A73D"/><stop offset=".5" stop-color="#198536"/><stop offset=".8" stop-color="#077132"/><stop offset="1" stop-color="#006931"/></linearGradient><path fill="url(#y)" d="M59.4 83.2s.6 0 2-1.4c1.3-1.4 1.8-2 2-2 .5 0 1 0 1.6.6l2.2 2.3.5.5h-8.3z"/><defs><path id="z" d="M59.4 83.2s.6 0 2-1.4c1.3-1.4 1.8-2 2-2 .5 0 1 0 1.6.6l2.2 2.3.5.5h-8.3z"/></defs><clipPath id="A"><use xlink:href="#z" overflow="visible"/></clipPath><linearGradient id="B" gradientUnits="userSpaceOnUse" x1="60.7" y1="83.9" x2="63" y2="79.9"><stop offset="0" stop-color="#40B23F"/><stop offset=".4" stop-color="#208E38"/><stop offset=".8" stop-color="#097333"/><stop offset="1" stop-color="#006931"/></linearGradient><path clip-path="url(#A)" fill="url(#B)" d="M63 80s1.8.4.3 2c-.2.2-1.4 1.2-4 1.2l3.8-3z"/></g><g><linearGradient id="C" gradientUnits="userSpaceOnUse" x1="67.2" y1="86.3" x2="67.2" y2="81.8"><stop offset="0" stop-color="#40B23F"/><stop offset=".1" stop-color="#36A73D"/><stop offset=".5" stop-color="#198536"/><stop offset=".8" stop-color="#077132"/><stop offset="1" stop-color="#006931"/></linearGradient><path fill="url(#C)" d="M61.6 86.3s.7 0 2.6-2c2-1.8 2.5-2.4 3-2.5.4-.2 1.3 0 2 .8l3 3 .6.7H61.6z"/><defs><path id="D" d="M61.6 86.3s.7 0 2.6-2c2-1.8 2.5-2.4 3-2.5.4-.2 1.3 0 2 .8l3 3 .6.7H61.6z"/></defs><clipPath id="E"><use xlink:href="#D" overflow="visible"/></clipPath><linearGradient id="F" gradientUnits="userSpaceOnUse" x1="63.3" y1="87.3" x2="66.4" y2="81.8"><stop offset="0" stop-color="#40B23F"/><stop offset=".4" stop-color="#208E38"/><stop offset=".8" stop-color="#097333"/><stop offset="1" stop-color="#006931"/></linearGradient><path clip-path="url(#E)" fill="url(#F)" d="M66.6 82s2.3.6.3 2.6c-.4.3-2 1.7-5.4 1.7l5-4.2z"/></g><g><linearGradient id="G" gradientUnits="userSpaceOnUse" x1="74.1" y1="153.3" x2="74.1" y2="151.2"><stop offset="0" stop-color="#40B23F"/><stop offset=".1" stop-color="#36A73D"/><stop offset=".5" stop-color="#198536"/><stop offset=".8" stop-color="#077132"/><stop offset="1" stop-color="#006931"/></linearGradient><path fill="url(#G)" d="M71.4 153.3s.4 0 1.3-1 1.2-1 1.4-1c.3-.2.7 0 1 .3l1.4 1.4.4.3h-5.4z"/><defs><path id="H" d="M71.4 153.3s.4 0 1.3-1 1.2-1 1.4-1c.3-.2.7 0 1 .3l1.4 1.4.4.3h-5.4z"/></defs><clipPath id="I"><use xlink:href="#H" overflow="visible"/></clipPath><linearGradient id="J" gradientUnits="userSpaceOnUse" x1="72.2" y1="153.8" x2="73.7" y2="151.2"><stop offset="0" stop-color="#40B23F"/><stop offset=".4" stop-color="#208E38"/><stop offset=".8" stop-color="#097333"/><stop offset="1" stop-color="#006931"/></linearGradient><path clip-path="url(#I)" fill="url(#J)" d="M73.8 151.3s1 .3 0 1.2c0 .2-.8.8-2.4.8l2.4-2z"/></g><g><linearGradient id="K" gradientUnits="userSpaceOnUse" x1="73.3" y1="156.4" x2="73.3" y2="154.2"><stop offset="0" stop-color="#40B23F"/><stop offset=".1" stop-color="#36A73D"/><stop offset=".5" stop-color="#198536"/><stop offset=".8" stop-color="#077132"/><stop offset="1" stop-color="#006931"/></linearGradient><path fill="url(#K)" d="M70.7 156.4s.3 0 1.2-1c.8-.8 1-1 1.3-1 .2-.2.6 0 1 .2l1.4 1.4.3.4h-5.3z"/><defs><path id="L" d="M70.7 156.4s.3 0 1.2-1c.8-.8 1-1 1.3-1 .2-.2.6 0 1 .2l1.4 1.4.3.4h-5.3z"/></defs><clipPath id="M"><use xlink:href="#L" overflow="visible"/></clipPath><linearGradient id="N" gradientUnits="userSpaceOnUse" x1="71.4" y1="156.9" x2="72.9" y2="154.3"><stop offset="0" stop-color="#40B23F"/><stop offset=".4" stop-color="#208E38"/><stop offset=".8" stop-color="#097333"/><stop offset="1" stop-color="#006931"/></linearGradient><path clip-path="url(#M)" fill="url(#N)" d="M73 154.4s1 .2.2 1.2c-.2 0-1 .8-2.5.8l2.3-2z"/></g><g><linearGradient id="O" gradientUnits="userSpaceOnUse" x1="15.1" y1="129.2" x2="15.1" y2="125.1"><stop offset="0" stop-color="#40B23F"/><stop offset=".1" stop-color="#36A73D"/><stop offset=".5" stop-color="#198536"/><stop offset=".8" stop-color="#077132"/><stop offset="1" stop-color="#006931"/></linearGradient><path fill="url(#O)" d="M10 129.2s.7 0 2.4-1.8 2.2-2.2 2.6-2.2c.4-.2 1.2 0 1.8.6l2.7 2.7.6.7H10z"/><defs><path id="P" d="M10 129.2s.7 0 2.4-1.8 2.2-2.2 2.6-2.2c.4-.2 1.2 0 1.8.6l2.7 2.7.6.7H10z"/></defs><clipPath id="Q"><use xlink:href="#P" overflow="visible"/></clipPath><linearGradient id="R" gradientUnits="userSpaceOnUse" x1="11.5" y1="130" x2="14.3" y2="125.2"><stop offset="0" stop-color="#40B23F"/><stop offset=".4" stop-color="#208E38"/><stop offset=".8" stop-color="#097333"/><stop offset="1" stop-color="#006931"/></linearGradient><path clip-path="url(#Q)" fill="url(#R)" d="M14.5 125.4s2 .4.3 2.3c-.3.3-1.7 1.4-4.8 1.5l4.5-3.8z"/><g><linearGradient id="S" gradientUnits="userSpaceOnUse" x1="7.4" y1="129.3" x2="7.4" y2="123.3"><stop offset="0" stop-color="#40B23F"/><stop offset=".1" stop-color="#36A73D"/><stop offset=".5" stop-color="#198536"/><stop offset=".8" stop-color="#077132"/><stop offset="1" stop-color="#006931"/></linearGradient><path fill="url(#S)" d="M0 129.3s1-.2 3.4-2.6 3.2-3.3 3.8-3.3c.7-.3 2 0 2.7 1l3.8 4 1 1H0z"/><defs><path id="T" d="M0 129.3s1-.2 3.4-2.6 3.2-3.3 3.8-3.3c.7-.3 2 0 2.7 1l3.8 4 1 1H0z"/></defs><clipPath id="U"><use xlink:href="#T" overflow="visible"/></clipPath><linearGradient id="V" gradientUnits="userSpaceOnUse" x1="2.2" y1="130.5" x2="6.3" y2="123.4"><stop offset="0" stop-color="#40B23F"/><stop offset=".4" stop-color="#208E38"/><stop offset=".8" stop-color="#097333"/><stop offset="1" stop-color="#006931"/></linearGradient><path clip-path="url(#U)" fill="url(#V)" d="M6.6 123.7s3 .7.3 3.4c-.5.5-2.6 2.2-7 2.3l6.6-5.6z"/></g></g><g><linearGradient id="W" gradientUnits="userSpaceOnUse" x1="74.9" y1="150" x2="74.9" y2="147.1"><stop offset="0" stop-color="#40B23F"/><stop offset=".1" stop-color="#36A73D"/><stop offset=".5" stop-color="#198536"/><stop offset=".8" stop-color="#077132"/><stop offset="1" stop-color="#006931"/></linearGradient><path fill="url(#W)" d="M71.3 150s.5 0 1.7-1.2 1.6-1.6 1.8-1.6c.4-.2 1 0 1.3.4.6.4 2 1.8 2 2l.5.4h-7.2z"/><defs><path id="X" d="M71.3 150s.5 0 1.7-1.2 1.6-1.6 1.8-1.6c.4-.2 1 0 1.3.4.6.4 2 1.8 2 2l.5.4h-7.2z"/></defs><clipPath id="Y"><use xlink:href="#X" overflow="visible"/></clipPath><linearGradient id="Z" gradientUnits="userSpaceOnUse" x1="72.4" y1="150.6" x2="74.4" y2="147.2"><stop offset="0" stop-color="#40B23F"/><stop offset=".4" stop-color="#208E38"/><stop offset=".8" stop-color="#097333"/><stop offset="1" stop-color="#006931"/></linearGradient><path clip-path="url(#Y)" fill="url(#Z)" d="M74.5 147.3s1.5.3.2 1.7c-.2 0-1.2 1-3.4 1l3.2-2.7z"/><g><linearGradient id="aa" gradientUnits="userSpaceOnUse" x1="69.4" y1="150.1" x2="69.4" y2="145.8"><stop offset="0" stop-color="#40B23F"/><stop offset=".1" stop-color="#36A73D"/><stop offset=".5" stop-color="#198536"/><stop offset=".8" stop-color="#077132"/><stop offset="1" stop-color="#006931"/></linearGradient><path fill="url(#aa)" d="M64.2 150s.7 0 2.4-1.7 2.3-2.4 2.7-2.4c.5-.3 1.3 0 2 .6l2.7 2.8.6.7H64.2z"/><defs><path id="ab" d="M64.2 150s.7 0 2.4-1.7 2.3-2.4 2.7-2.4c.5-.3 1.3 0 2 .6l2.7 2.8.6.7H64.2z"/></defs><clipPath id="ac"><use xlink:href="#ab" overflow="visible"/></clipPath><linearGradient id="ad" gradientUnits="userSpaceOnUse" x1="65.8" y1="151" x2="68.7" y2="145.9"><stop offset="0" stop-color="#40B23F"/><stop offset=".4" stop-color="#208E38"/><stop offset=".8" stop-color="#097333"/><stop offset="1" stop-color="#006931"/></linearGradient><path clip-path="url(#ac)" fill="url(#ad)" d="M69 146s2 .6 0 2.5c-.2.3-1.7 1.5-4.8 1.6l4.7-4z"/></g></g><g><linearGradient id="ae" gradientUnits="userSpaceOnUse" x1="76.4" y1="144.5" x2="76.4" y2="142.8"><stop offset="0" stop-color="#40B23F"/><stop offset=".1" stop-color="#36A73D"/><stop offset=".5" stop-color="#198536"/><stop offset=".8" stop-color="#077132"/><stop offset="1" stop-color="#006931"/></linearGradient><path fill="url(#ae)" d="M74.4 144.5s.3 0 1-.7c.6-.7.8-1 1-1 0 0 .5 0 .7.3.3.4 1 1 1 1.2l.4.3h-4z"/><defs><path id="af" d="M74.4 144.5s.3 0 1-.7c.6-.7.8-1 1-1 0 0 .5 0 .7.3.3.4 1 1 1 1.2l.4.3h-4z"/></defs><clipPath id="ag"><use xlink:href="#af" overflow="visible"/></clipPath><linearGradient id="ah" gradientUnits="userSpaceOnUse" x1="75" y1="144.8" x2="76.1" y2="142.9"><stop offset="0" stop-color="#40B23F"/><stop offset=".4" stop-color="#208E38"/><stop offset=".8" stop-color="#097333"/><stop offset="1" stop-color="#006931"/></linearGradient><path clip-path="url(#ag)" fill="url(#ah)" d="M76.2 143s.8 0 0 1c0 0-.6.5-1.8.5l1.8-1.5z"/><g><linearGradient id="ai" gradientUnits="userSpaceOnUse" x1="73.3" y1="144.5" x2="73.3" y2="142.1"><stop offset="0" stop-color="#40B23F"/><stop offset=".1" stop-color="#36A73D"/><stop offset=".5" stop-color="#198536"/><stop offset=".8" stop-color="#077132"/><stop offset="1" stop-color="#006931"/></linearGradient><path fill="url(#ai)" d="M70.4 144.5s.4 0 1.3-1c1-1 1.3-1.3 1.6-1.3.2 0 .7 0 1 .4L76 144l.2.5h-5.8z"/><defs><path id="aj" d="M70.4 144.5s.4 0 1.3-1c1-1 1.3-1.3 1.6-1.3.2 0 .7 0 1 .4L76 144l.2.5h-5.8z"/></defs><clipPath id="ak"><use xlink:href="#aj" overflow="visible"/></clipPath><linearGradient id="al" gradientUnits="userSpaceOnUse" x1="71.3" y1="145" x2="72.9" y2="142.2"><stop offset="0" stop-color="#40B23F"/><stop offset=".4" stop-color="#208E38"/><stop offset=".8" stop-color="#097333"/><stop offset="1" stop-color="#006931"/></linearGradient><path clip-path="url(#ak)" fill="url(#al)" d="M73 142.3s1.2.3 0 1.3c0 .2-1 1-2.6 1l2.6-2.3z"/></g></g><g><linearGradient id="am" gradientUnits="userSpaceOnUse" x1="14.6" y1="133.7" x2="14.6" y2="130.7"><stop offset="0" stop-color="#40B23F"/><stop offset=".1" stop-color="#36A73D"/><stop offset=".5" stop-color="#198536"/><stop offset=".8" stop-color="#077132"/><stop offset="1" stop-color="#006931"/></linearGradient><path fill="url(#am)" d="M11 133.7s.4 0 1.7-1.3 1.6-1.7 2-1.7c.2 0 .8 0 1.2.5l2 2 .3.5H11z"/><defs><path id="an" d="M11 133.7s.4 0 1.7-1.3 1.6-1.7 2-1.7c.2 0 .8 0 1.2.5l2 2 .3.5H11z"/></defs><clipPath id="ao"><use xlink:href="#an" overflow="visible"/></clipPath><linearGradient id="ap" gradientUnits="userSpaceOnUse" x1="12" y1="134.3" x2="14.1" y2="130.7"><stop offset="0" stop-color="#40B23F"/><stop offset=".4" stop-color="#208E38"/><stop offset=".8" stop-color="#097333"/><stop offset="1" stop-color="#006931"/></linearGradient><path clip-path="url(#ao)" fill="url(#ap)" d="M14.3 131s1.4.2 0 1.6c0 .2-1 1-3.4 1l3.3-2.7z"/><g><linearGradient id="aq" gradientUnits="userSpaceOnUse" x1="9" y1="133.7" x2="9" y2="129.3"><stop offset="0" stop-color="#40B23F"/><stop offset=".1" stop-color="#36A73D"/><stop offset=".5" stop-color="#198536"/><stop offset=".8" stop-color="#077132"/><stop offset="1" stop-color="#006931"/></linearGradient><path fill="url(#aq)" d="M3.6 133.7s.7 0 2.5-2 2.5-2.3 3-2.3c.4-.2 1.2 0 1.8.7l3 3 .6.7H3.6z"/><defs><path id="ar" d="M3.6 133.7s.7 0 2.5-2 2.5-2.3 3-2.3c.4-.2 1.2 0 1.8.7l3 3 .6.7H3.6z"/></defs><clipPath id="as"><use xlink:href="#ar" overflow="visible"/></clipPath><linearGradient id="at" gradientUnits="userSpaceOnUse" x1="5.2" y1="134.6" x2="8.2" y2="129.4"><stop offset="0" stop-color="#40B23F"/><stop offset=".4" stop-color="#208E38"/><stop offset=".8" stop-color="#097333"/><stop offset="1" stop-color="#006931"/></linearGradient><path clip-path="url(#as)" fill="url(#at)" d="M8.4 129.6s2.2.5.2 2.5c-.3.4-1.8 1.7-5 1.7l4.8-4z"/></g></g><g><linearGradient id="au" gradientUnits="userSpaceOnUse" x1="79.6" y1="86.7" x2="79.6" y2="84"><stop offset="0" stop-color="#40B23F"/><stop offset=".1" stop-color="#36A73D"/><stop offset=".5" stop-color="#198536"/><stop offset=".8" stop-color="#077132"/><stop offset="1" stop-color="#006931"/></linearGradient><path fill="url(#au)" d="M76.4 86.7s.4 0 1.5-1.2c1-1 1.3-1.4 1.6-1.4.3 0 .8 0 1 .5.5.4 1.7 1.6 2 1.7l.3.5h-6.6z"/><defs><path id="av" d="M76.4 86.7s.4 0 1.5-1.2c1-1 1.3-1.4 1.6-1.4.3 0 .8 0 1 .5.5.4 1.7 1.6 2 1.7l.3.5h-6.6z"/></defs><clipPath id="aw"><use xlink:href="#av" overflow="visible"/></clipPath><linearGradient id="ax" gradientUnits="userSpaceOnUse" x1="77.3" y1="87.2" x2="79.2" y2="84.1"><stop offset="0" stop-color="#40B23F"/><stop offset=".4" stop-color="#208E38"/><stop offset=".8" stop-color="#097333"/><stop offset="1" stop-color="#006931"/></linearGradient><path clip-path="url(#aw)" fill="url(#ax)" d="M79.3 84.2s1.3.3 0 1.5c0 .2-1 1-3 1l3-2.5z"/><g><linearGradient id="ay" gradientUnits="userSpaceOnUse" x1="74.6" y1="86.7" x2="74.6" y2="82.9"><stop offset="0" stop-color="#40B23F"/><stop offset=".1" stop-color="#36A73D"/><stop offset=".5" stop-color="#198536"/><stop offset=".8" stop-color="#077132"/><stop offset="1" stop-color="#006931"/></linearGradient><path fill="url(#ay)" d="M70 86.7s.5 0 2-1.6c1.7-1.5 2.2-2 2.5-2 .5-.3 1.2 0 1.8.6l2.5 2.5.6.7H70z"/><defs><path id="az" d="M70 86.7s.5 0 2-1.6c1.7-1.5 2.2-2 2.5-2 .5-.3 1.2 0 1.8.6l2.5 2.5.6.7H70z"/></defs><clipPath id="aA"><use xlink:href="#az" overflow="visible"/></clipPath><linearGradient id="aB" gradientUnits="userSpaceOnUse" x1="71.3" y1="87.5" x2="74" y2="82.9"><stop offset="0" stop-color="#40B23F"/><stop offset=".4" stop-color="#208E38"/><stop offset=".8" stop-color="#097333"/><stop offset="1" stop-color="#006931"/></linearGradient><path clip-path="url(#aA)" fill="url(#aB)" d="M74.2 83s2 .6.2 2.3c-.3.3-1.6 1.4-4.5 1.4L74 83z"/></g></g><g><linearGradient id="aC" gradientUnits="userSpaceOnUse" x1="74.6" y1="76.7" x2="74.6" y2="73.7"><stop offset="0" stop-color="#40B23F"/><stop offset=".1" stop-color="#36A73D"/><stop offset=".5" stop-color="#198536"/><stop offset=".8" stop-color="#077132"/><stop offset="1" stop-color="#006931"/></linearGradient><path fill="url(#aC)" d="M71 76.7s.4 0 1.6-1.3 1.6-1.6 2-1.6c.3-.2 1 0 1.3.5l1.8 2 .5.4H71z"/><defs><path id="aD" d="M71 76.7s.4 0 1.6-1.3 1.6-1.6 2-1.6c.3-.2 1 0 1.3.5l1.8 2 .5.4H71z"/></defs><clipPath id="aE"><use xlink:href="#aD" overflow="visible"/></clipPath><linearGradient id="aF" gradientUnits="userSpaceOnUse" x1="72" y1="77.3" x2="74.1" y2="73.8"><stop offset="0" stop-color="#40B23F"/><stop offset=".4" stop-color="#208E38"/><stop offset=".8" stop-color="#097333"/><stop offset="1" stop-color="#006931"/></linearGradient><path clip-path="url(#aE)" fill="url(#aF)" d="M74.2 74s1.5.3.2 1.6c-.2.2-1.3 1-3.5 1L74 74z"/><g><linearGradient id="aG" gradientUnits="userSpaceOnUse" x1="69" y1="76.8" x2="69" y2="72.4"><stop offset="0" stop-color="#40B23F"/><stop offset=".1" stop-color="#36A73D"/><stop offset=".5" stop-color="#198536"/><stop offset=".8" stop-color="#077132"/><stop offset="1" stop-color="#006931"/></linearGradient><path fill="url(#aG)" d="M63.6 76.8s.7 0 2.5-2 2.4-2.3 2.8-2.3c.6-.2 1.4 0 2 .7l3 3 .5.6H63.6z"/><defs><path id="aH" d="M63.6 76.8s.7 0 2.5-2 2.4-2.3 2.8-2.3c.6-.2 1.4 0 2 .7l3 3 .5.6H63.6z"/></defs><clipPath id="aI"><use xlink:href="#aH" overflow="visible"/></clipPath><linearGradient id="aJ" gradientUnits="userSpaceOnUse" x1="65.2" y1="77.7" x2="68.2" y2="72.5"><stop offset="0" stop-color="#40B23F"/><stop offset=".4" stop-color="#208E38"/><stop offset=".8" stop-color="#097333"/><stop offset="1" stop-color="#006931"/></linearGradient><path clip-path="url(#aI)" fill="url(#aJ)" d="M68.4 72.7s2.2.5.2 2.5c-.3.3-1.8 1.5-5 1.6l4.8-4z"/></g></g><g><linearGradient id="aK" gradientUnits="userSpaceOnUse" x1="96.4" y1="91.3" x2="96.4" y2="87.2"><stop offset="0" stop-color="#40B23F"/><stop offset=".1" stop-color="#36A73D"/><stop offset=".5" stop-color="#198536"/><stop offset=".8" stop-color="#077132"/><stop offset="1" stop-color="#006931"/></linearGradient><path fill="url(#aK)" d="M91.4 91.3s.7 0 2.3-1.7 2.2-2.3 2.6-2.3c.5-.2 1.3 0 2 .6l2.5 2.6.7.7h-10z"/><defs><path id="aL" d="M91.4 91.3s.7 0 2.3-1.7 2.2-2.3 2.6-2.3c.5-.2 1.3 0 2 .6l2.5 2.6.7.7h-10z"/></defs><clipPath id="aM"><use xlink:href="#aL" overflow="visible"/></clipPath><linearGradient id="aN" gradientUnits="userSpaceOnUse" x1="92.9" y1="92.2" x2="95.7" y2="87.3"><stop offset="0" stop-color="#40B23F"/><stop offset=".4" stop-color="#208E38"/><stop offset=".8" stop-color="#097333"/><stop offset="1" stop-color="#006931"/></linearGradient><path clip-path="url(#aM)" fill="url(#aN)" d="M96 87.5s2 .4 0 2.3c-.2.3-1.6 1.4-4.6 1.5l4.5-3.8z"/><g><linearGradient id="aO" gradientUnits="userSpaceOnUse" x1="88.7" y1="91.4" x2="88.7" y2="85.4"><stop offset="0" stop-color="#40B23F"/><stop offset=".1" stop-color="#36A73D"/><stop offset=".5" stop-color="#198536"/><stop offset=".8" stop-color="#077132"/><stop offset="1" stop-color="#006931"/></linearGradient><path fill="url(#aO)" d="M81.4 91.4s1 0 3.4-2.6c2.4-2.4 3.2-3.3 3.8-3.3.7-.3 1.8 0 2.6 1 1 .8 3.7 3.6 4 4l1 1H81.3z"/><defs><path id="aP" d="M81.4 91.4s1 0 3.4-2.6c2.4-2.4 3.2-3.3 3.8-3.3.7-.3 1.8 0 2.6 1 1 .8 3.7 3.6 4 4l1 1H81.3z"/></defs><clipPath id="aQ"><use xlink:href="#aP" overflow="visible"/></clipPath><linearGradient id="aR" gradientUnits="userSpaceOnUse" x1="83.6" y1="92.6" x2="87.7" y2="85.5"><stop offset="0" stop-color="#40B23F"/><stop offset=".4" stop-color="#208E38"/><stop offset=".8" stop-color="#097333"/><stop offset="1" stop-color="#006931"/></linearGradient><path clip-path="url(#aQ)" fill="url(#aR)" d="M88 85.8s3 .7.3 3.4c-.4.4-2.5 2-7 2.2l6.6-5.6z"/></g></g><g><linearGradient id="aS" gradientUnits="userSpaceOnUse" x1="84" y1="68.3" x2="84" y2="63.7"><stop offset="0" stop-color="#40B23F"/><stop offset=".1" stop-color="#36A73D"/><stop offset=".5" stop-color="#198536"/><stop offset=".8" stop-color="#077132"/><stop offset="1" stop-color="#006931"/></linearGradient><path fill="url(#aS)" d="M78.3 68.3s.7 0 2.6-2 2.4-2.5 3-2.6c.4-.2 1.3 0 2 .8l3 3 .7.8H78.3z"/><defs><path id="aT" d="M78.3 68.3s.7 0 2.6-2 2.4-2.5 3-2.6c.4-.2 1.3 0 2 .8l3 3 .7.8H78.3z"/></defs><clipPath id="aU"><use xlink:href="#aT" overflow="visible"/></clipPath><linearGradient id="aV" gradientUnits="userSpaceOnUse" x1="80" y1="69.3" x2="83.2" y2="63.8"><stop offset="0" stop-color="#40B23F"/><stop offset=".4" stop-color="#208E38"/><stop offset=".8" stop-color="#097333"/><stop offset="1" stop-color="#006931"/></linearGradient><path clip-path="url(#aU)" fill="url(#aV)" d="M83.4 64s2.3.5.2 2.6c-.3.3-2 1.6-5.3 1.7l5-4.3z"/><g><linearGradient id="aW" gradientUnits="userSpaceOnUse" x1="75.2" y1="68.4" x2="75.2" y2="61.6"><stop offset="0" stop-color="#40B23F"/><stop offset=".1" stop-color="#36A73D"/><stop offset=".5" stop-color="#198536"/><stop offset=".8" stop-color="#077132"/><stop offset="1" stop-color="#006931"/></linearGradient><path fill="url(#aW)" d="M67 68.4s1-.2 3.8-3 3.6-3.6 4.3-3.7c1-.3 2.2 0 3 1l4.5 4.6 1 1H67z"/><defs><path id="aX" d="M67 68.4s1-.2 3.8-3 3.6-3.6 4.3-3.7c1-.3 2.2 0 3 1l4.5 4.6 1 1H67z"/></defs><clipPath id="aY"><use xlink:href="#aX" overflow="visible"/></clipPath><linearGradient id="aZ" gradientUnits="userSpaceOnUse" x1="69.4" y1="69.8" x2="74.1" y2="61.8"><stop offset="0" stop-color="#40B23F"/><stop offset=".4" stop-color="#208E38"/><stop offset=".8" stop-color="#097333"/><stop offset="1" stop-color="#006931"/></linearGradient><path clip-path="url(#aY)" fill="url(#aZ)" d="M74.4 62s3.3.8.3 4c-.4.3-2.8 2.3-7.8 2.4l7.4-6.3z"/></g></g><g><linearGradient id="ba" gradientUnits="userSpaceOnUse" x1="5.9" y1="142.5" x2="5.9" y2="138.7"><stop offset="0" stop-color="#40B23F"/><stop offset=".1" stop-color="#36A73D"/><stop offset=".5" stop-color="#198536"/><stop offset=".8" stop-color="#077132"/><stop offset="1" stop-color="#006931"/></linearGradient><path fill="url(#ba)" d="M1.3 142.5s.6 0 2-1.6 2.2-2.2 2.6-2.2c.3-.2 1 0 1.6.6L10 142l.6.5H1.3z"/><defs><path id="bb" d="M1.3 142.5s.6 0 2-1.6 2.2-2.2 2.6-2.2c.3-.2 1 0 1.6.6L10 142l.6.5H1.3z"/></defs><clipPath id="bc"><use xlink:href="#bb" overflow="visible"/></clipPath><linearGradient id="bd" gradientUnits="userSpaceOnUse" x1="2.7" y1="143.3" x2="5.3" y2="138.8"><stop offset="0" stop-color="#40B23F"/><stop offset=".4" stop-color="#208E38"/><stop offset=".8" stop-color="#097333"/><stop offset="1" stop-color="#006931"/></linearGradient><path clip-path="url(#bc)" fill="url(#bd)" d="M5.5 139s1.8.4.2 2c-.3.4-1.6 1.5-4.4 1.5l4.2-3.5z"/></g></svg>