<svg xmlns="http://www.w3.org/2000/svg" xmlns:xlink="http://www.w3.org/1999/xlink" width="190" height="190" viewBox="0 0 190 190"><path fill="#9BDE9B" d="M-5-5h200v200H-5z"/><linearGradient id="a" gradientUnits="userSpaceOnUse" x1="140.1" y1="32.7" x2="140.1" y2="26.1"><stop offset="0" stop-color="#91D891"/><stop offset=".1" stop-color="#75C37F"/><stop offset=".4" stop-color="#439C5D"/><stop offset=".7" stop-color="#1F8045"/><stop offset=".9" stop-color="#086F36"/><stop offset="1" stop-color="#006931"/></linearGradient><path fill="url(#a)" d="M132 32.7s1-.2 3.7-2.8c2.7-2.8 3.6-3.7 4.2-3.8.7-.3 2 0 3 1 .8 1 4 4 4.2 4.4l1 1H132z"/><defs><path id="b" d="M132 32.7s1-.2 3.7-2.8c2.7-2.8 3.6-3.7 4.2-3.8.7-.3 2 0 3 1 .8 1 4 4 4.2 4.4l1 1H132z"/></defs><clipPath id="c"><use xlink:href="#b" overflow="visible"/></clipPath><linearGradient id="d" gradientUnits="userSpaceOnUse" x1="134.4" y1="34.1" x2="138.9" y2="26.2"><stop offset="0" stop-color="#91D891"/><stop offset=".1" stop-color="#74C27E"/><stop offset=".4" stop-color="#439C5D"/><stop offset=".7" stop-color="#1E8045"/><stop offset=".9" stop-color="#086F36"/><stop offset="1" stop-color="#006931"/></linearGradient><path clip-path="url(#c)" fill="url(#d)" d="M139.2 26.5s3.3.8.4 3.8c-.5.4-2.8 2.3-7.6 2.4l7.2-6.2z"/><linearGradient id="e" gradientUnits="userSpaceOnUse" x1="131.3" y1="32.8" x2="131.3" y2="23.5"><stop offset="0" stop-color="#91D891"/><stop offset=".1" stop-color="#75C37F"/><stop offset=".4" stop-color="#439C5D"/><stop offset=".7" stop-color="#1F8045"/><stop offset=".9" stop-color="#086F36"/><stop offset="1" stop-color="#006931"/></linearGradient><path fill="url(#e)" d="M119.7 32.8s1.6-.2 5.4-4 5-5 6-5.2c1-.4 3 0 4.2 1.5 1.4 1.5 5.7 5.8 6 6.3l1.7 1.5h-23.3z"/><defs><path id="f" d="M119.7 32.8s1.6-.2 5.4-4 5-5 6-5.2c1-.4 3 0 4.2 1.5 1.4 1.5 5.7 5.8 6 6.3l1.7 1.5h-23.3z"/></defs><clipPath id="g"><use xlink:href="#f" overflow="visible"/></clipPath><linearGradient id="h" gradientUnits="userSpaceOnUse" x1="123.2" y1="34.8" x2="129.6" y2="23.6"><stop offset="0" stop-color="#91D891"/><stop offset=".1" stop-color="#74C27E"/><stop offset=".4" stop-color="#439C5D"/><stop offset=".7" stop-color="#1E8045"/><stop offset=".9" stop-color="#086F36"/><stop offset="1" stop-color="#006931"/></linearGradient><path clip-path="url(#g)" fill="url(#h)" d="M130 24s4.7 1 .5 5.4c-.6.6-4 3.3-10.8 3.4L130 24z"/><linearGradient id="i" gradientUnits="userSpaceOnUse" x1="102.6" y1="101" x2="102.6" y2="92.9"><stop offset="0" stop-color="#91D891"/><stop offset=".1" stop-color="#75C37F"/><stop offset=".4" stop-color="#439C5D"/><stop offset=".7" stop-color="#1F8045"/><stop offset=".9" stop-color="#086F36"/><stop offset="1" stop-color="#006931"/></linearGradient><path fill="url(#i)" d="M92.5 101s1.3-.2 4.6-3.5c3.4-3.2 4.5-4.4 5.3-4.4 1-.3 2.5 0 3.6 1.3 1 1.2 4.8 5 5.2 5.4l1.4 1.3h-20z"/><defs><path id="j" d="M92.5 101s1.3-.2 4.6-3.5c3.4-3.2 4.5-4.4 5.3-4.4 1-.3 2.5 0 3.6 1.3 1 1.2 4.8 5 5.2 5.4l1.4 1.3h-20z"/></defs><clipPath id="k"><use xlink:href="#j" overflow="visible"/></clipPath><linearGradient id="l" gradientUnits="userSpaceOnUse" x1="95.5" y1="102.7" x2="101.1" y2="93.1"><stop offset="0" stop-color="#91D891"/><stop offset=".1" stop-color="#74C27E"/><stop offset=".4" stop-color="#439C5D"/><stop offset=".7" stop-color="#1E8045"/><stop offset=".9" stop-color="#086F36"/><stop offset="1" stop-color="#006931"/></linearGradient><path clip-path="url(#k)" fill="url(#l)" d="M101.4 93.4s4 1 .5 4.6c-.7.6-3.5 3-9.5 3l9-7.6z"/><linearGradient id="m" gradientUnits="userSpaceOnUse" x1="91.7" y1="101.2" x2="91.7" y2="89.7"><stop offset="0" stop-color="#91D891"/><stop offset=".1" stop-color="#75C37F"/><stop offset=".4" stop-color="#439C5D"/><stop offset=".7" stop-color="#1F8045"/><stop offset=".9" stop-color="#086F36"/><stop offset="1" stop-color="#006931"/></linearGradient><path fill="url(#m)" d="M77.4 101.2s2-.3 6.6-5 6.3-6.3 7.3-6.3c1.4-.7 3.6 0 5.2 1.7l7.5 7.6 2 2H77.4z"/><defs><path id="n" d="M77.4 101.2s2-.3 6.6-5 6.3-6.3 7.3-6.3c1.4-.7 3.6 0 5.2 1.7l7.5 7.6 2 2H77.4z"/></defs><clipPath id="o"><use xlink:href="#n" overflow="visible"/></clipPath><linearGradient id="p" gradientUnits="userSpaceOnUse" x1="81.7" y1="103.6" x2="89.6" y2="89.9"><stop offset="0" stop-color="#91D891"/><stop offset=".1" stop-color="#74C27E"/><stop offset=".4" stop-color="#439C5D"/><stop offset=".7" stop-color="#1E8045"/><stop offset=".9" stop-color="#086F36"/><stop offset="1" stop-color="#006931"/></linearGradient><path clip-path="url(#o)" fill="url(#p)" d="M90 90.4s5.8 1.3.7 6.5c-.7.7-4.7 4-13.3 4.2L90 90.4z"/><g><linearGradient id="q" gradientUnits="userSpaceOnUse" x1="62.5" y1="21.8" x2="62.5" y2="18.5"><stop offset="0" stop-color="#91D891"/><stop offset=".1" stop-color="#75C37F"/><stop offset=".4" stop-color="#439C5D"/><stop offset=".7" stop-color="#1F8045"/><stop offset=".9" stop-color="#086F36"/><stop offset="1" stop-color="#006931"/></linearGradient><path fill="url(#q)" d="M58.5 21.8s.5 0 1.8-1.4c1.3-1.3 1.8-1.8 2-1.8.5-.2 1 0 1.5.5l2.2 2.3.5.5h-8z"/><defs><path id="r" d="M58.5 21.8s.5 0 1.8-1.4c1.3-1.3 1.8-1.8 2-1.8.5-.2 1 0 1.5.5l2.2 2.3.5.5h-8z"/></defs><clipPath id="s"><use xlink:href="#r" overflow="visible"/></clipPath><linearGradient id="t" gradientUnits="userSpaceOnUse" x1="59.7" y1="22.5" x2="61.9" y2="18.6"><stop offset="0" stop-color="#91D891"/><stop offset=".1" stop-color="#74C27E"/><stop offset=".4" stop-color="#439C5D"/><stop offset=".7" stop-color="#1E8045"/><stop offset=".9" stop-color="#086F36"/><stop offset="1" stop-color="#006931"/></linearGradient><path clip-path="url(#s)" fill="url(#t)" d="M62 18.8s1.6.3.2 1.8c-.2.2-1.3 1.2-3.7 1.2l3.5-3z"/><linearGradient id="u" gradientUnits="userSpaceOnUse" x1="58.1" y1="21.9" x2="58.1" y2="17.2"><stop offset="0" stop-color="#91D891"/><stop offset=".1" stop-color="#75C37F"/><stop offset=".4" stop-color="#439C5D"/><stop offset=".7" stop-color="#1F8045"/><stop offset=".9" stop-color="#086F36"/><stop offset="1" stop-color="#006931"/></linearGradient><path fill="url(#u)" d="M52.4 22s.8-.2 2.6-2 2.6-2.7 3-2.7c.5-.2 1.4 0 2 .8l3 3 1 1H52.3z"/><defs><path id="v" d="M52.4 22s.8-.2 2.6-2 2.6-2.7 3-2.7c.5-.2 1.4 0 2 .8l3 3 1 1H52.3z"/></defs><clipPath id="w"><use xlink:href="#v" overflow="visible"/></clipPath><linearGradient id="x" gradientUnits="userSpaceOnUse" x1="54.1" y1="22.8" x2="57.3" y2="17.3"><stop offset="0" stop-color="#91D891"/><stop offset=".1" stop-color="#74C27E"/><stop offset=".4" stop-color="#439C5D"/><stop offset=".7" stop-color="#1E8045"/><stop offset=".9" stop-color="#086F36"/><stop offset="1" stop-color="#006931"/></linearGradient><path clip-path="url(#w)" fill="url(#x)" d="M57.5 17.5s2.3.6.2 2.7c-.3.3-2 1.6-5.3 1.6l5-4.3z"/></g><g><linearGradient id="y" gradientUnits="userSpaceOnUse" x1="53.6" y1="26.4" x2="53.6" y2="22.3"><stop offset="0" stop-color="#91D891"/><stop offset=".1" stop-color="#75C37F"/><stop offset=".4" stop-color="#439C5D"/><stop offset=".7" stop-color="#1F8045"/><stop offset=".9" stop-color="#086F36"/><stop offset="1" stop-color="#006931"/></linearGradient><path fill="url(#y)" d="M48.5 26.4s.7 0 2.4-1.7c1.5-1.7 2-2.3 2.5-2.3.4-.2 1.2 0 1.8.7L58 26l.7.6H48.5z"/><defs><path id="z" d="M48.5 26.4s.7 0 2.4-1.7c1.5-1.7 2-2.3 2.5-2.3.4-.2 1.2 0 1.8.7L58 26l.7.6H48.5z"/></defs><clipPath id="A"><use xlink:href="#z" overflow="visible"/></clipPath><linearGradient id="B" gradientUnits="userSpaceOnUse" x1="50" y1="27.3" x2="52.9" y2="22.4"><stop offset="0" stop-color="#91D891"/><stop offset=".1" stop-color="#74C27E"/><stop offset=".4" stop-color="#439C5D"/><stop offset=".7" stop-color="#1E8045"/><stop offset=".9" stop-color="#086F36"/><stop offset="1" stop-color="#006931"/></linearGradient><path clip-path="url(#A)" fill="url(#B)" d="M53 22.6s2 .5.3 2.3c-.3.2-1.7 1.4-4.8 1.4l4.5-3.8z"/><linearGradient id="C" gradientUnits="userSpaceOnUse" x1="48.1" y1="26.5" x2="48.1" y2="20.7"><stop offset="0" stop-color="#91D891"/><stop offset=".1" stop-color="#75C37F"/><stop offset=".4" stop-color="#439C5D"/><stop offset=".7" stop-color="#1F8045"/><stop offset=".9" stop-color="#086F36"/><stop offset="1" stop-color="#006931"/></linearGradient><path fill="url(#C)" d="M41 26.5s.8 0 3.2-2.5 3.2-3.2 3.7-3.2c.6-.3 1.7 0 2.5 1 1 .8 3.6 3.5 4 3.8l1 1H40.8z"/><defs><path id="D" d="M41 26.5s.8 0 3.2-2.5 3.2-3.2 3.7-3.2c.6-.3 1.7 0 2.5 1 1 .8 3.6 3.5 4 3.8l1 1H40.8z"/></defs><clipPath id="E"><use xlink:href="#D" overflow="visible"/></clipPath><linearGradient id="F" gradientUnits="userSpaceOnUse" x1="43" y1="27.8" x2="47" y2="20.8"><stop offset="0" stop-color="#91D891"/><stop offset=".1" stop-color="#74C27E"/><stop offset=".4" stop-color="#439C5D"/><stop offset=".7" stop-color="#1E8045"/><stop offset=".9" stop-color="#086F36"/><stop offset="1" stop-color="#006931"/></linearGradient><path clip-path="url(#E)" fill="url(#F)" d="M47.3 21s3 .7.3 3.4c-.4.4-2.4 2-6.7 2l6.3-5.3z"/></g><g><linearGradient id="G" gradientUnits="userSpaceOnUse" x1="96.2" y1="30.9" x2="96.2" y2="26"><stop offset="0" stop-color="#91D891"/><stop offset=".1" stop-color="#75C37F"/><stop offset=".4" stop-color="#439C5D"/><stop offset=".7" stop-color="#1F8045"/><stop offset=".9" stop-color="#086F36"/><stop offset="1" stop-color="#006931"/></linearGradient><path fill="url(#G)" d="M90 31s1-.2 3-2.2 2.5-2.7 3-2.7c.6-.2 1.5 0 2.2 1l3.2 3 .8 1h-12z"/><defs><path id="H" d="M90 31s1-.2 3-2.2 2.5-2.7 3-2.7c.6-.2 1.5 0 2.2 1l3.2 3 .8 1h-12z"/></defs><clipPath id="I"><use xlink:href="#H" overflow="visible"/></clipPath><linearGradient id="J" gradientUnits="userSpaceOnUse" x1="91.9" y1="31.9" x2="95.2" y2="26.1"><stop offset="0" stop-color="#91D891"/><stop offset=".1" stop-color="#74C27E"/><stop offset=".4" stop-color="#439C5D"/><stop offset=".7" stop-color="#1E8045"/><stop offset=".9" stop-color="#086F36"/><stop offset="1" stop-color="#006931"/></linearGradient><path clip-path="url(#I)" fill="url(#J)" d="M95.5 26.3s2.4.6.2 2.8c-.3.4-2 1.8-5.6 2l5.5-4.7z"/></g><g><linearGradient id="K" gradientUnits="userSpaceOnUse" x1="55.9" y1="43.8" x2="55.9" y2="38.9"><stop offset="0" stop-color="#91D891"/><stop offset=".1" stop-color="#75C37F"/><stop offset=".4" stop-color="#439C5D"/><stop offset=".7" stop-color="#1F8045"/><stop offset=".9" stop-color="#086F36"/><stop offset="1" stop-color="#006931"/></linearGradient><path fill="url(#K)" d="M49.8 43.8s.8 0 2.8-2 2.7-2.8 3-2.8c.7-.3 1.7 0 2.3.8.7.7 3 3 3 3.2l1 .8H49.8z"/><defs><path id="L" d="M49.8 43.8s.8 0 2.8-2 2.7-2.8 3-2.8c.7-.3 1.7 0 2.3.8.7.7 3 3 3 3.2l1 .8H49.8z"/></defs><clipPath id="M"><use xlink:href="#L" overflow="visible"/></clipPath><linearGradient id="N" gradientUnits="userSpaceOnUse" x1="51.6" y1="44.8" x2="55" y2="39"><stop offset="0" stop-color="#91D891"/><stop offset=".1" stop-color="#74C27E"/><stop offset=".4" stop-color="#439C5D"/><stop offset=".7" stop-color="#1E8045"/><stop offset=".9" stop-color="#086F36"/><stop offset="1" stop-color="#006931"/></linearGradient><path clip-path="url(#M)" fill="url(#N)" d="M55.2 39.2s2.4.6.3 2.8c-.3.3-2 1.7-5.7 1.8l5.4-4.6z"/></g><g><linearGradient id="O" gradientUnits="userSpaceOnUse" x1="49.8" y1="50.9" x2="49.8" y2="46"><stop offset="0" stop-color="#91D891"/><stop offset=".1" stop-color="#75C37F"/><stop offset=".4" stop-color="#439C5D"/><stop offset=".7" stop-color="#1F8045"/><stop offset=".9" stop-color="#086F36"/><stop offset="1" stop-color="#006931"/></linearGradient><path fill="url(#O)" d="M43.7 51s.8-.2 2.8-2.2 2.7-2.7 3.2-2.8c.5-.2 1.5 0 2.2.8l3 3.3 1 1H43.6z"/><defs><path id="P" d="M43.7 51s.8-.2 2.8-2.2 2.7-2.7 3.2-2.8c.5-.2 1.5 0 2.2.8l3 3.3 1 1H43.6z"/></defs><clipPath id="Q"><use xlink:href="#P" overflow="visible"/></clipPath><linearGradient id="R" gradientUnits="userSpaceOnUse" x1="45.5" y1="51.9" x2="48.9" y2="46.1"><stop offset="0" stop-color="#91D891"/><stop offset=".1" stop-color="#74C27E"/><stop offset=".4" stop-color="#439C5D"/><stop offset=".7" stop-color="#1E8045"/><stop offset=".9" stop-color="#086F36"/><stop offset="1" stop-color="#006931"/></linearGradient><path clip-path="url(#Q)" fill="url(#R)" d="M49 46.3s2.6.5.4 2.8c-.3.4-2 1.8-5.7 2l5.4-4.7z"/></g><g><linearGradient id="S" gradientUnits="userSpaceOnUse" x1="107.5" y1="108.4" x2="107.5" y2="103.5"><stop offset="0" stop-color="#91D891"/><stop offset=".1" stop-color="#75C37F"/><stop offset=".4" stop-color="#439C5D"/><stop offset=".7" stop-color="#1F8045"/><stop offset=".9" stop-color="#086F36"/><stop offset="1" stop-color="#006931"/></linearGradient><path fill="url(#S)" d="M101.5 108.4s.8 0 2.8-2 2.6-2.8 3-2.8c.6-.3 1.6 0 2.3.8l3.2 3.2.8.8h-12z"/><defs><path id="T" d="M101.5 108.4s.8 0 2.8-2 2.6-2.8 3-2.8c.6-.3 1.6 0 2.3.8l3.2 3.2.8.8h-12z"/></defs><clipPath id="U"><use xlink:href="#T" overflow="visible"/></clipPath><linearGradient id="V" gradientUnits="userSpaceOnUse" x1="103.3" y1="109.4" x2="106.6" y2="103.6"><stop offset="0" stop-color="#91D891"/><stop offset=".1" stop-color="#74C27E"/><stop offset=".4" stop-color="#439C5D"/><stop offset=".7" stop-color="#1E8045"/><stop offset=".9" stop-color="#086F36"/><stop offset="1" stop-color="#006931"/></linearGradient><path clip-path="url(#U)" fill="url(#V)" d="M107 103.8s2.3.6 0 2.8c-.2.3-2 1.7-5.5 1.8l5.4-4.6z"/></g><g><linearGradient id="W" gradientUnits="userSpaceOnUse" x1="126.5" y1="41" x2="126.5" y2="36"><stop offset="0" stop-color="#91D891"/><stop offset=".1" stop-color="#75C37F"/><stop offset=".4" stop-color="#439C5D"/><stop offset=".7" stop-color="#1F8045"/><stop offset=".9" stop-color="#086F36"/><stop offset="1" stop-color="#006931"/></linearGradient><path fill="url(#W)" d="M120.3 41s.8 0 2.8-2c2.2-2 2.8-2.8 3.3-3 .6 0 1.6 0 2.2 1 .8.6 3 3 3.3 3.2l.8.8h-12.3z"/><defs><path id="X" d="M120.3 41s.8 0 2.8-2c2.2-2 2.8-2.8 3.3-3 .6 0 1.6 0 2.2 1 .8.6 3 3 3.3 3.2l.8.8h-12.3z"/></defs><clipPath id="Y"><use xlink:href="#X" overflow="visible"/></clipPath><linearGradient id="Z" gradientUnits="userSpaceOnUse" x1="122.1" y1="42.1" x2="125.5" y2="36.1"><stop offset="0" stop-color="#91D891"/><stop offset=".1" stop-color="#74C27E"/><stop offset=".4" stop-color="#439C5D"/><stop offset=".7" stop-color="#1E8045"/><stop offset=".9" stop-color="#086F36"/><stop offset="1" stop-color="#006931"/></linearGradient><path clip-path="url(#Y)" fill="url(#Z)" d="M125.8 36.4s2.4.5.2 2.8c-.3.3-2 1.8-5.7 1.8l5.5-4.6z"/><linearGradient id="aa" gradientUnits="userSpaceOnUse" x1="119.8" y1="41.1" x2="119.8" y2="34"><stop offset="0" stop-color="#91D891"/><stop offset=".1" stop-color="#75C37F"/><stop offset=".4" stop-color="#439C5D"/><stop offset=".7" stop-color="#1F8045"/><stop offset=".9" stop-color="#086F36"/><stop offset="1" stop-color="#006931"/></linearGradient><path fill="url(#aa)" d="M111 41s1.2 0 4-3c3-2.8 4-3.8 4.6-3.8.8-.4 2.2 0 3.2 1l4.6 4.8 1.2 1H111z"/><defs><path id="ab" d="M111 41s1.2 0 4-3c3-2.8 4-3.8 4.6-3.8.8-.4 2.2 0 3.2 1l4.6 4.8 1.2 1H111z"/></defs><clipPath id="ac"><use xlink:href="#ab" overflow="visible"/></clipPath><linearGradient id="ad" gradientUnits="userSpaceOnUse" x1="113.6" y1="42.6" x2="118.5" y2="34.2"><stop offset="0" stop-color="#91D891"/><stop offset=".1" stop-color="#74C27E"/><stop offset=".4" stop-color="#439C5D"/><stop offset=".7" stop-color="#1E8045"/><stop offset=".9" stop-color="#086F36"/><stop offset="1" stop-color="#006931"/></linearGradient><path clip-path="url(#ac)" fill="url(#ad)" d="M118.8 34.5s3.5.8.4 4c-.5.5-3 2.5-8.2 2.6l7.8-6.5z"/></g></svg>