<svg xmlns="http://www.w3.org/2000/svg" xmlns:xlink="http://www.w3.org/1999/xlink" width="230" height="230" viewBox="0 0 230 230"><path fill="#CEBB89" d="M-5-6h240v240H-5z"/><linearGradient id="a" gradientUnits="userSpaceOnUse" x1="124.7" y1="77.7" x2="124.7" y2="72.4"><stop offset="0" stop-color="#D3B98C"/><stop offset=".2" stop-color="#CEB17A"/><stop offset=".5" stop-color="#C7A664"/><stop offset=".8" stop-color="#C39F56"/><stop offset="1" stop-color="#C29D51"/></linearGradient><path fill="url(#a)" d="M114 77.7s1.4-.6 3.8-3.3c2.2-2 4.3-3.5 8 .7 1 .6 1.8 1.2 3.3 0 1-1.2 2-1.4 3.5.3 0 0 1.6 2 3 2.4h-21.6z"/><defs><path id="b" d="M114 77.7s1.4-.6 3.8-3.3c2.2-2 4.3-3.5 8 .7 1 .6 1.8 1.2 3.3 0 1-1.2 2-1.4 3.5.3 0 0 1.6 2 3 2.4h-21.6z"/></defs><clipPath id="c"><use xlink:href="#b" overflow="visible"/></clipPath><linearGradient id="d" gradientUnits="userSpaceOnUse" x1="117.2" y1="78.3" x2="117.2" y2="72.4"><stop offset="0" stop-color="#D3B98C"/><stop offset="0" stop-color="#D0B485"/><stop offset=".3" stop-color="#C09D65"/><stop offset=".6" stop-color="#B48C4F"/><stop offset=".8" stop-color="#AD8241"/><stop offset="1" stop-color="#AB7F3C"/></linearGradient><path clip-path="url(#c)" fill="url(#d)" d="M120 72.4s3.4 1 .7 3.3c-3.8 3-6 1-8 2.6l7.2-6z"/><linearGradient id="e" gradientUnits="userSpaceOnUse" x1="65.4" y1="41.3" x2="65.4" y2="31.5"><stop offset="0" stop-color="#D3B98C"/><stop offset=".2" stop-color="#CEB17A"/><stop offset=".5" stop-color="#C7A664"/><stop offset=".8" stop-color="#C39F56"/><stop offset="1" stop-color="#C29D51"/></linearGradient><path fill="url(#e)" d="M45.4 41.3s2.8-1.2 7-6c4.3-4 8.2-6.6 15.2 1.2 2 1 3.2 2 6 0 2-2.3 3.4-2.8 6.4.5 0 0 3 3.6 5.4 4.3h-40z"/><defs><path id="f" d="M45.4 41.3s2.8-1.2 7-6c4.3-4 8.2-6.6 15.2 1.2 2 1 3.2 2 6 0 2-2.3 3.4-2.8 6.4.5 0 0 3 3.6 5.4 4.3h-40z"/></defs><clipPath id="g"><use xlink:href="#f" overflow="visible"/></clipPath><linearGradient id="h" gradientUnits="userSpaceOnUse" x1="51.4" y1="42.4" x2="51.4" y2="31.5"><stop offset="0" stop-color="#D3B98C"/><stop offset="0" stop-color="#D0B485"/><stop offset=".3" stop-color="#C09D65"/><stop offset=".6" stop-color="#B48C4F"/><stop offset=".8" stop-color="#AD8241"/><stop offset="1" stop-color="#AB7F3C"/></linearGradient><path clip-path="url(#g)" fill="url(#h)" d="M56.5 31.5s6.5 1.8 1.5 6.2c-7 5.3-11.4 1.6-15 4.7l13.5-11z"/><linearGradient id="i" gradientUnits="userSpaceOnUse" x1="90.6" y1="67.2" x2="90.6" y2="60.6"><stop offset="0" stop-color="#D3B98C"/><stop offset=".2" stop-color="#CEB17A"/><stop offset=".5" stop-color="#C7A664"/><stop offset=".8" stop-color="#C39F56"/><stop offset="1" stop-color="#C29D51"/></linearGradient><path fill="url(#i)" d="M77 67.2s2-.8 4.8-4c3-2.7 5.5-4.5 10.2.7 1.3.6 2.2 1.4 4 0 1.5-1.6 2.4-2 4.5.3 0 0 2 2.4 3.7 3H77z"/><defs><path id="j" d="M77 67.2s2-.8 4.8-4c3-2.7 5.5-4.5 10.2.7 1.3.6 2.2 1.4 4 0 1.5-1.6 2.4-2 4.5.3 0 0 2 2.4 3.7 3H77z"/></defs><clipPath id="k"><use xlink:href="#j" overflow="visible"/></clipPath><linearGradient id="l" gradientUnits="userSpaceOnUse" x1="81.1" y1="68" x2="81.1" y2="60.6"><stop offset="0" stop-color="#D3B98C"/><stop offset="0" stop-color="#D0B485"/><stop offset=".3" stop-color="#C09D65"/><stop offset=".6" stop-color="#B48C4F"/><stop offset=".8" stop-color="#AD8241"/><stop offset="1" stop-color="#AB7F3C"/></linearGradient><path clip-path="url(#k)" fill="url(#l)" d="M84.5 60.6s4.4 1.2 1 4.2c-4.8 3.6-7.7 1-10.2 3.2l9.2-7.4z"/><linearGradient id="m" gradientUnits="userSpaceOnUse" x1="148.1" y1="38.2" x2="148.1" y2="31.6"><stop offset="0" stop-color="#D3B98C"/><stop offset=".2" stop-color="#CEB17A"/><stop offset=".5" stop-color="#C7A664"/><stop offset=".8" stop-color="#C39F56"/><stop offset="1" stop-color="#C29D51"/></linearGradient><path fill="url(#m)" d="M134.5 38.2s2-.8 5-4c2.7-2.7 5.4-4.5 10 .7 1.4.6 2.3 1.4 4.2 0 1.4-1.6 2.3-2 4.4.3 0 0 2 2.4 3.7 3h-27.2z"/><defs><path id="n" d="M134.5 38.2s2-.8 5-4c2.7-2.7 5.4-4.5 10 .7 1.4.6 2.3 1.4 4.2 0 1.4-1.6 2.3-2 4.4.3 0 0 2 2.4 3.7 3h-27.2z"/></defs><clipPath id="o"><use xlink:href="#n" overflow="visible"/></clipPath><linearGradient id="p" gradientUnits="userSpaceOnUse" x1="138.6" y1="39" x2="138.6" y2="31.6"><stop offset="0" stop-color="#D3B98C"/><stop offset="0" stop-color="#D0B485"/><stop offset=".3" stop-color="#C09D65"/><stop offset=".6" stop-color="#B48C4F"/><stop offset=".8" stop-color="#AD8241"/><stop offset="1" stop-color="#AB7F3C"/></linearGradient><path clip-path="url(#o)" fill="url(#p)" d="M142 31.6s4.5 1.2 1 4.2c-4.7 3.6-7.6 1-10 3.2l9-7.4z"/><linearGradient id="q" gradientUnits="userSpaceOnUse" x1="102.1" y1="223.8" x2="102.1" y2="217.2"><stop offset="0" stop-color="#D3B98C"/><stop offset=".2" stop-color="#CEB17A"/><stop offset=".5" stop-color="#C7A664"/><stop offset=".8" stop-color="#C39F56"/><stop offset="1" stop-color="#C29D51"/></linearGradient><path fill="url(#q)" d="M88.5 223.8s2-.8 4.8-4c2.8-2.7 5.5-4.5 10.2.7 1.3.7 2.2 1.5 4 0 1.5-1.5 2.4-1.8 4.5.4 0 0 2 2.3 3.6 2.8h-27z"/><defs><path id="r" d="M88.5 223.8s2-.8 4.8-4c2.8-2.7 5.5-4.5 10.2.7 1.3.7 2.2 1.5 4 0 1.5-1.5 2.4-1.8 4.5.4 0 0 2 2.3 3.6 2.8h-27z"/></defs><clipPath id="s"><use xlink:href="#r" overflow="visible"/></clipPath><linearGradient id="t" gradientUnits="userSpaceOnUse" x1="92.6" y1="224.6" x2="92.6" y2="217.2"><stop offset="0" stop-color="#D3B98C"/><stop offset="0" stop-color="#D0B485"/><stop offset=".3" stop-color="#C09D65"/><stop offset=".6" stop-color="#B48C4F"/><stop offset=".8" stop-color="#AD8241"/><stop offset="1" stop-color="#AB7F3C"/></linearGradient><path clip-path="url(#s)" fill="url(#t)" d="M96 217.2s4.4 1.2 1 4.2c-4.8 3.6-7.7 1-10.2 3.2l9.2-7.4z"/><g><linearGradient id="u" gradientUnits="userSpaceOnUse" x1="91.8" y1="224.2" x2="91.8" y2="217.6"><stop offset="0" stop-color="#D3B98C"/><stop offset=".2" stop-color="#CEB17A"/><stop offset=".5" stop-color="#C7A664"/><stop offset=".8" stop-color="#C39F56"/><stop offset="1" stop-color="#C29D51"/></linearGradient><path fill="url(#u)" d="M78.2 224.2s2-.8 4.8-4c3-2.7 5.5-4.5 10.2.7 1.3.6 2.2 1.4 4 0 1.5-1.6 2.4-2 4.5.3 0 0 2 2.4 3.7 3H78.2z"/><defs><path id="v" d="M78.2 224.2s2-.8 4.8-4c3-2.7 5.5-4.5 10.2.7 1.3.6 2.2 1.4 4 0 1.5-1.6 2.4-2 4.5.3 0 0 2 2.4 3.7 3H78.2z"/></defs><clipPath id="w"><use xlink:href="#v" overflow="visible"/></clipPath><linearGradient id="x" gradientUnits="userSpaceOnUse" x1="82.3" y1="225" x2="82.3" y2="217.6"><stop offset="0" stop-color="#D3B98C"/><stop offset="0" stop-color="#D0B485"/><stop offset=".3" stop-color="#C09D65"/><stop offset=".6" stop-color="#B48C4F"/><stop offset=".8" stop-color="#AD8241"/><stop offset="1" stop-color="#AB7F3C"/></linearGradient><path clip-path="url(#w)" fill="url(#x)" d="M85.7 217.6s4.4 1.2 1 4.2c-4.7 3.6-7.7 1-10.2 3.2l9.2-7.4z"/></g><g><linearGradient id="y" gradientUnits="userSpaceOnUse" x1="91.8" y1="145.7" x2="91.8" y2="139"><stop offset="0" stop-color="#D3B98C"/><stop offset=".2" stop-color="#CEB17A"/><stop offset=".5" stop-color="#C7A664"/><stop offset=".8" stop-color="#C39F56"/><stop offset="1" stop-color="#C29D51"/></linearGradient><path fill="url(#y)" d="M78.2 145.7s2-.8 4.8-4c3-2.7 5.5-4.6 10.2.7 1.3.7 2.2 1.5 4 0 1.5-1.6 2.4-2 4.5.3 0 0 2 2.5 3.7 3H78.2z"/><defs><path id="z" d="M78.2 145.7s2-.8 4.8-4c3-2.7 5.5-4.6 10.2.7 1.3.7 2.2 1.5 4 0 1.5-1.6 2.4-2 4.5.3 0 0 2 2.5 3.7 3H78.2z"/></defs><clipPath id="A"><use xlink:href="#z" overflow="visible"/></clipPath><linearGradient id="B" gradientUnits="userSpaceOnUse" x1="82.3" y1="146.5" x2="82.3" y2="139"><stop offset="0" stop-color="#D3B98C"/><stop offset="0" stop-color="#D0B485"/><stop offset=".3" stop-color="#C09D65"/><stop offset=".6" stop-color="#B48C4F"/><stop offset=".8" stop-color="#AD8241"/><stop offset="1" stop-color="#AB7F3C"/></linearGradient><path clip-path="url(#A)" fill="url(#B)" d="M85.7 139s4.4 1.3 1 4.2c-4.7 3.6-7.7 1.2-10.2 3.3l9.2-7.5z"/></g><g><linearGradient id="C" gradientUnits="userSpaceOnUse" x1="105.4" y1="144.9" x2="105.4" y2="138.3"><stop offset="0" stop-color="#D3B98C"/><stop offset=".2" stop-color="#CEB17A"/><stop offset=".5" stop-color="#C7A664"/><stop offset=".8" stop-color="#C39F56"/><stop offset="1" stop-color="#C29D51"/></linearGradient><path fill="url(#C)" d="M91.8 145s2-.8 4.8-4.2c2.8-2.6 5.5-4.4 10.2 1 1.3.5 2.2 1.3 4-.2 1.5-1.5 2.4-1.8 4.5.4 0 0 2 2.5 3.6 3H91.7z"/><defs><path id="D" d="M91.8 145s2-.8 4.8-4.2c2.8-2.6 5.5-4.4 10.2 1 1.3.5 2.2 1.3 4-.2 1.5-1.5 2.4-1.8 4.5.4 0 0 2 2.5 3.6 3H91.7z"/></defs><clipPath id="E"><use xlink:href="#D" overflow="visible"/></clipPath><linearGradient id="F" gradientUnits="userSpaceOnUse" x1="95.9" y1="145.7" x2="95.9" y2="138.3"><stop offset="0" stop-color="#D3B98C"/><stop offset="0" stop-color="#D0B485"/><stop offset=".3" stop-color="#C09D65"/><stop offset=".6" stop-color="#B48C4F"/><stop offset=".8" stop-color="#AD8241"/><stop offset="1" stop-color="#AB7F3C"/></linearGradient><path clip-path="url(#E)" fill="url(#F)" d="M99.3 138.3s4.4 1.2 1 4.2c-4.8 3.6-7.7 1-10.2 3.2l9.3-7.4z"/></g><g><linearGradient id="G" gradientUnits="userSpaceOnUse" x1="165.8" y1="78.6" x2="165.8" y2="73.6"><stop offset="0" stop-color="#D3B98C"/><stop offset=".2" stop-color="#CEB17A"/><stop offset=".5" stop-color="#C7A664"/><stop offset=".8" stop-color="#C39F56"/><stop offset="1" stop-color="#C29D51"/></linearGradient><path fill="url(#G)" d="M155.6 78.6s1.4-.6 3.6-3c2.2-2 4.2-3.5 7.7.5 1 .6 1.6 1.2 3 0 1-1 1.8-1.3 3.4.4 0 0 1.5 1.8 2.7 2.2h-20.4z"/><defs><path id="H" d="M155.6 78.6s1.4-.6 3.6-3c2.2-2 4.2-3.5 7.7.5 1 .6 1.6 1.2 3 0 1-1 1.8-1.3 3.4.4 0 0 1.5 1.8 2.7 2.2h-20.4z"/></defs><clipPath id="I"><use xlink:href="#H" overflow="visible"/></clipPath><linearGradient id="J" gradientUnits="userSpaceOnUse" x1="158.7" y1="79.2" x2="158.7" y2="73.6"><stop offset="0" stop-color="#D3B98C"/><stop offset="0" stop-color="#D0B485"/><stop offset=".3" stop-color="#C09D65"/><stop offset=".6" stop-color="#B48C4F"/><stop offset=".8" stop-color="#AD8241"/><stop offset="1" stop-color="#AB7F3C"/></linearGradient><path clip-path="url(#I)" fill="url(#J)" d="M161.3 73.6s3.3 1 .7 3c-3.6 3-5.8 1-7.7 2.6l7-5.6z"/></g><g><linearGradient id="K" gradientUnits="userSpaceOnUse" x1="104.6" y1="138.1" x2="104.6" y2="131.9"><stop offset="0" stop-color="#CDB680"/><stop offset=".3" stop-color="#CBB177"/><stop offset=".8" stop-color="#C5A45D"/><stop offset="1" stop-color="#C29D51"/></linearGradient><path fill="url(#K)" d="M91.7 138s2.7-1.5 4-3.2c1.5-1.6 3.2-2.8 3.8-2.8.7-.2 2 0 2.8.2.7.4 2 1.5 2.8 2.3 0 0 1.2 1 2 1.2h1.4s.7-.3 1.3-1c0 0 1.5-2.2 4 .8 0 .3 2.3 2.5 3.8 2.6H91.7z"/><path fill="#CEBB85" d="M98.7 136v-1.2c0-.5-.4-1-1-1s-.8.5-.8 1v1.2h1.7z"/><path fill="#B28241" d="M97.8 134c-.4 0-.7.3-.7.7v1.4h1.5V135c0-.5-.3-.8-.7-.8z"/><path fill="#734105" d="M98.5 135.2v.5-1c0-.4-.3-.7-.7-.7-.4 0-.7.3-.7.7v.4h1.5z"/><path fill="#B28241" d="M97.8 134v1.2z"/><path fill="#CEBB85" d="M103.5 136v-1.2c0-.5-.4-1-1-1s-.8.5-.8 1v1.2h1.8z"/><path fill="#B28241" d="M102.6 134c-.4 0-.8.3-.8.7v1.4h1.5V135c0-.5-.3-.8-.7-.8z"/><path fill="#734105" d="M103.3 135.2v.5-1c0-.4-.3-.7-.7-.7-.4 0-.7.3-.7.7v.4h1.3z"/><path fill="#B28241" d="M102.6 134v1.2z"/><g><path fill="#CEBB85" d="M112.2 136.5v-1.3c0-.5-.4-1-1-1s-.8.5-.8 1v1.3h1.8z"/><path fill="#B28241" d="M111.3 134.4c-.4 0-.8.3-.8.7v1.5h1.5v-1.3c0-.5-.3-.8-.7-.8z"/><path fill="#734105" d="M112 135.6v.5-.8c0-.4-.3-.7-.7-.7s-.7.3-.7.7v.4h1.4z"/><path fill="#B28241" d="M111.3 134.5v1z"/></g></g><g><linearGradient id="L" gradientUnits="userSpaceOnUse" x1="151.5" y1="116.1" x2="151.5" y2="109.1"><stop offset="0" stop-color="#CDB680"/><stop offset=".3" stop-color="#CBB177"/><stop offset=".8" stop-color="#C5A45D"/><stop offset="1" stop-color="#C29D51"/></linearGradient><path fill="url(#L)" d="M136.8 116s3-1.7 4.6-3.7c1.7-1.8 3.6-3 4.4-3 .7-.3 2.3-.3 3 .2 1 .4 2.5 1.6 3.3 2.5 0 0 1.4 1.2 2.4 1.4h1.5s.7-.3 1.4-1c0 0 1.6-2.7 4.4.7.3.6 2.7 3 4.4 3h-29.4z"/><path fill="#CEBB85" d="M144.8 113.8v-1.5c0-.5-.4-1-1-1s-1 .5-1 1v1.5h2z"/><path fill="#B28241" d="M143.8 111.4c-.5 0-1 .4-1 1v1s0 .4.2.5h1.6v-1.7c0-.5-.3-1-.8-1z"/><path fill="#734105" d="M144.6 112.8v.6-1c0-.5-.4-1-.8-1s-.8.5-.8 1v.4h1.6z"/><path fill="#B28241" d="M143.8 111.5v1.3z"/><path fill="#CEBB85" d="M150.3 113.8v-1.5c0-.5-.5-1-1-1-.6 0-1 .5-1 1v1.5h2z"/><path fill="#B28241" d="M149.3 111.4c-.5 0-1 .4-1 1v1.5h1.8v-1.7c0-.5-.3-1-.7-1z"/><path fill="#734105" d="M150 112.8v.6-1c0-.5-.3-1-.7-1-.5 0-.8.5-.8 1v.4h1.5z"/><path fill="#B28241" d="M149.2 111.5v1.3z"/><g><path fill="#CEBB85" d="M160.2 114.3v-1.5c0-.5-.4-1-1-1s-1 .5-1 1v1.5h2z"/><path fill="#B28241" d="M159.2 112c-.5 0-1 .3-1 .8v1.2s0 .3.2.4h1.6v-1.6c0-.5-.3-1-.8-1z"/><path fill="#734105" d="M160 113.3v.6-1.2c0-.4-.4-.8-.8-.8s-.8.4-.8.8v.5h1.6z"/><path fill="#B28241" d="M159.2 112v1.3z"/></g></g><g><linearGradient id="M" gradientUnits="userSpaceOnUse" x1="140.1" y1="93.9" x2="140.1" y2="89.4"><stop offset="0" stop-color="#CDB680"/><stop offset=".3" stop-color="#CBB177"/><stop offset=".8" stop-color="#C5A45D"/><stop offset="1" stop-color="#C29D51"/></linearGradient><path fill="url(#M)" d="M130.7 94s2-1.2 3-2.5c1-1.2 2.2-2 2.7-2 .5-.2 1.5 0 2 .2s1.6 1 2 1.6l1.6 1c.3 0 .6 0 1-.2 0 0 .4 0 1-.5 0 0 1-1.7 2.7.5.2.3 1.8 1.8 2.8 2h-18.8z"/><path fill="#CEBB85" d="M135.8 92.5v-1c0-.4-.3-.6-.7-.6s-.5 0-.5.5v1h1.3z"/><path fill="#B28241" d="M135 91c-.2 0-.4.2-.4.5v1h1v-1c0-.3-.2-.6-.5-.6z"/><path fill="#734105" d="M135.6 91.8v.4-.7c0-.3-.2-.5-.5-.5s-.4.2-.4.5v.3h1z"/><path fill="#B28241" d="M135 91h.2v.8z"/><path fill="#CEBB85" d="M139.3 92.5v-1c0-.4-.3-.6-.6-.6-.4 0-.7 0-.7.5v1h1.3z"/><path fill="#B28241" d="M138.7 91c-.3 0-.6.2-.6.5v1h1.2v-1c0-.3-.2-.6-.5-.6z"/><path fill="#734105" d="M139.2 91.8v.4-.7c0-.3-.3-.5-.5-.5s-.5.2-.5.5v.3h1z"/><path fill="#B28241" d="M138.6 91v.8z"/><g><path fill="#CEBB85" d="M145.7 92.8v-1c0-.3-.3-.6-.7-.6s-.6.3-.6.6v1h1.3z"/><path fill="#B28241" d="M145 91.2c-.3 0-.5.3-.5.6v1h1v-1c0-.3-.2-.6-.5-.6z"/><path fill="#734105" d="M145.5 92v.5-.7c0-.3-.2-.5-.5-.5s-.5.2-.5.5v.3h1z"/><path fill="#B28241" d="M145 91.3v.8z"/></g></g><g><linearGradient id="N" gradientUnits="userSpaceOnUse" x1="147.4" y1="93.9" x2="147.4" y2="89.4"><stop offset="0" stop-color="#CDB680"/><stop offset=".3" stop-color="#CBB177"/><stop offset=".8" stop-color="#C5A45D"/><stop offset="1" stop-color="#C29D51"/></linearGradient><path fill="url(#N)" d="M138 94s2-1.3 3-2.5 2.3-2 2.8-2c.4-.2 1.5 0 2 0 .5.4 1.5 1.2 2 1.8l1.5 1c.3 0 .6 0 1-.2 0 0 .4 0 1-.6 0 0 1-1.6 2.7.6.2.3 1.8 1.8 3 2h-19z"/><path fill="#CEBB85" d="M143.2 92.5v-1c0-.4-.3-.7-.7-.7s-.7.3-.7.7v1h1.4z"/><path fill="#B28241" d="M142.5 91c-.3 0-.6.2-.6.5v1h1v-1c0-.3-.2-.6-.5-.6z"/><path fill="#734105" d="M143 91.8v.4-.7c0-.3-.2-.5-.5-.5s-.5.2-.5.5v.3h1z"/><path fill="#B28241" d="M142.5 91v.8z"/><path fill="#CEBB85" d="M146.7 92.5v-1c0-.4-.3-.7-.7-.7-.4 0-.7.3-.7.7v1h1.4z"/><path fill="#B28241" d="M146 91c-.3 0-.5.2-.5.5v1h1v-1c0-.3-.2-.6-.5-.6z"/><path fill="#734105" d="M146.5 91.8v.4-.7c0-.3-.2-.5-.5-.5s-.5.2-.5.5v.3h1z"/><path fill="#B28241" d="M146 91v.8z"/><g><path fill="#CEBB85" d="M153 92.8v-1c0-.3-.3-.6-.6-.6s-.7.3-.7.6v1h1.3z"/><path fill="#B28241" d="M152.4 91.2c-.3 0-.6.3-.6.6v1h1v-1c0-.3 0-.6-.4-.6z"/><path fill="#734105" d="M153 92v.5-.7c0-.3-.4-.5-.6-.5s-.5.2-.5.5v.3h1z"/><path fill="#B28241" d="M152.4 91.3v.8z"/></g></g></svg>