<svg xmlns="http://www.w3.org/2000/svg" xmlns:xlink="http://www.w3.org/1999/xlink" width="180" height="180" viewBox="0 0 180 180"><path fill="#9BDE9B" d="M-7.8-7h200v200h-200z"/><linearGradient id="a" gradientUnits="userSpaceOnUse" x1="149.7" y1="129.9" x2="149.7" y2="126.6"><stop offset="0" stop-color="#60C560"/><stop offset=".2" stop-color="#43A952"/><stop offset=".6" stop-color="#1F8640"/><stop offset=".8" stop-color="#087135"/><stop offset="1" stop-color="#006931"/></linearGradient><path fill="url(#a)" d="M145.6 130s.6-.2 2-1.5 1.7-1.8 2-1.8c.4-.2 1 0 1.5.5l2.2 2.2.6.5h-8.2z"/><defs><path id="b" d="M145.6 130s.6-.2 2-1.5 1.7-1.8 2-1.8c.4-.2 1 0 1.5.5l2.2 2.2.6.5h-8.2z"/></defs><clipPath id="c"><use xlink:href="#b" overflow="visible"/></clipPath><linearGradient id="d" gradientUnits="userSpaceOnUse" x1="147.8" y1="129.9" x2="147.8" y2="126.8"><stop offset="0" stop-color="#3BB44F"/><stop offset=".1" stop-color="#34AB4C"/><stop offset=".5" stop-color="#18873D"/><stop offset=".8" stop-color="#067134"/><stop offset="1" stop-color="#006931"/></linearGradient><path clip-path="url(#c)" fill="url(#d)" d="M149.3 126.8s1.6.4 0 2c0 0-1.2 1-3.7 1l3.6-3z"/><linearGradient id="e" gradientUnits="userSpaceOnUse" x1="109.4" y1="15.3" x2="109.4" y2="9.8"><stop offset="0" stop-color="#60C560"/><stop offset=".2" stop-color="#43A952"/><stop offset=".6" stop-color="#1F8640"/><stop offset=".8" stop-color="#087135"/><stop offset="1" stop-color="#006931"/></linearGradient><path fill="url(#e)" d="M102.5 15.3s1 0 3-2.4 3.2-3 3.7-3c.6-.4 1.7 0 2.5.7l3.6 3.7 1 1h-13.8z"/><defs><path id="f" d="M102.5 15.3s1 0 3-2.4 3.2-3 3.7-3c.6-.4 1.7 0 2.5.7l3.6 3.7 1 1h-13.8z"/></defs><clipPath id="g"><use xlink:href="#f" overflow="visible"/></clipPath><linearGradient id="h" gradientUnits="userSpaceOnUse" x1="106.2" y1="15.3" x2="106.2" y2="10.1"><stop offset="0" stop-color="#3BB44F"/><stop offset=".1" stop-color="#34AB4C"/><stop offset=".5" stop-color="#18873D"/><stop offset=".8" stop-color="#067134"/><stop offset="1" stop-color="#006931"/></linearGradient><path clip-path="url(#g)" fill="url(#h)" d="M108.6 10s2.7.7.3 3.3c-.5.3-2.4 2-6.5 2l6-5.2z"/><linearGradient id="i" gradientUnits="userSpaceOnUse" x1="110" y1="16.8" x2="110" y2="12.5"><stop offset="0" stop-color="#7ACA81"/><stop offset=".2" stop-color="#5EB46F"/><stop offset=".6" stop-color="#2C8C4E"/><stop offset=".8" stop-color="#0C7239"/><stop offset="1" stop-color="#006931"/></linearGradient><path fill="url(#i)" d="M101 16.8s2-1 3-2.3c1-1 2-2 2.5-2s1.5 0 2 .3l2 1.5s.7.7 1.3 1l1-.2s.3 0 .8-.5c0 0 1-1.6 2.6.5.2.2 1.6 1.7 2.7 1.8h-18z"/><g><linearGradient id="j" gradientUnits="userSpaceOnUse" x1="71.4" y1="143.5" x2="71.4" y2="139.2"><stop offset="0" stop-color="#7ACA81"/><stop offset=".2" stop-color="#5EB46F"/><stop offset=".6" stop-color="#2C8C4E"/><stop offset=".8" stop-color="#0C7239"/><stop offset="1" stop-color="#006931"/></linearGradient><path fill="url(#j)" d="M62.5 143.5s2-1 2.8-2.3c1-1 2.2-2 2.6-2 .3 0 1.3 0 1.8.3.5.2 1.4 1 2 1.5 0 0 .7.7 1.3 1 .4 0 .7 0 1-.2l1-.6s1-1.6 2.6.5c0 .2 1.6 1.7 2.6 1.8H62.5z"/><linearGradient id="k" gradientUnits="userSpaceOnUse" x1="64.5" y1="146.2" x2="64.5" y2="139.1"><stop offset="0" stop-color="#7ACA81"/><stop offset=".2" stop-color="#5EB46F"/><stop offset=".6" stop-color="#2C8C4E"/><stop offset=".8" stop-color="#0C7239"/><stop offset="1" stop-color="#006931"/></linearGradient><path fill="url(#k)" d="M49.7 146.2s3.2-2 4.6-4c1.8-1.7 3.7-3 4.5-3 .7-.2 2.3-.2 3 .3s2.5 1.6 3.4 2.5c0 0 1.3 1.2 2.3 1.4H69s.7-.3 1.5-1c0 0 1.6-2.7 4.4.7.2.6 2.6 3 4.3 3H49.7z"/></g><g><linearGradient id="l" gradientUnits="userSpaceOnUse" x1="109.3" y1="98.7" x2="109.3" y2="94.1"><stop offset="0" stop-color="#60C560"/><stop offset=".2" stop-color="#43A952"/><stop offset=".6" stop-color="#1F8640"/><stop offset=".8" stop-color="#087135"/><stop offset="1" stop-color="#006931"/></linearGradient><path fill="url(#l)" d="M103.6 98.7s.7 0 2.6-2 2.5-2.5 3-2.6c.5 0 1.4.2 2 1 .7.5 2.8 2.7 3 3l.8.7h-11.4z"/><defs><path id="m" d="M103.6 98.7s.7 0 2.6-2 2.5-2.5 3-2.6c.5 0 1.4.2 2 1 .7.5 2.8 2.7 3 3l.8.7h-11.4z"/></defs><clipPath id="n"><use xlink:href="#m" overflow="visible"/></clipPath><linearGradient id="o" gradientUnits="userSpaceOnUse" x1="106.6" y1="98.7" x2="106.6" y2="94.4"><stop offset="0" stop-color="#3BB44F"/><stop offset=".1" stop-color="#34AB4C"/><stop offset=".5" stop-color="#18873D"/><stop offset=".8" stop-color="#067134"/><stop offset="1" stop-color="#006931"/></linearGradient><path clip-path="url(#n)" fill="url(#o)" d="M108.6 94.4s2.3.5.3 2.6c-.4.3-2 1.6-5.4 1.7l5-4.3z"/><linearGradient id="p" gradientUnits="userSpaceOnUse" x1="102" y1="98.8" x2="102" y2="92.8"><stop offset="0" stop-color="#60C560"/><stop offset=".2" stop-color="#43A952"/><stop offset=".6" stop-color="#1F8640"/><stop offset=".8" stop-color="#087135"/><stop offset="1" stop-color="#006931"/></linearGradient><path fill="url(#p)" d="M94.6 98.8s1 0 3.4-2.6c2.4-2.4 3.2-3.2 3.7-3.3.7-.4 2 0 2.7 1 1 .7 3.7 3.5 4 3.8l1 1H94.6z"/><defs><path id="q" d="M94.6 98.8s1 0 3.4-2.6c2.4-2.4 3.2-3.2 3.7-3.3.7-.4 2 0 2.7 1 1 .7 3.7 3.5 4 3.8l1 1H94.6z"/></defs><clipPath id="r"><use xlink:href="#q" overflow="visible"/></clipPath><linearGradient id="s" gradientUnits="userSpaceOnUse" x1="98.5" y1="98.8" x2="98.5" y2="93.2"><stop offset="0" stop-color="#3BB44F"/><stop offset=".1" stop-color="#34AB4C"/><stop offset=".5" stop-color="#18873D"/><stop offset=".8" stop-color="#067134"/><stop offset="1" stop-color="#006931"/></linearGradient><path clip-path="url(#r)" fill="url(#s)" d="M101 93.2s3 .7.4 3.4c-.4.4-2.4 2-6.8 2.2l6.5-5.6z"/><linearGradient id="t" gradientUnits="userSpaceOnUse" x1="103.4" y1="100.7" x2="103.4" y2="93.6"><stop offset="0" stop-color="#7ACA81"/><stop offset=".2" stop-color="#5EB46F"/><stop offset=".6" stop-color="#2C8C4E"/><stop offset=".8" stop-color="#0C7239"/><stop offset="1" stop-color="#006931"/></linearGradient><path fill="url(#t)" d="M88.6 100.7s3.2-2 4.6-3.8c1.7-2 3.7-3.2 4.4-3.3.7-.2 2.4 0 3.2.3.8.4 2.4 1.6 3.2 2.5 0 0 1.3 1.2 2.3 1.5h1.5s.8-.4 1.5-1.2c0 0 1.7-2.5 4.4 1 .3.3 2.8 2.7 4.5 3H88.6z"/></g><g><linearGradient id="u" gradientUnits="userSpaceOnUse" x1="67.2" y1="170.7" x2="67.2" y2="167.8"><stop offset="0" stop-color="#7ACA81"/><stop offset=".2" stop-color="#5EB46F"/><stop offset=".6" stop-color="#2C8C4E"/><stop offset=".8" stop-color="#0C7239"/><stop offset="1" stop-color="#006931"/></linearGradient><path fill="url(#u)" d="M61.3 170.7s1.2-.8 1.8-1.6c.8-.6 1.6-1 2-1 .2-.2.8-.2 1 0l1.4 1s.5.5 1 .6h.5l.5-.5s.7-1 1.8.5c0 0 1 1 1.7 1.2H61.3z"/></g></svg>