<svg xmlns="http://www.w3.org/2000/svg" xmlns:xlink="http://www.w3.org/1999/xlink" width="330" height="330" viewBox="0 0 330 330"><path fill="#75D175" d="M-4.6-5h340v340h-340z"/><linearGradient id="a" gradientUnits="userSpaceOnUse" x1="75.1" y1="215.9" x2="75.1" y2="210.9"><stop offset="0" stop-color="#75D175"/><stop offset="0" stop-color="#6DCA70"/><stop offset=".4" stop-color="#3EA055"/><stop offset=".6" stop-color="#1C8241"/><stop offset=".9" stop-color="#087035"/><stop offset="1" stop-color="#006931"/></linearGradient><path fill="url(#a)" d="M69 216s.8-.2 2.8-2.2c2-2 2.8-2.8 3.2-2.8.6-.2 1.6 0 2.3.8l3.2 3.3.8 1H69z"/><defs><path id="b" d="M69 216s.8-.2 2.8-2.2c2-2 2.8-2.8 3.2-2.8.6-.2 1.6 0 2.3.8l3.2 3.3.8 1H69z"/></defs><clipPath id="c"><use xlink:href="#b" overflow="visible"/></clipPath><linearGradient id="d" gradientUnits="userSpaceOnUse" x1="70.8" y1="216.9" x2="74.3" y2="211"><stop offset="0" stop-color="#75D175"/><stop offset=".1" stop-color="#63C16B"/><stop offset=".5" stop-color="#2E924C"/><stop offset=".8" stop-color="#0D7438"/><stop offset="1" stop-color="#006931"/></linearGradient><path clip-path="url(#c)" fill="url(#d)" d="M74.5 211.2s2.5.6.3 3c-.4.2-2 1.6-5.8 1.7l5.5-4.8z"/><linearGradient id="e" gradientUnits="userSpaceOnUse" x1="189.1" y1="292.2" x2="189.1" y2="288.3"><stop offset="0" stop-color="#75D175"/><stop offset="0" stop-color="#6DCA70"/><stop offset=".4" stop-color="#3EA055"/><stop offset=".6" stop-color="#1C8241"/><stop offset=".9" stop-color="#087035"/><stop offset="1" stop-color="#006931"/></linearGradient><path fill="url(#e)" d="M184.2 292.2s.7 0 2.3-1.6c1.6-1.6 2-2.2 2.5-2.2.4-.2 1.2 0 1.7.6l2.6 2.6.6.6H184z"/><defs><path id="f" d="M184.2 292.2s.7 0 2.3-1.6c1.6-1.6 2-2.2 2.5-2.2.4-.2 1.2 0 1.7.6l2.6 2.6.6.6H184z"/></defs><clipPath id="g"><use xlink:href="#f" overflow="visible"/></clipPath><linearGradient id="h" gradientUnits="userSpaceOnUse" x1="185.7" y1="293.1" x2="188.4" y2="288.4"><stop offset="0" stop-color="#75D175"/><stop offset=".1" stop-color="#63C16B"/><stop offset=".5" stop-color="#2E924C"/><stop offset=".8" stop-color="#0D7438"/><stop offset="1" stop-color="#006931"/></linearGradient><path clip-path="url(#g)" fill="url(#h)" d="M188.5 288.6s2 .4.3 2.2c-.3.3-1.7 1.4-4.6 1.4l4.3-3.6z"/><linearGradient id="i" gradientUnits="userSpaceOnUse" x1="186.5" y1="305.2" x2="186.5" y2="301.6"><stop offset="0" stop-color="#75D175"/><stop offset="0" stop-color="#6DCA70"/><stop offset=".4" stop-color="#3EA055"/><stop offset=".6" stop-color="#1C8241"/><stop offset=".9" stop-color="#087035"/><stop offset="1" stop-color="#006931"/></linearGradient><path fill="url(#i)" d="M182 305.2s.6 0 2-1.5c1.5-1.5 2-2 2.4-2 .4-.2 1 0 1.6.5l2.4 2.4.5.6h-9z"/><defs><path id="j" d="M182 305.2s.6 0 2-1.5c1.5-1.5 2-2 2.4-2 .4-.2 1 0 1.6.5l2.4 2.4.5.6h-9z"/></defs><clipPath id="k"><use xlink:href="#j" overflow="visible"/></clipPath><linearGradient id="l" gradientUnits="userSpaceOnUse" x1="183.3" y1="306" x2="185.8" y2="301.7"><stop offset="0" stop-color="#75D175"/><stop offset=".1" stop-color="#63C16B"/><stop offset=".5" stop-color="#2E924C"/><stop offset=".8" stop-color="#0D7438"/><stop offset="1" stop-color="#006931"/></linearGradient><path clip-path="url(#k)" fill="url(#l)" d="M186 301.8s1.8.4.2 2c-.3.3-1.5 1.4-4.2 1.4l4-3.4z"/><linearGradient id="m" gradientUnits="userSpaceOnUse" x1="181.1" y1="312" x2="181.1" y2="307.4"><stop offset="0" stop-color="#75D175"/><stop offset="0" stop-color="#6DCA70"/><stop offset=".4" stop-color="#3EA055"/><stop offset=".6" stop-color="#1C8241"/><stop offset=".9" stop-color="#087035"/><stop offset="1" stop-color="#006931"/></linearGradient><path fill="url(#m)" d="M175.4 312s.8 0 2.6-2 2.5-2.5 3-2.5c.5-.2 1.4 0 2 .7.7.7 3 2.8 3 3l.8.8h-11.4z"/><defs><path id="n" d="M175.4 312s.8 0 2.6-2 2.5-2.5 3-2.5c.5-.2 1.4 0 2 .7.7.7 3 2.8 3 3l.8.8h-11.4z"/></defs><clipPath id="o"><use xlink:href="#n" overflow="visible"/></clipPath><linearGradient id="p" gradientUnits="userSpaceOnUse" x1="177.1" y1="313" x2="180.3" y2="307.5"><stop offset="0" stop-color="#75D175"/><stop offset=".1" stop-color="#63C16B"/><stop offset=".5" stop-color="#2E924C"/><stop offset=".8" stop-color="#0D7438"/><stop offset="1" stop-color="#006931"/></linearGradient><path clip-path="url(#o)" fill="url(#p)" d="M180.5 307.7s2.3.5.2 2.6c-.3.3-2 1.7-5.3 1.7l5-4.3z"/><linearGradient id="q" gradientUnits="userSpaceOnUse" x1="75.3" y1="284.3" x2="75.3" y2="277.2"><stop offset="0" stop-color="#75D175"/><stop offset="0" stop-color="#6DCA70"/><stop offset=".4" stop-color="#3EA055"/><stop offset=".6" stop-color="#1C8241"/><stop offset=".9" stop-color="#087035"/><stop offset="1" stop-color="#006931"/></linearGradient><path fill="url(#q)" d="M66.4 284.3s1.2 0 4-3 4-4 4.7-4c1-.4 2.3 0 3.3 1l4.8 4.8 1 1.3H66.5z"/><defs><path id="r" d="M66.4 284.3s1.2 0 4-3 4-4 4.7-4c1-.4 2.3 0 3.3 1l4.8 4.8 1 1.3H66.5z"/></defs><clipPath id="s"><use xlink:href="#r" overflow="visible"/></clipPath><linearGradient id="t" gradientUnits="userSpaceOnUse" x1="69.1" y1="285.8" x2="74" y2="277.3"><stop offset="0" stop-color="#75D175"/><stop offset=".1" stop-color="#63C16B"/><stop offset=".5" stop-color="#2E924C"/><stop offset=".8" stop-color="#0D7438"/><stop offset="1" stop-color="#006931"/></linearGradient><path clip-path="url(#s)" fill="url(#t)" d="M74.4 277.6s3.5.8.3 4c-.4.6-3 2.6-8.3 2.7l8-6.7z"/><g><linearGradient id="u" gradientUnits="userSpaceOnUse" x1="79.5" y1="223.2" x2="79.5" y2="216.9"><stop offset="0" stop-color="#75D175"/><stop offset="0" stop-color="#6DCA70"/><stop offset=".4" stop-color="#3EA055"/><stop offset=".6" stop-color="#1C8241"/><stop offset=".9" stop-color="#087035"/><stop offset="1" stop-color="#006931"/></linearGradient><path fill="url(#u)" d="M71.7 223.2s1 0 3.6-2.7c2.6-2.6 3.5-3.5 4-3.5.8-.3 2 0 3 1 .8 1 3.7 3.8 4 4l1 1.2H71.7z"/><defs><path id="v" d="M71.7 223.2s1 0 3.6-2.7c2.6-2.6 3.5-3.5 4-3.5.8-.3 2 0 3 1 .8 1 3.7 3.8 4 4l1 1.2H71.7z"/></defs><clipPath id="w"><use xlink:href="#v" overflow="visible"/></clipPath><linearGradient id="x" gradientUnits="userSpaceOnUse" x1="74.1" y1="224.5" x2="78.4" y2="217"><stop offset="0" stop-color="#75D175"/><stop offset=".1" stop-color="#63C16B"/><stop offset=".5" stop-color="#2E924C"/><stop offset=".8" stop-color="#0D7438"/><stop offset="1" stop-color="#006931"/></linearGradient><path clip-path="url(#w)" fill="url(#x)" d="M78.7 217.3s3 .7.3 3.6c-.4.3-2.6 2-7.3 2.2l7-6z"/></g><g><linearGradient id="y" gradientUnits="userSpaceOnUse" x1="175" y1="206.4" x2="175" y2="200.1"><stop offset="0" stop-color="#75D175"/><stop offset="0" stop-color="#6DCA70"/><stop offset=".4" stop-color="#3EA055"/><stop offset=".6" stop-color="#1C8241"/><stop offset=".9" stop-color="#087035"/><stop offset="1" stop-color="#006931"/></linearGradient><path fill="url(#y)" d="M167.2 206.4s1 0 3.6-2.7c2.6-2.6 3.5-3.4 4-3.5.8-.3 2 0 3 1 .8 1 3.7 3.8 4 4.2l1 1h-15.6z"/><defs><path id="z" d="M167.2 206.4s1 0 3.6-2.7c2.6-2.6 3.5-3.4 4-3.5.8-.3 2 0 3 1 .8 1 3.7 3.8 4 4.2l1 1h-15.6z"/></defs><clipPath id="A"><use xlink:href="#z" overflow="visible"/></clipPath><linearGradient id="B" gradientUnits="userSpaceOnUse" x1="169.6" y1="207.7" x2="173.9" y2="200.2"><stop offset="0" stop-color="#75D175"/><stop offset=".1" stop-color="#63C16B"/><stop offset=".5" stop-color="#2E924C"/><stop offset=".8" stop-color="#0D7438"/><stop offset="1" stop-color="#006931"/></linearGradient><path clip-path="url(#A)" fill="url(#B)" d="M174.2 200.5s3 .7.3 3.6c-.4.5-2.6 2.3-7.3 2.4l7-6z"/></g><g><linearGradient id="C" gradientUnits="userSpaceOnUse" x1="134" y1="11.3" x2="134" y2="5"><stop offset="0" stop-color="#75D175"/><stop offset="0" stop-color="#6DCA70"/><stop offset=".4" stop-color="#3EA055"/><stop offset=".6" stop-color="#1C8241"/><stop offset=".9" stop-color="#087035"/><stop offset="1" stop-color="#006931"/></linearGradient><path fill="url(#C)" d="M126.2 11.3s1 0 3.6-2.7c2.6-2.5 3.4-3.4 4-3.5.7-.2 2 .2 2.8 1l4.2 4.3 1 1H126z"/><defs><path id="D" d="M126.2 11.3s1 0 3.6-2.7c2.6-2.5 3.4-3.4 4-3.5.7-.2 2 .2 2.8 1l4.2 4.3 1 1H126z"/></defs><clipPath id="E"><use xlink:href="#D" overflow="visible"/></clipPath><linearGradient id="F" gradientUnits="userSpaceOnUse" x1="128.5" y1="12.6" x2="132.8" y2="5.1"><stop offset="0" stop-color="#75D175"/><stop offset=".1" stop-color="#63C16B"/><stop offset=".5" stop-color="#2E924C"/><stop offset=".8" stop-color="#0D7438"/><stop offset="1" stop-color="#006931"/></linearGradient><path clip-path="url(#E)" fill="url(#F)" d="M133 5.4s3.3.7.5 3.6c-.4.4-2.6 2.2-7.3 2.3l7-6z"/></g><g><linearGradient id="G" gradientUnits="userSpaceOnUse" x1="70.8" y1="290.4" x2="70.8" y2="284.1"><stop offset="0" stop-color="#75D175"/><stop offset="0" stop-color="#6DCA70"/><stop offset=".4" stop-color="#3EA055"/><stop offset=".6" stop-color="#1C8241"/><stop offset=".9" stop-color="#087035"/><stop offset="1" stop-color="#006931"/></linearGradient><path fill="url(#G)" d="M63 290.4s1 0 3.6-2.7c2.6-2.6 3.4-3.4 4-3.5.8-.3 2 0 3 1 .8 1 3.7 3.8 4 4.2l1 1H63z"/><defs><path id="H" d="M63 290.4s1 0 3.6-2.7c2.6-2.6 3.4-3.4 4-3.5.8-.3 2 0 3 1 .8 1 3.7 3.8 4 4.2l1 1H63z"/></defs><clipPath id="I"><use xlink:href="#H" overflow="visible"/></clipPath><linearGradient id="J" gradientUnits="userSpaceOnUse" x1="65.3" y1="291.7" x2="69.7" y2="284.2"><stop offset="0" stop-color="#75D175"/><stop offset=".1" stop-color="#63C16B"/><stop offset=".5" stop-color="#2E924C"/><stop offset=".8" stop-color="#0D7438"/><stop offset="1" stop-color="#006931"/></linearGradient><path clip-path="url(#I)" fill="url(#J)" d="M70 284.5s3 .7.3 3.6c-.4.5-2.6 2.3-7.3 2.4l7-6z"/></g><g><linearGradient id="K" gradientUnits="userSpaceOnUse" x1="77.4" y1="295.2" x2="77.4" y2="290.6"><stop offset="0" stop-color="#75D175"/><stop offset="0" stop-color="#6DCA70"/><stop offset=".4" stop-color="#3EA055"/><stop offset=".6" stop-color="#1C8241"/><stop offset=".9" stop-color="#087035"/><stop offset="1" stop-color="#006931"/></linearGradient><path fill="url(#K)" d="M71.6 295.2s.8 0 2.7-2 2.5-2.5 3-2.6c.5-.2 1.4 0 2 .8.8.6 3 2.8 3 3l.8.8H71.7z"/><defs><path id="L" d="M71.6 295.2s.8 0 2.7-2 2.5-2.5 3-2.6c.5-.2 1.4 0 2 .8.8.6 3 2.8 3 3l.8.8H71.7z"/></defs><clipPath id="M"><use xlink:href="#L" overflow="visible"/></clipPath><linearGradient id="N" gradientUnits="userSpaceOnUse" x1="73.4" y1="296.2" x2="76.6" y2="290.6"><stop offset="0" stop-color="#75D175"/><stop offset=".1" stop-color="#63C16B"/><stop offset=".5" stop-color="#2E924C"/><stop offset=".8" stop-color="#0D7438"/><stop offset="1" stop-color="#006931"/></linearGradient><path clip-path="url(#M)" fill="url(#N)" d="M76.8 291s2.3.4.2 2.5c-.3.3-2 1.6-5.4 1.7l5.2-4.3z"/></g><g><linearGradient id="O" gradientUnits="userSpaceOnUse" x1="92.9" y1="207" x2="92.9" y2="200.2"><stop offset="0" stop-color="#75D175"/><stop offset="0" stop-color="#6DCA70"/><stop offset=".4" stop-color="#3EA055"/><stop offset=".6" stop-color="#1C8241"/><stop offset=".9" stop-color="#087035"/><stop offset="1" stop-color="#006931"/></linearGradient><path fill="url(#O)" d="M84.5 207s1 0 4-3c2.7-2.7 3.6-3.7 4.3-3.7.8-.3 2 0 3 1l4.5 4.6 1 1H84.6z"/><defs><path id="P" d="M84.5 207s1 0 4-3c2.7-2.7 3.6-3.7 4.3-3.7.8-.3 2 0 3 1l4.5 4.6 1 1H84.6z"/></defs><clipPath id="Q"><use xlink:href="#P" overflow="visible"/></clipPath><linearGradient id="R" gradientUnits="userSpaceOnUse" x1="87" y1="208.5" x2="91.7" y2="200.3"><stop offset="0" stop-color="#75D175"/><stop offset=".1" stop-color="#63C16B"/><stop offset=".5" stop-color="#2E924C"/><stop offset=".8" stop-color="#0D7438"/><stop offset="1" stop-color="#006931"/></linearGradient><path clip-path="url(#Q)" fill="url(#R)" d="M92 200.6s3.4.8.4 4c-.4.3-2.8 2.3-8 2.4l7.7-6.4z"/><g><linearGradient id="S" gradientUnits="userSpaceOnUse" x1="79.5" y1="207" x2="79.5" y2="196.4"><stop offset="0" stop-color="#75D175"/><stop offset="0" stop-color="#6DCA70"/><stop offset=".4" stop-color="#3EA055"/><stop offset=".6" stop-color="#1C8241"/><stop offset=".9" stop-color="#087035"/><stop offset="1" stop-color="#006931"/></linearGradient><path fill="url(#S)" d="M66.4 207s1.7-.2 6-4.5 6-6 6.8-6c1.3-.5 3.4 0 4.8 1.8 1.7 1.5 6.5 6.4 7 7l1.7 1.7H66.4z"/><defs><path id="T" d="M66.4 207s1.7-.2 6-4.5 6-6 6.8-6c1.3-.5 3.4 0 4.8 1.8 1.7 1.5 6.5 6.4 7 7l1.7 1.7H66.4z"/></defs><clipPath id="U"><use xlink:href="#T" overflow="visible"/></clipPath><linearGradient id="V" gradientUnits="userSpaceOnUse" x1="70.3" y1="209.3" x2="77.6" y2="196.6"><stop offset="0" stop-color="#75D175"/><stop offset=".1" stop-color="#63C16B"/><stop offset=".5" stop-color="#2E924C"/><stop offset=".8" stop-color="#0D7438"/><stop offset="1" stop-color="#006931"/></linearGradient><path clip-path="url(#U)" fill="url(#V)" d="M78 197s5.4 1.3.7 6c-.7.8-4.4 4-12.3 4L78 197z"/></g></g><g><linearGradient id="W" gradientUnits="userSpaceOnUse" x1="89.4" y1="275.2" x2="89.4" y2="270.1"><stop offset="0" stop-color="#75D175"/><stop offset="0" stop-color="#6DCA70"/><stop offset=".4" stop-color="#3EA055"/><stop offset=".6" stop-color="#1C8241"/><stop offset=".9" stop-color="#087035"/><stop offset="1" stop-color="#006931"/></linearGradient><path fill="url(#W)" d="M83 275.2s1 0 3-2.2c2-2 2.8-2.8 3.3-2.8.6-.3 1.6 0 2.3.8l3.3 3.3.7 1H83z"/><defs><path id="X" d="M83 275.2s1 0 3-2.2c2-2 2.8-2.8 3.3-2.8.6-.3 1.6 0 2.3.8l3.3 3.3.7 1H83z"/></defs><clipPath id="Y"><use xlink:href="#X" overflow="visible"/></clipPath><linearGradient id="Z" gradientUnits="userSpaceOnUse" x1="85" y1="276.3" x2="88.5" y2="270.2"><stop offset="0" stop-color="#75D175"/><stop offset=".1" stop-color="#63C16B"/><stop offset=".5" stop-color="#2E924C"/><stop offset=".8" stop-color="#0D7438"/><stop offset="1" stop-color="#006931"/></linearGradient><path clip-path="url(#Y)" fill="url(#Z)" d="M88.7 270.4s2.6.6.3 3c-.3.2-2 1.7-6 1.8l5.7-4.8z"/><g><linearGradient id="aa" gradientUnits="userSpaceOnUse" x1="79.4" y1="275.2" x2="79.4" y2="267.3"><stop offset="0" stop-color="#75D175"/><stop offset="0" stop-color="#6DCA70"/><stop offset=".4" stop-color="#3EA055"/><stop offset=".6" stop-color="#1C8241"/><stop offset=".9" stop-color="#087035"/><stop offset="1" stop-color="#006931"/></linearGradient><path fill="url(#aa)" d="M69.6 275.2s1.3-.2 4.6-3.4c3.2-3.2 4.3-4.3 5-4.4 1-.4 2.5 0 3.6 1.3 1.2 1 4.8 4.8 5.2 5.2l1.2 1.2H69.6z"/><defs><path id="ab" d="M69.6 275.2s1.3-.2 4.6-3.4c3.2-3.2 4.3-4.3 5-4.4 1-.4 2.5 0 3.6 1.3 1.2 1 4.8 4.8 5.2 5.2l1.2 1.2H69.6z"/></defs><clipPath id="ac"><use xlink:href="#ab" overflow="visible"/></clipPath><linearGradient id="ad" gradientUnits="userSpaceOnUse" x1="72.6" y1="276.9" x2="78" y2="267.4"><stop offset="0" stop-color="#75D175"/><stop offset=".1" stop-color="#63C16B"/><stop offset=".5" stop-color="#2E924C"/><stop offset=".8" stop-color="#0D7438"/><stop offset="1" stop-color="#006931"/></linearGradient><path clip-path="url(#ac)" fill="url(#ad)" d="M78.4 267.8s4 1 .4 4.5c-.5.5-3.3 2.8-9.2 3l8.8-7.5z"/></g></g><g><linearGradient id="ae" gradientUnits="userSpaceOnUse" x1="86.2" y1="230.7" x2="86.2" y2="225.1"><stop offset="0" stop-color="#75D175"/><stop offset="0" stop-color="#6DCA70"/><stop offset=".4" stop-color="#3EA055"/><stop offset=".6" stop-color="#1C8241"/><stop offset=".9" stop-color="#087035"/><stop offset="1" stop-color="#006931"/></linearGradient><path fill="url(#ae)" d="M79.3 230.7s1 0 3.2-2.4c2.3-2.3 3-3 3.6-3 .7-.4 1.8 0 2.6.8l3.7 3.8.8 1H79.4z"/><defs><path id="af" d="M79.3 230.7s1 0 3.2-2.4c2.3-2.3 3-3 3.6-3 .7-.4 1.8 0 2.6.8l3.7 3.8.8 1H79.4z"/></defs><clipPath id="ag"><use xlink:href="#af" overflow="visible"/></clipPath><linearGradient id="ah" gradientUnits="userSpaceOnUse" x1="81.4" y1="231.9" x2="85.2" y2="225.2"><stop offset="0" stop-color="#75D175"/><stop offset=".1" stop-color="#63C16B"/><stop offset=".5" stop-color="#2E924C"/><stop offset=".8" stop-color="#0D7438"/><stop offset="1" stop-color="#006931"/></linearGradient><path clip-path="url(#ag)" fill="url(#ah)" d="M85.5 225.5s2.8.6.3 3c-.4.5-2.3 2-6.5 2.2l6.2-5.2z"/><g><linearGradient id="ai" gradientUnits="userSpaceOnUse" x1="75.2" y1="230.7" x2="75.2" y2="222"><stop offset="0" stop-color="#75D175"/><stop offset="0" stop-color="#6DCA70"/><stop offset=".4" stop-color="#3EA055"/><stop offset=".6" stop-color="#1C8241"/><stop offset=".9" stop-color="#087035"/><stop offset="1" stop-color="#006931"/></linearGradient><path fill="url(#ai)" d="M64.5 230.7s1.4-.2 5-3.7 4.7-4.8 5.5-5c1-.3 2.7.2 4 1.5l5.7 5.8 1.3 1.4H64.5z"/><defs><path id="aj" d="M64.5 230.7s1.4-.2 5-3.7 4.7-4.8 5.5-5c1-.3 2.7.2 4 1.5l5.7 5.8 1.3 1.4H64.5z"/></defs><clipPath id="ak"><use xlink:href="#aj" overflow="visible"/></clipPath><linearGradient id="al" gradientUnits="userSpaceOnUse" x1="67.7" y1="232.5" x2="73.7" y2="222.2"><stop offset="0" stop-color="#75D175"/><stop offset=".1" stop-color="#63C16B"/><stop offset=".5" stop-color="#2E924C"/><stop offset=".8" stop-color="#0D7438"/><stop offset="1" stop-color="#006931"/></linearGradient><path clip-path="url(#ak)" fill="url(#al)" d="M74 222.6s4.4 1 .6 5c-.6.5-3.7 3-10 3l9.5-8z"/></g></g><g><linearGradient id="am" gradientUnits="userSpaceOnUse" x1="195.5" y1="229.8" x2="195.5" y2="226.1"><stop offset="0" stop-color="#75D175"/><stop offset="0" stop-color="#6DCA70"/><stop offset=".4" stop-color="#3EA055"/><stop offset=".6" stop-color="#1C8241"/><stop offset=".9" stop-color="#087035"/><stop offset="1" stop-color="#006931"/></linearGradient><path fill="url(#am)" d="M191 229.8s.5 0 2-1.6c1.5-1.5 2-2 2.4-2 .4-.2 1 0 1.6.5l2.5 2.5.5.6h-9z"/><defs><path id="an" d="M191 229.8s.5 0 2-1.6c1.5-1.5 2-2 2.4-2 .4-.2 1 0 1.6.5l2.5 2.5.5.6h-9z"/></defs><clipPath id="ao"><use xlink:href="#an" overflow="visible"/></clipPath><linearGradient id="ap" gradientUnits="userSpaceOnUse" x1="192.3" y1="230.5" x2="194.8" y2="226.1"><stop offset="0" stop-color="#75D175"/><stop offset=".1" stop-color="#63C16B"/><stop offset=".5" stop-color="#2E924C"/><stop offset=".8" stop-color="#0D7438"/><stop offset="1" stop-color="#006931"/></linearGradient><path clip-path="url(#ao)" fill="url(#ap)" d="M195 226.3s1.8.4.2 2c-.3.4-1.6 1.4-4.3 1.5l4-3.5z"/><g><linearGradient id="aq" gradientUnits="userSpaceOnUse" x1="188.2" y1="229.8" x2="188.2" y2="224"><stop offset="0" stop-color="#75D175"/><stop offset="0" stop-color="#6DCA70"/><stop offset=".4" stop-color="#3EA055"/><stop offset=".6" stop-color="#1C8241"/><stop offset=".9" stop-color="#087035"/><stop offset="1" stop-color="#006931"/></linearGradient><path fill="url(#aq)" d="M181 229.8s1-.2 3.4-2.5 3-3 3.7-3.2c.7-.2 2 .2 2.7 1 .8 1 3.5 3.5 3.7 3.8l1 1H181z"/><defs><path id="ar" d="M181 229.8s1-.2 3.4-2.5 3-3 3.7-3.2c.7-.2 2 .2 2.7 1 .8 1 3.5 3.5 3.7 3.8l1 1H181z"/></defs><clipPath id="as"><use xlink:href="#ar" overflow="visible"/></clipPath><linearGradient id="at" gradientUnits="userSpaceOnUse" x1="183.2" y1="231" x2="187.2" y2="224.1"><stop offset="0" stop-color="#75D175"/><stop offset=".1" stop-color="#63C16B"/><stop offset=".5" stop-color="#2E924C"/><stop offset=".8" stop-color="#0D7438"/><stop offset="1" stop-color="#006931"/></linearGradient><path clip-path="url(#as)" fill="url(#at)" d="M187.5 224.4s2.8.7.3 3.3c-.4.3-2.4 2-6.7 2l6.5-5.3z"/></g></g></svg>