<svg xmlns="http://www.w3.org/2000/svg" width="290" height="290" viewBox="0 0 290 290"><path fill="#49B749" d="M-3.5-7.3h300v300h-300z"/><g fill-rule="evenodd" clip-rule="evenodd"><path fill="#A7D2FA" d="M81.7 90s0-.6 1-1.5c.3-.3.5-1 1-1-.5 0 1.5-.4 2.2-.8 0 0 .5-.8.6-.6.2-.4.3-.2.5-.2h.8c0 .5.6.3.7.4.4.2.3.7.4.7l1.6.5h1.7l5.4 1.8-5 1.2-6.4 2s-2.6 1.8-3.7 1c-.3-.4-1.3-1.3-1-2.3v-1z"/><path fill="#9FC0DC" d="M86.4 88.8h1.4c.3 0 .8-.3 1.3-.5.3-.2 0-.4 2-1l.3-.4c.6-.3 1-.5 1-1 .2-.4.4-.7.7-.7.6-.7.6-.5 1-.2l1.2.5h.4c0 .2.2 0 .3.3l.4.2c1.7.7 2 .6 4.2 1 2.7.5 4.8.5 4.8.5s-.3 2-4.5 2.6c-4.3 1-9.6 1.7-9.6 1.7L87 93c-1 .3-4.7 2.5-6 1.8-.6-.5.5-3 .6-3.6 0-.4-.4-.5-.2-.8.2-.4 1.2-1 2-1 .4-.2 2.7-.4 3-.6z"/><path fill="#D1DFE3" d="M92 86.3s0-.6.6-.8.5-.7 1-.7l1 .5c-.6 0-1.8.2-1.6.5l.5.5-.7-.3-.2.3-.2.4-.5.2-1.5.4 1.5-1z"/><path fill="#9FC0DC" d="M153.4 84.5c-.2 0-2-2.5-2.5-2.5-.4 0-.8 0-1.2-.2-.2 0 0-.4-1.5-.7h-.3c-.5-.3-1.2-.3-1.2-.7-.2-.4-.3-.7-.6-.7-.4-.6-.7-.2-1 0-.2.2 0 .2-.3.5-.3.2-.3 0-.5.2 0 0-.6.4-.7.3l-1 .3s-2-.4-3.5 1c-2 1-2.7 2.2-2.7 2.2s1 1.5 4.4 1.5c3.5 0 10.2 1.5 10.2 1.5 4-.4 2.3-2.5 2.2-2.5z"/><path fill="#8B9AB1" d="M122.7 90.2l11.6-9.6c.4-.2 2-.5 2-.7l.4-.5 1-.8c0-.2.4-.5.7-.6.3 0 .6 0 1-.2l.4.4c0 .3.3.5.5.7.3.6 2 1 2.3 1.6 0 .2 0 .5.2.7.3.8 2.7 1 2.5 2 1.4.3 2.3 1 2.3 1 1 .5 1.5.2 2.4.7 1 0 2.3 2 3.2 2 1 1.8-.6 1.7 0 2.4 0 0 2.4 3.7-1.3 3.7-3.8 0-13.5-2.4-15.5-2.2l-13.8-.6zM111.2 81.4c-.7-.4-2 1-2.4.8l-.8-.2c-.2 0 0-.4-.3-.4-1-.5-1.2-.2-1.2-.2-.5 0-1-.3-1.5-.4h-1.6c-.3 0-.5.2-.7.4 0 .3 0 .5-.3.7-.6 1-1 1.5-1.7 2 0 .3-.2.6-.3.8-.3 1-1.2 1.5-2.3 1.7-2.5.5-4.6 2.4-4.6 2.4s-3.8 1.4-4.5 2c-.3.6-2.6.4-2.8 1-1 .2-2.7-.4-3.2 0-.4.3-1 .2-1.3.4-2.7 3-.5 3-.5 3s3 1 9.3.3c6.3-.7 15-4 18.4-4 3.3-.3 13.4-7.8 6-12l-3.8 1.7z"/><path fill="#BDCDDF" d="M103.2 81s-.5.2-.4.7c0 .5-.2.2-.5.8-.4.6 0 .4 0 .4h-.2l-1 1c-.3.2-.2.2.2.4.3.2 0 .3-.5.8l-1 1c-.4 0-1 0-1.8.5s-2 1-1.7.6l.6-.4s-1.2.2-2 .8c-.6.7-2 1.3-2 1.3l-2 1.6 4.2-2.4c.8-.5 1.7-.6 1.4-.3l-1.4 1.3s1.5-1 2.7-1.6l2.2-1.3s1.5.6 2 1c.7 1-.6-1.4-.4-1.4 0 0 1 .8.3 0-.2-.4 1-.3 1-.4.8-.3-2 0-2.4.3-.4 0-2 1-2 1s2-1.7 2.8-2c.7-.2 1.4-.7 2-1 .3 0-1.4 0-1-.2.3-.2.5-.5 1-.7.6 0-.6-.4-.3-.6.4-.2 1.8.7 2.2 1 .5 0-1.4-1.4-1.8-1.6-.4-.2 0-.3.5-.4.3 0-.7-.2-.8-.3z"/></g><g fill-rule="evenodd" clip-rule="evenodd"><path fill="#74747E" d="M80.4 94.4c1-1.6 4.5-.8 6.8-1.4.7.4 4.2 0 5 0 3-.7 7.2-2.7 7.2-2.7s4-.4 6.6-2.3c2.6-3.2 4.7-5.4 8-8.3 3-3 5.4-6 8-6.5 2.7-.5 5-.2 5-.2s5.5 3.6 8.4 5.8c3 2.2 8.4 7.4 8.4 7.4s2.4.8 3.7 2.5c.2.3.6 0 2 .2.7 0 1.7.7 2.3.8 1 0 2.5 0 2.4.3.7 1-1.4 5.7-1 6.6.3 1-2.8-.5-2.8-.2-1.3-.5-5 1-6.3.5H87.6c-3.2-1.5-6.5-.7-7-2.6z"/><path fill="#656072" d="M113.2 97.7s22.8-1.2 27-1c4.3.4 7.5.3 8.8 0 1.3-.4 1.6-1 1.6-1s-1.2-4-3.2-6c-2-1.8-9.8-7-10-7.4 0-.3-1.5-.7-2.5-1.7-1.2-1-.7-1-2.2-1.8-1.6-.7-1.6-1-2.2-1.5-.6-.3-.8-.7-1.5-1-.5-.5-.6-.3-1.4-.6-.8-.4-1-1.3-1.7-1.6-.8-.2 0 1.3 0 2.3-.2 1-1.5.5-1.8 1-.3.7-.5 2.2-.5 2.2s.8 1 .8 2-1 .5-.3 1.5.2 1 .3 2.2c0 1.3-1.8 5-2.2 6-.5 1.2 1.7-2.8 2-2.7.6 0-.4 1-.6 1.8l.6 1.2.7 1.3c1 1.5 2 3.4 2 3.7 0 .2-1.2-1.2-2.2-2.4-.7-.6-1.3-1.3-1.4-1 0 .2.7 1.3.7 1.6v1c-.5 1.3-1.3-4.4-2-3.4-.4.4-.5 2-.8 2.3-.4.8-1 .7-1.6 1.6-.7 1.5.2-4.8.2-4.8s-1.8 3.7-2.2 4c-.5.6-1.8 1.2-2.3 1.6-.4.3 1.6-3.2 1.6-3.2s-1.7 1.4-2 2c-.5.6-1 .4-1.6 1-.6.4 0-2.2 0-2.2l-.8 2c-.3.5.4-3-.3-2s-4 2.4-4 2.4 5 .6 5 1z"/><path fill="#4C5165" d="M132.7 79.8l1.3.6c.2 0 .2.6.6.7 2 .4 1 .3 1.8.8.4.3.7 0 .2-.5l-1.2-1.3-1.3-1.3c.8.2 4.2 2.4 4.8 3 1 1 1.7 2 2.6 2.6 1.5 1.2.7 1.4 2 2.3.4 0 .8.7 1 1 .6.3.3 0 .2-1 .4 0 1.6 1.2 2.7 2.4.3.3 0-.4.2 0 .3.2 3.5.8 4 2.6.3.6.4-1.5-1.4-2.5 1.8.8 2.8 1.6 2.6 1.4.2-.3.8.2 1.6-.3.7 1-1.4 3-2.3 3.5-.2 0-2.4.6-3.3-.2-.6-.5-.2.5-.8 0-1-.8-3-3-3.3-3.2-.3 0 .6 1 1.6 2.2 1.2 1.2 2.5 2.6 2.2 2.6-.5 0-1.7 1-1.8 1l-2.5-3.2c-1.4-1.8-3-3.6-3.5-4.4-.5-.4-.8-1-1-1.4l-1.3-1.6c-.7-.7-.8-1 0 1l.8 1.4c.7 1.3 2.2 2 2.2 2l3.2 4.8-1.3-1c-.5-.6 2 3.3 1.5 2.7-.6-.5-4.2-5.6-4.6-5.8-.2 0-1.4-1.3-1.5-1.3-.4-.3 1.3 2.2 2.7 4.5 1 1.8 2 3.4 1.6 3.6l-1-1.5-1.2-2c-.4-.6-.3.4-.7-.3l-3.7-6.8c-.8-.7-1.4-1-1.4-1l2 2.7s-3.5-2.8-2.6-2c1 1 1.4 1.8 1.4 1.8l.5.8.5 1s2.7 3.2 1.7 2.4c-.7-.6-1-.7-.2.7.3.5 1.6 1.7 1.6 2 0 .2 1.7 1.7.5 1l-2.2-2-.5-.7c-1-1.7-2-2.2-2.5-3.3-.8 0 2 3.4 1.8 4-.8-.6-5.5-9-6.2-9.3-.8-.4 2 3.7 2.3 4-1.8 0-3.7-5.2-4.2-6-.6-.6-1-2-1-2l1.4 1.7c.2.3.5.6 1 .8 1.2.5 1 .3 1.4 1l1 1.3c.8 1 0-1.4 0-1.4l-3.3-2.8 5 3c.7.2.8.3 1.6 1 1 .6 2.4 2.3 2.8 2.7 0-.4-2-2.8-3-3.5l-1.3-1.8-1.8-.4-.8-1.4s0 0-.7-1c-.7-.7-1.4-2-1.4-2s2.2 1.3 2.7 2.4z"/><path fill="#867788" d="M124.6 86.3l.7-1.5c0 .3.6 1.7.8 2 .2.5.8 2.3 1 2.5.2 0 0-1.3 0-1.6 0-.6.4-1.5.5-.7.3 1.2.2 1.6.2 1.6l2.6 3.5c.3.2-1.5-2.3-1.2-2 0 0 1 .4 1.6 1 .6.7 1 1.5 1 2.2.3 0 3 2.7 3.5 3 .4.2-1.2-1.8-.8-1.5l.7.4c1.4 1 2.8 2 3.3 2 0-.2-2.4-2.3-2.3-2.6 0 0 1.8 1.4 2.4 1.6-.3-.2-.5-1-.8-1.3l-2.6-3.2-1.8-1.4c-1-.7-1.8-1.5-1.3-.7l.3.6c1 1 2.2 2.7 2.2 2.8L132 91c-.5-.2-.4-.7-.6-1.3-.2-.5-.2-1-.2-1.2 0-.6.2-1-.2-1.4-.3-.2-1-1.4-1.6-2.5-.2-.2-.6-.2-.7-.4-.7-1-1.5-4-1.5-4s.2 1.5 0 2.7l.7 1.4.7 1.7.7 1.3c.5 1.2.3 1.6.3 1.6l.7 1s-1-.4-1.3-1.3c0-1-.4-.4-.4-1.3 0-1-.2-1.6-.2-1.6 0-.2-.5-.4-.5-.4-.8 0-1.5-.6-2.2-1.2-.6-.7.2 1 .2 1 0-.3-.3-.7-.5-1 0-.2-.2-.3-.3-.5l-.4-.7c.3-.5 0-.8-.2-1.2-.2-.6-.3-1.3-.2-2 0 .4-.3-1.7-.4-1 0 1-.7 3.7 0 4.2.7 1 .5 3.5.6 3.7z"/><path fill="#666D7D" d="M123 81l-1.2 1.6c-1.8 2.3-1.2.6-2 1.6s-1.8 3.8-2.2 4c-.4.4.8-3 .2-2.6-.6.5-.5 0-1.3 1-.8.7 0-.4.7-1.6.8-1.2 1.2-1 1.6-2l.4-1.3 1.3-1.3.6-1.2s-.7 1-1.3 1.3c-.7.3-1.5.7-1.6 1 0 .6-.2 1-.5 1.5s0-1-.7 0-1 1.2-1.6 2c-.6.6.3.7-.7 1.7s0 1.2-1.3 2 1-2-1-.4-1 1.2-2.5 2.4c-1.4 1.3-.5 1.4-2.2 2.6-.6.5 0-.5.8-2L110 89c1-1.4 1.5-2.4 1-1.7l-2.3 2-3 2.3c-.3.4.5-1.4 1.3-3 .7-1.6 1.4-3 1.2-2.8-.3.3-3 3.8-5.3 4.7-1.3 1.2-2 2.7-2 2.7-1 0 .4-2.4-.5-1.8-.2.2-2.4 1.6-3 1.6-.7 0 1.7-2 1.8-2 .8-1.2-6.4 3.4-7.2 3.4-1.5 0-4 .7.3-1.3-1 0-6.8 1-7.7 1.2-.7.2-4.4-.3-3.2.5-1.5 1.2 3.3 2 3.5 2.8-3 .5 8.4.6 9.2.8.8.2 6.3-1.4 6-1.3-.4.2 7.7-.4 8.4.2.7.5 1-1 1.5-1.3.6-.3 1-.5 2.2-1.8 1-1 1-1 1.2-1.4.2 0-.5 4-.2 3.7.3-.5 1.3-4.3 1.6-4.7.6-.7 1.2-2.3 1.4-2.7.4-.6.6 0 0 1-.6 1.3-.2 1-.6 2-.4 1-.5 1-.5 1.4 0 .5-.6 2.6-.6 2.6l1.7-1.7c1-.5.3-1.5.7-2.2.5-.6 0 1 .4.3.5-.6-.4-1.3.4-2.4.5-.8-.2 2 .3 1.5 0 0 1.3-3.2 1.5-3.4.8-1-.3-.4.8-1.4.5-.5.7-.7.7-1l.2-1c.4-.8 1.4-2.5 1.4-1.7 0 .7-.6 5.4-1 6 0 .4.6-3.6 0-2.7 0 .4-.4 1-.8 1.7-.7 1-1.3 1.8-1.2 2.2.6-.8-1.6 4.4-1 4 .2-.3 1-1.5 1.8-2.4.4-.6.8-1.2 1-1.2l-.6 2.3-1.2 3.5c.3 0 .6-.3 1-1 .2-.2.6-.2.8-.5.3-.7.4-2 .7-2.8l.4-1.3s-1.4 2.3-1.2 1.2c.3-1 2.3-5.5 2.4-5.2 0 1 0 .6.3-1.2 0-.7-1-1.7-.8-2.2v-2l-.3-.7z"/></g><linearGradient id="a" gradientUnits="userSpaceOnUse" x1="125.6" y1="81.2" x2="123.4" y2="71.2"><stop offset="0" stop-color="#BDE3F5"/><stop offset=".3" stop-color="#E2F3F8"/><stop offset="1" stop-color="#FFF"/></linearGradient><path fill="url(#a)" d="M123 71.3c.7-.3.7-.5 1.2-.3.5 0 1 .3 1 .3l.6.4c.5.3.3.3 1 .6.4.3.3 0 1.6 1l1.6 1.4c.8 0 1.7 1 2 1.4 1 1 1.7 1 2.2 1.6.5-.2 1 .3 1 .5.4 0 .5.5.8 1 1 1.4 3 2.7 2.4 2.5l-1.8-1c-1 0-1-.5-1.4-.8-.7-.6-1.2-1-2-2-1.3-.5-3-2-3.8-1.7.4.2 1.4 1 1.8 1.5l.4.7c2 2.6-1.5-1-2-.7-.7-.3-.3 0-.3 0 0 .3.3.4.4.6.8 1.2 1 2.5 2 3.2.6.4.7.3.7.3l.7.8s.7 0 1.2.4c1.4.4 3 3 1 1 0-.2-.2 0-.4-.2h-.7c0-.2-.5-.2-1.4-.5-.2 0-.4-.8-.5-.8-1.4-.6-1-.3-1.6-.7l-1-.7c-.7-.3.4.2-1-1.4-.4-.5-.8-.5-1-.7-.7-.5-1.7-1.6-1.6-1.6 0 .5 1 1.5.8 2l.2 1.8s.6-1.6.3-.2c.2 2.3-.2 1-.2 1.6-.2 1.3.4 2 .5 1.8.3.2.2.4.5.6 1.2.6.5.8-1.3 0l-.7-1c-.3-.6 0-.7-.3-1.5l-.2-1v-1c-.3 0 0-.6-.3-.8 0-.3-.7-1-.8-1.4-.6.6.6 1.2-.5 2-.4 0-1 .2-1 .4-1 .5-1 1-1 1s-.4 0-1 .6c-1 .7-1.3 1.2-1.3 1.2s1-2.5 1.5-3.3c0-.4-.4 1.5-.2 1.2.2-.2.4 0 .5-1 0-.7.7-1 .7-1 0-.3.2-.5.4-.7-.3 0-.3 0-.8.3l-.4-.3c-.6-.3.3-1.7-.3-1.3-.7.5-1 2-1 2-.2 0-.7.5-1 .6-.2 0 0-.2-.2-.2-.2.2-2 1.8-2 2 0 0 1.6-2.8.7-2l-1.2.6c-.3.2 0-.2-.2 0l-2 1.8c.2-.6.4-1 1.4-2.3 1.4-1 1-1 1.2-1.7.4-.6 1.2-.8.3-.6-.7.3-1 1-1 1-1 1-2.2 1.6-3.2 2.5l2-2.7c.2-.3 1-.7 1.3-1 1.4-1.6 1.4-1.2 1.8-2l.5-1s.2-.3.8-.3c.7 0 .8-.3 1-1 .4 0 .7-.3.7-.3l.6-.8s.8-.8 1.4-.5c0 .2.2.2.3.3z"/><path fill-rule="evenodd" clip-rule="evenodd" fill="#A7CFE6" d="M125.2 71.6s.5 0 1.5.8c-.4 0-1 0-.2.3.8 0 1.2.6 1.7.5l1 .8.8.7-.3.3c0 .3 0 0-.2.4 0 0 .5-.4 1 0 .6-.3 1.7 1 2.3 1.3-1.2-.5-1.8-1-2.2-.7-.4.3-1 0-1 0 0 .2.3.2.4.3l.7.4 1 1.4s-1.5-1.2-2.4-1.6c-1-.4-.7-.5-1-.8-.5-.4.7-.3 0-1-1-.4-.6 0-1.2-.4-.5-.5-1.4-.6-1-.2.6.3.5.5 1 .8.7.3-.4 0-1-.5l-.7-.5s0-.3-.5-.7c-.5-.4-1-1.3-.8-.6.3.7.7.6.7 1.2v1l.8.5c0 .3.2.5.3.8l.7.3 1 .5.5.4c.4.2.4 0 1 .4-.2-.5 0-.2 0 0 .4 0 .7.6.7.6s1.8 2.4 1.7 2.8c0 0 .8.8.3.5-.2 0-1.5-1.2-1.8-1.5-.3-.3-.3-.6-.5-1-.4-.6-.6 0-1 0-.6-.4.7.5 0 .3 0 0-1-1.7-1-2l-1-.5-.8-.6-.2-.4h-.5c.3-.3 0-.3-.4-.4V75c0-.2-.7-1-.7-1-.3 0 .3 1 .4 1.4 0 0 0 .4.2.6l.3.3V76l.2.5.4.3.3.7.2 1v.7c.7 1.7.2.5 0 .6 0 0-.5-1.6-.7-1.8v-.6c-.4-1-.8-1-1-1l-.7 1.2s-.4 1-.2.3l.3-1.3v-.3c-.2-.6 0 0 0-.6 0-.7.2 0 0-.6 0-.4-.3-.6-.3-1s.4-.2 0-.6c-.3-.4-.4-.7-.2-1l-.5-1.2 1 .3c.3 0 .4.2.4.2s0 .2.6.4h.6l-.7-.4-.7-.6H123c.5-.2.4-.3 1-.3l1.2.6z"/><path fill="#FFF" d="M119 73.8s-.4 0-.7.5l-.5 1-.2.2c-.2.3-1 .6-1 1 0 .3.8-.6 1-.7l1-.6c.3 0-.2-.4.2-.6l.8-.4c.4-.2.6 0 .3.3l-.5.6c-.2.4-.3.2-.6.8-.5.5-.8.4-1 1 0 .4-.4.6-.6.8 0 .2 1-1 1.6-1.3.5-.4.4-.6.8-1l1-.6c.2-.3 0-.5.5-.8.5-.5.6-1 .7-1.2 0-.3.2.7 0 1-.3.5-.5.5-.7.8 0 .3-.3.6-.4.7l1-1c.4-.2.5-.6.6-1 0-.2-.2-.4 0-.7 0-.3-.3-.5 0-.6.3-.2.3-.4 0-.5h-.4s.2-.4 0-.4l-1 .6c0 .3.3.3 0 .6-.2.3.2.3 0 .4-.2.2-.4 0-.7.2-.3 0-.4-.2-.4.3 0 .6 0 .6-.2.8-.3 0-.6 0-1 .3l-.5.6.4-.6c.2 0 .2-.2.2-.2z"/><linearGradient id="b" gradientUnits="userSpaceOnUse" x1="129.9" y1="86.1" x2="129.2" y2="83.1"><stop offset="0" stop-color="#BDE3F5"/><stop offset=".3" stop-color="#E2F3F8"/><stop offset="1" stop-color="#FFF"/></linearGradient><path fill="url(#b)" d="M129 84.2s.3 0 .6.5c.2.5.6.3.6.6s0 .8.2 1c.2 0 .8 1 .8 1 0 .3 0-.2-.5-.2-.3 0-.6-.2-.6-.6 0-.3-.2-.7-.4-.8-.2-.2 0-.8-.4-.8-.3 0-.4-.3-.7-.6-.2-.2-.3-1-.3-1s.7.4.7 1z"/><linearGradient id="c" gradientUnits="userSpaceOnUse" x1="117.9" y1="83" x2="117.4" y2="80.7"><stop offset="0" stop-color="#BDE3F5"/><stop offset=".3" stop-color="#E2F3F8"/><stop offset="1" stop-color="#FFF"/></linearGradient><path fill="url(#c)" d="M118.3 81.3l-.5.3c-.3.3-.2.6-.3.7h-.3l-.5.2c-.3.3 0 .5-.3.7l-.6.6-.2.2s-.2.7-.4 1c-.2 0 .6-.3 1-.6.2-.2 0-.2 0-.4.3-.2.4-.3.5-.7 0-.3.6-.8.4-.6 0 .2.4 0 .2.5 0 .5-.6.7-.2.7s.4-.3.5-.6c.2-.3 0-.5 0-.6.2 0 .3-.4.5-.6l.7-.7.6-.5 1-1s-2.3 1-2 1.3z"/><path fill="#80B4C9" d="M198.3 90.3L204 79l6.3 11.3"/><path fill="#79A7BD" d="M210.3 90.3L204 79v11.3"/><path fill="#FFF" d="M202.4 82.5l.7-.4v1.4l.8-1 .3 1.8.8-2 1.5.8-.5-.8L204 79"/><path fill="#80B4C9" d="M206.2 90.3l5.5-8.7 5.8 8.7"/><path fill="#79A7BD" d="M217.5 90.3l-5.8-8.7v8.7"/><path fill="#FFF" d="M210 84.3l.8-.3-.2 1 .8-.8.3 1.4.6-1.6 1.4.7-.4-.7-1.6-2.4"/><path fill="#80B4C9" d="M192 90.4l5.6-8.7 5.8 8.7"/><path fill="#79A7BD" d="M203.4 90.4l-5.8-8.7v8.7"/><path fill="#FFF" d="M196 84.4l.6-.3v1l.6-.6.4 1.3.6-1.6 1.4.8-.4-.7-1.6-2.3"/><g><path fill="#80B4C9" d="M193.8 112.5l4.3-8.5 4.7 8.5"/><path fill="#79A7BD" d="M202.7 112.5L198 104v8.5"/><path fill="#FFF" d="M196.8 106.6l.6-.3-.2 1 .6-.7.3 1.3.6-1.7 1 .7-.2-.6-1.3-2.4"/><path fill="#80B4C9" d="M199.7 112.5l4-6.5 4.4 6.5"/><path fill="#79A7BD" d="M208 112.5L204 106v6.5"/><path fill="#FFF" d="M202.5 108l.6-.3v.8l.5-.6.3 1 .4-1.3 1 .5-.2-.4-1.2-1.8"/><g><path fill="#80B4C9" d="M189 112.5l4.2-6.5 4.4 6.5"/><path fill="#79A7BD" d="M197.6 112.5l-4.4-6.5v6.5"/><path fill="#FFF" d="M192 108l.5-.2v.8l.5-.6.2 1 .5-1.2 1 .5-.3-.5-1.2-1.8"/></g></g><g><path fill="#80B4C9" d="M164.6 115.8l3.7-7 4 7"/><path fill="#79A7BD" d="M172.2 115.8l-4-7v7"/><path fill="#FFF" d="M167.2 110.8l.4-.2v1l.4-.8.3 1 .4-1.2 1 .6-.4-.6-1-2"/><path fill="#80B4C9" d="M169.6 115.8l3.5-5.5 3.7 5.5"/><path fill="#79A7BD" d="M176.7 115.8l-3.6-5.5v5.5"/><path fill="#FFF" d="M172 112l.5-.2v.6l.3-.5.3.8.4-1 1 .4-.3-.4-1-1.5"/><g><path fill="#80B4C9" d="M160.7 116l3.4-5.6 3.8 5.5"/><path fill="#79A7BD" d="M167.8 116l-3.7-5.6v5.5"/><path fill="#FFF" d="M163 112h.5v.5l.4-.5v1l.5-1 1 .3-.3-.4-1-1.6"/></g></g><g><path fill="#80B4C9" d="M183 101l4.7-9.3 5 9.2"/><path fill="#79A7BD" d="M192.7 101l-5-9.3v9.2"/><path fill="#FFF" d="M186.2 94.5l.7-.3-.3 1 .7-.7.3 1.4.5-1.8 1.2.7-.3-.8-1.3-2.5"/><path fill="#80B4C9" d="M189.4 101l4.5-7.2 4.6 7"/><path fill="#79A7BD" d="M198.6 101l-4.7-7.2v7"/><path fill="#FFF" d="M192.5 96l.6-.3v1l.6-.8.3 1 .4-1.3 1.2.6-.4-.5-1.3-2"/><g><path fill="#80B4C9" d="M177.8 101l4.5-7 4.8 7"/><path fill="#79A7BD" d="M187 101l-4.7-7v7"/><path fill="#FFF" d="M181 96l.5-.2v1l.5-.8.3 1.2.5-1.4 1.2.6-.4-.5-1.3-2"/></g></g><g><path fill="#80B4C9" d="M167 130.8l5.6-10.7 6 10.8"/><path fill="#79A7BD" d="M178.5 130.8l-6-10.7V131"/><path fill="#FFF" d="M171 123.4l.7-.3-.2 1.3.8-1 .3 1.8.7-2 1.4 1-.5-1-1.6-3"/><path fill="#80B4C9" d="M174.6 130.8l5.2-8.2 5.6 8.2"/><path fill="#79A7BD" d="M185.4 130.8l-5.6-8.2v8.2"/><path fill="#FFF" d="M178.2 125l.7-.2-.2 1 .7-.7.3 1.4.6-1.6 1.4.7-.4-.6-1.6-2.4"/><g><path fill="#80B4C9" d="M161.2 131l5.2-8.3 5.5 8.3"/><path fill="#79A7BD" d="M172 131l-5.6-8.3v8.3"/><path fill="#FFF" d="M164.8 125.2l.7-.2v1l.6-.8.4 1.3.6-1.6 1.4.6-.5-.6-1.6-2.3"/></g></g><g><path fill="#80B4C9" d="M143 139.7l6.8-13 7 13"/><path fill="#79A7BD" d="M157 139.7l-7.2-13v13"/><path fill="#FFF" d="M147.8 130.6l.8-.4v1.5l.8-1.2.4 2 .8-2.4 1.7 1.2-.5-1-2-3.6"/><path fill="#80B4C9" d="M152.2 139.7l6.4-10 6.7 10"/><path fill="#79A7BD" d="M165.3 139.7l-6.7-10v10"/><path fill="#FFF" d="M156.7 132.7l.8-.4-.2 1.2 1-1 .3 1.7.7-2 1.7 1-.5-.8-2-2.8"/><g><path fill="#80B4C9" d="M135.8 139.8l6.4-10 6.8 10"/><path fill="#79A7BD" d="M149 139.8l-6.8-10v10"/><path fill="#FFF" d="M140.3 132.8l.8-.3v1.2l.8-1 .4 1.7.7-2 1.6 1-.5-1-1.8-2.7"/></g></g><g><path fill="#80B4C9" d="M84.8 154l6.7-13 7.2 13"/><path fill="#79A7BD" d="M98.7 154l-7.2-13v13"/><path fill="#FFF" d="M89.5 145l1-.4-.3 1.5 1-1 .3 2 .8-2.4 1.7 1-.5-1-2-3.6"/><path fill="#80B4C9" d="M94 154l6.3-10 6.8 10"/><path fill="#79A7BD" d="M107 154l-6.7-10v10"/><path fill="#FFF" d="M98.4 147l.8-.2v1.2l.7-1 .3 1.7.7-2 1.7 1-.5-1-2-2.7"/><g><path fill="#80B4C9" d="M77.6 154.2l6.3-10 6.7 10"/><path fill="#79A7BD" d="M90.7 154.2l-6.8-10v10"/><path fill="#FFF" d="M82 147.2l.8-.3v1l.7-.8.4 1.6.7-2 1.6 1-.5-.8-2-2.8"/></g></g></svg>