<svg xmlns="http://www.w3.org/2000/svg" width="330" height="330" viewBox="0 0 330 330"><path fill="#E0DDA6" d="M-5-5h340v340H-5z"/><path fill="#FFF" d="M236.3 228.6c-.5 0-1-.5-1-1 0 .5-.5 1-1 1-.6 0-1-.5-1-1 0 .5-.6 1-1 1-.7 0-1.2-.5-1.2-1 0 .5-.3 1-1 1-.3 0-.7-.3-1-.6l2.5-4c.8-1.4 2.7-1.4 3.4 0l2.3 4c-.2.3-.6.6-1 .6z"/><linearGradient id="a" gradientUnits="userSpaceOnUse" x1="233.2" y1="234.2" x2="233.2" y2="227.5"><stop offset="0" stop-color="#C8B38A"/><stop offset=".1" stop-color="#BBA681"/><stop offset=".3" stop-color="#998569"/><stop offset=".6" stop-color="#816D57"/><stop offset=".8" stop-color="#725F4D"/><stop offset="1" stop-color="#6D5A49"/></linearGradient><path fill="url(#a)" d="M229 228c.3.3.7.5 1 .5.7 0 1-.4 1-1 0 .6.6 1 1.2 1 .5 0 1-.4 1-1 0 .6.5 1 1 1 .6 0 1-.4 1-1 0 .6.5 1 1 1s1-.2 1-.6l3.7 6.2h-15.5l3.6-6.3z"/><path fill="#FFF" d="M255 228.6c-.7 0-1.2-.5-1.2-1 0 .5-.4 1-1 1s-1-.5-1-1c0 .5-.5 1-1 1-.7 0-1-.5-1-1 0 .5-.6 1-1.2 1-.4 0-.7-.3-1-.6l2.4-4c.8-1.4 2.7-1.4 3.5 0l2.3 4c-.2.3-.5.6-1 .6z"/><linearGradient id="b" gradientUnits="userSpaceOnUse" x1="251.7" y1="234.2" x2="251.7" y2="227.5"><stop offset="0" stop-color="#C8B38A"/><stop offset=".1" stop-color="#BBA681"/><stop offset=".3" stop-color="#998569"/><stop offset=".6" stop-color="#816D57"/><stop offset=".8" stop-color="#725F4D"/><stop offset="1" stop-color="#6D5A49"/></linearGradient><path fill="url(#b)" d="M247.7 228c.2.3.5.5 1 .5s1-.4 1-1c0 .6.4 1 1 1s1-.4 1-1c0 .6.5 1 1 1 .7 0 1-.4 1-1 0 .6.6 1 1.2 1 .3 0 .6-.2.8-.6l3.6 6.2H244l3.7-6.3z"/><path fill="#FFF" d="M247 227c-.8 0-1.4-.6-1.4-1.3 0 .7-.6 1.3-1.3 1.3s-1.3-.6-1.3-1.3c0 .7-.6 1.3-1.3 1.3s-1.4-.6-1.4-1.3c0 .7-.6 1.3-1.3 1.3-.5 0-1-.3-1.2-.8l3-5c1-1.8 3.4-1.8 4.4 0l3 5c-.3.5-.7.8-1.2.8z"/><linearGradient id="c" gradientUnits="userSpaceOnUse" x1="243" y1="234.2" x2="243" y2="225.7"><stop offset="0" stop-color="#C8B38A"/><stop offset="1" stop-color="#6D5A49"/></linearGradient><path fill="url(#c)" d="M237.8 226.2c.2.5.7.8 1.2.8.7 0 1.3-.6 1.3-1.3 0 .7.6 1.3 1.4 1.3.7 0 1.3-.6 1.3-1.3 0 .7.6 1.3 1.3 1.3.7 0 1.3-.6 1.3-1.3 0 .7.6 1.3 1.4 1.3.5 0 1-.3 1.2-.8l4.6 8h-19.6l4.6-8z"/><path fill="#FFF" d="M259.5 230.4c0-.4-.3-.7-.8-.8h-.3-.2c-.2-.4-.6-.6-1-.6s-.8.2-1 .5c0 0-.2.2-.4 0h-.2c-.4.2-.7.5-.8 1 0 .2.2.4.4.4h4c.2 0 .4-.3.3-.6zm-25-10.2c0-.8-.8-1.5-1.6-1.5h-.7-.3c-.4-.8-1-1.2-2-1.2-.7 0-1.3.3-1.7 1l-.7.2h-.4c-.8 0-1.5.7-1.5 1.5 0 .4.3.8.7.8h7.3c.4 0 .8-.4.7-.8zM164.8 32.4c-.6 0-1-.5-1-1 0 .5-.5 1-1 1-.7 0-1-.5-1-1 0 .5-.6 1-1.2 1s-1-.5-1-1c0 .5-.5 1-1 1s-.8-.3-1-.6l2.3-4c.7-1.4 2.6-1.4 3.4 0l2.3 4c-.2.3-.5.6-1 .6z"/><linearGradient id="d" gradientUnits="userSpaceOnUse" x1="161.6" y1="38" x2="161.6" y2="31.4"><stop offset="0" stop-color="#C8B38A"/><stop offset=".1" stop-color="#BBA681"/><stop offset=".3" stop-color="#998569"/><stop offset=".6" stop-color="#816D57"/><stop offset=".8" stop-color="#725F4D"/><stop offset="1" stop-color="#6D5A49"/></linearGradient><path fill="url(#d)" d="M157.6 31.8c.2.3.5.6 1 .6s1-.5 1-1c0 .5.4 1 1 1s1-.5 1-1c0 .5.5 1 1 1 .7 0 1-.5 1-1 0 .5.6 1 1.2 1 .4 0 .7-.3 1-.6l3.5 6.2H154l3.6-6.2z"/><path fill="#FFF" d="M183.3 32.4c-.6 0-1-.5-1-1 0 .5-.5 1-1 1-.6 0-1-.5-1-1 0 .5-.6 1-1 1-.7 0-1.2-.5-1.2-1 0 .5-.4 1-1 1-.3 0-.7-.3-1-.6l2.5-4c.7-1.4 2.6-1.4 3.4 0l2.3 4c-.2.3-.6.6-1 .6z"/><linearGradient id="e" gradientUnits="userSpaceOnUse" x1="180.2" y1="38" x2="180.2" y2="31.4"><stop offset="0" stop-color="#C8B38A"/><stop offset=".1" stop-color="#BBA681"/><stop offset=".3" stop-color="#998569"/><stop offset=".6" stop-color="#816D57"/><stop offset=".8" stop-color="#725F4D"/><stop offset="1" stop-color="#6D5A49"/></linearGradient><path fill="url(#e)" d="M176 31.8c.3.3.7.6 1 .6.6 0 1-.5 1-1 0 .5.6 1 1 1 .7 0 1.2-.5 1.2-1 0 .5.5 1 1 1 .6 0 1-.5 1-1 0 .5.5 1 1 1s1-.3 1-.6L188 38h-15.5l3.6-6.2z"/><path fill="#FFF" d="M175.4 30.8c-.7 0-1.3-.6-1.3-1.3 0 .7-.5 1.3-1.2 1.3-.8 0-1.4-.6-1.4-1.3 0 .7-.6 1.3-1.3 1.3-.6 0-1.2-.6-1.2-1.3 0 .7-.6 1.3-1.3 1.3-.6 0-1-.3-1.2-.7l3-5c1-1.8 3.3-1.8 4.3 0l3 5c-.2.5-.7.8-1.2.8z"/><linearGradient id="f" gradientUnits="userSpaceOnUse" x1="171.4" y1="38" x2="171.4" y2="29.5"><stop offset="0" stop-color="#C8B38A"/><stop offset="1" stop-color="#6D5A49"/></linearGradient><path fill="url(#f)" d="M166.3 30c.2.5.6.8 1 .8 1 0 1.5-.6 1.5-1.3 0 .7.6 1.3 1.3 1.3.8 0 1.4-.6 1.4-1.3 0 .7.6 1.3 1.4 1.3.7 0 1.3-.5 1.3-1.3 0 .8.7 1.3 1.4 1.3.5 0 1-.3 1.2-.7l4.6 8h-19.5l4.6-8z"/><path fill="#FFF" d="M188 34.3c0-.4-.4-.8-.8-.8h-.4c-.3-.4-.7-.7-1.2-.7-.4 0-.7.2-1 .5l-.3.2h-.2c-.3 0-.7.4-.7.8 0 .2 0 .4.4.4h4s.3-.2.3-.4zM163 24c-.2-.8-.8-1.4-1.6-1.5h-.7-.2c-.4-.7-1.2-1.2-2-1.2-.7 0-1.4.4-1.8 1l-.7.2h-.4c-.8 0-1.4.7-1.5 1.5 0 .4.4.8 1 .8h7c.6 0 1-.4 1-.8z"/><g><path fill="#FFF" d="M132.4 266.7c-.5 0-1-.4-1-1 0 .6-.5 1-1 1-.6 0-1-.4-1-1 0 .6-.6 1-1 1-.7 0-1.2-.4-1.2-1 0 .6-.4 1-1 1-.4 0-.8-.2-1-.6l2.4-4c.8-1.3 2.7-1.3 3.4 0l2.4 4c-.2.5-.5.7-1 .7z"/><linearGradient id="g" gradientUnits="userSpaceOnUse" x1="129.3" y1="272.4" x2="129.3" y2="265.7"><stop offset="0" stop-color="#C8B38A"/><stop offset=".1" stop-color="#BBA681"/><stop offset=".3" stop-color="#998569"/><stop offset=".6" stop-color="#816D57"/><stop offset=".8" stop-color="#725F4D"/><stop offset="1" stop-color="#6D5A49"/></linearGradient><path fill="url(#g)" d="M125.3 266c0 .5.5.7 1 .7s1-.4 1-1c0 .6.4 1 1 1 .5 0 1-.4 1-1 0 .6.5 1 1 1 .6 0 1-.4 1-1 0 .6.6 1 1 1 .5 0 1-.2 1-.6l3.7 6.4h-15.4l3.6-6.3z"/><path fill="#FFF" d="M151 266.7c-.6 0-1-.4-1-1 0 .6-.5 1-1 1-.7 0-1-.4-1-1 0 .6-.6 1-1.2 1s-1-.4-1-1c0 .6-.5 1-1 1s-.8-.2-1-.6l2.3-4c1-1.3 2.8-1.3 3.6 0l2.3 4c-.2.5-.6.7-1 .7z"/><linearGradient id="h" gradientUnits="userSpaceOnUse" x1="147.9" y1="272.4" x2="147.9" y2="265.7"><stop offset="0" stop-color="#C8B38A"/><stop offset=".1" stop-color="#BBA681"/><stop offset=".3" stop-color="#998569"/><stop offset=".6" stop-color="#816D57"/><stop offset=".8" stop-color="#725F4D"/><stop offset="1" stop-color="#6D5A49"/></linearGradient><path fill="url(#h)" d="M143.8 266c.2.5.5.7 1 .7s1-.4 1-1c0 .6.4 1 1 1s1-.4 1-1c0 .6.5 1 1 1 .7 0 1-.4 1-1 0 .6.6 1 1.2 1 .4 0 .7-.2 1-.6l3.5 6.4h-15.3l3.6-6.3z"/><path fill="#FFF" d="M143 265.2c-.7 0-1.3-.6-1.3-1.3 0 .6-.6 1.2-1.3 1.2s-1.3-.6-1.3-1.3c0 .6-.5 1.2-1.2 1.2s-1.4-.6-1.4-1.3c0 .6-.6 1.2-1.3 1.2-.4 0-1-.3-1-.8l3-5.2c1-1.6 3.3-1.6 4.3 0l3 5.2c-.2.5-.7.8-1.2.8z"/><linearGradient id="i" gradientUnits="userSpaceOnUse" x1="139.1" y1="272.4" x2="139.1" y2="263.9"><stop offset="0" stop-color="#C8B38A"/><stop offset="1" stop-color="#6D5A49"/></linearGradient><path fill="url(#i)" d="M134 264.4c0 .5.6.8 1 .8.8 0 1.4-.6 1.4-1.3 0 .6.6 1.2 1.4 1.2.7 0 1.3-.6 1.3-1.3 0 .6.7 1.2 1.4 1.2s1.3-.6 1.3-1.3c0 .6.6 1.2 1.4 1.2.6 0 1-.3 1.3-.8l4.6 8h-19.7l4.6-8z"/><path fill="#FFF" d="M155.6 268.6c0-.4-.3-.8-.8-.8h-.3-.2c-.2-.4-.6-.6-1-.6s-.8.2-1 .5h-.4-.3c-.4 0-.7.5-.8 1 0 .2 0 .4.3.4h4c.2 0 .4 0 .3-.4zm-25-10.2c0-1-.8-1.5-1.6-1.6h-.6-.3c-.3-.7-1-1-1.8-1s-1.4.2-1.8.7c-.2.3-.5.4-.7.3h-.4c-.8 0-1.4.7-1.5 1.5 0 .5.3.8.7.8h7.3c.4 0 .8-.2.7-.7z"/></g><g><path fill="#FFF" d="M152 273.8c-.3 0-.7-.3-.7-.8 0 .5-.3.8-.8.8-.4 0-.7-.3-.7-.8 0 .5-.4.8-.8.8-.5 0-.8-.3-.8-.8 0 .5-.4.8-.8.8-.3 0-.6-.2-.7-.5l1.8-3c.5-1 2-1 2.6 0l1.8 3c0 .3-.4.5-.7.5z"/><linearGradient id="j" gradientUnits="userSpaceOnUse" x1="143.9" y1="275.6" x2="155.6" y2="275.6"><stop offset="0" stop-color="#C8B38A"/><stop offset=".1" stop-color="#BBA681"/><stop offset=".3" stop-color="#998569"/><stop offset=".6" stop-color="#816D57"/><stop offset=".8" stop-color="#725F4D"/><stop offset="1" stop-color="#6D5A49"/></linearGradient><path fill="url(#j)" d="M146.7 273.4c0 .2.4.4.7.4.4 0 .8-.3.8-.8 0 .5.3.8.8.8.4 0 .8-.3.8-.8 0 .5.3.8.7.8.5 0 .8-.3.8-.8 0 .5.4.8.8.8s.7-.2.8-.5l2.8 4.8H144l2.7-4.7z"/><path fill="#FFF" d="M163 271.2c-.8 0-1.4-.5-1.4-1.2 0 .7-.5 1.2-1.2 1.2s-1.3-.5-1.3-1.2c0 .7-.5 1.2-1.2 1.2s-1.2-.5-1.2-1.2c0 .7-.6 1.2-1.3 1.2-.5 0-1-.3-1-.7l2.7-5c1-1.6 3.3-1.6 4.2 0l2.8 5c-.2.4-.6.7-1 .7z"/><linearGradient id="k" gradientUnits="userSpaceOnUse" x1="159.1" y1="278.1" x2="159.1" y2="270"><stop offset="0" stop-color="#C8B38A"/><stop offset=".1" stop-color="#BBA681"/><stop offset=".3" stop-color="#998569"/><stop offset=".6" stop-color="#816D57"/><stop offset=".8" stop-color="#725F4D"/><stop offset="1" stop-color="#6D5A49"/></linearGradient><path fill="url(#k)" d="M154.2 270.5c.2.4.6.7 1 .7.8 0 1.4-.5 1.4-1.2 0 .7.5 1.2 1.2 1.2s1.3-.5 1.3-1.2c0 .7.7 1.2 1.4 1.2s1.2-.5 1.2-1.2c0 .7.6 1.2 1.3 1.2.4 0 .8-.3 1-.7l4.4 7.6h-18.6l4.3-7.5z"/><path fill="#FFF" d="M170.3 274.2c0-.7-.6-1.3-1.3-1.4h-.6-.3c-.2-.6-1-1-1.6-1-.6 0-1.2.3-1.6.8 0 .2-.4.3-.6.2h-.3c-.8 0-1.4.7-1.5 1.4 0 .4.3.7.7.7h6.4c.4 0 .7-.4.7-.8z"/></g><g><path fill="#FFF" d="M260 87.3c-.5 0-.8-.4-.8-.8 0 .4-.4.8-.8.8-.5 0-.8-.4-.8-.8 0 .4-.4.8-.8.8s-.8-.4-.8-.8c0 .4-.3.8-.8.8-.3 0-.6-.2-.7-.5l1.8-3c.6-1 2-1 2.6 0l1.7 3c0 .3-.4.5-.7.5z"/><linearGradient id="l" gradientUnits="userSpaceOnUse" x1="251.7" y1="89" x2="263.4" y2="89"><stop offset="0" stop-color="#C8B38A"/><stop offset=".1" stop-color="#BBA681"/><stop offset=".3" stop-color="#998569"/><stop offset=".6" stop-color="#816D57"/><stop offset=".8" stop-color="#725F4D"/><stop offset="1" stop-color="#6D5A49"/></linearGradient><path fill="url(#l)" d="M254.5 86.8c0 .3.4.5.7.5.4 0 .8-.4.8-.8 0 .4.4.8.8.8s.8-.4.8-.8c0 .4.3.8.8.8.4 0 .8-.4.8-.8 0 .4.3.8.8.8.3 0 .5-.2.7-.5l2.7 4.8h-11.7l2.8-4.8z"/><path fill="#FFF" d="M270.7 84.7c-.7 0-1.2-.6-1.2-1.3 0 .7-.6 1.3-1.3 1.3s-1.3-.6-1.3-1.3c0 .7-.6 1.3-1.3 1.3s-1.3-.6-1.3-1.3c0 .7-.6 1.3-1.3 1.3-.4 0-.8-.3-1-.7l2.8-5c1-1.6 3.3-1.6 4.2 0l3 5c-.3.4-.8.7-1.3.7z"/><linearGradient id="m" gradientUnits="userSpaceOnUse" x1="266.9" y1="91.6" x2="266.9" y2="83.4"><stop offset="0" stop-color="#C8B38A"/><stop offset=".1" stop-color="#BBA681"/><stop offset=".3" stop-color="#998569"/><stop offset=".6" stop-color="#816D57"/><stop offset=".8" stop-color="#725F4D"/><stop offset="1" stop-color="#6D5A49"/></linearGradient><path fill="url(#m)" d="M262 84c.2.4.6.7 1 .7.8 0 1.4-.6 1.4-1.3 0 .7.6 1.3 1.3 1.3s1.2-.6 1.2-1.3c0 .7.5 1.3 1.2 1.3s1.3-.6 1.3-1.3c0 .7.5 1.3 1.2 1.3.5 0 1-.3 1.2-.7l4.3 7.6h-18.7L262 84z"/><path fill="#FFF" d="M278 87.6c0-.7-.5-1.2-1.2-1.3h-.6-.2c-.4-.6-1-1-1.8-1-.6 0-1.2.3-1.5.7-.2.2-.4.3-.7.3h-.3c-.7 0-1.3.6-1.3 1.3 0 .4.2.8.6.8h6.5c.3 0 .6-.4.6-.8z"/></g></svg>