<svg xmlns="http://www.w3.org/2000/svg" xmlns:xlink="http://www.w3.org/1999/xlink" width="360" height="360" viewBox="0 0 360 360"><path fill="#DBC5A7" d="M-5.4-5.2h370v370h-370z"/><linearGradient id="a" gradientUnits="userSpaceOnUse" x1="244.4" y1="163.3" x2="244.4" y2="154.5"><stop offset="0" stop-color="#D3B98C"/><stop offset=".2" stop-color="#CEB17A"/><stop offset=".5" stop-color="#C7A664"/><stop offset=".8" stop-color="#C39F56"/><stop offset="1" stop-color="#C29D51"/></linearGradient><path fill="url(#a)" d="M226.4 163.3s2.5-1 6.4-5.4c3.7-3.6 7.3-6 13.5 1 1.7 1 3 2 5.4 0 1.8-2 3-2.5 5.8.4 0 0 2.6 2.8 4.8 3.5l-36 .3z"/><linearGradient id="b" gradientUnits="userSpaceOnUse" x1="254.1" y1="113.9" x2="254.1" y2="107"><stop offset="0" stop-color="#D3B98C"/><stop offset=".2" stop-color="#CEB17A"/><stop offset=".5" stop-color="#C7A664"/><stop offset=".8" stop-color="#C39F56"/><stop offset="1" stop-color="#C29D51"/></linearGradient><path fill="url(#b)" d="M240 114s2-1 5-4.3c3-2.7 5.7-4.6 10.6.8 1.3.7 2.2 1.5 4.2 0 1.4-1.6 2.4-2 4.5.4 0 0 2 2.4 3.8 3h-28z"/><linearGradient id="c" gradientUnits="userSpaceOnUse" x1="271" y1="105.1" x2="271" y2="96.7"><stop offset="0" stop-color="#D3B98C"/><stop offset=".2" stop-color="#CEB17A"/><stop offset=".5" stop-color="#C7A664"/><stop offset=".8" stop-color="#C39F56"/><stop offset="1" stop-color="#C29D51"/></linearGradient><path fill="url(#c)" d="M253.7 105s2.5-1 6.2-5c3.5-3.4 7-5.7 13 1 1.5.8 2.7 1.8 5 0 1.8-2 3-2.4 5.6.4 0 0 2.6 3 4.7 3.7h-34.6z"/><defs><path id="d" d="M253.7 105s2.5-1 6.2-5c3.5-3.4 7-5.7 13 1 1.5.8 2.7 1.8 5 0 1.8-2 3-2.4 5.6.4 0 0 2.6 3 4.7 3.7h-34.6z"/></defs><clipPath id="e"><use xlink:href="#d" overflow="visible"/></clipPath><g clip-path="url(#e)"><defs><path id="f" d="M253 105.3s1.8-.2 6.3-4.7 6-6.2 7-6.3c1.4-.5 3.6 0 5.2 1.8l7.3 7.5 1.7 1.8H253z"/></defs><clipPath id="g"><use xlink:href="#f" overflow="visible"/></clipPath><linearGradient id="h" gradientUnits="userSpaceOnUse" x1="252.9" y1="100.1" x2="267.9" y2="100.1"><stop offset="0" stop-color="#D3B98C"/><stop offset="0" stop-color="#D0B485"/><stop offset=".3" stop-color="#C09D65"/><stop offset=".6" stop-color="#B48C4F"/><stop offset=".8" stop-color="#AD8241"/><stop offset="1" stop-color="#AB7F3C"/></linearGradient><path clip-path="url(#g)" fill="url(#h)" d="M265.3 95s5.5 1 .6 6.2c-1 .8-4.8 4-13 4L265.2 95z"/></g><linearGradient id="i" gradientUnits="userSpaceOnUse" x1="20.4" y1="138.2" x2="20.4" y2="129.8"><stop offset="0" stop-color="#D3B98C"/><stop offset=".2" stop-color="#CEB17A"/><stop offset=".5" stop-color="#C7A664"/><stop offset=".8" stop-color="#C39F56"/><stop offset="1" stop-color="#C29D51"/></linearGradient><path fill="url(#i)" d="M3 138.2s2.5-1 6.2-5.2c3.7-3.3 7-5.6 13 1 1.7 1 3 2 5.3 0 1.7-2 3-2.3 5.6.5 0 0 2.6 3 4.7 3.7H3z"/><defs><path id="j" d="M3 138.2s2.5-1 6.2-5.2c3.7-3.3 7-5.6 13 1 1.7 1 3 2 5.3 0 1.7-2 3-2.3 5.6.5 0 0 2.6 3 4.7 3.7H3z"/></defs><clipPath id="k"><use xlink:href="#j" overflow="visible"/></clipPath><linearGradient id="l" gradientUnits="userSpaceOnUse" x1="8.3" y1="139.2" x2="8.3" y2="129.8"><stop offset="0" stop-color="#D3B98C"/><stop offset="0" stop-color="#D0B485"/><stop offset=".3" stop-color="#C09D65"/><stop offset=".6" stop-color="#B48C4F"/><stop offset=".8" stop-color="#AD8241"/><stop offset="1" stop-color="#AB7F3C"/></linearGradient><path clip-path="url(#k)" fill="url(#l)" d="M12.7 129.8s5.6 1.5 1.3 5.3c-6 4.7-9.8 1.6-13 4.2l11.7-9.4z"/><linearGradient id="m" gradientUnits="userSpaceOnUse" x1="106.4" y1="205.6" x2="106.4" y2="197.2"><stop offset="0" stop-color="#D3B98C"/><stop offset=".2" stop-color="#CEB17A"/><stop offset=".5" stop-color="#C7A664"/><stop offset=".8" stop-color="#C39F56"/><stop offset="1" stop-color="#C29D51"/></linearGradient><path fill="url(#m)" d="M89 205.6s2.5-1 6.3-5c3.6-3.5 7-5.8 13 1 1.7.7 2.8 1.7 5.2-.2 1.8-2 3-2.3 5.6.5 0 0 2.7 3 4.8 3.6H89z"/><defs><path id="n" d="M89 205.6s2.5-1 6.3-5c3.6-3.5 7-5.8 13 1 1.7.7 2.8 1.7 5.2-.2 1.8-2 3-2.3 5.6.5 0 0 2.7 3 4.8 3.6H89z"/></defs><clipPath id="o"><use xlink:href="#n" overflow="visible"/></clipPath><linearGradient id="p" gradientUnits="userSpaceOnUse" x1="94.3" y1="206.7" x2="94.3" y2="197.2"><stop offset="0" stop-color="#D3B98C"/><stop offset="0" stop-color="#D0B485"/><stop offset=".3" stop-color="#C09D65"/><stop offset=".6" stop-color="#B48C4F"/><stop offset=".8" stop-color="#AD8241"/><stop offset="1" stop-color="#AB7F3C"/></linearGradient><path clip-path="url(#o)" fill="url(#p)" d="M98.7 197.2s5.6 1.6 1.3 5.4c-6 4.5-9.8 1.4-13 4l11.7-9.4z"/><linearGradient id="q" gradientUnits="userSpaceOnUse" x1="136.9" y1="193" x2="136.9" y2="188.7"><stop offset="0" stop-color="#D3B98C"/><stop offset=".2" stop-color="#CEB17A"/><stop offset=".5" stop-color="#C7A664"/><stop offset=".8" stop-color="#C39F56"/><stop offset="1" stop-color="#C29D51"/></linearGradient><path fill="url(#q)" d="M128.3 193s1.2-.5 3-2.6c2-1.7 3.6-3 6.6.5.7.3 1.3.8 2.5-.2 1-1 1.5-1 2.8.3 0 0 1.2 1.7 2.3 2h-17.3z"/><defs><path id="r" d="M128.3 193s1.2-.5 3-2.6c2-1.7 3.6-3 6.6.5.7.3 1.3.8 2.5-.2 1-1 1.5-1 2.8.3 0 0 1.2 1.7 2.3 2h-17.3z"/></defs><clipPath id="s"><use xlink:href="#r" overflow="visible"/></clipPath><linearGradient id="t" gradientUnits="userSpaceOnUse" x1="130.9" y1="193.5" x2="130.9" y2="188.7"><stop offset="0" stop-color="#D3B98C"/><stop offset="0" stop-color="#D0B485"/><stop offset=".3" stop-color="#C09D65"/><stop offset=".6" stop-color="#B48C4F"/><stop offset=".8" stop-color="#AD8241"/><stop offset="1" stop-color="#AB7F3C"/></linearGradient><path clip-path="url(#s)" fill="url(#t)" d="M133 188.7s3 .8.7 2.7c-3 2.3-5 .7-6.5 2l6-4.7z"/><linearGradient id="u" gradientUnits="userSpaceOnUse" x1="115.6" y1="212.9" x2="115.6" y2="204.4"><stop offset="0" stop-color="#D3B98C"/><stop offset=".2" stop-color="#CEB17A"/><stop offset=".5" stop-color="#C7A664"/><stop offset=".8" stop-color="#C39F56"/><stop offset="1" stop-color="#C29D51"/></linearGradient><path fill="url(#u)" d="M98.3 213s2.4-1 6-5.3c3.8-3.3 7.2-5.7 13.2 1 1.6 1 2.8 2 5.2 0 1.7-2 3-2.3 5.6.5 0 0 2.5 3 4.6 3.7H98.2z"/><defs><path id="v" d="M98.3 213s2.4-1 6-5.3c3.8-3.3 7.2-5.7 13.2 1 1.6 1 2.8 2 5.2 0 1.7-2 3-2.3 5.6.5 0 0 2.5 3 4.6 3.7H98.2z"/></defs><clipPath id="w"><use xlink:href="#v" overflow="visible"/></clipPath><linearGradient id="x" gradientUnits="userSpaceOnUse" x1="103.5" y1="213.9" x2="103.5" y2="204.4"><stop offset="0" stop-color="#D3B98C"/><stop offset="0" stop-color="#D0B485"/><stop offset=".3" stop-color="#C09D65"/><stop offset=".6" stop-color="#B48C4F"/><stop offset=".8" stop-color="#AD8241"/><stop offset="1" stop-color="#AB7F3C"/></linearGradient><path clip-path="url(#w)" fill="url(#x)" d="M108 204.4s5.5 1.6 1.2 5.4c-6 4.6-10 1.4-13 4l11.7-9.4z"/><g><linearGradient id="y" gradientUnits="userSpaceOnUse" x1="162.2" y1="256.5" x2="162.2" y2="249.4"><stop offset="0" stop-color="#D3B98C"/><stop offset=".2" stop-color="#CEB17A"/><stop offset=".5" stop-color="#C7A664"/><stop offset=".8" stop-color="#C39F56"/><stop offset="1" stop-color="#C29D51"/></linearGradient><path fill="url(#y)" d="M147.7 256.5s2-.8 5-4.3c3.2-3 6-4.8 11 .8 1.5.7 2.4 1.6 4.5 0 1.4-1.7 2.4-2 4.6.4 0 0 2.2 2.6 4 3h-29z"/><defs><path id="z" d="M147.7 256.5s2-.8 5-4.3c3.2-3 6-4.8 11 .8 1.5.7 2.4 1.6 4.5 0 1.4-1.7 2.4-2 4.6.4 0 0 2.2 2.6 4 3h-29z"/></defs><clipPath id="A"><use xlink:href="#z" overflow="visible"/></clipPath><linearGradient id="B" gradientUnits="userSpaceOnUse" x1="152.1" y1="257.4" x2="152.1" y2="249.4"><stop offset="0" stop-color="#D3B98C"/><stop offset="0" stop-color="#D0B485"/><stop offset=".3" stop-color="#C09D65"/><stop offset=".6" stop-color="#B48C4F"/><stop offset=".8" stop-color="#AD8241"/><stop offset="1" stop-color="#AB7F3C"/></linearGradient><path clip-path="url(#A)" fill="url(#B)" d="M155.8 249.4s4.7 1.3 1 4.5c-5 3.8-8.2 1-11 3.4l10-8z"/></g><g><linearGradient id="C" gradientUnits="userSpaceOnUse" x1="276.3" y1="292.6" x2="276.3" y2="285.5"><stop offset="0" stop-color="#D3B98C"/><stop offset=".2" stop-color="#CEB17A"/><stop offset=".5" stop-color="#C7A664"/><stop offset=".8" stop-color="#C39F56"/><stop offset="1" stop-color="#C29D51"/></linearGradient><path fill="url(#C)" d="M261.8 292.6s2-1 5.2-4.4c3-2.8 5.8-4.8 11 1 1.3.6 2.2 1.4 4.3-.2 1.4-1.6 2.4-2 4.6.4 0 0 2 2.7 3.8 3.2h-29z"/><defs><path id="D" d="M261.8 292.6s2-1 5.2-4.4c3-2.8 5.8-4.8 11 1 1.3.6 2.2 1.4 4.3-.2 1.4-1.6 2.4-2 4.6.4 0 0 2 2.7 3.8 3.2h-29z"/></defs><clipPath id="E"><use xlink:href="#D" overflow="visible"/></clipPath><linearGradient id="F" gradientUnits="userSpaceOnUse" x1="266.2" y1="293.4" x2="266.2" y2="285.5"><stop offset="0" stop-color="#D3B98C"/><stop offset="0" stop-color="#D0B485"/><stop offset=".3" stop-color="#C09D65"/><stop offset=".6" stop-color="#B48C4F"/><stop offset=".8" stop-color="#AD8241"/><stop offset="1" stop-color="#AB7F3C"/></linearGradient><path clip-path="url(#E)" fill="url(#F)" d="M270 285.5s4.6 1.3 1 4.5c-5.2 3.8-8.3 1.2-11 3.4l10-8z"/></g><g><linearGradient id="G" gradientUnits="userSpaceOnUse" x1="172.5" y1="262.7" x2="172.5" y2="257.7"><stop offset="0" stop-color="#D3B98C"/><stop offset=".2" stop-color="#CEB17A"/><stop offset=".5" stop-color="#C7A664"/><stop offset=".8" stop-color="#C39F56"/><stop offset="1" stop-color="#C29D51"/></linearGradient><path fill="url(#G)" d="M162.2 262.7s1.5-.5 3.7-3c2-2 4-3.4 7.6.6 1 .5 1.7 1 3 0 1-1.2 1.8-1.4 3.4.2 0 0 1.5 2 2.8 2.2h-20.6z"/><defs><path id="H" d="M162.2 262.7s1.5-.5 3.7-3c2-2 4-3.4 7.6.6 1 .5 1.7 1 3 0 1-1.2 1.8-1.4 3.4.2 0 0 1.5 2 2.8 2.2h-20.6z"/></defs><clipPath id="I"><use xlink:href="#H" overflow="visible"/></clipPath><linearGradient id="J" gradientUnits="userSpaceOnUse" x1="165.3" y1="263.3" x2="165.3" y2="257.7"><stop offset="0" stop-color="#D3B98C"/><stop offset="0" stop-color="#D0B485"/><stop offset=".3" stop-color="#C09D65"/><stop offset=".6" stop-color="#B48C4F"/><stop offset=".8" stop-color="#AD8241"/><stop offset="1" stop-color="#AB7F3C"/></linearGradient><path clip-path="url(#I)" fill="url(#J)" d="M168 257.7s3.3 1 .7 3.2c-3.6 2.6-6 .7-7.7 2.3l7-5.6z"/></g><g><linearGradient id="K" gradientUnits="userSpaceOnUse" x1="136.8" y1="332.3" x2="136.8" y2="327.3"><stop offset="0" stop-color="#D3B98C"/><stop offset=".2" stop-color="#CEB17A"/><stop offset=".5" stop-color="#C7A664"/><stop offset=".8" stop-color="#C39F56"/><stop offset="1" stop-color="#C29D51"/></linearGradient><path fill="url(#K)" d="M126.5 332.3s1.4-.5 3.6-3c2.3-2 4.3-3.4 8 .6 1 .4 1.5 1 3-.2 1-1 1.7-1.3 3.3.3 0 0 1.5 2 2.7 2.3h-20.5z"/><defs><path id="L" d="M126.5 332.3s1.4-.5 3.6-3c2.3-2 4.3-3.4 8 .6 1 .4 1.5 1 3-.2 1-1 1.7-1.3 3.3.3 0 0 1.5 2 2.7 2.3h-20.5z"/></defs><clipPath id="M"><use xlink:href="#L" overflow="visible"/></clipPath><linearGradient id="N" gradientUnits="userSpaceOnUse" x1="129.6" y1="332.9" x2="129.6" y2="327.3"><stop offset="0" stop-color="#D3B98C"/><stop offset="0" stop-color="#D0B485"/><stop offset=".3" stop-color="#C09D65"/><stop offset=".6" stop-color="#B48C4F"/><stop offset=".8" stop-color="#AD8241"/><stop offset="1" stop-color="#AB7F3C"/></linearGradient><path clip-path="url(#M)" fill="url(#N)" d="M132.2 327.3s3.3 1 .7 3.2c-3.7 2.7-6 1-7.8 2.4l7-5.7z"/></g><g><linearGradient id="O" gradientUnits="userSpaceOnUse" x1="145.9" y1="335.4" x2="145.9" y2="328.3"><stop offset="0" stop-color="#D3B98C"/><stop offset=".2" stop-color="#CEB17A"/><stop offset=".5" stop-color="#C7A664"/><stop offset=".8" stop-color="#C39F56"/><stop offset="1" stop-color="#C29D51"/></linearGradient><path fill="url(#O)" d="M131.4 335.4s2-.8 5.2-4.4c3-2.8 6-4.7 11 1 1.3.6 2.2 1.4 4.3-.2 1.3-1.6 2.3-2 4.5.4 0 0 2.2 2.7 4 3.2h-29z"/><defs><path id="P" d="M131.4 335.4s2-.8 5.2-4.4c3-2.8 6-4.7 11 1 1.3.6 2.2 1.4 4.3-.2 1.3-1.6 2.3-2 4.5.4 0 0 2.2 2.7 4 3.2h-29z"/></defs><clipPath id="Q"><use xlink:href="#P" overflow="visible"/></clipPath><linearGradient id="R" gradientUnits="userSpaceOnUse" x1="135.8" y1="336.2" x2="135.8" y2="328.3"><stop offset="0" stop-color="#D3B98C"/><stop offset="0" stop-color="#D0B485"/><stop offset=".3" stop-color="#C09D65"/><stop offset=".6" stop-color="#B48C4F"/><stop offset=".8" stop-color="#AD8241"/><stop offset="1" stop-color="#AB7F3C"/></linearGradient><path clip-path="url(#Q)" fill="url(#R)" d="M139.5 328.3s4.7 1.3 1 4.5c-5 3.8-8.2 1.2-11 3.4l10-8z"/></g><g><linearGradient id="S" gradientUnits="userSpaceOnUse" x1="224.5" y1="310.9" x2="224.5" y2="302.5"><stop offset="0" stop-color="#D3B98C"/><stop offset=".2" stop-color="#CEB17A"/><stop offset=".5" stop-color="#C7A664"/><stop offset=".8" stop-color="#C39F56"/><stop offset="1" stop-color="#C29D51"/></linearGradient><path fill="url(#S)" d="M207.5 311s2.4-1 6-5.2c3.6-3.3 7-5.6 13 1 1.5.8 2.6 1.8 5 0 1.7-2 3-2.4 5.5.4 0 0 2.5 3 4.6 3.7h-34z"/><defs><path id="T" d="M207.5 311s2.4-1 6-5.2c3.6-3.3 7-5.6 13 1 1.5.8 2.6 1.8 5 0 1.7-2 3-2.4 5.5.4 0 0 2.5 3 4.6 3.7h-34z"/></defs><clipPath id="U"><use xlink:href="#T" overflow="visible"/></clipPath><linearGradient id="V" gradientUnits="userSpaceOnUse" x1="212.6" y1="311.9" x2="212.6" y2="302.5"><stop offset="0" stop-color="#D3B98C"/><stop offset="0" stop-color="#D0B485"/><stop offset=".3" stop-color="#C09D65"/><stop offset=".6" stop-color="#B48C4F"/><stop offset=".8" stop-color="#AD8241"/><stop offset="1" stop-color="#AB7F3C"/></linearGradient><path clip-path="url(#U)" fill="url(#V)" d="M217 302.5s5.5 1.6 1.2 5.3c-6 4.5-9.7 1.4-12.8 4l11.6-9.3z"/></g><g><linearGradient id="W" gradientUnits="userSpaceOnUse" x1="200.7" y1="20.9" x2="200.7" y2="14.6"><stop offset="0" stop-color="#D3B98C"/><stop offset=".2" stop-color="#CEB17A"/><stop offset=".5" stop-color="#C7A664"/><stop offset=".8" stop-color="#C39F56"/><stop offset="1" stop-color="#C29D51"/></linearGradient><path fill="url(#W)" d="M188 21s1.7-.8 4.5-4c2.7-2.4 5.2-4 9.6.8 1.4.7 2.2 1.4 4 0 1.3-1.5 2.2-1.7 4 .3 0 0 2 2.4 3.5 3H188z"/><defs><path id="X" d="M188 21s1.7-.8 4.5-4c2.7-2.4 5.2-4 9.6.8 1.4.7 2.2 1.4 4 0 1.3-1.5 2.2-1.7 4 .3 0 0 2 2.4 3.5 3H188z"/></defs><clipPath id="Y"><use xlink:href="#X" overflow="visible"/></clipPath><linearGradient id="Z" gradientUnits="userSpaceOnUse" x1="191.8" y1="21.6" x2="191.8" y2="14.6"><stop offset="0" stop-color="#D3B98C"/><stop offset="0" stop-color="#D0B485"/><stop offset=".3" stop-color="#C09D65"/><stop offset=".6" stop-color="#B48C4F"/><stop offset=".8" stop-color="#AD8241"/><stop offset="1" stop-color="#AB7F3C"/></linearGradient><path clip-path="url(#Y)" fill="url(#Z)" d="M195 14.6s4.2 1.2 1 4c-4.5 3.4-7.3 1-9.6 3l8.7-7z"/></g></svg>