<svg xmlns="http://www.w3.org/2000/svg" width="300" height="300" viewBox="0 0 300 300"><path fill="#45A9C0" d="M-5.5-6h310v310h-310z"/><path fill="#3CA4B5" d="M269.2 155.4c-4.4 0-8.6 1.2-12.3 3.2-2.3-15.2-15.4-26.8-31.2-26.8-14.3 0-26.4 9.5-30.2 22.7-2.6-1.2-5.5-2-8.6-2-11.4 0-20.6 9-21 20.3-2-.8-4.4-1.3-6.8-1.3-9.7 0-17.6 7.8-17.6 17.6s8 17.6 17.6 17.6h110c14.2 0 25.7-11.4 25.7-25.6 0-14-11.6-25.6-25.8-25.6z"/><path fill="#FBFAF0" d="M271 142.7c-4.4 0-8.6 1.2-12.2 3.2-2.3-15.3-15.3-27-31-27-14.5 0-26.5 9.7-30.3 22.8-2.7-1.2-5.6-2-8.7-2-11.3 0-20.6 9-21 20.4-2-1-4.4-1.4-6.8-1.4-9.7 0-17.5 8-17.5 17.6 0 9.7 7.8 17.6 17.5 17.6h110c14.2 0 25.7-11.5 25.7-25.7 0-14-11.5-25.6-25.6-25.6z"/><path fill="#4EC7ED" d="M200.8 220.6c0 5-3.3 7.7-7.4 7.7s-7.4-2.8-7.4-7.7 7.4-12.7 7.4-12.7 7.4 7.7 7.4 12.6z"/><path fill="#FFF" d="M195 214s3.4 3.5 3.6 6.8c0 3.3-4 3.6-4.6 1.8-.7-1.8.4-6 1-8.7z"/><path fill="#4EC7ED" d="M224.7 220.6c0 5-3.3 7.7-7.4 7.7s-7.4-2.8-7.4-7.7 7.3-12.7 7.3-12.7 7.4 7.7 7.4 12.6z"/><path fill="#FFF" d="M219 214s3.3 3.5 3.4 6.8c.2 3.3-3.8 3.6-4.5 1.8-.8-1.8.3-6 1-8.7z"/><path fill="#4EC7ED" d="M248.6 220.6c0 5-3.3 7.7-7.4 7.7s-7.4-2.8-7.4-7.7 7.4-12.7 7.4-12.7 7.4 7.7 7.4 12.6z"/><path fill="#FFF" d="M243 214s3.2 3.5 3.3 6.8c.2 3.3-3.8 3.6-4.5 1.8-.7-1.8.4-6 1-8.7z"/><g><path fill="#4EC7ED" d="M212.8 249.7c0 5-3.4 7.7-7.5 7.7s-7.4-2.8-7.4-7.7 7.3-12.7 7.3-12.7 7.5 8 7.5 12.7z"/><path fill="#FFF" d="M207 243s3.3 3.7 3.5 7c.2 3.2-3.8 3.5-4.5 1.7-.7-1.8.4-6 1-8.6z"/><path fill="#4EC7ED" d="M236.7 249.7c0 5-3.4 7.7-7.5 7.7-4 0-7.4-2.8-7.4-7.7s7.4-12.7 7.4-12.7 7.5 8 7.5 12.7z"/><path fill="#FFF" d="M231 243s3.2 3.7 3.4 7c.2 3.2-4 3.5-4.5 1.7-.8-1.8.3-6 1-8.6z"/></g></svg>