<svg xmlns="http://www.w3.org/2000/svg" width="750" height="750" viewBox="0 0 750 750"><path fill="#45A9C0" d="M-8-1h760v760H-8z"/><path fill="#D2EDF9" d="M268.6 237.3c.4-2.8 2.8-5 5.7-5 3.2 0 5.7 2.5 5.7 5.7h.7c1.5 0 2.8 1 3 2.6.3-.2.7-.2 1-.2 2 0 3.6 1.5 3.6 3.4s-1.6 3.5-3.5 3.5h-16.2c-2.8 0-5-2.2-5-5s2.2-5 5-5z"/><path fill="#FFF" d="M285.8 245.3c-.4 0-.8 0-1.2.2 0-1.5-1.4-2.6-3-2.6h-.6c0-3.2-2.5-5.8-5.7-5.8-3 0-5.3 2.2-5.7 5-2.2 0-4 1.5-4.8 3.4-.8-.8-1.2-2-1.2-3.3 0-2.8 2.2-5 5-5 .4-2.8 2.8-5 5.7-5 3.2 0 5.7 2.5 5.7 5.7h.7c1.5 0 2.8 1 3 2.6.3-.2.7-.2 1-.2 2 0 3.6 1.5 3.6 3.5 0 .6-.2 1.3-.6 1.8-.6-.3-1.2-.5-2-.5z"/><g fill="#FFF"><path d="M385.6 332h76v.6h-76z"/><circle cx="385.9" cy="329.6" r="3.1"/><circle cx="457.4" cy="329.6" r="3.1"/><circle cx="389.6" cy="328.5" r="2.3"/><circle cx="463.5" cy="324.9" r="1.9"/><circle cx="398" cy="324" r="8.4"/><circle cx="449" cy="324" r="8.4"/><circle cx="407.4" cy="325.3" r="7.4"/><circle cx="425.8" cy="319" r="13.7"/><path d="M439.5 310.3c0 .3-.2.5-.5.5h-3.7c-.2 0-.5-.2-.5-.5 0-.2.3-.5.5-.5h3.7c.3 0 .5.3.5.5zm4.4 2.2c0 .3-.5.5-1 .5h-6c-.3 0-.7-.2-.7-.5s.4-.5.8-.5h6c.5 0 1 .2 1 .5z"/><circle cx="445.2" cy="312.5" r=".6"/><circle cx="440.5" cy="310.3" r=".6"/><circle cx="463.1" cy="332.4" r=".4"/><path d="M385.6 329.6l6.8-3 15-3.6 19.3-2L438 322s2.6-1 3.7.8 14.2 5.8 14.2 5.8l1.4 3.8H386l-.4-3z"/></g><g fill="#FFF"><path d="M16.3 101.8h121v1.2h-121z"/><circle cx="16.9" cy="98.1" r="4.9"/><circle cx="130.4" cy="98.1" r="4.9"/><circle cx="22.6" cy="96.4" r="3.6"/><circle cx="140.2" cy="90.6" r="3"/><circle cx="36" cy="89.2" r="13.4"/><circle cx="117" cy="89.2" r="13.4"/><circle cx="50.9" cy="91.2" r="11.8"/><circle cx="80.3" cy="81.2" r="21.7"/><path d="M102 67.5c0 .5-.3.8-.8.8h-5.8c-.4 0-.8-.3-.8-.8 0-.4.4-.8.8-.8h5.8c.5 0 .8.4.8.8zm7 3.4c0 .4-.6.7-1.3.7h-9.4c-.8 0-1.3-.3-1.3-.8s.5-1 1.3-1h9.4c.7 0 1.3.5 1.3 1z"/><circle cx="111.1" cy="70.9" r=".9"/><circle cx="103.7" cy="67.5" r=".9"/><circle cx="139.6" cy="102.6" r=".6"/><path d="M16.3 98L27 93.3l24-5.6 30.6-3.2 18 2s4-1.5 6 1.2c1.8 2.7 22.4 9.2 22.4 9.2l2.4 6H17l-.7-4.7z"/></g><g fill="#FFF"><path d="M84.8 86.2h91v1h-91z"/><circle cx="85.2" cy="83.4" r="3.7"/><circle cx="170.7" cy="83.4" r="3.7"/><circle cx="89.6" cy="82.2" r="2.7"/><circle cx="178.1" cy="77.8" r="2.3"/><circle cx="99.6" cy="76.7" r="10.1"/><circle cx="160.7" cy="76.7" r="10.1"/><circle cx="110.9" cy="78.3" r="8.9"/><circle cx="133" cy="70.7" r="16.4"/><path d="M149.4 60.4c0 .3-.3.6-.7.6h-4.3c-.4 0-.6-.3-.6-.6s.2-.6.6-.6h4.3c.4 0 .7.3.7.6zm5.2 2.6c0 .3-.4.6-1 .6h-7c-.6 0-1-.3-1-.6 0-.4.4-.7 1-.7h7c.6 0 1 .3 1 .7z"/><circle cx="156.2" cy="63" r=".7"/><circle cx="150.6" cy="60.4" r=".7"/><circle cx="177.6" cy="86.8" r=".5"/><path d="M84.8 83.4l8.2-3.7 18-4.2 23-2.4 13.6 1.6s3-1 4.4 1c1.4 2 17 7 17 7l1.7 4.5H85.2l-.4-3.6z"/></g><g fill="#FFF"><path d="M17.6 749h79.6v1H17.6z"/><circle cx="18" cy="746.7" r="3.2"/><circle cx="92.7" cy="746.7" r="3.2"/><circle cx="21.8" cy="745.6" r="2.4"/><circle cx="99.1" cy="741.7" r="2"/><circle cx="30.6" cy="740.8" r="8.8"/><circle cx="83.9" cy="740.8" r="8.8"/><circle cx="40.4" cy="742.2" r="7.7"/><circle cx="59.7" cy="735.6" r="14.3"/><path d="M74 726.5c0 .3-.2.6-.5.6h-3.8c-.3 0-.6-.2-.6-.5s.4-.5.7-.5h3.8c.3 0 .5.2.5.5zm4.6 2.3c0 .3-.4.5-.8.5h-6.2c-.5 0-1-.2-1-.5s.5-.5 1-.5h6.2c.4 0 .8.2.8.5z"/><circle cx="80" cy="728.8" r=".6"/><circle cx="75.1" cy="726.5" r=".6"/><circle cx="98.8" cy="749.6" r=".4"/><path d="M17.6 746.7l7-3.2 15.8-3.7 20.2-2.2 12 1.4s2.5-1 3.8.8 14.7 6 14.7 6l1.7 4H18l-.4-3z"/></g><g fill="#FFF"><path d="M62 673h42v.4H62z"/><circle cx="62.1" cy="671.7" r="1.7"/><circle cx="101.7" cy="671.7" r="1.7"/><circle cx="64.1" cy="671.1" r="1.3"/><circle cx="105.1" cy="669.1" r="1"/><circle cx="68.8" cy="668.6" r="4.7"/><circle cx="97" cy="668.6" r="4.7"/><circle cx="74" cy="669.3" r="4.1"/><circle cx="84.2" cy="665.9" r="7.6"/><path d="M91.8 661c0 .2 0 .3-.3.3h-2c-.2 0-.3 0-.3-.2 0 0 0-.2.3-.2h2c.2 0 .3 0 .3.3zm2.4 1.3l-.4.2h-3.3c-.3 0-.5 0-.5-.2s.2-.3.5-.3h3.3c.2 0 .4 0 .4.3z"/><circle cx="94.9" cy="662.3" r=".3"/><circle cx="92.4" cy="661.1" r=".3"/><circle cx="104.9" cy="673.3" r=".2"/><path d="M62 671.7l3.7-1.7 8.3-2 10.7-1 6.3.7s1.4-.6 2 .4c.7 1 7.8 3.3 7.8 3.3l1 2H62v-1.6z"/></g><g fill="#FFF"><path d="M151 129.2h60v.5h-60z"/><circle cx="151.4" cy="127.3" r="2.4"/><circle cx="207.6" cy="127.3" r="2.4"/><circle cx="154.2" cy="126.5" r="1.8"/><circle cx="212.5" cy="123.6" r="1.5"/><circle cx="160.8" cy="122.9" r="6.6"/><circle cx="201" cy="122.9" r="6.6"/><circle cx="168.2" cy="123.9" r="5.8"/><circle cx="182.8" cy="119" r="10.8"/><path d="M193.6 112.2c0 .2-.2.4-.4.4h-3s-.3-.2-.3-.4c0-.3 0-.4.3-.4h3s.3 0 .3.4zm3.4 1.7s-.3.3-.6.3h-4.7c-.4 0-.6-.2-.6-.4 0-.4.3-.5.7-.5h4.7c.3 0 .6 0 .6.4z"/><circle cx="198.1" cy="113.9" r=".5"/><circle cx="194.4" cy="112.2" r=".5"/><circle cx="212.2" cy="129.5" r=".3"/><path d="M151 127.3l5.4-2.4 11.8-3 15.3-1.5 9 1s2-.7 2.8.6c1 1.5 11 4.7 11 4.7l1.3 3h-56.2l-.3-2.4z"/></g></svg>