<svg xmlns="http://www.w3.org/2000/svg" width="980" height="980" viewBox="0 0 980 980"><path fill="#45A9C0" d="M-3-9h990v990H-3z"/><path fill="#D2EDF9" d="M311 112h.2c1-7.5 7.3-13.3 15-13.3 8.3 0 15 6.8 15 15v.4l2-.2c4 0 7 3 7.6 6.8 1-.3 2-.5 3-.5 5 0 9.3 4.2 9.3 9.3s-4 9.2-9 9.2h-43c-7.3 0-13.2-6-13.2-13.2s6-13.3 13.3-13.3z"/><path fill="#FFF" d="M356.5 133c-1 0-2 .3-3 .7-.6-4-3.8-6.8-7.7-6.8h-2c0-8.5-6.7-15.3-15-15.3-7.7 0-14 5.8-15 13.3-6 0-11 3.8-12.7 9-2-2.3-3.2-5.4-3.2-8.8 0-7.3 6-13.2 13.3-13.2h.2c1-7.5 7.3-13.3 15-13.3 8.3 0 15 6.8 15 15v.4l2-.2c4 0 7 3 7.6 6.8 1-.3 2-.5 3-.5 5 0 9.3 4.2 9.3 9.3 0 2-.5 3.8-1.6 5.3-1.4-1-3-1.5-5-1.5z"/><path fill="#D2EDF9" d="M266.7 131.4c1-7.5 7.4-13.3 15-13.3 8.5 0 15.2 7 15.2 15.2v.3c.5-.2 1-.3 1.8-.3 4 0 7 3 7.6 6.8 1-.3 2-.5 3-.5 5.2 0 9.3 4 9.3 9.2s-4 9.2-9.2 9.2h-42.8c-7.4 0-13.3-6-13.3-13.3 0-7.4 6-13.3 13.3-13.3z"/><path fill="#FFF" d="M312 152.5c-1 0-2 .2-3 .6-.4-3.8-3.7-6.7-7.6-6.7-.7 0-1.3 0-2 .2v-.2c0-8.4-6.6-15.2-15-15.2-7.7 0-14 6-15 13.4-6 0-11 3.8-12.7 9-2-2.3-3.3-5.4-3.3-8.7 0-7.4 6-13.3 13.3-13.3 1-7.5 7.4-13.3 15-13.3 8.5 0 15.2 7 15.2 15.2v.3c.5-.2 1-.3 1.8-.3 4 0 7 3 7.6 6.8 1-.3 2-.5 3-.5 5.2 0 9.3 4 9.3 9.2 0 2-.6 3.8-1.7 5.3-1.4-1-3-1.5-5-1.5z"/><path fill="#D2EDF9" d="M181.2 231.4c.6-4.4 4.4-8 9-8 5 0 9 4.2 9 9v.3l1-.2c2.4 0 4.3 1.8 4.6 4l1.8-.2c3 0 5.5 2.4 5.5 5.4s-2.3 5.5-5.4 5.5h-25.4c-4.4 0-8-3.5-8-8s3.6-7.8 8-7.8z"/><path fill="#FFF" d="M208.2 244c-.6 0-1.3 0-1.8.3-.3-2.3-2.2-4-4.6-4h-1c0-5-4-9-9-9-4.7 0-8.4 3.4-9 8-3.5 0-6.5 2-7.5 5.2-1.3-1.3-2-3.2-2-5.2 0-4.3 3.5-8 8-8 .5-4.3 4.3-7.8 9-7.8 5 0 9 4 9 9v.2l1-.2c2.3 0 4.2 1.8 4.5 4l1.8-.2c3 0 5.5 2.4 5.5 5.4 0 1.2-.3 2.3-1 3.2-.7-.7-1.7-1-2.8-1z"/><path fill="#D2EDF9" d="M154.8 243c.6-4.5 4.4-8 9-8 5 0 9 4 9 9v.2h1c2.4 0 4.4 1.6 4.6 4 .6-.3 1.2-.4 2-.4 3 0 5.3 2.4 5.3 5.5 0 3-2.4 5.5-5.4 5.5h-25.5c-4.3 0-8-3.6-8-8 0-4.3 3.7-7.8 8-7.8z"/><path fill="#FFF" d="M181.8 255.5c-.6 0-1.2.2-1.8.4-.3-2.4-2.2-4.2-4.6-4.2-.3 0-.7 0-1 .2v-.2c0-5-4-9-9-9-4.6 0-8.4 3.5-9 8-3.5 0-6.5 2.2-7.5 5.3-1.3-1.3-2-3-2-5 0-4.5 3.5-8 7.8-8 .6-4.5 4.4-8 9-8 5 0 9 4 9 9v.2h1c2.4 0 4.4 1.6 4.6 4 .6-.3 1.2-.4 2-.4 3 0 5.3 2.4 5.3 5.5 0 1-.3 2.2-1 3-.8-.4-1.8-.8-3-.8zM360 143.7c1.4 0 2.6.3 3.6 1 .6-4.4 4.3-7.6 8.7-7.6 4 0 7.4 2.7 8.4 6.4.8-.3 1.6-.5 2.5-.5 3 0 5.7 2.4 5.8 5.6.6-.3 1.3-.4 2-.4 2.6 0 5 2.2 5 5s-2.4 4.8-5 4.8h-31c-3.8 0-7-3.2-7-7 0-4 3.2-7.3 7-7.3zM79 159.2s1.2-2.3 3.5-1c1.6-1.4 3.3.6 3.5.7-.2-1-2.4-2.5-3.5-1.3-1.4-.7-3 0-3.6 1.5zm-14 6.5s1.4-2.3 3.7-1c1.6-1.4 3.3.6 3.5.7-.2-1-2.4-2.5-3.5-1.3-1.4-.5-3 0-3.6 1.7zm2.3-4.5s1.3-2.3 3.6-1c1.5-1.4 3.2.6 3.4.7-.2-1-2.4-2.6-3.5-1.4-1.5-.6-3 0-3.7 1.6zm7 4.5s1.4-2.3 3.7-1c1.6-1.4 3.3.6 3.5.7-.2-1-2.4-2.5-3.5-1.3-1.4-.5-3 0-3.6 1.7zm-4.3 4s1.3-2.2 3.6-1c1.6-1.3 3.3.6 3.5.8 0-1-2.3-2.5-3.4-1.3-1.4-.6-3 0-3.6 1.6zm9.7 0s1.2-2.2 3.6-1c1.5-1.3 3.3.6 3.4.8 0-1-2.3-2.5-3.5-1.3-1.3-.6-3 0-3.5 1.6zm-6.2-14s1.3-2.3 3.6-1c1.7-1.4 3.4.6 3.6.7-.2-1-2.4-2.5-3.5-1.3-1.2-.5-3 0-3.5 1.7z"/><path fill="none" d="M891.2 164.5l-2 .3 2-.3"/><linearGradient id="a" gradientUnits="userSpaceOnUse" x1="4740.2" y1="797" x2="4740.2" y2="791.5" gradientTransform="rotate(180 2818.598 480)"><stop offset="0" stop-color="#EBEBEB"/><stop offset=".1" stop-color="#EDEDED"/><stop offset=".3" stop-color="#FAFAFA"/><stop offset=".5" stop-color="#FFF"/><stop offset=".6" stop-color="#FFF"/><stop offset=".6" stop-color="#FFF"/><stop offset=".8" stop-color="#FCFCFC"/><stop offset=".9" stop-color="#F4F4F4"/><stop offset="1" stop-color="#EBEBEB"/></linearGradient><path fill="url(#a)" d="M892 165c.2.2.4.3.7.3h10.6c0 .5.4 1 .8 1h1c-.2.4-.3.6-.3 1 0 .2 0 .5.3.8-.5.5-1.2.7-1.7.7H896l-.7-1.7-2.8 1.5c-1.3-.4-2.5-1.3-3-2.5l2-1.5h-.3l-2 .3-.2-.7 2-1 1 2z"/><path fill="#ED1C24" d="M892 167.3h9v-.2h-9v.2zm11.3 0h1v-.2h-1v.2z"/><path fill="#DEDCDD" d="M889.5 166l-.2-.7v-.5l2-.3-1.8 1.5zm2-1.5l-2 1.5 1.7-1.5"/><path fill="#FCFAFB" d="M891 162.8l-2 1.3-.3-1.2"/><linearGradient id="b" gradientUnits="userSpaceOnUse" x1="4733.9" y1="794.7" x2="4733.9" y2="794.7" gradientTransform="rotate(180 2818.598 480)"><stop offset="0" stop-color="#EBEBEB"/><stop offset="0" stop-color="#EDEDED"/><stop offset=".2" stop-color="#FAFAFA"/><stop offset=".4" stop-color="#FFF"/><stop offset=".6" stop-color="#FFF"/><stop offset=".6" stop-color="#FFF"/><stop offset=".8" stop-color="#FCFCFC"/><stop offset=".9" stop-color="#F4F4F4"/><stop offset="1" stop-color="#EBEBEB"/></linearGradient><linearGradient id="c" gradientUnits="userSpaceOnUse" x1="4732.7" y1="792.8" x2="4735.3" y2="793.2" gradientTransform="rotate(180 2818.598 480)"><stop offset="0" stop-color="#EBEBEB"/><stop offset=".1" stop-color="#EDEDED"/><stop offset=".3" stop-color="#FAFAFA"/><stop offset=".5" stop-color="#FFF"/><stop offset=".6" stop-color="#FFF"/><stop offset=".6" stop-color="#FFF"/><stop offset=".8" stop-color="#FCFCFC"/><stop offset=".9" stop-color="#F4F4F4"/><stop offset="1" stop-color="#EBEBEB"/></linearGradient><path fill="url(#c)" d="M905 166.3c.2 0 .2.2.3.2.4.4.4 1 0 1.3l-.3.3c-.2-.2-.3-.5-.3-.8 0-.3 0-.5.4-1z"/><linearGradient id="d" gradientUnits="userSpaceOnUse" x1="4732.1" y1="793.2" x2="4732.5" y2="793.2" gradientTransform="rotate(180 2818.598 480)"><stop offset="0" stop-color="#FFF"/><stop offset=".3" stop-color="#FBFBFB"/><stop offset=".5" stop-color="#EDEDED"/><stop offset=".8" stop-color="#D8D8D8"/><stop offset="1" stop-color="#C4C4C4"/></linearGradient><path fill="url(#d)" d="M905 166.3c-.2.4-.3.6-.3 1 0-.4 0-.6.4-1z"/><g fill="#AD0019"><path d="M898.5 168.7s-1.5 0-1.5-.5c0-.4 1.5-.5 1.5-.5v1z"/><path d="M898.5 168.8h-.8c-.5-.2-.8-.4-.8-.6 0-.2.2-.4.7-.5h.8v1zm-.7-1c-.5 0-.8.3-.8.4 0 .2.3.3.8.4h.7v-1l-.7.2z"/></g><ellipse fill="#FFF" cx="898.5" cy="168.2" rx=".2" ry=".5"/><path fill="#ED1C24" d="M898.3 168.6v-.4-.4s0-.2.2-.2.2 0 .2.2v.8s0 .2-.2.2 0 0-.2-.2zm0-.7v.5c.2 0 .2.2.2.2v-.2c.2 0 .2-.2.2-.3v-.3c0-.2 0-.3-.2-.3s0 0 0 .2z"/><linearGradient id="e" gradientUnits="userSpaceOnUse" x1="4740.9" y1="791.2" x2="4739.8" y2="791.2" gradientTransform="rotate(180 2818.598 480)"><stop offset="0" stop-color="#840019"/><stop offset=".3" stop-color="#880019"/><stop offset=".6" stop-color="#960019"/><stop offset="1" stop-color="#AB0019"/><stop offset="1" stop-color="#AD0019"/></linearGradient><path fill="url(#e)" d="M898 169.5s-2 0-2-.6c0-.7 2-.8 2-.8v1.3z"/><path fill="#AD0019" d="M898 169.5h-1c-.7-.2-1-.4-1-.6 0-.4.3-.6 1-.7l1-.2v1.5zm-1-1c-.6 0-1 .2-1 .4l1 .3h1v-1h-1z"/><ellipse fill="#FFF" cx="897.9" cy="168.8" rx=".3" ry=".6"/><path fill="#ED1C24" d="M897.7 169.3v-.5-.4c0-.2 0-.3.2-.3s0 .2.2.4v.9l-.3.2-.3-.2zm0-1v.9l.2.2v-.2-.4-.4h-.2z"/><circle fill="#4BACE3" cx="901.2" cy="166.2" r=".2"/><circle fill="#4BACE3" cx="902.1" cy="166.2" r=".2"/><circle fill="#4BACE3" cx="900.4" cy="166.2" r=".2"/><circle fill="#4BACE3" cx="899.6" cy="166.2" r=".2"/><circle fill="#4BACE3" cx="898.7" cy="166.2" r=".2"/><circle fill="#4BACE3" cx="897.9" cy="166.2" r=".2"/><circle fill="#4BACE3" cx="897.1" cy="166.2" r=".2"/><circle fill="#4BACE3" cx="896.2" cy="166.2" r=".2"/><circle fill="#4BACE3" cx="895.4" cy="166.2" r=".2"/><circle fill="#4BACE3" cx="894.6" cy="166.2" r=".2"/><circle fill="#4BACE3" cx="893.7" cy="166.2" r=".2"/><circle fill="#4BACE3" cx="892.9" cy="166.2" r=".2"/><circle fill="#4BACE3" cx="892.1" cy="166.2" r=".2"/><path fill="#359AD4" d="M903.3 165.3c.2 0 .5 0 .7.2l-.4.6c-.2 0-.3 0-.3-.3v-.4z"/><path fill="#4BACE3" d="M905 166.2h-1.2-.2l.4-.7 1 .7z"/><path fill="#DEDCDD" d="M896 168.7h-2.3c-.4 0-.8 0-1.2-.2l2.8-1.5.7 1.7z"/><linearGradient id="f" gradientUnits="userSpaceOnUse" x1="4739.8" y1="791.9" x2="4742" y2="791.9" gradientTransform="rotate(180 2818.598 480)"><stop offset="0" stop-color="#FFF"/><stop offset=".4" stop-color="#FBFBFB"/><stop offset=".9" stop-color="#EDEDED"/><stop offset="1" stop-color="#EBEBEB"/></linearGradient><path fill="url(#f)" d="M899 167s-2.7-.5-3.7 0l-1.8 2.5h2.7l2.8-2.4z"/><path fill="#EDE6E6" d="M896 169.4l2.5-2.2v-.2c-.4-.3-1.2-.3-1.7-.3-.6 0-1.3 0-1.5.2l1.5-.2c.7 0 1.2 0 1.5.3l-2.4 2.3c-.2 0-.2 0 0 0z"/><path fill="#ED1C24" d="M893.7 169.7h2.2v-.2-.2h-2.3s-.2 0-.2.2 0 .2.2.2z"/><linearGradient id="g" gradientUnits="userSpaceOnUse" x1="4746.6" y1="795.1" x2="4747.9" y2="795.1" gradientTransform="rotate(180 2818.598 480)"><stop offset="0" stop-color="#FFF"/><stop offset=".4" stop-color="#FBFBFB"/><stop offset=".9" stop-color="#EDEDED"/><stop offset="1" stop-color="#EBEBEB"/></linearGradient><path fill="url(#g)" d="M891.6 164.5h-2.4l-1 .8h1.8"/><path fill="#EDE6E6" d="M889.8 165.2l1.5-.7c-.3-.3-.8-.3-1-.3-.5 0-1 0-1 .2-.2 0-.2 0 0 0h1.8l-1.2.7v.2z"/><path fill="#ED1C24" d="M888.2 165.4h1.6v-.2h-1.6v.2zm.6-2.4h2.2v-.3h-2.2s-.2 0-.2.2 0 0 .2 0z"/><path opacity=".6" fill="#FFF" d="M888.3 166.7h2-2z"/><path fill="#FFF" d="M887.8 163.7h1.8l-.2-.3h-1.6s-.2 0-.2.2 0 0 .2 0zm-1 2.5h1.6l.2-.3c0-.2 0-.3-.2-.3h-1.6c-.2 0-.3 0-.3.2 0 0 0 .2.3.2z"/><path opacity=".7" fill="#FFF" d="M885 164.8h2c.2 0 .3 0 .3-.2 0 0 0-.2-.2-.2h-2v.4z"/><path d="M903 167.3h-.2v-.3h.2v.4zm0 0v-.2.2zm-.3 0v-.3.4zm-.3 0v-.2h.2v.4-.2l-.2.2zm0 0v-.2.2zm-.4-.2v.2-.2s.2 0 .2.2v.2h-.2v-.3zm0 .3zm-.2-.3v.4-.2-.2zm-.2 0v.4l-.2-.3h.2zm-.3 0v0z" fill="#68A9CC" opacity=".7"/><g fill="#6F6F6F"><path d="M119.5 159h7.8-7.8zM119.6 159h.2v1.3h-.2zm3.3 0v1.3zm3.2 0h.2v1.3h-.2z"/></g><path fill="#181410" d="M131.3 152.2h.2v6h-.2z"/><path fill="#181410" d="M131.5 153.8h-.2l-.4-.6h1m-1-.6h.8v.2h-1zm0 3h.5v3h-.4z"/><ellipse fill="#181410" cx="131.4" cy="153.2" rx=".2" ry=".2"/><path fill="#181410" d="M131.3 151.4v1.2zM131 152.5h.6-.5zm.2 1h.4v.4h-.4z"/><path fill="#FFF" d="M122.5 160.4c0 .2-.2.4-.4.4h-1.3c-.2 0-.4-.2-.4-.4v-.5c0-.4.2-.6.4-.6h1.4c.3 0 .5.2.5.5v.4zm15.3-3.4h-.5l-2.7-.6v-.6h-2.3v1h-.4l-.5 1h-4l-.6 2.6h11.5"/><path fill="#181410" d="M135 159.7h-1c0 .2 0 0 0 0v-2.3-.2h1v2.5z"/><path fill="#BDBDBD" d="M134.8 158v.3h-.4s-.2 0-.2-.2v-.3s0-.2.2-.2h.3V158z"/><path fill="#DADADA" d="M141.2 159h-8.4c-.4 0-.7.4-1 .7h9l.4-.7z"/><g fill="#181410"><path d="M137.3 156c-.3 0-.5 0-.5.2s.2.3.5.3v-.6z"/><path d="M136.8 156h.2v.6h-.2z"/></g><path fill="#FFF" d="M138 157h-2.3-.2v-.2s0-.2.2-.2h2.2v.4zm-7.6 1v-.2c0-.3-.2-.6-.5-.6h-1.4c-.3 0-.6.3-.6.6v.2h2.4z"/><path fill="#181410" d="M136.8 158v.3h-1.3s-.2 0-.2-.2v-.5h1.4v.6zm-3 0c0 .2-.2.3-.2.3h-1.3v-.7h1.3v.6zM137.3 157.4h-.2v.7c0 .2.2.3.3.3h.8v-1h-.7zM129.7 159.3H128h-.2v-.4c0-.2 0-.2.2-.2h1.6v.5zm2.3 0h-1.8v-.4-.2h1.8v.5z"/><path d="M139.5 160.3s0 .2-.2.2h-.4c-.3 0-.4 0-.4-.2 0 0 0-.2.3-.2h.3l.2.3zM133 155h-.4v-.2h.3v.3zm-.3.5h-.4v-.2h.3v.2z"/><ellipse fill="#2E2723" cx="133.3" cy="155.6" rx=".1" ry=".1"/><path d="M135 155.3h-2 2"/><path fill="#929292" d="M133.3 155h.3v.6h-.3z"/><path fill="#3F3F3F" d="M133.2 155h.3v.6h-.3zm-1 0h.8v.6h-.7z"/><path fill="#929292" d="M132.4 155h.7v.6h-.6zm1.4.4h-.2v-.2h.2z"/><path fill="#2E2E2E" d="M133.8 155.4h-.2v-.2h.2"/><path fill="#929292" d="M132.5 155h.8-.8z"/><path fill="#3D3D3D" d="M132.5 155h.8v.8h-.8z"/><path fill="#929292" d="M133 155.6h-.3.2z"/><g><path fill="#6D6D6D" d="M132 159.7l-.4.6h-12l.5 2h19.4c.6-.8 1-2 1.5-2.6h-9z"/><path fill="#F00" d="M138 163.7c.3 0 1.3-1.2 1.4-1.3H120l.5 1.3H138z"/></g><g><path d="M229 161.3v.2l-1.5-.2"/><path fill="#232323" d="M228.4 161.4h.8v1h-.8z"/><path fill="#3E3E3E" d="M228.4 161.3s.2-.3.5-.3h.2v.4h-.8z"/><path fill="#868686" d="M228.4 161.3c0-.2 0-.4.4-.4H229c-.4 0-.6.2-.6.3z"/><path fill="#444" d="M228.3 161.4v1z"/><path d="M236.8 160.4l1 .2h-1v-.2zm0 .3h1v.2l-1-.2z"/><path fill="#6B6B6B" d="M237.4 161.3v-.3c0-.4.3-.8.8-.8h.4v1h-1.2z"/><path fill="#282828" d="M237.5 161.3v-.2c0-.3.4-.6.8-.6h.5v1h-1.3z"/><path fill="#7C7C7C" d="M238.4 161h-.3v-.3h.4v.2z"/><path d="M243.2 161.6h-.8.8zm0 .2h-.8v.2h.8v-.2z"/><path fill="#6B6B6B" d="M242.7 162.3v-.2c0-.3-.3-.6-.6-.6h-.3v1h1z"/><path fill="#282828" d="M242.6 162.3v-.2c0-.2-.3-.5-.7-.5h-.4v.8h1z"/><path fill="#7C7C7C" d="M242 162v-.2z"/><path fill="#FFF" d="M240 161.2h-6.5c0-.8-.4-1.8-.4-1.8h-2l-.4 2.3v.6h9v-.8h.8c0-.2-.2-.3-.3-.3z"/><path fill="#181410" d="M233 159.4v-.6h-1v.6h1z"/><path fill="#D3D3D3" d="M235.7 160.2h-1.5v.3h1.5"/><path d="M235.6 160v-.2h-1.2l-.2.4h1.5v-.3z"/><path fill="#6D6D6D" d="M234.2 160.5l-.3.7h1.8v-.7"/><path fill="#B6B6B6" d="M233.4 161.7v.2h-1l-.2-.3v-.6h1.2v.7zm4.8.3H237v-.4h1.2v.4z"/><path fill="#181410" d="M231.6 159.8h-.5v-.2h.6v.2zm.7 0h-.5v-.2h.5v.2zm.2-.7h-.4.5zm6.8 3h-.6v-.3h.5v.2z"/><g><path fill="#F00" d="M227 163.6l.8 1h15.8v-1"/></g><g><path fill="#6D6D6D" d="M244.4 162.8h-13.8l-4.8-.6 1 1.4h17v-.7"/><path fill="#D3D3D3" d="M244.4 162.8s0-.5-.7-.5l-13.2-.2-5-.3.3.5 4.8.5h13.8z"/></g></g><g><path d="M43.7 241.3v.2l-1.5-.2"/><path fill="#232323" d="M43.2 241.4h.8v1h-.8z"/><path fill="#3E3E3E" d="M43.2 241.3s.2-.3.4-.3h.3v.4h-.8z"/><path fill="#868686" d="M43.2 241.3c0-.2 0-.4.3-.4h.4-.4c-.2 0-.4.2-.4.3z"/><path fill="#444" d="M43 241.4h.2v1z"/><path d="M51.6 240.4l1 .2h-1v-.2zm0 .3h1v.2l-1-.2z"/><path fill="#6B6B6B" d="M52 241.3v-.3c0-.4.5-.8 1-.8h.4v1H52z"/><path fill="#282828" d="M52.3 241.3v-.2c0-.3.3-.6.8-.6h.5v1h-1.2z"/><path fill="#7C7C7C" d="M53.2 241h-.5v-.3h.5v.2z"/><path d="M58 241.6h-1 1zm0 .2h-1v.2h1v-.2z"/><path fill="#6B6B6B" d="M57.5 242.3v-.2c0-.3-.3-.6-.7-.6h-.4v1h1z"/><path fill="#282828" d="M57.3 242.3v-.2c0-.2-.3-.5-.6-.5h-.4v.8h1z"/><path fill="#7C7C7C" d="M56.6 242h.3v-.2h-.4z"/><path fill="#FFF" d="M54.7 241.2h-6.4c0-.8-.4-1.8-.4-1.8h-2.4l-.3 2.3v.6H54.2v-.8h.7c0-.2 0-.3-.3-.3z"/><path fill="#181410" d="M48 239.4l-.3-.6h-1v.6h1.2z"/><path fill="#D3D3D3" d="M50.4 240.2H49v.3h1.4"/><path d="M50.3 240v-.2H49v.4h1.4v-.3z"/><path fill="#6D6D6D" d="M49 240.5l-.3.7h2l-.3-.7"/><path fill="#B6B6B6" d="M48.2 241.7s0 .2-.2.2h-1V241h1.2v.7zm4.7.3h-1.2v-.4h1v.4z"/><path fill="#181410" d="M46.4 239.8h-.6v-.2h.6v.2zm.7 0h-.5v-.2h.5v.2zm.3-.7h-.4.2zm6.7 3h-.5v-.2h.5z"/><g><path fill="#F00" d="M41.6 243.6l1 1h15.7v-1"/></g><g><path fill="#6D6D6D" d="M59 242.8H45.5l-5-.6 1.2 1.4h16.8v-.7"/><path fill="#D3D3D3" d="M59 242.8s0-.5-.5-.5l-13.2-.2-5.2-.3.5.5 5 .5H59z"/></g></g><g fill="#FFF"><path d="M176 185.8h63v.6h-63z"/><circle cx="176.2" cy="183.8" r="2.5"/><circle cx="235.4" cy="183.8" r="2.5"/><circle cx="179.2" cy="183" r="1.9"/><circle cx="240.4" cy="179.9" r="1.6"/><circle cx="186.2" cy="179.2" r="7"/><circle cx="228.4" cy="179.2" r="7"/><circle cx="194" cy="180.3" r="6.1"/><circle cx="209.2" cy="175.1" r="11.3"/><path d="M220.6 168s-.2.3-.5.3h-3s-.3-.2-.3-.4c0-.3.2-.5.4-.5h3c.4 0 .6.2.6.4zm3.6 1.7c0 .2-.3.4-.7.4h-5c-.3 0-.6 0-.6-.3 0-.2.2-.4.6-.4h5c.3 0 .6.2.6.4z"/><circle cx="225.3" cy="169.7" r=".5"/><circle cx="221.4" cy="167.9" r=".5"/><circle cx="240.1" cy="186.2" r=".3"/><path d="M176 183.8l5.6-2.5 12.4-3 16-1.6 9.3 1s2-.7 3 .7 11.8 4.8 11.8 4.8l1.4 3.2h-59.2l-.3-2.6z"/></g><g fill="#FFF"><path d="M164.2 200.5h44v.4h-44z"/><circle cx="164.4" cy="199.1" r="1.8"/><circle cx="205.7" cy="199.1" r="1.8"/><circle cx="166.5" cy="198.5" r="1.3"/><circle cx="209.2" cy="196.4" r="1.1"/><circle cx="171.3" cy="195.9" r="4.9"/><circle cx="200.8" cy="195.9" r="4.9"/><circle cx="176.8" cy="196.6" r="4.3"/><circle cx="187.4" cy="193" r="7.9"/><path d="M195.3 188s0 .3-.3.3h-2c-.2 0-.4-.2-.4-.3 0-.2.2-.3.3-.3h2c.2 0 .3 0 .3.3zm2.6 1.2c0 .2-.3.3-.6.3H194c-.3 0-.5 0-.5-.3 0 0 .2-.3.5-.3h3.4c.3 0 .5 0 .5.2z"/><circle cx="198.6" cy="189.2" r=".3"/><circle cx="195.9" cy="188" r=".3"/><circle cx="209" cy="200.7" r=".2"/><path d="M164.2 199l4-1.7 8.6-2 11-1.2 6.7 1s1.4-.7 2 .3c.8 1 8.3 3.3 8.3 3.3l1 2.3h-41.4l-.2-2z"/></g><g fill="#FFF"><path d="M234.2 224.6h87.5v.8h-87.5z"/><circle cx="234.6" cy="221.9" r="3.5"/><circle cx="316.8" cy="221.9" r="3.5"/><circle cx="238.8" cy="220.7" r="2.6"/><circle cx="323.9" cy="216.5" r="2.2"/><circle cx="248.5" cy="215.4" r="9.7"/><circle cx="307.1" cy="215.4" r="9.7"/><circle cx="259.3" cy="216.9" r="8.5"/><circle cx="280.5" cy="209.7" r="15.7"/><path d="M296.3 199.7c0 .4-.3.6-.6.6h-4.2c-.3 0-.6-.2-.6-.6 0-.3.2-.5.5-.5h4.2c.3 0 .6.2.6.5zm5 2.5c0 .3-.4.6-1 .6h-6.8c-.5 0-1-.3-1-.6s.5-.6 1-.6h7c.4 0 .8.3.8.6z"/><circle cx="302.8" cy="202.2" r=".7"/><circle cx="297.5" cy="199.7" r=".7"/><circle cx="323.5" cy="225.1" r=".4"/><path d="M234.2 222l7.8-3.6 17.3-4 22.2-2.5 13 1.4s3-1 4.3 1c1.4 1.8 16.3 6.6 16.3 6.6l1.8 4.4h-82.2l-.4-3.5z"/></g><g fill="#FFF"><path d="M157 213.4h36.8v.4H157z"/><circle cx="157.2" cy="212.3" r="1.5"/><circle cx="191.7" cy="212.3" r="1.5"/><circle cx="159" cy="211.8" r="1.1"/><circle cx="194.7" cy="210" r=".9"/><circle cx="163" cy="209.6" r="4.1"/><circle cx="187.7" cy="209.6" r="4.1"/><circle cx="167.6" cy="210.2" r="3.6"/><circle cx="176.5" cy="207.2" r="6.6"/><path d="M183 203c0 .2 0 .3-.2.3H181s-.2 0-.2-.3c0 0 0-.2.3-.2h1.8c.2 0 .3 0 .3.2zm2.2 1c0 .2-.2.3-.4.3H182c-.3 0-.4 0-.4-.2s0-.2.4-.2h2.8c.2 0 .4 0 .4.3z"/><circle cx="185.8" cy="204.1" r=".3"/><circle cx="183.6" cy="203" r=".3"/><circle cx="194.5" cy="213.7" r=".2"/><path d="M157 212.3l3.3-1.5 7.3-1.7 9.3-1 5.4.8s1.2-.5 1.8.3c.5 1 6.8 3 6.8 3l.7 1.8h-34.5l-.2-1.5z"/></g><g><path fill="#204044" d="M337.4 176c-1.4-1.8-4.2-2-6.7-1.8s-2-1.8-3.2-2c-.8-.3-1.4-.3-1.6 0-.2 0 2.8 2.3 2.8 2.3-2 .5-4 2-5.3 3 0 0-3.2-2-4.3-1.6-.4 0 3.5 2 3.5 2.5s-1.3 1.7-.5 1.6c.8 0 2-1.2 2-1.2l5 1s-1.3 2-1 2c.2 0 .7 0 1.2-.4l1-1.6c2.3-.4 6-1.6 7-3.7z"/><path opacity=".7" fill="#204044" d="M349.6 169c-1-1.7-3.2-2-5-2s-1.6-1.7-2.5-2c-.5-.2-1-.2-1.2 0l2 2c-1.5.3-3 1.3-4.3 2 0 0-2.4-2-3.3-1.6-.4 0 2.6 2 2.6 2.3 0 .5-1.2 1.3-.6 1.3.7 0 1.6-1 1.6-1l4 1.2s-1.2 1.5-1 1.6c.2 0 .6 0 1-.2l1-1.2c1.8-.2 5-1 5.8-2.4zm-7.5 39c-1-1.6-3.4-1.5-5.3-1s-1.7-1.4-2.7-1.5h-1.3c0 .3 2.5 1.8 2.5 1.8-1.5.6-3 2-4 3 0 0-2.6-1.6-3.5-1-.3 0 3 1.2 3 1.7 0 .4-.8 1.4-.3 1.3.7-.2 1.4-1.2 1.4-1.2l4 .4s-.7 1.7-.5 1.8c.2 0 .6 0 1-.5l.7-1.4c1.7-.5 4.6-1.8 5-3.4zm94.5-14.5c-.2-2-2.2-3-4-3.8s-.7-2-1.5-2.6c-.5-.3-1-.6-1.2-.5l1.2 2.7c-1.5-.3-3.4 0-4.8.3 0 0-1.5-2.7-2.5-2.7-.4 0 1.7 2.6 1.6 3-.2.5-1.6.8-1 1 .6.2 1.8-.2 1.8-.2l3.3 2.5s-1.6 1-1.4 1.2c0 0 .4.3 1 0 .3 0 1.4-.6 1.4-.6 1.6.5 4.8 1 6 0z"/><path fill="#204044" d="M425.7 185.5c-.5-2.3-3-3.5-5.2-4.2s-1-2.4-2-3c-.7-.6-1.3-.8-1.5-.7-.2 0 1.6 3.2 1.6 3.2-2-.3-4 .3-5.8.7 0 0-2-3-3.2-3-.4 0 2.3 3 2.2 3.6 0 .6-1.8 1-1 1.3.6.2 2-.5 2-.5l4 2.8s-1.7 1.3-1.5 1.5c.2.2.7.4 1.3.2l1.6-1c2 .4 6 .7 7.5-.7zM304 191c-1.2-1.5-3.4-1.3-5.4-1s-1.7-1.3-2.7-1.4c-.7 0-1.2 0-1.3.2l2.4 1.6c-1.4.6-2.8 2-3.8 3 0 0-2.7-1.5-3.6-1-.3 0 3 1.3 3 1.7.2.5-.8 1.6-.2 1.4.6 0 1.3-1.2 1.3-1.2l4 .4s-.7 1.6-.5 1.7c.2 0 .6 0 1-.4l.8-1.5c1.6-.5 4.5-1.8 5-3.5z"/><path opacity=".6" fill="#204044" d="M434.8 179c0-1.4-1-2.4-2.4-3s-.2-1.6-.7-2.2l-.7-.5c-.2 0 .4 2 .4 2-1-.3-2.4-.3-3.4-.3 0 0-.7-2-1.4-2.2-.2 0 1 2 .8 2.3s-1.2.5-.8.7c.4.2 1.3 0 1.3 0l1.8 2.2s-1.2.4-1 .5c0 0 .2.3.6.2l1-.3c1.2.5 3.4 1.2 4.4.6z"/><path opacity=".7" fill="#204044" d="M425.4 173.2c-.5-1.8-2.5-2.7-4.3-3.2s-.8-2-1.6-2.4c-.5-.3-1-.5-1.2-.4l1.4 2.5c-1.5-.2-3.3.3-4.6.7 0 0-1.7-2.4-2.6-2.3-.4 0 2 2.4 1.8 3 0 .3-1.4.8-.8 1 .6 0 1.7-.6 1.7-.6l3.4 2s-1.4 1.2-1.2 1.3c0 .2.5.3 1 0 .3 0 1.3-.8 1.3-.8 1.6.2 4.7.4 6-.8zm-107.5-3c-1.4-1.6-3.7-1.6-5.8-1.3v-.2s-1.8-1.5-2.8-1.6H308c0 .2 2.5 2 2.5 2-1.6.5-3 1.8-4.3 2.7 0 0-2.7-1.8-3.7-1.3-.4 0 3 1.6 3 2 .2.5-1 1.5-.3 1.4.6 0 1.5-1 1.5-1l4.3.6s-1 1.7-.8 1.8c.3 0 .7 0 1-.4l1-1.4c1.8-.4 5-1.6 5.7-3.4z"/><path opacity=".6" fill="#204044" d="M314 194.8c-1-1-2.8-.5-4.3 0s-1.5-.8-2.3-.7c-.5 0-1 .2-1 .4l2.2 1c-1 .6-2 1.8-2.7 2.7 0 0-2.4-.6-3 0-.3 0 2.4.5 2.6.8 0 .3-.5 1.3 0 1 .4 0 .8-1 .8-1l3.3-.3s-.4 1.4-.2 1.5c0 0 .4 0 .6-.5.3-.3.6-1.2.6-1.2 1.2-.6 3.3-2 3.5-3.5z"/><path fill="#204044" d="M381.4 168.2c-.8-2-3.3-2.8-5.6-3v-.2s-1.4-2-2.4-2.5c-.7-.4-1.3-.5-1.5-.4-.3.3 2 3 2 3-2 0-4 1-5.4 1.5 0 0-2.4-2.6-3.6-2.4-.4.2 2.7 2.7 2.7 3.2s-1.6 1.3-1 1.4c1 0 2-.8 2-.8l4.4 2s-1.4 1.5-1.2 1.6c.3 0 .7.2 1.3 0l1.4-1.3c2 0 5.8 0 7-1.8z"/><path opacity=".7" fill="#204044" d="M370.4 196.2c-1-1.7-3-2-5-2s-1.6-1.7-2.5-2c-.7-.2-1.2-.2-1.4 0l2 2c-1.4.3-3 1.3-4.3 2 0 0-2.3-2-3.3-1.6-.3 0 2.6 2 2.6 2.3 0 .4-1 1.2-.5 1.2.7 0 1.7-1 1.7-1l4 1.2s-1.3 1.5-1 1.6c0 0 .6 0 1-.2l1-1.3c1.7 0 4.8-.8 5.7-2.3zm50.4-2.8c-.5-1.8-2.7-2.6-4.6-3s-1-2-2-2.4c-.5-.3-1-.4-1.2-.3l1.6 2.5c-1.5 0-3.3.6-4.7 1 0 0-2-2.3-3-2.2-.3 0 2.2 2.4 2 2.8 0 .4-1.3 1-.7 1 .7.2 1.8-.5 1.8-.5l3.7 2s-1.4 1.2-1.2 1.3c0 0 .5.2 1 0l1.3-1c1.7.2 5 0 6-1.2z"/><path fill="#204044" d="M390 198.5c-1.3-2.2-4-2.7-6.7-2.8s-1.8-2-3-2.5c-.8-.3-1.4-.4-1.6-.2-.2.2 2.6 2.8 2.6 2.8-2 .3-4 1.6-5.7 2.5 0 0-3-2.6-4.3-2.2-.4.2 3.3 2.6 3.4 3 0 .7-1.6 1.7-.8 1.7.7 0 2-1 2-1l5 1.5s-1.5 2-1.2 2c.2 0 .8.2 1.3-.3l1.5-1.6c2.2-.2 6.3-1 7.4-3zm-40.8-3c-1.6-2.2-5-2.4-8-2h.2s-2.4-2.3-3.8-2.6c-1-.3-1.8-.3-2 0 0 .2 3.4 2.8 3.4 2.8-2.2.6-4.5 2.3-6.2 3.6 0 0-3.7-2.5-5-2-.6.3 4 2.4 4 3 .2.7-1.4 2-.5 2 1-.2 2.2-1.6 2.2-1.6l6 1.2s-1.5 2.3-1.2 2.4c.3 0 1 0 1.5-.5l1.3-2c2.7-.5 7.2-2 8.2-4.4zm59.3 1.8c-1-2.2-4-2.7-6.3-2.8s-1.8-2-3-2.5c-.7-.3-1.3-.4-1.5-.3-.2.2 2.5 2.8 2.5 2.8-2 .3-4 1.5-5.7 2.3 0 0-2.8-2.5-4-2.2-.4 0 3 2.5 3.2 3 0 .6-1.6 1.6-.8 1.5.7 0 2-1 2-1l4.8 1.8s-1.5 1.8-1.2 2c.2 0 .7 0 1.2-.4l1.4-1.4c2.2 0 6-.8 7.3-2.7zm-15.7-18.6c-1-3-4.5-4-7.7-4.5h.2s-2-3-3.3-3.6c-1-.5-2-.7-2-.5-.3.3 2.6 4 2.6 4-2.5 0-5.3 1.2-7.4 2 0 0-3.3-3.6-5-3.4-.4 0 3.8 3.6 3.7 4.3-.2.6-2.2 1.6-1.3 1.7 1 0 2.8-1 2.8-1l5.8 2.8s-2 2-1.8 2.3c.3.2 1 .3 1.7 0l2-1.8c2.7.2 7.8 0 9.6-2.3z"/><path fill="#204044" d="M382.8 185.4c-1.3-2.7-5-3.5-8-3.7s-2.2-2.8-3.7-3.3c-1-.4-1.7-.5-2-.3-.2.3 3.2 3.7 3.2 3.7-2.5.3-5.3 1.8-7.3 2.8 0 0-3.7-3.3-5.2-3-.6.2 4 3.3 4 4 0 .7-2 2-1 2s2.6-1.3 2.6-1.3l6.2 2.2s-2 2.3-1.6 2.5c.3 0 1 0 1.6-.4.5-.4 1.8-2 1.8-2 2.8 0 8-.8 9.4-3.2z"/><path fill="#173235" d="M435.8 198.8c-.4-2.3-3-3.6-5.2-4.3s-1-2.5-2-3c-.7-.6-1.3-1-1.5-.7l1.7 3.2c-2-.3-4.2.3-5.8.7 0 0-2-3-3.4-3.2-.4 0 2.3 3.2 2.2 3.7 0 .5-1.8 1-1 1.3.6.2 2-.5 2-.5l4.2 2.8s-2 1.3-1.7 1.5c.2.2.7.4 1.3 0 .4 0 1.7-1 1.7-1 2 .6 6 1 7.5-.5z"/></g></svg>