<svg id="隔离模式" xmlns="http://www.w3.org/2000/svg" viewBox="0 0 159 43.4"><style>.st0{fill:#e83828}.st2{fill:#fff}</style><path class="st0" d="M8.8 20.7c-.6 7.1 4.8 13.4 11.9 14 7.1.6 13.4-4.8 14-11.9.1-.8-.5-1.5-1.4-1.6s-1.5.5-1.6 1.4c-.4 5.5-5.3 9.6-10.7 9.1-5.5-.4-9.6-5.3-9.1-10.7s5.3-9.6 10.7-9.1c.8.1 1.5-.5 1.6-1.4.1-.8-.5-1.5-1.4-1.6-7.2-.7-13.4 4.7-14 11.8z"/><path d="M6 14.5c-4 8.7-.2 19 8.5 23s19 .2 23-8.5c.3-.8 0-1.6-.7-2-.8-.3-1.6 0-2 .7-3.3 7.2-11.9 10.4-19.1 7-7.2-3.3-10.4-11.9-7-19.1s11.9-10.4 19.1-7c.8.3 1.6 0 2-.7.3-.8 0-1.6-.7-2C20.3 2 10 5.8 6 14.5z" fill="#279440"/><path d="M6.3 6.4c-8.4 8.5-8.4 22.3.1 30.7 8.5 8.4 22.3 8.4 30.7-.1.6-.6.6-1.5 0-2.1-.6-.6-1.5-.6-2.1 0-7.3 7.3-19.2 7.4-26.5.1-7.3-7.2-7.4-19.1-.1-26.5s19.2-7.4 26.5-.1c.6.6 1.6.6 2.1 0s.6-1.5 0-2.1c-8.5-8.4-22.3-8.4-30.7.1zM58.3 31.9l14.7-.1v-9l-14.7.1v9zm5.5-6.3h3.8v3.5h-3.8v-3.5zM43.2 13.4h3.2V15h-3.1l.1 13.3s-.1 3.6 3.6 3.5h10.4L57.3 15h-3.1v-1.6h3.2v-2.7l-14.3.1.1 2.6zm9.8 4.3h.4v4.8H53v-4.8zm-2.9-4.3h.5V15h-.5v-1.6zm-2.9 4.4h.4v4.9c0 1.3-.4 1.4-.4 1.4v-6.3zm.1 7.1h1.8c1 0 1-1.4 1-1.4v-5.8h.5v7.1h2.8v.8h-6.2l.1-.7zm0 3.6h6.2v.7h-5.7c-.7 0-.5-.7-.5-.7z"/><path d="M86 25.1s1.3-.5 2.5-1c2.7-1.1 1.8-4.2 1.8-4.2L85.2 22l-1.8-6.4h7.4v-2.7l-1.3-2h-3l1.3 2H83l-.8-2.7h-5.6l.7 2.7-2.3.1h-5.8v-2.7h-5.5V13h-2.5l1.2-2h-2.8l-1.5 2.1v2.6h5.6v3h-5.5v2.7H73v-2.7h-3.8v-3h8.7l2.2 8.5s-2.4 1-3.7 1.6C73.9 27 74.7 30 74.7 30l6.1-2.7 1.2 4.6h8.8v-2.7h-3.7L86 25.1z"/><path transform="matrix(1 -.0043 .0043 1 -.087 .407)" d="M92 11.4h5v17.9h-5z"/><path d="M98.1 10.2s.1 16.2.1 18.3c0 3.1-2.8 3.4-2.8 3.4h5.2c2.3 0 3.1-2.3 3.1-3.1 0-.5-.1-18.6-.1-18.6h-5.5z"/><g><path d="M118.6 34.8c-2.2 0-4 1.8-4 4s1.8 4 4 4 4-1.8 4-4-1.8-4-4-4zm.1 7c-1.6 0-2.9-1.3-2.9-2.9 0-1.6 1.3-2.9 2.9-2.9s2.9 1.3 2.9 2.9c0 1.5-1.3 2.9-2.9 2.9zM127.6 34.8c-2.2 0-4 1.8-4 4s1.8 4 4 4 4-1.8 4-4-1.8-4-4-4zm0 6.9c-1.6 0-2.9-1.3-2.9-2.9 0-1.6 1.3-2.9 2.9-2.9 1.6 0 2.9 1.3 2.9 2.9 0 1.6-1.3 2.9-2.9 2.9zM157.2 34.7V36c-.7-.8-1.8-1.3-2.9-1.3-2.2 0-4 1.8-4 4s1.8 4 4 4c1.2 0 2.2-.5 2.9-1.3v1.3h1.1v-8h-1.1zm-2.9 6.9c-1.6 0-2.9-1.3-2.9-2.9 0-1.6 1.3-2.9 2.9-2.9 1.6 0 2.9 1.2 2.9 2.8v.2c0 1.5-1.3 2.8-2.9 2.8zM136.4 34.7c-1.2 0-2.2.5-2.9 1.3v-3.2h-1.1v10h1.1v-4.1c0-1.6 1.3-2.8 2.9-2.8 1.6 0 2.9 1.3 2.9 2.9v4h1.1v-4c.1-2.3-1.7-4.1-4-4.1zM148.4 34.7v4c0 1.6-1.3 2.9-2.9 2.9s-2.9-1.3-2.9-2.9v-4h-1.1v4c0 2.2 1.8 4 4 4s4-1.8 4-4v-4h-1.1zM113.6 40.7c-.2 0-.3.1-.4.2-.5.5-1.3.9-2.1.9-1.6 0-2.9-1.3-2.9-2.9s1.3-2.9 2.9-2.9c.8 0 1.5.3 2.1.8.1.1.2.2.4.2.3 0 .5-.2.5-.5 0-.2-.1-.3-.2-.4-.7-.7-1.7-1.2-2.8-1.2-2.2 0-4 1.8-4 4s1.8 4 4 4c1.1 0 2.1-.5 2.8-1.2.1-.1.2-.2.2-.4 0-.3-.2-.6-.5-.6z"/></g><path class="st0" d="M159 27.9c0 2-1.6 3.6-3.6 3.6l-45.3.2c-2 0-3.6-1.6-3.6-3.6l-.1-14.2c0-2 1.6-3.6 3.6-3.6l45.3-.2c2 0 3.6 1.6 3.6 3.6l.1 14.2z"/><g><path class="st2" d="M118 15.8l14-.1v-2.1l-12.9.1.5-.9h-4.1l-.5.9h-4.2v2.1h3.1l-3.5 6.7h2.2V27c0 2 1.9 2.1 1.9 2.1h2.2v-9.3h-.7l2-4zM154.2 14.6l-.6-1.9-3.7.1.7 1.8z"/><path class="st2" d="M155.2 15h-5.9l-.7-2.3h-4.5l.7 2.3h-3.2v2.1h3.8l.6 1.9h-2c-2.1 0-2.3 2.1-2.3 2.1h4.9l1 3.3s-4.3 1.8-5.6 2c-3.2.6-10.4.5-10.4.5h-5.1v-4.7h4.9v-2.1h-4.9v-3.3h-4.1v3.3h-5.3v2.1h5.3v4.7h-5.3V29l14.2-.1s8.6.3 11.4-.4c2.7-.7 5.5-2.1 5.5-2.1l.8 2.6h6.1v-2.1h-2.3l-.5-1.6 2.8-.8v-2.2l-3.4 1-.7-2.2h2c1.7-.1 2.1-2.1 2.1-2.1h-4.7l-.6-1.9h5.3l.1-2.1z"/><path class="st2" d="M133.1 24.1v1.7h7.8v-2.1h-3.1l3.3-6.3v-1.7l-3.3.1-1 1.7-.7.1 2.5-4.9h-3.7l-2.5 4.7.1 2.2h3.1z"/></g></svg>