<svg id="图层_1" xmlns="http://www.w3.org/2000/svg" viewBox="0 0 782.3 220.9"><style>.st0{fill:#fff}</style><path class="st0" d="M44.8 104.9c-3.1 36.2 23.9 68.1 60.1 71.2 36.2 3.1 68.1-23.9 71.2-60.1.4-4.2-2.7-7.9-6.9-8.2s-7.9 2.7-8.2 6.9c-2.4 27.8-26.9 48.6-54.8 46.2-27.9-2.3-48.6-26.9-46.2-54.8 2.4-27.8 26.9-48.6 54.8-46.2 4.2.4 7.9-2.7 8.2-6.9s-2.7-7.9-6.9-8.2c-36.3-3.1-68.2 23.9-71.3 60.1z"/><path d="M30.5 73.2c-20.5 44.1-1.4 96.7 42.7 117.2s96.7 1.4 117.2-42.7c1.8-3.8.1-8.3-3.7-10.1-3.8-1.8-8.3-.1-10.1 3.7-17 36.5-60.5 52.4-97 35.4s-52.4-60.5-35.4-97 60.5-52.4 97-35.4c3.8 1.8 8.3.1 10.1-3.7 1.8-3.8.1-8.3-3.7-10.1-44-20.6-96.6-1.4-117.1 42.7z" fill="#c9caca"/><path d="M32.3 32.3c-43.1 43.1-43.1 113.2 0 156.3 43.1 43.1 113.2 43.1 156.3 0 3-3 3-7.8 0-10.8s-7.8-3-10.8 0C140.6 215 80.2 215 43 177.8 5.8 140.6 5.8 80.2 43 43s97.6-37.2 134.8 0c3 3 7.8 3 10.8 0s3-7.8 0-10.8c-43.1-43-113.2-43-156.3.1z" fill="#898989"/><path class="st0" d="M586.6 181.7c-10.7 0-19.3 8.7-19.3 19.3 0 10.7 8.7 19.3 19.3 19.3s19.3-8.7 19.3-19.3c.1-10.6-8.6-19.3-19.3-19.3zm0 33.5c-7.8 0-14.1-6.3-14.1-14.1s6.3-14.1 14.1-14.1 14.1 6.3 14.1 14.1c.1 7.8-6.3 14.1-14.1 14.1zM629.6 181.7c-10.7 0-19.3 8.7-19.3 19.3 0 10.7 8.7 19.3 19.3 19.3 10.7 0 19.3-8.7 19.3-19.3 0-10.6-8.6-19.3-19.3-19.3zm0 33.5c-7.8 0-14.1-6.3-14.1-14.1s6.3-14.1 14.1-14.1 14.1 6.3 14.1 14.1-6.3 14.1-14.1 14.1zM772.6 181.7v6.1c-3.5-3.7-8.5-6.1-14.1-6.1-10.7 0-19.3 8.7-19.3 19.3 0 10.7 8.7 19.3 19.3 19.3 5.6 0 10.5-2.4 14.1-6.1v6.1h5.3v-38.7h-5.3zm-14.1 33.5c-7.8 0-14.1-6.3-14.1-14.1s6.3-14.1 14.1-14.1c7.6 0 13.8 6.1 14.1 13.6v.9c-.3 7.6-6.5 13.7-14.1 13.7zM672.4 181.7c-5.6 0-10.5 2.4-14.1 6.1v-15.6H653v48.2h5.3v-19.8c.3-7.6 6.4-13.6 14.1-13.6 7.8 0 14.1 6.3 14.1 14.1v19.3h5.3v-19.3c-.1-10.7-8.7-19.4-19.4-19.4zM729.8 181.7V201c0 7.8-6.3 14.1-14.1 14.1s-14.1-6.3-14.1-14.1v-19.3h-5.3V201c0 10.7 8.7 19.3 19.3 19.3s19.3-8.7 19.3-19.3v-19.3h-5.1zM562.1 210.1c-.8 0-1.5.4-2 1-2.6 2.6-6.1 4.1-10 4.1-7.8 0-14.1-6.3-14.1-14.1s6.3-14.1 14.1-14.1c3.9 0 7.4 1.6 10 4.1.5.6 1.2 1 2 1 1.4 0 2.6-1.2 2.6-2.6 0-.8-.4-1.5-1-2-3.5-3.5-8.3-5.7-13.7-5.7-10.7 0-19.3 8.7-19.3 19.3 0 10.7 8.7 19.3 19.3 19.3 5.3 0 10.2-2.2 13.7-5.7l-.1-.1c.6-.5 1-1.2 1-2 .1-1.3-1.1-2.5-2.5-2.5z"/><g><path class="st0" d="M296.7 160.9h71.2v-43.3h-71.2v43.3zm26.5-30.1h18.3v16.9h-18.3v-16.9zM223.9 71.3h15.6v7.9h-14.8v64.4s-.7 17.2 17.3 17.2h50.2V79.3h-15v-7.9h15.7V58.1h-69v13.2zm47.4 21h2.1v23h-2.1v-23zm-14.2-21h2.6v7.9h-2.6v-7.9zm-13.8 21h2v23.5c.1 6.5-2 6.7-2 6.7V92.3zm0 34.5h8.9c5 0 4.9-6.5 4.9-6.5v-28h2.6v34.5h13.6v4.1h-30.1v-4.1zm0 17.3h30.1v3.5h-27.7c-3.5 0-2.4-3.5-2.4-3.5z"/><path class="st0" d="M430.8 128.9s6.2-2.4 12.2-4.9c13.1-5.4 8.8-20.2 8.8-20.2L427 114.1l-8.4-31h35.7V69.9l-6.4-9.5h-14.5l6.1 9.5H416L412.2 57H385l3.5 12.9h-38.9v-13H323v12.9h-12.1l6-9.5h-13.4l-7.1 9.9V83H323.1v14.4h-26.7v13.2H368V97.5h-18.3V83.1h42.2l10.2 41.4s-11.5 4.6-17.8 7.5c-12.2 5.6-8.2 20.3-8.2 20.3l29.6-12.9 5.7 22.3H454v-13.2h-18.1l-5.1-19.6zM459.7 62.8h24.1v86.6h-24.1z"/><path class="st0" d="M489.8 56.7v88.7c0 14.8-13.8 16.3-13.8 16.3h25.4c11 0 14.9-11.1 14.9-14.8V56.8h-26.5z"/></g><path d="M782.3 143.3c0 9.5-7.7 17.2-17.2 17.2H547.5c-9.5 0-17.2-7.7-17.2-17.2V75c0-9.5 7.7-17.2 17.2-17.2h217.6c9.5 0 17.2 7.7 17.2 17.2v68.3z" fill="#e83828"/><g><path class="st0" d="M585.6 84.4h67.1v-9.9h-61.9L593 70h-19.8l-2.4 4.5h-20v9.9h14.8l-17.1 32.2h10.7v21.6c0 9.7 9.1 10.3 9.1 10.3H579v-44.6h-3.5l10.1-19.5zM759.7 79.3l-3.1-9.1h-17.7l3.1 9.1z"/><path class="st0" d="M764 81.2h-28.4l-3.3-11h-21.4l3.4 11H699v9.9h18.2l2.8 9.2h-9.6c-10 0-11.1 9.9-11.1 9.9H723l4.8 15.9s-20.6 8.5-26.8 9.6c-15.4 2.9-50 2-50 2h-24.5V115H650v-9.9h-23.4v-16h-19.8v16h-25.5v9.9h25.5v22.7h-25.5v9.9h68.2s41.5 1.4 54.9-1.8c13.2-3.1 26.5-9.9 26.5-9.9l3.8 12.4H764v-9.9h-11l-2.4-7.8 13.5-3.6v-10.8l-16.5 4.5-3.2-10.7s4 .2 9.5 0c8.3-.2 10.2-9.9 10.2-9.9h-22.6l-2.9-9.2H764v-9.7z"/><path class="st0" d="M658 124.3v8.3h37.3v-9.9h-15.1l16-30.3v-8h-15.7l-4.9 8.6h-3l11.7-23.2h-17.8l-11.7 22.6v10.4h15.3z"/></g></svg>